<svg viewBox="0 0 200 3400" xmlns="http://www.w3.org/2000/svg" xmlns:xlink="http://www.w3.org/1999/xlink"><linearGradient id="a" gradientUnits="userSpaceOnUse" x1="99.5" x2="162" y1="1540.05" y2="1540.05"><stop offset="0" stop-color="#fff"/><stop offset="1" stop-color="#0f0"/></linearGradient><linearGradient id="b" gradientTransform="matrix(1 0 0 -1 0 3400)" gradientUnits="userSpaceOnUse" x1="81.25" x2="81.25" y1="1717.7" y2="1087.4"><stop offset="0" stop-color="#fff"/><stop offset="1" stop-color="#ff0"/></linearGradient><path d="m188.05 1659.66c-1.24-1.41-5.12-.08-11.55 3.98-3.02 1.9-6.4 4.28-9.95 7-2.98 2.28-6.08 4.8-9.21 7.48.18.29.37.57.55.85a171.5846 171.5846 0 0 1 19.14-14.48c6.61-4.18 9.66-4.86 10.26-4.17s-.48 3.61-5.51 9.6a178.3888 178.3888 0 0 1 -18.65 18.52 179.8506 179.8506 0 0 1 -20.88 15.98c-6.61 4.17-9.66 4.85-10.26 4.16-1.39-1.59 5.99-12.06 22.91-27.02l-.54-.84c-13.35 11.79-25.74 25.53-23.12 28.52a1.8463 1.8463 0 0 0 1.48.55c1.92 0 5.29-1.52 10.07-4.53a181.4385 181.4385 0 0 0 21-16.06 181.3193 181.3193 0 0 0 18.75-18.63c4.89-5.82 6.74-9.49 5.51-10.91z" fill="#0f0"/><path d="m70.04 1659.66c-2.68-3.08-18.77 8.02-32.54 20.04s-26.95 26.46-24.26 29.54a1.8569 1.8569 0 0 0 1.47.55c1.93 0 5.3-1.52 10.08-4.53a174.7786 174.7786 0 0 0 19.59-14.85c-.05-.05-.1-.11-.15-.16-.18-.19-.37-.38-.55-.57a173.14 173.14 0 0 1 -19.43 14.73c-6.61 4.18-9.66 4.86-10.26 4.17-1.42-1.63 6.36-12.58 24.16-28.12 15.98-13.95 27.21-20.4 30.37-20.4a.9768.9768 0 0 1 .77.26c1.38 1.59-5.94 11.99-22.74 26.87.15.16.31.33.46.5.07.08.14.15.21.23 13.23-11.73 25.42-25.29 22.82-28.26z" fill="#ff0"/><path d="m0 844.5v1c68.9 16.6 142 40.8 200 70.9v-1.1c-58.1-30-131.2-54.1-200-70.8zm153.89 277.9c-16.47 3.98-33.89 7.75-51.89 11.1l-2.2.4c-32.3 5.9-66.4 10.3-99.8 11.8v1c34.2-1.6 68.57-6.12 101.47-12.22l2.63-.48a978.8465 978.8465 0 0 0 95.9-23v-.9c-14.15 4.15-29.65 8.32-46.11 12.3zm12.71 294.4a304.8574 304.8574 0 0 1 -63.4 22.54c.01.34.03.68.05 1.01a306.1107 306.1107 0 0 0 63.75-22.65 337.9353 337.9353 0 0 0 33-18.4v-1.2a316.1743 316.1743 0 0 1 -33.4 18.7zm-130.3 28a140.745 140.745 0 0 1 -36.3-8v1.1a135.9629 135.9629 0 0 0 36.2 7.9c5.2.5 10.6.7 16.1.7a222.7805 222.7805 0 0 0 46.99-5.26c-.02-.34-.04-.68-.05-1.02-22.01 4.68-43.42 6.33-62.94 4.58zm14.9-137.8c-15.2-6.2-33.2-8-51.2-5.4v1c17.9-2.7 35.7-.9 50.8 5.3 31.4 12.7 48.7 42.8 48.7 84.6h1c0-42.2-17.5-72.6-49.3-85.5zm70.9-863.1c-33.2-36.8-67.6-74.8-67.6-130.6 0-29.6 7.9-51.4 17-76.7 12.9-35.7 28.9-80 28.9-165v-71.6h-1v71.5c0 84.8-16 129.1-28.8 164.7-9.2 25.4-17.1 47.3-17.1 77.1 0 56.3 34.5 94.4 67.8 131.3 32.9 36.4 64 70.8 64 121 0 38.3-19.1 80.4-55.3 121.9-32.7 37.7-77.5 72.2-130 100.7v1.2c52.9-28.6 97.8-63.4 130.8-101.2 36.3-41.7 55.5-84.1 55.5-122.6.1-50.6-31.1-85.1-64.2-121.7z" fill="#fff"/><path d="m161.2 1687.6c-24.9-29.4-61.7-143.5-61.7-295.1h1c0 151.4 36.7 265.2 61.5 294.4z" fill="url(#a)"/><path d="m160.1 1985a365.3167 365.3167 0 0 1 -20.5 83.8 503.09 503.09 0 0 1 -37.4 78.4 716.0186 716.0186 0 0 1 -48.6 72.5l-6.6 8.7c-2.2 2.9-4.5 5.7-6.8 8.6l-3.4 4.3-3.4 4.2c-2.3 2.8-4.6 5.7-6.9 8.5-2.4 2.8-4.7 5.6-7 8.4s-4.7 5.6-7.1 8.4c-2.3 2.8-4.7 5.6-7.1 8.4-1.8 2-3.5 4.1-5.3 6.2v-95.9c3.8-3.1 7.6-6.2 11.3-9.4 2.6-2.1 5.1-4.4 7.6-6.6l3.8-3.3 3.7-3.4c5-4.5 9.8-9.1 14.5-13.9 9.4-9.5 18.6-19.3 27.2-29.5a378.2884 378.2884 0 0 0 45.3-66.2 302.0169 302.0169 0 0 0 28.5-75.3 285.6761 285.6761 0 0 0 6.2-40.1 277.815 277.815 0 0 0 0-40.8 277.9939 277.9939 0 0 0 -6-40.6 321.52 321.52 0 0 0 -11.8-39.6 354.7182 354.7182 0 0 0 -38.2-73.6c-3.8-5.8-7.9-11.4-12-17-2.1-2.8-4.2-5.5-6.3-8.3-2.1-2.7-4.3-5.4-6.5-8.1-7-8.5-14.3-16.7-22-24.6-2-2.1-4-4.1-6.1-6.2l.7-.7c2 2.1 4 4.2 6 6.4 7.5 8.1 14.8 16.3 21.9 24.7 2.2 2.7 4.5 5.3 6.7 8s4.4 5.4 6.5 8.2c4.3 5.5 8.5 11 12.5 16.7 16.2 22.7 30.5 46.9 41.6 72.6a325.7257 325.7257 0 0 1 23.8 80.9 302.1084 302.1084 0 0 1 3.6 42.5 360.7078 360.7078 0 0 1 -2.4 42.7z" fill="url(#b)"/><path d="m200 2735.9v276.9c-5.5 10.4-11.5 20.5-17.9 30.3a601.4669 601.4669 0 0 1 -44.3 60.8l-5.9 7.2-6 7-6 7c-2 2.3-4.1 4.5-6.1 6.8-8.2 9.1-16.4 18.1-24.7 26.8-16.7 17.6-33.9 34.3-51.4 50.5l-6.6 6.1c-2.2 2-4.4 4.1-6.6 6l-13.2 12.1c-3.7 3.4-7.5 6.7-11.2 10.1v-94.1a953.2882 953.2882 0 0 0 77-67.7l4.5-4.5c4.5-4.5 8.9-9.1 13.3-13.7 3.9-4.1 7.7-8.2 11.4-12.5 9.4-10.6 18.3-21.5 26.8-32.7 1.7-2.2 3.4-4.5 5-6.8 1.7-2.3 3.3-4.6 4.9-6.9.8-1.2 1.6-2.3 2.4-3.5 1.6-2.3 3.1-4.7 4.7-7.1l4.5-7.2c.7-1.2 1.5-2.4 2.2-3.6 2.1-3.7 4.2-7.3 6.2-11.1l3.9-7.5c.6-1.3 1.3-2.5 1.9-3.8 1.2-2.5 2.5-5.1 3.6-7.7 1.2-2.6 2.3-5.2 3.4-7.8.5-1.3 1.1-2.6 1.6-3.9 1-2.6 2-5.3 2.9-7.9.5-1.3.9-2.7 1.4-4 .9-2.7 1.7-5.4 2.5-8.1 1.4-4.7 2.6-9.5 3.7-14.3 1.4-6.2 2.4-12.5 3.2-18.8.2-1.4.4-2.8.5-4.2l.3-4.2c.2-2.8.5-5.6.5-8.4s.2-5.6.2-8.5l-.3-8.5a209.2893 209.2893 0 0 0 -4.6-33.5 232.6041 232.6041 0 0 0 -9.9-32.4l-3.1-7.9-3.5-7.7c-1.1-2.6-2.4-5.1-3.7-7.6-1.2-2.5-2.5-5.1-3.9-7.5l-4-7.4-4.3-7.3a17.3939 17.3939 0 0 0 -1.1-1.8c-.7-1.2-1.5-2.4-2.2-3.6a17.4137 17.4137 0 0 1 -1.1-1.8l-.6-.9-.6-.9a85344.1357 85344.1357 0 0 1 -2.2-3.6l-1.2-1.8-2.8-4.2-1.9-2.8c-.2-.2-.3-.5-.5-.7-1-1.5-2.1-3-3.2-4.5-.4-.6-.8-1.2-1.2-1.7-3.2-4.6-6.7-9.1-10.1-13.6a674.4184 674.4184 0 0 0 -44.3-51.2c-13.6-14.3-27.7-28.2-42.1-41.7-1.3-1.3-2.7-2.6-4.1-3.8-.4-.3-.7-.7-1.1-1l-1-1c-3.1-2.9-6.2-5.8-9.3-8.6-3.1-2.9-6.2-5.7-9.4-8.6-4.2-3.8-8.4-7.6-12.6-11.3l-2.7-2.4v-58.8l12.1 11.6c16.9 15.6 33.8 31.3 50.3 47.6l6.2 6.1 6.2 6.2 3.1 3.1c1 1 2.1 2 3.1 3l6.3 6.1c4.2 4.1 8.3 8.3 12.4 12.4 4.1 4.2 8.2 8.5 12.3 12.7 16.2 17.2 32 35.2 46.9 54.4 7.4 9.7 15 19.3 22.1 29.6.9 1.2 1.8 2.6 2.6 3.9l2.6 3.9c1.7 2.6 3.5 5.2 5.1 7.9l5 8.1z" fill="#ffd400"/><path d="m192.4 2862.9c0 2.8-.1 5.6-.2 8.5 0 2.8-.3 5.6-.5 8.4l-.3 4.2c-.1 1.4-.3 2.8-.5 4.2-.8 6.3-1.8 12.6-3.2 18.8-1.1 4.8-2.3 9.6-3.7 14.3-.8 2.7-1.6 5.4-2.5 8.1-.4 1.3-.9 2.7-1.4 4-.9 2.7-1.9 5.3-2.9 7.9-.5 1.3-1 2.6-1.6 3.9-1.1 2.6-2.2 5.2-3.4 7.8s-2.4 5.1-3.6 7.7c-.6 1.3-1.2 2.5-1.9 3.8l-3.9 7.5c-2 3.7-4.1 7.4-6.2 11.1-.7 1.2-1.4 2.4-2.2 3.6l-4.5 7.2c-1.5 2.4-3.1 4.7-4.7 7.1-.8 1.2-1.6 2.3-2.4 3.5-1.6 2.3-3.2 4.6-4.9 6.9s-3.3 4.6-5 6.8c-8.5 11.3-17.4 22.2-26.8 32.7-3.8 4.2-7.6 8.4-11.5 12.5-4.4 4.6-8.8 9.2-13.2 13.7l-4.5 4.5a934.2246 934.2246 0 0 1 -77 67.7v-84.3l3.3-2.4c2.2-1.5 4.2-3.1 6.3-4.7l6.3-4.8c2.1-1.6 4.2-3.2 6.2-4.8s4-3.3 6.1-4.9c2-1.7 4.1-3.3 6-5l5.9-5.1 5.9-5.1 5.7-5.2a480.27 480.27 0 0 0 42.4-43.2 288.156 288.156 0 0 0 32.4-47.2c1.2-2 2.1-4.1 3.1-6.1l1.5-3.1.8-1.5.7-1.5 2.7-6.2c.9-2.1 1.5-4.2 2.3-6.3a147.6544 147.6544 0 0 0 6.8-25.3c.2-1.1.5-2.1.6-3.2l.4-3.2c.3-2.1.7-4.3.8-6.4.2-2.1.4-4.3.5-6.4l.2-6.5a135.2421 135.2421 0 0 0 -2.5-26.2 197.8565 197.8565 0 0 0 -7.2-26.4l-2.4-6.6-2.7-6.6c-.8-2.2-2-4.4-2.9-6.6-1-2.2-2-4.4-3.1-6.6a337.1244 337.1244 0 0 0 -31.9-51.5c-12.8-16.4-26.8-32.4-41.6-48-3.8-3.9-7.5-7.8-11.3-11.6s-7.6-7.7-11.5-11.5c-7.7-7.7-15.8-15-24.1-22.2-1.9-1.7-3.8-3.3-5.7-5v-56.3l2.7 2.4c4.2 3.8 8.4 7.5 12.6 11.3 3.1 2.8 6.3 5.7 9.4 8.6s6.2 5.7 9.3 8.6c.7.7 1.4 1.3 2.1 2 1.4 1.3 2.7 2.5 4.1 3.8 14.4 13.6 28.5 27.4 42.1 41.7 15.5 16.4 30.5 33.4 44.3 51.2 3.4 4.5 6.9 9 10.1 13.6.4.6.8 1.1 1.2 1.7 1.1 1.5 2.1 3 3.2 4.5.2.2.3.5.5.7l1.9 2.8 2.8 4.2 1.2 1.8a17.4007 17.4007 0 0 1 1.1 1.8 85344.1357 85344.1357 0 0 1 2.2 3.6 17.3939 17.3939 0 0 1 1.1 1.8c.8 1.2 1.5 2.4 2.2 3.6.4.6.7 1.2 1.1 1.8l4.3 7.3 4 7.4c1.4 2.5 2.6 5 3.9 7.5 1.2 2.5 2.6 5 3.7 7.6l3.5 7.7 3.1 7.9a228.5516 228.5516 0 0 1 9.9 32.4 221.2691 221.2691 0 0 1 4.6 33.5z" fill="#00b4ff"/><path d="m200 2786.1v164.9q-2.25 6.15-4.8 12.3a364.2571 364.2571 0 0 1 -35.1 63.9 555.8973 555.8973 0 0 1 -43.8 56.4c-31.3 35.4-65.1 67.7-100.4 97.9-5.3 4.5-10.5 9-15.9 13.5v-89c8.4-6.4 16.6-12.9 24.7-19.5 2.1-1.7 4.2-3.4 6.3-5.2l6.3-5.2c4.2-3.5 8.2-7.1 12.3-10.7 2-1.8 4.1-3.6 6.1-5.4l5.9-5.6 5.9-5.5 5.8-5.7a482.8387 482.8387 0 0 0 42.8-47.6 310.9807 310.9807 0 0 0 33.3-52.8 202.8121 202.8121 0 0 0 11.4-28.2 182.2792 182.2792 0 0 0 6.9-29.2c.2-1.2.5-2.5.6-3.7l.4-3.7c.2-2.5.6-4.9.6-7.4.1-2.5.3-5 .3-7.5v-7.5a178.0032 178.0032 0 0 0 -3.5-29.9 214.6867 214.6867 0 0 0 -8.5-29.4l-2.8-7.2-3.1-7.2c-1-2.4-2.2-4.7-3.3-7.1s-2.2-4.7-3.5-7.1a364.3963 364.3963 0 0 0 -34.5-54.1c-13.3-17.1-27.8-33.6-42.9-49.6-3.8-4-7.6-8-11.5-11.9s-7.8-7.9-11.8-11.7c-4-3.9-7.9-7.8-12-11.5l-6.1-5.7-6.2-5.6c-6.6-5.9-13.2-11.9-19.9-17.7v-57.2c16.2 14.6 32.4 29.3 48.2 44.5 16.4 15.9 33 31.9 48.9 48.6 15.9 16.8 31.2 34.3 45.6 52.8 7.1 9.3 14.3 18.7 20.9 28.6 1.7 2.4 3.3 5 4.9 7.4 1.6 2.5 3.3 5 4.8 7.6l4.6 7.7 4.4 7.9c1.5 2.6 2.8 5.3 4.2 8 1.3 2.7 2.8 5.4 4 8.2l3.8 8.3 3.5 8.5c.9 1.8 1.5 3.5 2.2 5.3z" fill="#00b400"/><g fill="#fff"><path d="m98.71 1132.55c-.78.14-1.51.27-2.23.4a695.9154 695.9154 0 0 0 -96.48-19.85v-1a690.0506 690.0506 0 0 1 98.71 20.45z"/><path d="m200 1176.3v1.2c-26.52-16.81-58.23-30.78-94.85-42.01.77-.15 1.53-.29 2.36-.44 35.66 11.03 66.52 24.87 92.49 41.25z"/></g></svg>