<svg version="1.1" id="Layer_1" xmlns="http://www.w3.org/2000/svg" x="0" y="0" viewBox="0 0 200 6180" style="enable-background:new 0 0 200 6180" xml:space="preserve"><style>.st1{opacity:.5}.st2{fill:#ffd400}.st3{fill:#00b4ff}.st4{fill:#00b400}</style><path style="fill:none" d="M0 0h200v6180H0z"/><g class="st1"><path class="st2" d="M200 882.8v80.5c-6.6 2.7-13.3 5.4-19.9 8.1-14.6 6.2-29 12.6-43.3 19.4-6.1 2.9-12.2 5.9-18.3 8.9-4 2-8 4.1-12 6.2-4 2.1-8 4.2-12 6.4s-7.9 4.4-11.8 6.6c-29.1 16.6-57 35.4-82.7 56.9V966.2c4.3-2.5 8.5-5.1 12.9-7.3l13.6-7.3 6.8-3.6 6.8-3.3c36.5-18.1 73.2-32.7 109.6-45.5 5.8-2 11.6-4 17.5-5.9 11-3.7 21.9-7.2 32.8-10.5z"/><path class="st3" d="M200 963.3v85.8c-26.4 13.8-51.6 28.4-74.8 44.1l-5 3.3-4.8 3.5-9.5 6.9c-3.2 2.2-6.2 4.7-9.2 7.1l-9 7.1c-1.5 1.2-2.9 2.5-4.4 3.7l-4.3 3.7c-2.8 2.5-5.8 4.9-8.6 7.4l-8.2 7.8-4.1 3.8c-1.4 1.3-2.6 2.7-4 4-6.5 6.6-12.8 13.4-19 20.4-11.9 13.5-23.2 27.8-34.4 43.1l-.9 1.2v-140.3c25.7-21.5 53.6-40.3 82.7-56.9 3.9-2.2 7.9-4.5 11.8-6.6 4-2.2 7.9-4.3 12-6.4 4-2.1 8-4.2 12-6.2 6.1-3.1 12.2-6 18.3-8.9 14.3-6.8 28.8-13.2 43.3-19.4 6.8-2.9 13.5-5.6 20.1-8.2z"/><path class="st4" d="M199.9 922.5h.1v82.9c-1.6.7-3.1 1.4-4.7 2.1-31.8 14.7-62.5 30.7-91.4 48.6-28.8 17.9-55.7 37.6-79.8 60.2-5.5 5.1-10.9 10.3-16.1 15.6-2.7 2.7-5.3 5.5-8 8.2v-121.2l5.2-3.6c2-1.4 4-2.8 6.1-4.1l12.4-7.8c4.1-2.6 8.2-5.2 12.5-7.6l12.6-7.2 6.3-3.6 6.4-3.3c34-18 68.7-33.1 103.5-46.5 11.6-4.4 23.2-8.6 34.9-12.7z"/></g><path class="st2" d="M200 329.8v262.3l-5.5-4.1c-2.3-1.7-4.5-3.3-6.8-5.1l-13.4-10.4-6.7-5.2-6.6-5.4-13-10.7c-4.4-3.6-8.6-7.3-12.9-11l-6.4-5.5c-2.1-1.8-4.3-3.7-6.4-5.6l-12.6-11.3-6.3-5.7-6.2-5.8-12.4-11.6c-4.1-3.9-8.1-7.9-12.1-11.8l-6-5.9-3-3-3-3-11.9-12c-4-4-7.8-8.1-11.7-12.3l-11.6-12.4-11.3-12.6-5.6-6.3c-1.9-2.1-3.7-4.3-5.5-6.4-1-1.2-2.1-2.4-3.1-3.6V156.9c3.7 4.4 7.4 8.7 11 13 3.2 3.7 6.5 7.4 9.8 11s6.6 7.2 10.1 10.8l10.2 10.6c3.5 3.5 7 7 10.5 10.4 6.9 7 14.2 13.7 21.3 20.4 3.6 3.4 7.3 6.6 11 9.9 3.7 3.3 7.3 6.6 11.1 9.7l11.4 9.5 2.8 2.4 2.9 2.3 5.8 4.6 5.8 4.6c1.9 1.5 3.8 3.1 5.8 4.5l11.8 8.9c7.7 6 15.9 11.6 23.9 17.2l12.2 8.2c4.1 2.7 8.1 5.5 12.3 8.1l10.3 6.8z"/><path class="st3" d="M200 592.1v330.5l-.1-.1-.9-.7-4.1-3.6-16.2-14.4c-2.7-2.4-5.4-4.8-8-7.2l-3.6-3.3-4.3-4c-5.2-5-10.5-9.6-15.7-14.4-5.2-4.8-10.3-9.7-15.4-14.6l-7.6-7.3c-2.5-2.4-5.1-4.9-7.6-7.4l-14.9-14.9-7.4-7.4-7.2-7.6-14.3-15.2c-2.4-2.5-4.7-5.1-7-7.7l-7-7.7-6.9-7.7c-2.3-2.5-4.7-5-7-7.6l-13.7-15.3-6.8-7.6-6.6-7.8-13.1-15.5C3 721.8 1.5 719.9 0 718V405.4c1 1.2 2.1 2.4 3.1 3.6 1.8 2.1 3.7 4.3 5.5 6.4l5.6 6.3 11.3 12.6 11.6 12.4c3.9 4.1 7.7 8.3 11.7 12.3l11.8 12.1 3 3 3 3 6 5.9c4 3.9 8 7.9 12.1 11.8l12.4 11.6 6.2 5.8 6.3 5.7 12.6 11.3c2.1 1.9 4.2 3.7 6.4 5.6l6.4 5.5c4.3 3.7 8.5 7.4 12.9 11L161 562l6.6 5.4 6.7 5.2 13.4 10.4c2.2 1.8 4.5 3.4 6.8 5.1l5.5 4z"/><path class="st4" d="M200 452v297.5l-6-4.8c-2.5-2-4.9-3.9-7.3-6l-14.5-12.2-7.2-6.1-7.1-6.2-14.1-12.5c-2.4-2.1-4.6-4.2-6.9-6.3L130 689c-18.4-16.8-36.3-34-53.8-51.7-4.4-4.4-8.6-8.9-12.9-13.4l-6.4-6.7c-2.1-2.2-4.3-4.4-6.4-6.7L38.2 597l-6.2-6.8-6.1-7-12.1-13.9-12-14-1.8-2.2V273.8c2.2 2.5 4.3 5 6.5 7.5 3.4 4 7 7.9 10.5 11.8s7 7.8 10.7 11.6l10.9 11.4 2.7 2.9 2.8 2.8 5.6 5.6 5.6 5.6c1.9 1.9 3.7 3.7 5.6 5.5l11.4 10.9C112 386.9 154.8 421.2 200 452z"/><g class="st1"><path class="st2" d="M200 1596.5v147.2c-25.6 10.5-50.8 22.1-75.3 35-38.7 20.3-76 43.2-111.6 68.5-4.4 3.1-8.7 6.2-13 9.4v-202.5c16.3-6.9 32.8-13.5 49.4-19.6 5.8-2.1 11.6-4.2 17.5-6.3 33.4-11.6 67.3-21.6 101.6-29.8 9.9-2.4 19.9-4.6 29.9-6.7l1.5 4.8z"/><path class="st3" d="M124.7 1778.6c24.6-12.8 49.7-24.5 75.3-35v179l-.1.1c-28.7 22.5-55.8 46.9-81.1 73.1-20.9 21.6-40.7 44.4-59.1 68.1-3.7 4.8-7.4 9.6-11 14.4-10.7 14.4-20.8 29-30.3 43.8-5.3 8.2-10.4 16.5-15.2 24.8-1.1 1.8-2.1 3.6-3.2 5.4v-295.9c4.3-3.2 8.7-6.3 13-9.4 35.6-25.2 72.9-48.1 111.7-68.4z"/><path class="st4" d="M139.8 1685.4c19.8-7.3 39.9-14 60.2-20v162.8c-12.8 7.2-25.3 14.6-37.7 22.5-33.7 21.4-65.9 45-96.4 70.8-23 19.4-45 39.9-65.9 61.5v-233.4c28.3-15.7 57.4-30.1 87-43.1 17.4-7.5 35-14.6 52.8-21.1z"/></g><g class="st1"><path class="st2" d="M200 2653.8v227.5l-2 .9c-26.3 12.8-49.9 25.5-72.6 38.4-22.7 12.8-44.3 25.8-65.5 38.8-20.5 12.6-40.4 25.3-60 38.1v-255.6l8.7-4.5c17.6-9.1 35.9-18.3 55.9-27.8 10-4.8 20.5-9.7 31.6-14.6l12.5-5.6 13.4-5.8 6.7-2.9 3.5-1.5 3.7-1.5 14.7-5.9 3.9-1.5 4.1-1.6 8.2-3.1 8.2-3.1 9.2-3.3 9.2-3.2 4.6-1.6 2-.6z"/><path class="st3" d="M200 3418.3v333.1c-17.9 19.7-35.8 39.6-53.5 59.7-20.2 22.8-40.3 45.8-60 68.8-7.4 8.6-14.8 17.2-22.1 25.9-13.4 15.8-26.6 31.6-39.7 47.4-8.4 10.1-16.6 20.2-24.7 30.2v-378.1c25-24.5 50.3-48.8 75.6-72.8 15.7-14.8 31.3-29.6 47.1-44.1 15.7-14.6 31.5-29 47.3-43.3 10-9 20-17.9 30-26.8z"/><path class="st4" d="M200 2881.3v537c-10 8.9-20 17.8-30 26.8-15.8 14.3-31.6 28.7-47.3 43.3-15.8 14.6-31.4 29.3-47.1 44.1-25.3 24-50.6 48.3-75.6 72.8v-608c19.6-12.8 39.5-25.5 60-38.1 21.1-13 42.8-25.9 65.5-38.8 22.7-12.8 46.3-25.6 72.6-38.4l1.9-.7z"/></g><path class="st2" d="M200 4021.5v1017.7c-1.1-1.2-2.1-2.5-3.2-3.8-18.9-22.5-37.6-45.3-55.9-68.4-30.8-38.8-60.9-78.2-90.2-118.2-1.7-2.2-3.3-4.5-4.9-6.7l-11.6-15.9c-3.8-5.3-7.7-10.6-11.5-15.9l-22.7-32V3764.4c11.5 15.9 23.2 31.9 35 47.8 16.9 22.7 34 45.3 51.4 67.8 11.8 15.3 23.7 30.6 35.8 45.8 25.5 32.2 51.5 64.1 77.8 95.7z"/><path class="st3" d="M200 5039.2V6172c-38.1-31.5-75-64.4-110.8-98.5-31.2-29.8-60.9-59.7-89.2-89.7V4778.3l22.7 32c3.8 5.4 7.6 10.6 11.5 15.9l11.6 15.9c1.6 2.2 3.3 4.5 4.9 6.7 29.3 40 59.4 79.4 90.2 118.2 18.3 23 37 45.8 55.9 68.4 1.1 1.3 2.1 2.5 3.2 3.8z"/><path class="st4" d="M200 4495.8v1117.1c-1-1-2-2.1-3-3.1-43.6-45-84.5-90.7-123.5-137L44.7 5438c-9.4-11.7-18.7-23.4-28-35.1-2.3-2.9-4.7-5.8-7-8.8l-6.8-8.8-2.9-3.8V4229.3c15.6 22.4 31.4 44.6 47.4 66.7 29 40.2 58.6 79.8 88.6 118.8 21.1 27.3 42.4 54.3 64 81z"/><path class="st2" d="M200 1325v189.8c-13.4-7.6-26.4-15.9-38.9-24.9-22.2-16-43.3-33.6-63-52.6s-38.3-39.1-55.6-60.3c-15.1-18.3-29.2-37.3-42.5-56.9v-201.6c2.5 4.5 5.2 9 8 13.4.2.4.4.7.7 1.1 8.4 13.3 17.3 26.3 26.7 38.9 4.6 6.2 9.3 12.2 14.2 18.2 29.5 36.6 63 69.9 99.7 99.3 9 7.1 18 13.9 27.1 20.2 7.8 5.4 15.7 10.6 23.6 15.4z"/><path class="st3" d="M200 1514.8v204.5c-14.6-6.9-28.9-14.6-42.8-23-5.8-3.6-11.6-7.2-17.4-11-25.8-17-50.2-36.1-72.9-57.1-.9-.8-1.8-1.7-2.7-2.5-23-21.5-44.4-44.6-64.2-69V1320c13.3 19.6 27.5 38.6 42.5 56.9 17.3 21.2 35.9 41.3 55.6 60.3s40.7 36.6 63 52.6c12.5 9.1 25.5 17.4 38.9 25z"/><path class="st4" d="M200 1416.3v200.3c-1.8-1-3.6-1.9-5.4-2.9-8.8-4.8-17.5-9.9-26-15.2-19.5-12.2-38.2-25.8-55.9-40.7-24-20.2-46.5-42.1-67.3-65.6-16-18-31.1-36.8-45.3-56.3v-222.4c.3.5.6.9.9 1.4 0 0 0 .1.1.1 27.4 42.6 59.2 82.2 94.9 118.1 17.3 17.5 35.8 33.9 55.1 49.2 15.5 12.3 31.9 23.7 48.9 34z"/><path class="st2" d="M200 2159.9V2458c-1.3-.7-2.6-1.3-3.8-2-1-.5-2-1.1-3.1-1.6-.4-.2-.8-.4-1.1-.6-2.2-1.2-4.5-2.4-6.7-3.6-1-.5-2-1.1-3-1.7-.9-.5-1.9-1.1-2.8-1.6-.4-.2-.8-.5-1.2-.7-1.1-.6-2.3-1.3-3.4-1.9-1.6-.9-3.2-1.9-4.8-2.8-1.6-1-3.2-1.9-4.8-2.9s-3.2-1.9-4.8-2.9c-1.3-.8-2.7-1.7-4-2.5-1.9-1.2-3.9-2.5-5.8-3.7-1-.6-2-1.3-3-2-.5-.3-.9-.6-1.4-.9-25-16.5-49-34.5-71.8-53.8-22.9-19.2-44.9-39.6-65.8-60.9-1.3-1.3-2.6-2.7-3.9-4s-2.6-2.7-3.9-4c-.3-.3-.5-.6-.8-.8v-296.8c3.8 4 8 8.5 12.4 13.1 6.8 7.1 14.3 14.6 22.3 22.1 7.9 7.5 16.3 15.1 25 22.6.1.1.1.1.2.1 17.6 15.1 36.5 30 56.1 43.9s39.8 27 60.3 38.8c7.8 4.5 15.7 8.8 23.6 13z"/><path class="st3" d="M200 2458v325.8c-8.2-3.2-16.4-6.7-24.5-10.3-24-10.8-47.4-23.1-69.8-36.8-14-8.6-27.7-17.6-41.1-27.1-6-4.2-11.8-8.6-17.7-13-16.7-12.6-32.2-25.5-46.9-38.5V2303l.8.8c1.3 1.4 2.6 2.7 3.9 4s2.6 2.7 3.9 4c21 21.3 42.9 41.7 65.8 60.9 22.9 19.3 46.9 37.2 71.8 53.8.4.3.9.6 1.4.9 1 .7 2 1.3 3 2 1.9 1.2 3.9 2.5 5.8 3.7 1.3.8 2.7 1.7 4 2.5 1.6 1 3.2 2 4.8 2.9 1.6 1 3.2 1.9 4.8 2.9s3.2 1.9 4.8 2.8c1.1.7 2.3 1.3 3.4 1.9.4.2.8.5 1.2.7.9.5 1.9 1.1 2.8 1.6 1 .6 2 1.1 3 1.7 2.2 1.2 4.4 2.4 6.7 3.6.4.2.8.4 1.1.6 1 .5 2 1.1 3.1 1.6 1.3.8 2.6 1.4 3.9 2.1z"/><path class="st4" d="M200 2301.4v319.3c-11.8-5.4-23.4-11.2-34.8-17.4-34.9-19.1-65.6-40.4-94-62.8-24.9-19.8-48.7-40.9-71.2-63.3v-333.6c1 1.1 2.1 2.2 3.2 3.4 9.4 10 19.2 19.9 29.1 29.5 19.3 18.6 39.4 36.2 60.2 52.8 10.4 8.3 20.9 16.3 31.5 24s21.3 15 32.2 22.1c14.2 9.3 28.8 18 43.8 26z"/></svg>