<svg xmlns="http://www.w3.org/2000/svg" xmlns:xlink="http://www.w3.org/1999/xlink" viewBox="0 0 200 6774.952"><defs><style>.a{fill:none;}.b{opacity:0.5;}.c,.g{fill:#ffd400;}.d,.f{fill:#00b4ff;}.e,.h{fill:#00b400;}.f,.g,.h,.i,.k{fill-rule:evenodd;}.i,.j{fill:#fff;}.k{fill:#ff640a;}.l{clip-path:url(#a);}</style><clipPath id="a"><rect class="a" y="2225.053" width="200" height="1000.563"/></clipPath></defs><g class="b"><path class="c" d="M200,882.77v80.49q-9.96,3.975-19.86,8.11-21.855,9.24-43.32,19.39-9.18,4.38-18.27,8.94-6.045,3.045-12.05,6.2t-11.95,6.4q-5.955,3.255-11.84,6.62C53.63,1035.54,25.7,1054.3,0,1075.82V966.24c4.28-2.51,8.54-5.08,12.89-7.32l13.63-7.29,6.81-3.62,6.85-3.35c36.52-18.09,73.18-32.73,109.56-45.5q8.73-3.03,17.45-5.9,16.44-5.475,32.81-10.49Z"/><path class="d" d="M200,963.26v85.78a766.8,766.8,0,0,0-74.76,44.13l-4.98,3.3-4.75,3.45-9.51,6.87c-3.23,2.23-6.18,4.68-9.2,7.06l-9.04,7.12c-1.54,1.15-2.92,2.45-4.37,3.68l-4.3,3.73c-2.84,2.49-5.77,4.89-8.55,7.43l-8.19,7.76-4.09,3.84c-1.38,1.27-2.63,2.69-3.96,4.02-19.35,19.54-37.02,40.98-54.3,64.69v-140.3c25.7-21.52,53.63-40.28,82.71-56.9q5.9-3.36,11.84-6.62t11.95-6.4q6-3.15,12.05-6.2,9.09-4.575,18.27-8.94,21.435-10.185,43.32-19.39,9.9-4.14,19.86-8.11Z"/><path class="e" d="M200,922.46v82.9q-2.34,1.05-4.66,2.12c-31.76,14.73-62.52,30.69-91.37,48.56-28.85,17.89-55.69,37.63-79.85,60.16Q11.685,1127.69,0,1140.05v-121.2l5.24-3.59c2.03-1.37,4.01-2.81,6.1-4.07l12.37-7.76c4.13-2.57,8.23-5.22,12.46-7.55l12.6-7.18,6.29-3.58,6.39-3.33c33.95-18.02,68.65-33.1,103.49-46.53q17.445-6.63,34.94-12.76A.564.564,0,0,1,200,922.46Z"/></g><path class="c" d="M200,329.8V592.07l-5.51-4.09c-2.26-1.68-4.55-3.34-6.76-5.1l-13.36-10.4-6.68-5.2-6.56-5.35-13.12-10.71c-4.37-3.58-8.6-7.31-12.91-10.96l-6.43-5.5c-2.15-1.84-4.3-3.66-6.39-5.56l-12.62-11.29-6.3-5.66-6.18-5.79L84.82,494.89c-4.09-3.89-8.09-7.88-12.13-11.81l-6.05-5.93-3.03-2.96-2.96-3.03L48.82,459.05c-3.99-4-7.81-8.15-11.67-12.27L25.59,434.4,14.3,421.78l-5.64-6.31c-1.88-2.11-3.68-4.28-5.53-6.41-1.05-1.21-2.1-2.42-3.13-3.64V156.9c3.66,4.36,7.38,8.69,11.03,13.02,3.18,3.71,6.53,7.35,9.77,11.02,3.27,3.65,6.59,7.24,10.06,10.78L41.1,202.34c3.45,3.51,7.02,6.96,10.5,10.43,6.89,6.97,14.24,13.67,21.33,20.43,3.58,3.36,7.32,6.63,10.95,9.94,3.65,3.3,7.3,6.57,11.14,9.71l11.36,9.48,2.83,2.36,2.9,2.31,5.79,4.61,5.77,4.6c1.92,1.53,3.81,3.08,5.79,4.55l11.75,8.93c7.72,5.99,15.87,11.6,23.86,17.23l12.23,8.19c4.08,2.72,8.09,5.46,12.26,8.05Z"/><path class="d" d="M200,592.07V922.6l-.12-.1-.86-.73-4.07-3.59L178.77,903.8c-2.68-2.4-5.38-4.76-8.01-7.2l-3.57-3.34-4.29-4.01c-5.18-4.95-10.5-9.65-15.74-14.43-5.22-4.79-10.3-9.72-15.43-14.57l-7.65-7.31c-2.54-2.43-5.09-4.85-7.56-7.36l-14.85-14.89-7.37-7.44-7.21-7.59L72.78,800.51c-2.4-2.5-4.7-5.11-7.02-7.67l-6.95-7.71-6.92-7.69c-2.34-2.51-4.7-4.99-6.97-7.57l-13.68-15.3-6.8-7.64-6.64-7.78L4.59,723.62Q2.265,720.86,0,718.07V405.42c1.03,1.22,2.08,2.43,3.13,3.64,1.85,2.13,3.65,4.3,5.53,6.41l5.64,6.31L25.59,434.4l11.56,12.38c3.86,4.12,7.68,8.269,11.67,12.269l11.84,12.11,2.95,3.03,3.03,2.96,6.05,5.93c4.04,3.93,8.04,7.92,12.13,11.81l12.36,11.57,6.18,5.79,6.3,5.66,12.62,11.29c2.09,1.9,4.24,3.72,6.39,5.56l6.43,5.5c4.31,3.65,8.54,7.38,12.91,10.96l13.12,10.711,6.56,5.35,6.68,5.2,13.36,10.4c2.21,1.76,4.5,3.42,6.76,5.1Z"/><path class="e" d="M200,451.97V749.51l-6.01-4.81c-2.47-1.97-4.93-3.94-7.33-5.99L172.2,726.55l-7.2-6.08-7.07-6.23-14.08-12.45c-2.36-2.06-4.62-4.22-6.92-6.33l-6.88-6.38q-27.645-25.245-53.75-51.66c-4.37-4.38-8.59-8.91-12.89-13.35l-6.4-6.69c-2.14-2.23-4.28-4.44-6.35-6.74L38.17,597l-6.21-6.82-6.09-6.95L13.74,569.35,1.85,555.3,0,553.12V273.81c2.17,2.51,4.33,5.01,6.47,7.53,3.42,3.98,7.02,7.85,10.51,11.78,3.52,3.9,6.99,7.83,10.68,11.61l10.89,11.41,2.71,2.85,2.79,2.8,5.58,5.58,5.56,5.57c1.86,1.86,3.68,3.74,5.6,5.54l11.38,10.89A1029.814,1029.814,0,0,0,200,451.97Z"/><path class="c" d="M200,1514.21v940.15H100c.02-58.06-5.23-115.95-11.49-173.62-3.12-28.85-6.47-57.67-9.4-86.53s-5.44-57.79-6.72-86.77a738.233,738.233,0,0,1,.96-86.99c.4-7.24,1.32-14.44,2.04-21.66.04-.45.09-.9.13-1.35.19-1.81.44-3.6.69-5.4.2-1.35.39-2.69.58-4.04l1.53-10.77c.6-3.57,1.29-7.14,1.93-10.71l.98-5.35.49-2.67.59-2.66,2.4-10.61,1.21-5.3,1.44-5.25a399.739,399.739,0,0,1,31.09-81.1l1.2-2.44,1.33-2.38,2.65-4.75,5.31-9.5,5.41-9.43c1.73-3.19,3.53-6.34,5.17-9.58,3.41-6.4,6.49-12.97,9.49-19.58,2.9-6.64,5.66-13.36,8.11-20.18,2.41-6.84,4.65-13.75,6.52-20.76q1.4-5.25,2.57-10.57.6-2.655,1.12-5.32c.17-.89.35-1.78.51-2.67s.32-1.78.48-2.68c.26-1.48.49-2.95.72-4.43s.43-2.96.62-4.44q.435-3.33.75-6.68c.08-.74.14-1.49.21-2.23q.18-2.236.33-4.47a208.977,208.977,0,0,0,.29-21.09,203.176,203.176,0,0,0-6.36-42.97c-.23-.88-.47-1.75-.71-2.63-.27-.98-.55-1.97-.83-2.95-.36-1.22-.72-2.44-1.1-3.66s-.76-2.43-1.16-3.64c-.34-1.04-.68-2.08-1.04-3.11-.47-1.38-.95-2.75-1.45-4.12-.7-1.92-1.42-3.82-2.17-5.72-.99-2.54-2.04-5.05-3.12-7.54-.73-1.66-1.47-3.32-2.24-4.96-.38-.82-.77-1.64-1.16-2.46-12.44-26.25-29.21-50.22-47.65-72.57q-5.2-6.3-10.58-12.43-3.585-4.1-7.24-8.12t-7.36-8.01c-1.58-1.7-3.18-3.39-4.78-5.08l-2.27-2.39c-.9-.95-1.81-1.9-2.73-2.84-.87-.91-1.75-1.82-2.63-2.72q-5.085-5.265-10.27-10.45-5.76-5.791-11.57-11.51c-14.18-13.98-28.58-27.73-42.82-41.66v-98.28c.71.82,1.44,1.63,2.17,2.44,4.17,4.7,8.55,9.42,13.09,14.17l3.43,3.57c.57.61,1.17,1.18,1.79,1.74l1.84,1.7,7.51,6.82c10.14,9.11,20.74,18.33,31.61,27.74l4.09,3.54,4.24,3.44,8.55,6.94q8.595,6.988,17.32,14.22,8.73,7.215,17.55,14.79,4.41,3.765,8.83,7.65c2.97,2.56,6.06,5.06,9.09,7.64,12.17,10.3,24.39,21.23,36.5,33.07q9.075,8.9,18.04,18.56c1.51,1.59,2.94,3.27,4.5,4.87,1.53,1.6,3.06,3.24,4.58,4.9,1.77,1.91,3.53,3.86,5.27,5.83Z"/><path class="d" d="M170.95,1711.49q-.15,2.235-.33,4.47c-.07.74-.13,1.49-.21,2.23q-.315,3.345-.75,6.68c-.19,1.48-.39,2.96-.62,4.44s-.46,2.96-.71,4.43c-.15.9-.32,1.79-.49,2.68s-.34,1.78-.51,2.67q-.525,2.67-1.12,5.32-1.17,5.31-2.57,10.57c-1.87,7.01-4.11,13.92-6.52,20.76-2.45,6.82-5.21,13.54-8.11,20.18-3,6.61-6.08,13.18-9.49,19.58-1.64,3.24-3.44,6.39-5.17,9.58l-5.41,9.43-5.31,9.5-2.65,4.75-1.33,2.38-1.2,2.44a399.761,399.761,0,0,0-31.09,81.1l-1.44,5.25-1.21,5.3-2.4,10.61-.59,2.66-.49,2.67-.98,5.35c-.64,3.57-1.33,7.14-1.93,10.71L76.79,1988c-.19,1.35-.38,2.69-.58,4.04-.25,1.8-.49,3.59-.69,5.4-.04.45-.09.9-.13,1.35-.72,7.22-1.64,14.42-2.04,21.66a738.238,738.238,0,0,0-.96,86.99c1.28,28.98,3.8,57.9,6.72,86.77s6.28,57.68,9.4,86.53c6.26,57.67,11.51,115.56,11.49,173.62H0V1762.01l1.9-2.26.61-.72a3.576,3.576,0,0,1,.53-.57l.73-.569,1.48-1.151,2.96-2.3c1.88-1.52,3.89-3.07,5.7-4.59l2.63-2.38,2.51-2.36,1.27-1.189,1.21-1.171,2.44-2.349c3.12-3.11,6.18-6.21,9.01-9.26,2.79-3.041,5.53-6.08,8-9.07s4.81-5.97,7.02-8.94l1.58-2.23c.55-.76,1-1.49,1.53-2.24.24-.38.55-.76.74-1.14l.62-1.13c.43-.76.86-1.53,1.23-2.28a91.94,91.94,0,0,0,4.31-9.34,81.855,81.855,0,0,0,5.23-20.96l.28-2.94.17-3.01a50.129,50.129,0,0,0-.05-6.25,116.887,116.887,0,0,0-1.87-13.17,165.558,165.558,0,0,0-8.93-29.21c-1.03-2.56-2.1-5.14-3.27-7.75-.56-1.3-1.16-2.61-1.78-3.92-.59-1.34-1.29-2.58-1.98-3.88q-4.14-7.71-8.92-15.6c-6.39-10.51-13.56-21.19-21.31-31.98-1.96-2.69-3.87-5.44-5.95-8.09q-3.135-3.945-6.37-7.91c-1.08-1.33-2.17-2.65-3.26-3.98v-107.26c14.24,13.93,28.64,27.68,42.82,41.66q5.805,5.715,11.57,11.51,9.06,9.088,17.9,18.4c1.6,1.69,3.2,3.38,4.78,5.08q3.705,3.975,7.36,8.01t7.24,8.12q5.37,6.135,10.58,12.43c18.44,22.35,35.21,46.32,47.65,72.57.39.82.78,1.64,1.16,2.46.77,1.64,1.51,3.3,2.24,4.96,1.08,2.49,2.13,5,3.12,7.54.75,1.9,1.47,3.8,2.17,5.72.28.77.56,1.54.83,2.31.21.6.41,1.2.62,1.81.36,1.03.71,2.07,1.04,3.11.2.61.4,1.21.59,1.82s.38,1.21.57,1.82c.15.49.3.97.45,1.46.51,1.71,1.01,3.43,1.48,5.15.24.88.48,1.75.71,2.63a203.24,203.24,0,0,1,6.36,42.97,208.977,208.977,0,0,1-.29,21.09Z"/><path class="e" d="M171.89,1974.66l-.09,2.17.02,2.22.02,4.42c.02,2.95-.01,5.86.03,8.79l.37,8.92c.13,2.96.19,5.87.47,8.9.5,6.03.79,11.9,1.54,18.01l.25,2.27.31,2.27.63,4.53c.48,3.04,1.04,6.13,1.54,9.18l.77,4.57c.26,1.53.5,3.04.82,4.6l1.81,9.271.9,4.62c.32,1.55.65,3.13,1.03,4.69l2.46,9.35c.78,3.08,1.74,6.29,2.61,9.43l2.67,9.43,2.86,9.56c.91,3.2,1.99,6.31,3.14,9.54l3.46,9.64c.16.46.33.91.49,1.37V3818.4L80.77,3699.171,0,3618.4V1917.021l1.97-4.86L7,1899.881c.81-2.04,1.75-4.06,2.68-6.08l2.79-6.04c1.89-4.01,3.6-8.07,5.49-12.05l5.97-11.85a467.422,467.422,0,0,1,26.53-45.44l1.77-2.74,1.87-2.67,3.77-5.32,7.55-10.56.47-.65c.16-.22.33-.47.43-.58l.71-.88,1.42-1.75c.94-1.17,1.92-2.34,2.83-3.51,1.8-2.35,3.71-4.71,5.43-7.08,3.5-4.8,6.65-9.64,9.78-14.52,3.01-4.87,5.92-9.78,8.56-14.72,2.6-4.94,5.09-9.92,7.26-14.91s4.12-10.034,5.85-15.1l1.21-3.8c.43-1.27.74-2.54,1.12-3.82.41-1.27.68-2.55.98-3.83s.6-2.57.83-3.85a140.9,140.9,0,0,0,2.33-15.55,145.966,145.966,0,0,0-.57-31.96,139.012,139.012,0,0,0-3.06-16.47q-2.145-8.265-5.17-16.61a240.447,240.447,0,0,0-15.25-33.48c-1.52-2.79-3.08-5.58-4.72-8.35q-1.2-2.1-2.48-4.17c-.83-1.4-1.71-2.76-2.61-4.13q-5.34-8.207-11.2-16.34c-7.82-10.84-16.25-21.58-25.1-32.25-2.23-2.66-4.44-5.35-6.74-7.98L30.74,1513q-7.05-7.845-14.32-15.67l-14.7-15.7L0,1479.811v-99.49q2.58,2.535,5.22,5.01c10.17,9.71,20.67,19.38,31.31,29.14l4,3.66,4.07,3.61,8.19,7.26,16.44,14.71q8.25,7.425,16.48,15.08l16.52,15.47c11.06,10.42,22.02,21.29,32.7,32.8q8.01,8.625,15.76,17.82l3.87,4.62c1.3,1.53,2.6,3.08,3.88,4.65,2.58,3.13,5.11,6.33,7.62,9.57a336.622,336.622,0,0,1,27.91,42.02q3.12,5.593,6.03,11.4v257.02c-.85,2.08-1.72,4.14-2.58,6.23-.83,2.01-1.72,3.95-2.58,5.93l-1.3,2.96-.65,1.48q-.135.3-.24.6l-.19.53-3.07,8.44-1.54,4.18-.77,2.09-.64,2.13a308.17,308.17,0,0,0-8.98,33.97l-1.71,8.51c-.28,1.42-.44,2.89-.67,4.32-.21,1.439-.43,2.87-.6,4.32l-.56,4.31c-.19,1.43-.39,2.85-.48,4.33l-.7,8.71-.36,4.32-.16,4.4Z"/><path class="f" d="M200,3298.12v309.66L18.25,3426.03,173.08,3271.2Z"/><path class="c" d="M146.11,3633.82l-65.34,65.35-38.98,38.97L0,3696.35V3571.29l41.79-41.79Z"/><path class="g" d="M159.945,3814.962c0-16.422-13.043-29.734-29.132-29.734s-29.131,13.313-29.131,29.734,13.043,29.734,29.131,29.734,29.132-13.312,29.132-29.734m40.055,0c0-39-30.976-70.618-69.187-70.618s-69.186,31.616-69.186,70.618,30.975,70.618,69.186,70.618S200,3853.964,200,3814.962Z"/><path class="h" d="M61.626,3814.962c0,39,30.977,70.619,69.187,70.619S200,3853.963,200,3814.962H159.945c0,16.423-13.043,29.734-29.132,29.734s-29.131-13.312-29.131-29.734Z"/><path class="f" d="M5,3913.962l5,8.464H0Z"/><path class="f" d="M15,3913.962l5,8.464H10Z"/><path class="f" d="M25,3913.962l5,8.464H20Z"/><path class="f" d="M35,3913.962l5,8.464H30Z"/><path class="f" d="M45,3913.962l5,8.464H40Z"/><path class="f" d="M55,3913.962l5,8.464H50Z"/><path class="f" d="M65,3913.962l5,8.464H60Z"/><path class="f" d="M75,3913.962l5,8.464H70Z"/><path class="f" d="M85,3913.962l5,8.464H80Z"/><path class="f" d="M95,3913.962l5,8.464H90Z"/><path class="h" d="M10,3922.426l10,16.928H0Z"/><path class="h" d="M30,3922.426l10,16.928H20Z"/><path class="h" d="M50,3922.426l10,16.928H40Z"/><path class="h" d="M70,3922.426l10,16.928H60Z"/><path class="h" d="M90,3922.426l10,16.928H80Z"/><path class="g" d="M20,3939.354l20,33.856H0Z"/><path class="g" d="M60,3939.354l20,33.856H40Z"/><path class="g" d="M100,3939.354l20,33.856H80Z"/><path class="f" d="M33.333,3973.21l33.334,56.427H0Z"/><path class="f" d="M100,3973.21l33.333,56.427H66.667Z"/><path class="h" d="M50,4029.637l50,84.641H0Z"/><path class="h" d="M150,4029.637l50,84.641H100Z"/><path class="f" d="M166.666,3973.21,200,4029.637H133.333Z"/><path class="g" d="M140,3939.354l20,33.856H120Z"/><path class="g" d="M180,3939.354l20,33.856H160Z"/><path class="h" d="M110,3922.426l10,16.928H100Z"/><path class="h" d="M130,3922.426l10,16.928H120Z"/><path class="h" d="M150,3922.426l10,16.928H140Z"/><path class="h" d="M170,3922.426l10,16.928H160Z"/><path class="h" d="M190,3922.426l10,16.928H180Z"/><path class="f" d="M105,3913.962l5,8.464H100Z"/><path class="f" d="M115,3913.962l5,8.464H110Z"/><path class="f" d="M125,3913.962l5,8.464H120Z"/><path class="f" d="M135,3913.962l5,8.464H130Z"/><path class="f" d="M145,3913.962l5,8.464H140Z"/><path class="f" d="M155,3913.962l5,8.464H150Z"/><path class="f" d="M165,3913.962l5,8.464H160Z"/><path class="f" d="M175,3913.962l5,8.464H170Z"/><path class="f" d="M185,3913.962l5,8.464H180Z"/><path class="f" d="M195,3913.962l5,8.464H190Z"/><path class="g" d="M100,4114.278l-50,84.64L0,4283.559v38.182l100,95.151,100-95.151v-38.182l-50-84.641Z"/><path class="f" d="M0,4439.114H22.222v22.222H44.445v22.222H66.667v22.223H88.889V4528h22.222v-22.222h22.223v-22.223h22.222v-22.222h22.222v-22.222H200v44.444H177.778v22.223H155.556V4528H133.334v22.223H111.111v22.222H88.889v-22.222H66.667V4528H44.445v-22.222H22.222v-22.223H0v-44.444Z"/><path class="g" d="M0,4483.558H22.222v22.222H44.445V4528H66.667v22.223H88.889v22.222h22.222v-22.222h22.223V4528h22.222V4505.78h22.222v-22.222H200V4528H177.778v22.223H155.556v22.222H133.334v22.222H111.111v22.222H88.889V4594.67H66.667v-22.222H44.445v-22.222H22.222V4528H0v-44.445Z"/><path class="h" d="M0,4528H22.222v22.223H44.445v22.222H66.667v22.222H88.889v22.223h22.222v-22.223h22.223v-22.222h22.222v-22.222h22.222V4528H200v44.445H177.778v22.222H155.556v22.223H133.334v22.223H111.111v22.222H88.889v-22.222H66.667v-22.223H44.445v-22.223H22.222v-22.222H0V4528Z"/><path class="i" d="M0,4572.447H22.222v22.222H44.445v22.222H66.667v22.223H88.889v22.222h22.222v-22.222h22.223v-22.223h22.222v-22.222h22.222v-22.222H200v44.444H177.778v22.223H155.556v22.222H133.334v22.223H111.111v22.222H88.889v-22.222H66.667v-22.223H44.445v-22.222H22.222v-22.223H0v-44.444Z"/><path class="g" d="M0,4305.781H22.222V4328H44.445v22.223H66.667v22.222H88.889v22.222h22.222v-22.222h22.223v-22.222h22.222V4328h22.222v-22.222H200v44.445H177.778v22.222H155.556v22.222H133.334v22.223H111.111v22.222H88.889v-22.222H66.667V4394.67H44.445v-22.222H22.222v-22.222H0v-44.445Z"/><path class="h" d="M0,4350.225H22.222v22.222H44.445v22.223H66.667v22.223H88.889v22.222h22.222v-22.222h22.223V4394.67h22.222v-22.223h22.222v-22.222H200v44.445H177.778v22.223H155.556v22.222H133.334v22.222H111.111v22.223H88.889v-22.223H66.667v-22.222H44.445v-22.222H22.222V4394.67H0v-44.445Z"/><path class="i" d="M0,4394.67H22.222v22.222H44.445v22.222H66.667v22.222H88.889v22.224h22.222v-22.224h22.223v-22.222h22.222v-22.222h22.222V4394.67H200v44.444H177.778v22.222H155.556v22.224H133.334v22.222H111.111V4528H88.889v-22.222H66.667V4483.56H44.445v-22.224H22.222v-22.222H0V4394.67Z"/><path class="f" d="M0,4616.891H22.222v22.222H44.445v22.222H66.667v22.224H88.889v22.222h22.222v-22.222h22.223v-22.224h22.222v-22.222h22.222v-22.222H200v44.444H177.778v22.224H155.556v22.222H133.334V4728H111.111v22.222H88.889V4728H66.667v-22.222H44.445v-22.222H22.222v-22.224H0v-44.444Z"/><path class="g" d="M0,4661.335H22.222v22.222H44.445v22.223H66.667V4728H88.889v22.223h22.222V4728h22.223V4705.78h22.222v-22.223h22.222v-22.222H200v44.445H177.778V4728H155.556v22.223H133.334v22.222H111.111v22.223H88.889v-22.223H66.667v-22.222H44.445V4728H22.222V4705.78H0v-44.445Z"/><path class="h" d="M0,4705.78H22.222V4728H44.445v22.222H66.667v22.222H88.889v22.223h22.222v-22.223h22.223v-22.222h22.222V4728h22.222V4705.78H200v44.444H177.778v22.222H155.556v22.223H133.334v22.223H111.111v22.222H88.889v-22.222H66.667v-22.223H44.445v-22.223H22.222v-22.222H0V4705.78Z"/><path class="i" d="M0,4750.224H22.222v22.222H44.445v22.222H66.667v22.223H88.889v22.223h22.222v-22.223h22.223v-22.223h22.222v-22.222h22.222v-22.222H200v44.444H177.778v22.223H155.556v22.223H133.334v22.222H111.111v22.222H88.889v-22.222H66.667v-22.222H44.445v-22.223H22.222v-22.223H0v-44.444Z"/><path class="f" d="M0,4794.668H22.222v22.222H44.445v22.223H66.667v22.222H88.889v22.223h22.222v-22.223h22.223v-22.222h22.222V4816.89h22.222v-22.222H200v44.445H177.778v22.222H155.556v22.223H133.334v22.222H111.111V4928H88.889V4905.78H66.667v-22.222H44.445v-22.223H22.222v-22.222H0v-44.445Z"/><path class="h" d="M51.668,5017.791a2.657,2.657,0,1,1-2.657,2.656h0A2.656,2.656,0,0,1,51.668,5017.791Zm-22.584-2.658H53v-10.627H29.084Zm0-14.385H53v-4.438H29.084Zm1.329,17.043a2.657,2.657,0,1,1-2.657,2.656h0a2.655,2.655,0,0,1,2.657-2.656Zm-11.02-3.986h3.824v-9.3H19.393Zm39.591,0h3.823v-9.3H58.984Zm-29.9-21.254H53a4,4,0,0,1,3.984,3.985c0,10.594.061,21.791.061,31.881h-5.4v-2.656H30.558v2.656h-5.4c0-10.12-.06-21.265-.06-31.881a4,4,0,0,1,3.985-3.986Z"/><path class="f" d="M150.871,5048a2.576,2.576,0,1,1-2.576,2.575,2.575,2.575,0,0,1,2.576-2.575Zm-21.893-2.576h23.181v-10.3H128.978Zm0-13.946h23.181v-4.3H128.978ZM130.266,5048a2.576,2.576,0,1,1-2.576,2.575,2.575,2.575,0,0,1,2.576-2.575Zm-10.683-3.864h3.707v-9.014h-3.707Zm38.38,0h3.706v-9.014h-3.706Zm-28.985-20.6h23.181a3.874,3.874,0,0,1,3.863,3.863c0,10.27.058,21.125.058,30.907h-5.235v-2.575H130.407v2.575h-5.235c0-9.81-.057-20.615-.057-30.907a3.873,3.873,0,0,1,3.863-3.863Zm13.567-3.474,5.463-5.464,2.732,2.731-5.464,5.464Zm-9.679,0,5.463-5.464,2.732,2.731-5.464,5.464Z"/><path class="e" d="M96.9,5094.8c0-8.343-2.658-15.33-10.691-18.675a97.69,97.69,0,0,0,2.714,17.849,4,4,0,0,1-1.535,4.214c-10.756,8.152-14.88,19.071-16.98,32l-7.892-1.285c2.27-13.968,6.956-26.187,18.044-35.5-1.1-4.98-3.187-18.6-2.4-23.416a4.007,4.007,0,0,1,4.7-3.165c14.786,2.906,22.028,13.236,22.03,27.984Zm-19.924-6.825c-3.567,4.107-9.32,6.678-14.6,7.6l-1.378-7.892c3.47-.606,7.579-2.225,9.938-4.939Zm3.723-39.618a6.432,6.432,0,1,1-7.674,4.882,6.431,6.431,0,0,1,7.674-4.882Zm22.281,81.331c-9.419-4.105-15.673-13.213-18.7-22.765l7.641-2.411c2.314,7.3,7,14.686,14.253,17.848Z"/><path class="i" d="M161.4,4962.875a2.7,2.7,0,1,1-.013,0Zm5.321,20.468a6.609,6.609,0,0,1,1.44-7.8,8.075,8.075,0,0,0-3.214-3.6c-1.976,3.49-5.444,4.37-9.2,4.489l-.089-2.647c3.516-.111,5.9-.818,7.342-4.262h0a1.4,1.4,0,0,1,1.82-.764,10.979,10.979,0,0,1,6.191,6.3c.519,1.33.184,1.648-.734,2.356a3.788,3.788,0,0,0-.631,5.319h0c.02.024.039.049.059.072l.214.237a3.747,3.747,0,0,0,2.68,1.123v2.817a6.528,6.528,0,0,1-3.905-1.289c-.007.094-.01.188-.01.282a3.873,3.873,0,1,0,3.849-3.9,3.8,3.8,0,0,0-.584.048,3.934,3.934,0,0,0-.614.152l-.8-2.4a6.429,6.429,0,1,1-3.833,3.49Zm-8.242-.115a3.9,3.9,0,1,0,1.141,2.755A3.9,3.9,0,0,0,158.482,4983.228Zm2.474-.99a6.423,6.423,0,1,1-2.312-1.988,7.988,7.988,0,0,1,1.906-3.158,4.543,4.543,0,0,1,5.025-.85l-.958,2.64a1.942,1.942,0,0,0-2.141.256,6.69,6.69,0,0,0-1.52,3.1Z"/><path class="i" d="M141.271,5164.42a2.822,2.822,0,1,1-2.822,2.822h0a2.821,2.821,0,0,1,2.822-2.821Zm-23.52,24.5v11.25h-5.645v-11.249h-5.644c.071,3.542-1.542,9.26-4.759,11.568l-4.075-3.746a11.075,11.075,0,0,0,3.1-7.984v-14.934a13.211,13.211,0,0,1,13.17-13.17h.506a13.523,13.523,0,0,0-.412,3.764,17.092,17.092,0,0,0,16.935,16.934v-3.764a13.172,13.172,0,0,1,0-26.343h7.526a13.172,13.172,0,0,1,13.172,13.171v13.172c0,.564-.39,6.91,6.131,9.2l-2.141,4.994a14.93,14.93,0,0,1-9.635-14.193h-3.763v11.29a10.216,10.216,0,0,0,3.575,7.7l-3.961,3.906a14.992,14.992,0,0,1-5.265-11.573l-18.81,0Zm12.914,3.1a13.2,13.2,0,0,1-5,8.476l-3.962-3.906c1.891-1.781,3-3.087,3.346-5.764Z"/><path class="h" d="M47.392,5161.289l-9.915,9.916v2.245h9.915Zm-28.644-15.382,14.322,14.322,14.322-14.322v12.118L33.07,5172.347l-14.322-14.322Zm0,15.383,9.915,9.915v2.245H18.748Z"/><path class="j" d="M94.576,5012.79h11.408v-2.306H94.576Zm2.445-21.846h2.444v13.836H97.021Zm4.074,0h2.444v13.836H101.1Zm7.348.785a5.3,5.3,0,0,0-2.718,2.185,5.06,5.06,0,0,0-.217,4.034l.961,3.856c1.785,6.206-14.171,6.234-12.378,0l.961-3.856a5.06,5.06,0,0,0-.217-4.034,5.3,5.3,0,0,0-2.718-2.185l-.955,2.245a3.073,3.073,0,0,1,1.543,1.133,2.85,2.85,0,0,1,0,2.173l-.961,3.786c-2.982,10.368,20.058,10.368,17.076,0l-.962-3.786a2.845,2.845,0,0,1,0-2.173,3.08,3.08,0,0,1,1.544-1.133Z"/><path class="i" d="M165.376,5097.919a6.112,6.112,0,1,1-6.111,6.112h0a6.111,6.111,0,0,1,6.111-6.112Zm-.013,3.049a3.063,3.063,0,1,1-3.063,3.062,3.062,3.062,0,0,1,3.063-3.062Zm-12.215,1.912a2.149,2.149,0,1,1-2.144,2.154v0a2.146,2.146,0,0,1,2.143-2.149h0Zm18.622,9.949a8.494,8.494,0,0,1,0,12.014l-2.164-2.165a5.435,5.435,0,0,0,0-7.684Zm-7.415-.628H154.147a3.072,3.072,0,0,0-3.063,3.063v7.145a3.072,3.072,0,0,0,3.063,3.063h10.208a3.072,3.072,0,0,0,3.063-3.063v-7.145A3.072,3.072,0,0,0,164.355,5112.2Zm-11.207-12.25a5.079,5.079,0,1,1-5.069,5.088h0v-.01a5.073,5.073,0,0,1,5.068-5.078Z"/><path class="j" d="M171.517,5246.777a12.7,12.7,0,1,1-19.524,12.647l4.342-.747a8.3,8.3,0,1,0,12.713-8.251Zm-20.722-17.771a4.17,4.17,0,1,1-.019.005Zm12.526,19.54c1.006-3.838-.595-7.514-4.959-6.823a20.2,20.2,0,0,1,2.372,12.4,2.225,2.225,0,0,1-2.488,1.925,2.264,2.264,0,0,1-.346-.073,8.278,8.278,0,0,0-7.733,1.276c-2.611,2.178-3.387,5.914-3.322,9.167l-4.4.086c-.094-4.658,1.182-9.54,4.891-12.634a12.1,12.1,0,0,1,9.144-2.623,17,17,0,0,0-3.178-9.424,2.206,2.206,0,0,1,.4-3.036c4.3-3.075,11.432-1.5,13.6,3.722a11.042,11.042,0,0,1,.279,7.145Z"/><path class="j" d="M145.484,5335.578a2.563,2.563,0,1,1-2.563-2.563,2.562,2.562,0,0,1,2.563,2.563Zm11.532,0a2.563,2.563,0,1,1-2.563-2.563h0A2.565,2.565,0,0,1,157.016,5335.578Zm-25.069-11.357a23.8,23.8,0,0,1,5.9,13.92h-3.866A19.8,19.8,0,0,0,129,5326.684Zm8.319-17.794a3.74,3.74,0,1,1-3.758-3.722h.018a3.733,3.733,0,0,1,3.74,3.722Zm-8.865,9.811c-5,6.059-3.358,14.987-1.329,21.9h-3.844c-2.73-9.761-3.717-20.262,5.243-27.261a2.021,2.021,0,0,1,3.147,1.719c.47,5.02,2.041,6.678,7.1,7.629a6.869,6.869,0,0,0,2.013,5.538,7.008,7.008,0,1,0,1.164-10.86l-2.071-3.228a10.853,10.853,0,1,1-1.811,16.806,11.915,11.915,0,0,1-3.117-5.433,9.109,9.109,0,0,1-6.491-6.813Z"/><path class="i" d="M111.754,5266.273c-4.4-1.574-9.005-3.913-11.633-7.935-2.628,4.022-7.236,6.361-11.634,7.935l1.952,5.139c3.423-1.226,6.792-2.493,9.682-4.725,2.89,2.232,6.257,3.5,9.682,4.725Zm-1.969-12.586c-3.583-1.214-7.625-3.132-9.664-6.479-2.039,3.347-6.081,5.265-9.664,6.479l1.923,5.138a30.987,30.987,0,0,0,7.741-3.722,30.97,30.97,0,0,0,7.741,3.722Zm-6.668,26.284a41.332,41.332,0,0,0,8.612,4.206l1.974-5.116c-5.11-1.863-10.348-4.57-13.582-9.1-3.234,4.527-8.472,7.234-13.582,9.1l1.974,5.116a44.952,44.952,0,0,0,8.8-4.292v9.231h5.808Zm-29.028,9.145H68.28v-6.451c-10.171-1.589-13.552-12.432-8.479-20.266a11.617,11.617,0,1,1,23-2.324,11.779,11.779,0,0,1-.231,2.324c5.072,7.835,1.691,18.677-8.48,20.267Zm-9.682,9.351H107v-5.477H64.407Z"/><path class="i" d="M68.251,5195.656H59.937v8.4H51.624v8.136h8.313v8.4h8.314v-8.4h8.313v-8.136H68.251Z"/><path class="k" d="M31.878,5358.557H60.883V5347.44H31.878Zm0-15.839H60.883v-5.245H31.878Zm6.445,19.063A3.223,3.223,0,1,1,35.1,5365h0a3.223,3.223,0,0,1,3.221-3.223h0Zm16.115,0A3.223,3.223,0,1,1,51.214,5365h0a3.225,3.225,0,0,1,3.224-3.223ZM33.489,5321.5H59.271v4.56h-8.6l-5.79,5.79-3.418-3.417,2.371-2.373H33.489Zm-.574,58.067,6.837-6.835,3.417,3.417-6.835,6.837Zm12.111,0,6.838-6.835,3.417,3.417-6.836,6.837Zm-24.977-21.006h4.637v-11.279H20.049Zm48.025,0h4.638v-11.279H68.074Zm-36.2-25.782H60.883a4.847,4.847,0,0,1,4.834,4.834v20.948l-1.612,8.059c-.52,2.606-2.175,4.834-4.834,4.834H33.488c-2.658,0-4.312-2.228-4.833-4.834l-1.611-8.059v-20.948A4.847,4.847,0,0,1,31.878,5332.775Z"/><path class="j" d="M33.07,5263.4l7.27-7.274a10.22,10.22,0,1,0-14.5.045Zm0,5.461-9.959-9.959a14.084,14.084,0,1,1,19.978-.06Zm1.886-16.682a3.855,3.855,0,1,0-.016.009Z"/><path class="f" d="M167.452,5379.828l12.878,11.139v3.863l-12.878-5.982Zm-5.141-18.105a2.573,2.573,0,0,1,2.565,2.564v25.859c0,3.393-5.131,3.394-5.131,0v-2.617l-15.475,7.3v-3.863l15.475-13.6v-13.076A2.573,2.573,0,0,1,162.311,5361.723Zm7.716,39.942v2.576L162.3,5400.7l-7.728,3.539v-2.576l7.4-6.964.562.021Z"/><path class="j" d="M95.311,5392.693A11.34,11.34,0,0,0,84,5394.5l3.43,4.01a6.022,6.022,0,0,1,5.8-.964ZM81.8,5431.507a2.519,2.519,0,1,0,2.52,2.518,2.519,2.519,0,0,0-2.52-2.518Zm12.938,9.17a2.8,2.8,0,1,0,2.8,2.8,2.8,2.8,0,0,0-2.8-2.8Zm1.7-1.467a8.818,8.818,0,0,0,8.78.819L103,5435.223a3.527,3.527,0,0,1-3.512-.328l-11.509-8.157a3.526,3.526,0,0,1-1.473-3.2l-5.266-.492a8.816,8.816,0,0,0,3.68,8.012Zm13.66-3.39c3.118-7.417.757-14.622-4.9-19.775,2.771-4.005,3.223-10.746,2.585-14.456a9.908,9.908,0,0,1,10.973,4.025l4.423-2.893a15.224,15.224,0,0,0-17.2-6.1l-.232.1a5.12,5.12,0,1,0-5.4,5.392c.011.071.022.142.035.215.68,3.588.119,7.513-1.261,9.357a8.731,8.731,0,0,0-7.746.013c-4.517,2.58-3.753,7.867-2.139,11.982l4.917-1.922c-.454-1.161-1.7-4.6-.173-5.473,1.684-.963,4.914,1.146,6.148,2.2,5.86,4.368,7.143,9.525,4.906,15.824Z"/><g class="l"><path class="g" d="M215.248,2995.955H173.3c22.692,14.236,45.353,28.468,67.122,42.7q.6-13.3.521-26.586-12.777-8.055-25.694-16.113Z"/><path class="g" d="M133.452,2995.955H92.562c49.231,31.319,100.114,62.649,142.725,93.927q2.054-13,3.326-25.992c-32.993-22.629-69.275-45.28-105.161-67.935Z"/><path class="g" d="M134.379,3090.241c-57.957,37.5-110.514,75.009-135.354,112.511q-4.254-9.128-8.007-18.245c25.314-31.424,68.248-62.826,115.853-94.271H85.331c-39.754,26.586-75.677,53.136-99.938,79.69q-3.367-9.091-6.255-18.177c21.248-20.493,48.663-41,78.715-61.513H77.845c-38.43-24.923-79.654-49.846-118.97-74.769q0-9.749.349-19.513H-30.35c48.407,31.429,100.8,62.858,147.839,94.282Z"/><path class="g" d="M232.826,3103.988c-67.649,40.541-131.888,81.082-164.729,121.629H86.2c31.622-34.484,85.024-68.973,142.715-103.457q2.163-9.085,3.91-18.172Z"/><path class="g" d="M39.545,3090.257H36.6c-22.806,15.92-43.861,31.846-61.58,47.766q-2.54-9.123-4.66-18.245c11.911-9.842,24.933-19.679,38.721-29.521H.808c-13-7.971-26.164-15.946-39.337-23.923q-1.324-12.781-1.955-25.543c26.732,16.483,53.876,32.961,80.029,49.466Z"/><path class="g" d="M219.747,3154.83q2.955-9.085,5.458-18.172c-49.523,29.651-94.819,59.308-124.559,88.959h18.105C144.988,3202.023,180.561,3178.424,219.747,3154.83Z"/><path class="g" d="M197.409,3090.236H183.934c-72.1,45.129-139.556,90.252-163.2,135.38H2.28a48.8,48.8,0,0,1,4.074-7.965c22.677-42.444,83.668-84.94,150.2-127.415h-.662c-45.666-31.424-97.639-62.852-146.364-94.281h43.2c49.064,31.429,100.578,62.857,144.711,94.281Z"/><path class="g" d="M214.773,3169.259c-30.944,18.767-59.135,37.57-81.645,56.357H151.3c16.624-12.73,35.713-25.454,56.331-38.184Q211.431,3178.345,214.773,3169.259Z"/><path class="g" d="M35.031,3225.616H53.2c32.545-45.128,105.359-90.251,180.175-135.38h-27.4c-73.4,45.129-143.33,90.252-170.948,135.38Z"/><path class="g" d="M201.058,3202.273c-12.422,7.778-24.183,15.561-35.067,23.343h18.172c2.6-1.737,13.161-8.632,15.837-10.342Z"/><path class="g" d="M31.517,2781.8c-14.966,54.215-31.569,108.383-44.388,162.571,5.849,17.2,12.563,34.406,19.9,51.609,8.148-17.2,16.682-34.406,25.21-51.609A1087.148,1087.148,0,0,1,31.517,2781.8Z"/><path class="g" d="M65.72,2781.8c-10.306,54.215-22.749,108.383-33.477,162.571,6.521,17.2,13.694,34.406,21.232,51.609,7.944-17.2,16.035-34.406,23.885-51.609A1610.711,1610.711,0,0,1,65.72,2781.8Z"/><path class="g" d="M99.927,2781.8c-5.646,54.215-13.939,108.383-22.567,162.571,7.184,17.2,14.815,34.406,22.557,51.609,7.746-17.2,15.378-34.406,22.561-51.609C113.851,2890.153,105.567,2835.938,99.927,2781.8Z"/><path class="g" d="M134.129,2781.8a1599.37,1599.37,0,0,1-11.651,162.571c7.851,17.2,15.941,34.406,23.886,51.609,7.538-17.2,14.711-34.406,21.232-51.609C156.873,2890.153,144.43,2835.938,134.129,2781.8Z"/><path class="g" d="M168.337,2781.8a1091.979,1091.979,0,0,1-.74,162.571c8.512,17.2,17.062,34.406,25.21,51.609,7.34-17.2,14.075-34.406,19.9-51.609-12.819-54.214-29.412-108.429-44.373-162.571Z"/><path class="c" d="M54,2676.4H16.463q1.418-4.894,2.825-9.811h4.405q3.393-12.609,6.631-25.23h-4.04q1.329-4.9,2.606-9.8H60.83q-1.084,7.47-2.215,14.945h-8.44q.468-2.575.933-5.145h-10.2q-.809,3.721-1.632,7.449h9.8q-.907,4.9-1.83,9.8H37.08q-.9,3.988-1.793,7.981H46.463l.985-5.134h8.92Q55.189,2668.93,54,2676.4Zm24.156,0H57.436q.72-4.894,1.429-9.8h4.89q1.6-12.611,3.127-25.231H62.425q.674-4.9,1.335-9.8H81.791q-.328,4.9-.672,9.8H77.511l-.641,7.715h3.941c5.062,0,8.221-2.841,8.393-7.715h-3.18q.251-4.9.521-9.8h17q.063,4.9.13,9.8H99.213a18.177,18.177,0,0,1-8.112,14.946c.876,6.959,4.421,10.285,12.313,9.8q4.27-12.381,7.789-24.746h-2.779l-.3-9.8h20.064q7.158,17.515,15.915,35.031h4.207q.834,4.9,1.684,9.8H128.786q-.5-4.894-.97-9.8h3.242c-.427-1.121-.855-2.247-1.277-3.367H116.447c-.24,1.12-.48,2.246-.725,3.367h3.722l.678,9.8h-8.341c-14.45,0-16.353,0-21.55-2.3-4.952-2.3-8.387-7.981-9.66-15.212h-4.52q-.329,3.854-.662,7.716h3.482Zm40.631-22.937h6.88q-2.283-5.41-4.41-10.817-1.173,5.416-2.471,10.828Zm-44.545,75.682H49.591l1.522-9.905h5.672q1.7-12.661,3.378-25.319H54.95q.709-4.77,1.418-9.535H82.683c11.416,0,17.2,6.517,17.286,14.852a15.078,15.078,0,0,1-8.544,13.3c.688,4.879,5.213,6.7,10.833,6.7h9.012l-.876-25.319h-7.037q-.057-4.77-.1-9.535h25.866q.469,4.765.949,9.535H123.03q.95,12.661,1.919,25.319h7.632l1,9.936H101.653c-14.5,0-21.123-5.057-23.672-14.6H71.256l-.422,4.655H75l-.767,9.905Zm-2.086-24.256h6.2c4.17,0,7.642-1.418,7.819-5.458.177-4.254-3.06-5.453-7.053-5.453h-6q-.484,5.454-.975,10.895Zm-24.276,9.383H37.21q-.522,2.571-1.043,5.146H22.885q.933-3.988,1.9-8H36.934l1.955-9.8H27.107l1.762-7.449H41.182q-.5,2.573-1.006,5.14H50.31q1.215-7.466,2.414-14.94H14.148q-1.424,4.894-2.867,9.8h4.843Q12.61,2706.784,9.05,2719.4H3.8l-2.914,9.815H45.42q1.23-7.475,2.45-14.945Zm88.74-82.7q1.011,7.335,2.048,14.69h8l-.829-4.879H150.3q2.34,12.615,4.8,25.23h-4.207q.88,4.9,1.773,9.8h21.175q-1.252-4.894-2.487-9.8h-4.405q-2.976-12.609-5.823-25.23h4.457q.594,2.439,1.183,4.879h8.232q-2.013-7.346-3.952-14.68Zm28.671,62.352H170.7q1.912,8.117,3.821,16.186-12.48-12.84-23.375-25.679h-18.49q.522,4.77,1.043,9.535h5.213q1.641,12.636,3.3,25.277h-5.63q.563,4.968,1.131,9.936h25.814q-.954-4.973-1.918-9.936h-5.62q-1.356-7.782-2.7-15.565,11.239,12.756,23.98,25.5h15.926q-4.943-17.608-9.842-35.213h4.837q-1.392-4.77-2.778-9.535H163.28q1.042,4.744,2.049,9.493ZM40.4,2768.42c-1.006,6.7-8.278,13.377-20.523,13.377H-14.68q1.4-4.858,2.815-9.712h5.823q3.5-12.705,7.084-25.351H-4.4q1.481-4.968,2.961-9.9H25.543c10.353,0,14.435,5.87,13.392,12.151-.49,2.836-2.173,5.677-5.588,8.289,5.912,2.46,7.752,6.72,7.059,11.15Zm-25.8-13.965h4.128c3.389,0,5.464-1.82,5.891-3.863s-.839-3.858-4.17-3.858H16.41q-.933,3.863-1.814,7.72ZM24.72,2767.8c.438-2.216-1.345-4.436-4.806-4.436H12.469q-1,4.353-2.043,8.7h7.3c3.863,0,6.574-2.221,6.975-4.259Zm155.6-12.068h25.851q2.46,8.382,4.89,16.765c-2.085,5.677-9.826,10.066-23.083,10.066-7.819,0-14.346-1.642-18.078-3.649-11.339,5.943-34.083,4.692-42.627-11.75H120.1c.089,1.627.172,3.253.261,4.879h4.994l.641,9.712H97.446l.062-9.712h6.933q-.146-12.662-.3-25.324H94.824q-.126,8.408-.245,16.806c-.058,12.553-11.636,19.429-26.587,19.424-13.1,0-25.543-6.073-23.458-19.424q1.262-8.4,2.523-16.806H42.105l1.642-9.905h25.7l-.891,9.905h-5.64q-.922,8.717-1.83,17.432c-.553,5.051,3.988,7.892,8.549,7.892s9.039-2.606,9.321-7.892q.489-8.721.99-17.432H73.169q.375-4.968.761-9.905h54.147c13.491,0,21.279,6.516,22.535,14.857.7,4.874-1.715,10.285-8.137,13.3,3.571,6.74,12.574,8.07,16.264,4.832a22.386,22.386,0,0,1-4.316-10.509c-1.647-12.021,5.135-23.281,22.416-23.281,10.071,0,16.791,2.528,22.739,6.12q1.516,5.254,3.018,10.509H189.1c-.407-1.564-.819-3.127-1.225-4.691a17.992,17.992,0,0,0-7.794-1.6c-7.767,0-11.541,4.791-10.06,12.725,1.35,7.3,7.7,12.73,15.873,12.907,4.327,0,7.434-.755,10.108-3.018-.318-1.256-.641-2.513-.959-3.769H182.406q-1.042-4.749-2.085-9.472Zm-45.233-3.5c-.427-4.254-4.425-5.453-9.127-5.453h-6.908l.595,10.947h7.1c4.863-.031,8.731-1.47,8.34-5.489Z"/><path class="g" d="M63.322,2505.964c2.481,5.963,5.035,11.927,7.72,17.89H51.754Q57.9,2514.895,63.322,2505.964ZM48.9,2541.75H69.332c-2.768-5.963-5.374-11.932-7.908-17.9Q55.523,2532.81,48.9,2541.75Zm-3.29,17.891h21.7q-4.374-8.945-8.216-17.891Q52.771,2550.7,45.613,2559.641Zm25.429-35.787H90.3c-3.034-5.963-5.906-11.927-8.669-17.89C78.293,2511.927,74.78,2517.891,71.042,2523.854Zm-1.71,17.9h20.4c-3.2-5.963-6.193-11.932-9.055-17.9q-5.338,8.952-11.344,17.9Zm-1.97,17.891H89.079c-3.383-5.963-6.542-11.927-9.529-17.891q-5.734,8.946-12.193,17.891ZM90.3,2523.854h19.288c-3.384-5.963-6.574-11.927-9.624-17.89q-4.6,8.93-9.66,17.89Zm-.569,17.9h20.4q-5.406-8.945-10.207-17.9-4.806,8.952-10.207,17.9Zm-.662,17.891h21.723q-5.77-8.945-10.864-17.891-5.1,8.946-10.869,17.891Zm20.5-35.787h19.262q-5.583-8.959-10.567-17.89-4.17,8.945-8.69,17.89Zm.568,17.9h20.409q-6.021-8.945-11.328-17.9c-2.862,5.969-5.87,11.933-9.07,17.9Zm.657,17.891h21.722q-6.474-8.945-12.162-17.891c-2.992,5.985-6.161,11.928-9.555,17.891Zm18.037-35.787h19.287q-6.114-8.959-11.536-17.89-3.707,8.93-7.725,17.89Zm1.715,17.9h20.4q-6.631-8.945-12.475-17.9-3.757,8.952-7.923,17.9Zm1.97,17.891h21.722q-7.163-8.945-13.46-17.891c-2.564,5.985-5.306,11.928-8.236,17.891Z"/><path class="g" d="M66.418,2452.3c2.69,5.963,5.317,11.927,7.95,17.89H57.342Q62.108,2461.247,66.418,2452.3Zm-10.426,35.781H73.57c-2.606-5.963-5.161-11.927-7.726-17.891-3.127,5.964-6.375,11.928-9.836,17.891Zm-1.861,17.891H72.46q-3.91-8.946-7.658-17.891c-3.367,5.959-6.9,11.927-10.665,17.891Zm20.253-35.782H91.43c-2.768-5.963-5.494-11.927-8.231-17.89-2.841,5.963-5.76,11.927-8.81,17.89Zm-.793,17.891H91.159c-2.82-5.963-5.547-11.927-8.252-17.891q-4.462,8.946-9.31,17.891Zm-1.121,17.891H90.794c-2.9-5.964-5.682-11.932-8.409-17.891q-4.691,8.946-9.9,17.891Zm18.944-35.782H108.46q-4.363-8.945-8.533-17.89c-2.784,5.963-5.583,11.927-8.524,17.89Zm-.261,17.891h17.568c-3.06-5.963-5.958-11.927-8.794-17.891-2.836,5.964-5.735,11.928-8.784,17.891Zm-.36,17.891h18.314c-3.216-5.964-6.245-11.932-9.18-17.891q-4.379,8.94-9.154,17.891Zm17.677-35.782h17.047c-3.039-5.963-5.953-11.927-8.8-17.89-2.736,5.963-5.463,11.927-8.241,17.89Zm.261,17.891H126.3c-3.248-5.963-6.329-11.927-9.3-17.891-2.7,5.964-5.427,11.928-8.263,17.891Zm.375,17.891H127.4q-5.214-8.946-9.905-17.891-4.04,8.94-8.4,17.891Zm16.431-35.782h17.047c-3.175-5.963-6.183-11.927-9.081-17.89-2.679,5.963-5.312,11.927-7.955,17.89Zm.782,17.891H143.9c-3.456-5.963-6.709-11.927-9.836-17.891-2.575,5.964-5.14,11.928-7.752,17.891Zm1.121,17.891h18.313q-5.634-8.946-10.65-17.891c-2.518,5.959-5.056,11.927-7.684,17.891Zm20.7,17.88H167.4q-6.661-8.961-12.5-17.891c-2.2,5.964-4.447,11.927-6.777,17.891Zm2.851,17.9H171.4q-7.246-8.946-13.616-17.9c-2.158,5.969-4.4,11.933-6.777,17.9Zm3.29,17.891H176q-7.866-8.946-14.794-17.891c-2.2,5.985-4.457,11.927-6.939,17.891ZM142.6,2470.192h17.046q-4.962-8.945-9.383-17.89-3.91,8.944-7.668,17.89Zm1.3,17.891H161.44q-5.51-8.945-10.342-17.891c-2.44,5.964-4.828,11.928-7.23,17.891Zm1.867,17.891h18.276q-6.067-8.946-11.385-17.891c-2.3,5.959-4.561,11.927-6.933,17.891Zm-113.252,17.88H51.806c-2.33-5.964-4.566-11.927-6.776-17.891q-5.84,8.931-12.512,17.891Zm-4.008,17.9H48.929c-2.372-5.963-4.614-11.932-6.777-17.9Q35.76,2532.81,28.51,2541.75Zm-4.6,17.891H45.639c-2.455-5.963-4.738-11.906-6.907-17.891q-6.937,8.946-14.82,17.891Zm16.374-89.449H57.348c-2.5-5.963-5.031-11.927-7.663-17.89-2.982,5.963-6.089,11.927-9.41,17.89Zm-1.825,17.891H56.024c-2.4-5.963-4.775-11.927-7.21-17.891q-4.873,8.946-10.363,17.891Zm-2.606,17.891H54.163q-3.523-8.946-6.917-17.891c-3.571,5.959-7.356,11.927-11.406,17.891Z"/><path class="g" d="M20.513,2571.089c6.673-1.658,12.85.026,16.853,5.046l1.012,1.272c8.862,11.15,28,11.15,40.358,0l1.4-1.272c8.325-7.548,19.21-7.548,27.195,0,.449.422.892.85,1.345,1.272,11.829,11.15,30.965,11.15,40.354,0,.36-.422.714-.85,1.068-1.272,6.36-7.548,17.276-7.548,27.212,0l1.673,1.272c.949.7,1.924,1.387,2.909,2.007q-2.127-6.959-4.1-13.919c-13.293-8.57-26.774-7.756-35.448,2.5l-1.043,1.278c-6.365,7.543-18.548,7.543-26.513,0l-1.335-1.278c-11.687-11.149-26.8-11.149-38.972,0l-1.428,1.278c-8.278,7.543-20.461,7.543-26.513,0-.339-.427-.678-.85-1.011-1.277-5.458-6.808-13.293-9.467-21.869-7.95l-3.127,11.046Z"/><path class="g" d="M146.093,2590.893l-1.173,1.272c-6.9,7.543-20.195,7.543-28.88,0l-1.454-1.272c-12.751-11.151-29.151-11.151-42.444,0l-1.517,1.272c-9.039,7.543-22.327,7.543-28.88,0l-1.084-1.272c-5.9-6.808-14.383-9.472-23.73-7.95q-1.719,5.52-3.524,11.041c7.3-1.652,13.992,0,18.334,5.046l1.095,1.277c9.623,11.15,30.506,11.15,43.987,0l1.527-1.277c9.065-7.543,20.93-7.543,29.636,0l1.465,1.277c12.9,11.15,33.78,11.15,43.986,0,.386-.427.777-.85,1.158-1.277,6.917-7.543,18.766-7.543,29.641,0,.6.428,1.214.85,1.83,1.277,1.042.7,2.085,1.382,3.179,2.007q-2.351-6.958-4.571-13.918c-14.56-8.575-29.193-7.757-38.576,2.5Z"/><path class="g" d="M150.263,2613.793,149,2615.065c-7.533,7.544-22.02,7.544-31.492,0l-1.564-1.272c-13.908-11.155-31.8-11.15-46.28,0l-1.653,1.272c-9.852,7.544-24.339,7.544-31.486,0l-1.2-1.272c-6.433-6.813-15.639-9.471-25.861-7.949q-1.883,5.519-3.847,11.041c7.934-1.658,15.247.026,19.991,5.046l1.2,1.272c10.525,11.155,33.269,11.15,47.959,0l1.663-1.272c9.905-7.544,22.817-7.544,32.32,0,.522.422,1.043.85,1.595,1.272,14.075,11.155,36.8,11.15,47.96,0l1.272-1.272c7.543-7.544,20.481-7.544,32.32,0l1.991,1.272c1.131.709,2.283,1.386,3.461,2.012q-2.538-6.96-4.968-13.919c-15.951-8.575-31.882-7.783-42.12,2.5Z"/><path class="g" d="M16.65,2297.034c3.034-5.609,12.261-5.609,19.971,0l1.272.933c11.2,8.341,22.384,8.341,29.328,0l.782-.933c4.691-5.609,13.9-5.609,19.971,0l1.011.933c8.862,8.341,20.06,8.341,29.328,0l1.043-.933c6.312-5.609,15.54-5.609,19.97,0,.25.313.522.625.746.933,6.547,8.341,17.724,8.341,29.328,0l1.313-.933c7.95-5.609,17.177-5.609,19.977,0l.469.933a8.468,8.468,0,0,0,1.272,2.007q2.361-4.6,4.915-9.216l.673-1.2c-4.765-6.944-18.428-6.48-29.714,1.334l-1.34.933c-8,5.609-16.134,5.609-20.57,0-.271-.286-.521-.578-.818-.865-6.423-8.341-21.076-8.341-30.512,0l-1.042.933c-6.334,5.609-14.466,5.609-20.56,0-.339-.313-.678-.626-1.043-.933-9-8.341-23.656-8.341-30.511,0-.261.307-.521.62-.777.933-4.692,5.609-12.808,5.609-20.56,0-.433-.313-.865-.626-1.3-.933-11.583-8.341-26.237-8.341-30.512,0-.166.307-.328.62-.521.933a6.872,6.872,0,0,1-3.279,3.206q2.243,4.206,4.343,8.414a11.265,11.265,0,0,0,6.72-5.609Z"/><path class="g" d="M24.412,2314.992c2.888-5.6,11.219-5.6,18.11,0l1.142.939c10,8.341,20.221,8.341,26.586,0l.714-.939c4.29-5.6,12.621-5.6,18.11,0l.912.939c8.023,8.341,18.246,8.341,26.586,0l.944-.939c5.692-5.6,14.023-5.6,18.11,0l.683.939c6.042,8.341,16.264,8.341,26.586,0l1.173-.939c7.095-5.6,15.425-5.6,18.11,0l.453.939a8.786,8.786,0,0,0,1.21,2q2.257-5.177,4.749-10.348c-4.478-6.944-16.77-6.48-26.863,1.334l-1.2.934c-7.131,5.609-14.523,5.609-18.61,0l-.683-.934c-5.906-8.34-19.105-8.34-27.628,0l-.939.934c-5.734,5.609-13.105,5.609-18.61,0l-.907-.934c-8.132-8.34-21.326-8.34-27.628,0-.235.313-.474.621-.714.934-4.29,5.609-11.688,5.609-18.61,0l-1.163-.934c-10.358-8.34-23.552-8.34-27.628,0l-.475.934a6.771,6.771,0,0,1-3.055,3.2q1.908,4.207,3.686,8.435a10.791,10.791,0,0,0,6.255-5.63Z"/><path class="g" d="M31,2333.024c2.8-5.609,10.369-5.609,16.53,0,.339.308.683.62,1.043.933,8.935,8.341,18.37,8.341,24.3,0l.662-.933c3.982-5.609,11.546-5.609,16.535,0l.829.933c7.3,8.341,16.718,8.341,24.292,0,.287-.312.568-.625.855-.933,5.161-5.609,12.72-5.609,16.536,0,.213.308.422.62.636.933,5.64,8.341,15.076,8.341,24.292,0l1.043-.933c6.333-5.609,13.9-5.609,16.53,0,.151.308.3.62.448.933a9.48,9.48,0,0,0,1.173,2q1.881-5.177,3.982-10.348c-4.3-6.943-15.4-6.474-24.412,1.335l-1.089.933c-6.37,5.6-13.147,5.6-16.968,0l-.6-.933c-5.51-8.341-17.433-8.341-25.142,0l-.845.933c-5.176,5.609-11.953,5.609-16.952,0-.282-.308-.558-.62-.84-.933-7.387-8.341-19.288-8.341-25.142,0l-.662.933c-3.983,5.609-10.759,5.609-16.952,0l-1.043-.933c-9.258-8.341-21.185-8.341-25.142,0-.151.313-.308.625-.459.933a6.87,6.87,0,0,1-2.888,3.206q1.611,4.206,3.081,8.414a10.64,10.64,0,0,0,5.912-5.609Z"/><path class="g" d="M181.932,2256.774c-9.957,5.61-19.9,5.61-25.257,0l-.891-.933c-7.768-8.341-25.867-8.341-37.487,0l-1.308.933a21.048,21.048,0,0,1-25.252,0l-1.256-.933c-11.093-8.341-29.192-8.341-37.491,0l-.939.933c-5.656,5.61-15.6,5.61-25.262,0l-1.616-.933c-14.419-8.341-32.518-8.341-37.491,0-.193.313-.386.62-.574.933a7.852,7.852,0,0,1-3.732,3.128q2.908,4.218,5.677,8.419a12.678,12.678,0,0,0,7.819-5.541c.193-.313.391-.626.589-.934,3.514-5.609,14.883-5.609,24.5,0,.521.308,1.043.621,1.595.934,13.992,8.34,27.587,8.34,35.97,0,.312-.313.625-.626.943-.934,5.646-5.609,17.015-5.609,24.5,0,.417.308.829.621,1.241.934,10.947,8.34,24.542,8.34,35.969,0l1.293-.934c7.772-5.609,19.142-5.609,24.5,0l.891.934c7.893,8.34,21.488,8.34,35.969,0l1.627-.934c9.905-5.609,21.279-5.609,24.5,0l.521.934a15.728,15.728,0,0,0,1.371,1.934q3.483-5.255,7.2-10.468c-5.734-6.74-22.546-6.208-36.412,1.564Z"/><path class="g" d="M8.1,2279.941c3.232-5.609,13.434-5.609,22.02,0l1.423.938c12.48,8.341,24.746,8.341,32.32,0l.85-.938c5.109-5.609,15.31-5.609,22.025,0l1.11.938c9.811,8.341,22.077,8.341,32.32,0l1.157-.938c6.985-5.609,17.2-5.609,22.025,0l.808.938c7.136,8.341,19.4,8.341,32.32,0l1.47-.938c8.862-5.609,19.058-5.609,22.02,0,.172.312.344.625.521.938a9.983,9.983,0,0,0,1.319,1.934q3.029-5.212,6.292-10.483c-5.213-6.74-20.242-6.256-32.685,1.564l-1.5.933c-8.9,5.609-17.855,5.609-22.692,0-.266-.313-.522-.62-.808-.933-7.007-8.341-23.234-8.341-33.681,0-.4.312-.787.62-1.173.933-7.011,5.609-15.962,5.609-22.7,0-.37-.313-.746-.62-1.126-.933-9.941-8.341-26.174-8.341-33.681,0-.287.312-.574.62-.855.933-5.119,5.609-14.075,5.609-22.692,0l-1.449-.933c-12.876-8.341-29.109-8.341-33.681,0-.183.312-.36.62-.521.933a7.15,7.15,0,0,1-3.566,3.18q2.565,4.206,4.978,8.413a11.933,11.933,0,0,0,7.3-5.609c.173-.292.339-.578.522-.87Z"/><path class="g" d="M191.346,2238.68c-11.13,5.609-22.2,5.609-28.149,0l-1.007-.933c-8.637-8.341-28.832-8.341-41.8,0l-1.454.933a25.646,25.646,0,0,1-28.15,0l-1.4-.933c-12.37-8.341-32.565-8.341-41.8,0l-1.043.933c-6.287,5.609-17.359,5.609-28.15,0l-1.835-.933c-16.1-8.341-36.3-8.341-41.8,0-.214.313-.423.625-.636.933a8.466,8.466,0,0,1-4.139,3.128q3.3,4.206,6.4,8.413c3.758-.933,6.777-2.736,8.664-5.541.214-.313.432-.625.651-.933,3.874-5.609,16.557-5.609,27.306,0q.9.462,1.783.933c15.639,8.341,30.756,8.341,40.087,0l1.043-.933c6.255-5.609,18.96-5.609,27.31,0l1.387.933c12.209,8.341,27.332,8.341,40.083,0,.48-.313.959-.625,1.444-.933,8.674-5.609,21.373-5.609,27.305,0l1,.933c8.757,8.341,23.885,8.341,40.082,0,.61-.313,1.22-.625,1.835-.933,11.078-5.609,23.761-5.609,27.311,0,.2.308.4.62.594.933a15.486,15.486,0,0,0,1.517,1.934q3.888-5.238,8.038-10.478c-6.339-6.745-25.095-6.209-40.577,1.533Z"/><path class="g" d="M125.053,2452.1c-11.411-18.636-21.837-37.293-33.931-55.914h35.209C125.178,2414.8,124.808,2433.462,125.053,2452.1ZM67.737,2340.219H24.788a308.8,308.8,0,0,1,48.746,55.914c-1.137-18.642-3.029-37.279-5.8-55.915Zm6.959,83.928c-5.395,9.321-10.827,18.642-16.608,27.957H74.822q.177-13.976-.126-27.962Zm-1.157-27.957c-5.291,9.321-10.4,18.642-15.639,27.957H74.712q-.329-13.976-1.173-27.962Zm17.969,27.957c-5.531,9.321-10.989,18.642-16.681,27.957H91.555q.052-13.976-.047-27.962Zm-.386-27.957c-5.671,9.321-11.03,18.642-16.426,27.957H91.508q-.1-13.976-.386-27.962Zm-33.258,27.952c-5.26,9.321-10.666,18.641-16.525,27.957H58.067q.292-13.971-.2-27.957Zm-1.934-27.957c-4.927,9.321-9.78,18.62-14.909,27.957H57.853q-.521-13.977-1.95-27.957Zm54.736-55.966H89.209a313.478,313.478,0,0,1,20.279,27.957q.485-13.981,1.172-27.957Zm-1.173,28.009H90.4c6.688,9.321,12.673,18.641,18.344,27.957q.282-13.971.761-27.957Zm22.619-28.009h-21.43c6.688,9.315,12.511,18.636,17.938,27.957q1.449-13.981,3.508-27.957Zm-3.514,28.009h-19.09c6.047,9.321,11.531,18.641,16.822,27.957q.865-13.971,2.284-27.957Zm-38.252,0c-6.047,9.321-11.531,18.641-16.823,27.957H91.107Q90.825,2382.214,90.346,2368.228Zm-1.137-28.009c-6.683,9.315-12.511,18.636-17.938,27.957H90.356q-.474-13.981-1.173-27.957Zm85.894,0H132.127c11.537,18.636,20.331,37.272,29.422,55.914A298.785,298.785,0,0,1,175.1,2340.219Zm-16.238,83.928H142.027c5.254,9.321,10.665,18.642,16.525,27.957q-.423-13.976.287-27.962Zm2.7-27.957h-17.62c4.91,9.321,9.763,18.642,14.882,27.957q.726-13.976,2.7-27.962Zm-19.549,27.957H125.179c5.4,9.321,10.832,18.642,16.608,27.957q-.3-13.976.208-27.962Zm1.924-27.957H126.331c5.291,9.321,10.425,18.642,15.638,27.957q.522-13.976,1.945-27.962Z"/></g><path class="g" d="M100,5724.956v76.794a269.882,269.882,0,0,1-53.216-5.177C63.808,5774,81.9,5750.553,100,5724.955Z"/><path class="g" d="M200,5699.067v81.973c-13.807,6.9-29.758,12.081-46.782,15.533A684.5,684.5,0,0,0,200,5699.067Z"/><path class="g" d="M100,5955.342v38.4c-9.048,0-18.1-.162-27.01-.486C81.9,5980.725,90.952,5968.141,100,5955.342Z"/><path class="f" d="M72.989,5993.254v-38.56c8.914.432,17.962.647,27.011.648C90.951,5968.141,81.9,5980.725,72.989,5993.254Z"/><path class="h" d="M46.783,5991.8v-39.045c8.512.863,17.292,1.51,26.206,1.942C64.075,5967.117,55.3,5979.43,46.783,5991.8Z"/><path class="h" d="M46.783,5796.573v-78.09A217.943,217.943,0,0,0,100,5724.956C81.9,5750.554,63.807,5774,46.783,5796.573Z"/><path class="h" d="M0,5781.04v-81.973c13.807,8.63,29.759,15.1,46.783,19.416C29.759,5740.2,13.807,5760.619,0,5781.04Z"/><path class="g" d="M100,5571.37v76.79c-18.1,25.6-36.19,48.61-53.22,70.32v-78.09C63.81,5619.54,81.9,5596.96,100,5571.37Z"/><path class="g" d="M46.78,5562.3v78.09c-17.02,20.86-32.97,39.98-46.78,58.68v-81.98C13.81,5600.13,29.76,5582.29,46.78,5562.3Z"/><path class="f" d="M200,5617.094v81.973c-13.807,8.63-29.759,15.1-46.783,19.417A693.6,693.6,0,0,0,200,5617.1Z"/><path class="f" d="M22.185,5909.663v39.854c-7.841-1.3-15.281-2.8-22.185-4.53C6.9,5933.05,14.344,5921.329,22.185,5909.663Z"/><path class="f" d="M46.783,5913.708v39.045c-8.512-.863-16.756-1.941-24.6-3.236C30.027,5937.527,38.271,5925.645,46.783,5913.708Z"/><path class="h" d="M100,5916.944v38.4c-9.048,0-18.1-.216-27.01-.648C81.9,5942.272,90.952,5929.743,100,5916.944Z"/><path class="g" d="M46.783,6030.843V5991.8c8.512.647,17.292,1.133,26.206,1.456C64.075,6005.784,55.3,6018.26,46.783,6030.843Z"/><path class="g" d="M22.185,6029.225v-39.854c7.842.971,16.086,1.78,24.6,2.427C38.271,6004.166,30.027,6016.588,22.185,6029.225Z"/><path class="f" d="M22.18,5949.52v39.85C14.34,6001.69,6.9,6014.16,0,6026.96v-40.99C6.9,5973.61,14.34,5961.51,22.18,5949.52Z"/><path class="g" d="M153.22,5718.48v78.09c-17.03,29.48-35.12,56.38-53.22,81.98v-76.8C118.1,5776.15,136.19,5748.83,153.22,5718.48Z"/><path class="g" d="M0,5863.013V5781.04c13.807,6.9,29.759,12.081,46.783,15.533C29.76,5819.151,13.808,5840.866,0,5863.013Z"/><path class="g" d="M153.217,5562.3v-78.09A140.961,140.961,0,0,0,200,5453.149a720.2,720.2,0,0,1-46.782,109.156Z"/><path class="g" d="M100,5571.365v-76.8a141.642,141.642,0,0,0,53.216-10.355A733.345,733.345,0,0,1,100,5571.366Z"/><path class="h" d="M46.784,5562.3v-78.09A141.643,141.643,0,0,0,100,5494.569C81.9,5520.168,63.808,5542.315,46.784,5562.3Z"/><path class="g" d="M0,5535.122v-81.973a140.955,140.955,0,0,0,46.783,31.065C29.76,5503.341,13.808,5519.878,0,5535.122Z"/><path class="f" d="M72.99,5877.57c1.1.08,2.21.16,3.32.23-1.11-.07-2.21-.14-3.32-.22Z"/><path class="h" d="M200,5781.04v81.973c-13.807,5.178-29.758,9.061-46.782,11.65A678.674,678.674,0,0,0,200,5781.04Z"/><path class="h" d="M100,5993.74v38.4c-9.048,0-18.1-.108-27.011-.324C81.9,6019.177,90.952,6006.54,100,5993.74Z"/><path class="g" d="M153.217,5562.3v78.09A183.647,183.647,0,0,1,100,5648.16,787.013,787.013,0,0,0,153.217,5562.3Z"/><path class="g" d="M200,5535.12v81.97a693.3,693.3,0,0,1-46.78,101.39v-78.09A706,706,0,0,0,200,5535.12Z"/><path class="f" d="M22.185,5869.809v39.854C14.343,5908.044,6.9,5906.157,0,5904,6.9,5892.5,14.343,5881.151,22.185,5869.809Z"/><path class="g" d="M72.989,5877.575v38.56c-8.914-.539-17.694-1.348-26.206-2.427,8.512-11.937,17.292-23.927,26.206-36.132Z"/><path class="f" d="M100,5801.75v76.8c-9.05,12.79-18.1,25.27-27.01,37.58v-38.55c1.11.08,2.21.15,3.32.22-1.11-.07-2.22-.15-3.32-.23v.01q-13.155-.975-26.21-2.92C63.81,5851.22,81.9,5827.35,100,5801.75Z"/><path class="f" d="M72.99,5877.57c1.1.08,2.21.16,3.32.23-1.11-.07-2.21-.14-3.32-.22Z"/><path class="f" d="M127.01,5954.7v38.56c-8.914.324-17.962.485-27.01.485C109.048,5980.941,118.1,5967.979,127.01,5954.7Z"/><path class="g" d="M153.217,5952.753V5991.8c-8.512.648-17.292,1.133-26.206,1.457,8.914-13.177,17.694-26.624,26.206-40.5Z"/><path class="f" d="M177.814,5989.371v-39.854c7.842-1.294,15.282-2.8,22.186-4.53-6.9,15.388-14.344,30.129-22.186,44.385Z"/><path class="g" d="M177.815,5949.517v-39.854c7.842-1.619,15.281-3.506,22.185-5.663C193.1,5919.819,185.657,5934.938,177.815,5949.517Z"/><path class="g" d="M100,5955.342v-38.4c9.048,0,18.1-.27,27.011-.809C118.1,5929.527,109.048,5942.542,100,5955.342Z"/><path class="f" d="M153.217,5913.708v39.045c-8.512.863-17.292,1.51-26.206,1.942C135.925,5941.41,144.705,5927.8,153.217,5913.708Z"/><path class="h" d="M177.815,5909.663v39.854c-7.842,1.294-16.086,2.373-24.6,3.236C161.729,5938.875,169.973,5924.565,177.815,5909.663Z"/><path class="g" d="M200,5944.99v40.98c-6.9,14.96-14.34,29.32-22.19,43.26v-39.86h.01C185.66,5975.12,193.1,5960.37,200,5944.99Z"/><path class="g" d="M153.217,6030.843V5991.8c8.512-.647,16.756-1.456,24.6-2.427C169.973,6003.626,161.729,6017.4,153.217,6030.843Z"/><path class="h" d="M200,5985.973v40.987c-6.9.863-14.343,1.618-22.185,2.265,7.842-13.932,15.281-28.3,22.185-43.252Z"/><path class="f" d="M127.01,5877.575v38.56c-8.914.54-17.962.809-27.01.809C109.048,5904.145,118.1,5891.076,127.01,5877.575Z"/><path class="g" d="M177.815,5869.809v39.854c-7.842,1.618-16.086,2.966-24.6,4.045C161.729,5899.614,169.973,5885.035,177.815,5869.809Z"/><path class="f" d="M177.814,5909.663v-39.854a200.861,200.861,0,0,0,22.186-6.8c-6.9,16.251-14.344,31.747-22.186,46.65Z"/><path class="f" d="M22.185,6108.934v39.854c-7.842.323-15.281.7-22.185,1.132C6.9,6135.827,14.343,6122.218,22.185,6108.934Z"/><path class="g" d="M100,6108.934v38.4c-9.048,0-18.1.053-27.01.161C81.9,6134.532,90.952,6121.733,100,6108.934Z"/><path class="f" d="M72.989,6147.493v-38.56H100C90.951,6121.733,81.9,6134.532,72.989,6147.493Z"/><path class="h" d="M46.783,6147.979v-39.045H72.989C64.075,6121.787,55.3,6134.748,46.783,6147.979Z"/><path class="h" d="M100,6070.536v38.4H72.99C81.9,6096.08,90.952,6083.335,100,6070.536Z"/><path class="g" d="M22.185,6188.642v-39.855c7.842-.324,16.086-.593,24.6-.808C38.271,6161.209,30.027,6174.71,22.185,6188.642Z"/><path class="f" d="M22.185,6029.225v39.854c-7.842-.324-15.281-.7-22.185-1.133C6.9,6054.715,14.343,6041.862,22.185,6029.225Z"/><path class="g" d="M72.989,6031.814v38.56c-8.914-.108-17.694-.27-26.206-.485C55.3,6057.089,64.075,6044.452,72.989,6031.814Z"/><path class="f" d="M72.989,6070.374v-38.561c8.914.216,17.962.324,27.011.324C90.951,6044.937,81.9,6057.628,72.989,6070.374Z"/><path class="g" d="M153.217,6108.934v39.045c-8.512-.216-17.292-.378-26.206-.486C135.925,6134.748,144.705,6121.949,153.217,6108.934Z"/><path class="g" d="M200,6108.934v40.986c-6.9-.431-14.343-.809-22.185-1.132C185.657,6135.827,193.1,6122.6,200,6108.934Z"/><path class="g" d="M177.815,6108.934V6069.08c7.842-.324,15.281-.7,22.185-1.133C193.1,6082.04,185.657,6095.649,177.815,6108.934Z"/><path class="g" d="M100,6108.934v-38.4c9.048,0,18.1-.054,27.011-.162C118.1,6083.335,109.048,6096.134,100,6108.934Z"/><path class="f" d="M153.217,6069.888v39.045H127.011C135.925,6096.08,144.705,6083.119,153.217,6069.888Z"/><path class="h" d="M177.815,6069.079v39.854h-24.6C161.729,6095.918,169.973,6082.688,177.815,6069.079Z"/><path class="g" d="M153.217,6187.023v-39.044c8.512.215,16.756.485,24.6.809-7.842,12.961-16.086,25.652-24.6,38.236Z"/><path class="f" d="M127.01,6031.814v38.56c-8.914.108-17.962.162-27.01.162C109.048,6057.736,118.1,6044.883,127.01,6031.814Z"/><path class="g" d="M177.815,6029.225v39.854c-7.842.324-16.086.593-24.6.809C161.729,6056.658,169.973,6043.157,177.815,6029.225Z"/><path class="g" d="M100,6262.525v38.4c-9.048,0-18.1.27-27.01.809C81.9,6288.339,90.952,6275.324,100,6262.525Z"/><path class="h" d="M46.783,6304.159v-39.045c8.512-.863,17.292-1.51,26.206-1.942C64.075,6276.457,55.3,6290.065,46.783,6304.159Z"/><path class="f" d="M46.783,6226.069v39.045c-8.512.863-16.756,1.941-24.6,3.236C30.027,6253.771,38.271,6239.731,46.783,6226.069Z"/><path class="f" d="M22.185,6188.642V6228.5c-7.842.97-15.281,2.1-22.185,3.4C6.9,6216.937,14.343,6202.573,22.185,6188.642Z"/><path class="g" d="M72.989,6186.053v38.56c-8.914.324-17.694.809-26.206,1.456C55.3,6212.407,64.075,6199.122,72.989,6186.053Z"/><path class="f" d="M72.989,6224.613v-38.56c8.914-.216,17.962-.324,27.011-.324-9.049,12.8-18.1,25.707-27.011,38.883Z"/><path class="f" d="M127.01,6263.172v38.56c-8.914-.539-17.962-.809-27.01-.809C109.048,6288.124,118.1,6275.594,127.01,6263.172Z"/><path class="h" d="M100,6300.9v38.4c-9.048,0-18.1.324-27.01.971C81.9,6326.772,90.952,6313.7,100,6300.9Z"/><path class="g" d="M200,6272.88v40.987c-6.9-2.158-14.343-4.045-22.185-5.663C185.657,6296.537,193.1,6284.816,200,6272.88Z"/><path class="g" d="M100,6262.525v-38.4c9.048,0,18.1.162,27.011.485C118.1,6237.142,109.048,6249.726,100,6262.525Z"/><path class="f" d="M153.217,6226.069v39.045c-8.512-.863-17.292-1.51-26.206-1.942C135.925,6250.75,144.705,6238.437,153.217,6226.069Z"/><path class="g" d="M153.217,6343.2v-39.045c8.512,1.078,16.756,2.426,24.6,4.045-7.842,11.666-16.086,23.279-24.6,35Z"/><path class="f" d="M127.01,6186.053v38.56c-8.914-.324-17.962-.486-27.01-.486C109.048,6211.328,118.1,6198.69,127.01,6186.053Z"/><path class="g" d="M177.815,6188.642V6228.5c-7.842-.971-16.086-1.78-24.6-2.427C161.729,6213.7,169.973,6201.279,177.815,6188.642Z"/><path class="h" d="M46.783,6460.34V6421.3a256.4,256.4,0,0,1,26.206-3.883c-8.914,13.715-17.694,27.971-26.206,42.928Z"/><path class="f" d="M22.185,6348.058v39.854A180.331,180.331,0,0,0,0,6395.84C6.9,6379.158,14.343,6363.284,22.185,6348.058Z"/><path class="g" d="M72.989,6340.292v38.56c-8.914.755-17.694,1.888-26.206,3.4C55.3,6367.725,64.075,6353.792,72.989,6340.292Z"/><path class="g" d="M153.217,6421.294v39.045a229.983,229.983,0,0,0-26.206-4.368c8.914-11.883,17.694-23.388,26.206-34.677Z"/><path class="g" d="M100,6416.117v-38.4c9.048,0,18.1.377,27.011,1.133C118.1,6390.95,109.048,6403.317,100,6416.117Z"/><path class="h" d="M177.815,6387.913v39.854a214.738,214.738,0,0,0-24.6-6.473C161.729,6410.005,169.973,6398.932,177.815,6387.913Z"/><path class="f" d="M127.01,6340.292v38.56c-8.914-.755-17.962-1.133-27.01-1.133C109.048,6364.919,118.1,6352.5,127.01,6340.292Z"/><path class="g" d="M34.233,6463.616v19.7q-6.157,1.923-12.048,4.227Q28.067,6475.279,34.233,6463.616Z"/><path class="h" d="M46.783,6518.9v19.523q-6.384,1.78-12.55,4Q40.391,6530.348,46.783,6518.9Z"/><path class="g" d="M100,6492.913v19.2q-6.786,0-13.555.425Q93.206,6502.5,100,6492.913Z"/><path class="g" d="M46.783,6499.385v-19.523q6.384-1.537,12.953-2.69Q53.175,6488.015,46.783,6499.385Z"/><path class="f" d="M72.99,6475.25v19.28q-6.685.81-13.254,2.023,6.559-10.9,13.254-21.3Z"/><path class="g" d="M34.233,6542.435v19.7q-6.157,2.325-12.048,5.117Q28.067,6554.5,34.233,6542.435Z"/><path class="g" d="M46.783,6577.475v-19.522q6.384-1.861,12.953-3.257Q53.175,6565.783,46.783,6577.475Z"/><path class="h" d="M86.445,6550.975v19.219q-6.76.486-13.455,1.456Q79.676,6561.039,86.445,6550.975Z"/><path class="f" d="M127.011,6475.25v19.28q-6.685-.809-13.455-1.213Q120.317,6484.112,127.011,6475.25Z"/><path class="f" d="M165.767,6503.025v19.7q-6.157-2.123-12.55-3.822Q159.6,6510.846,165.767,6503.025Z"/><path class="h" d="M153.217,6518.9v19.523q-6.384-1.78-12.952-3.115Q146.825,6526.95,153.217,6518.9Z"/><path class="g" d="M200,6518.8v20.493q-5.178-3.4-10.741-6.371Q194.815,6525.8,200,6518.8Z"/><path class="g" d="M153.217,6499.385v-19.523q6.384,1.537,12.55,3.459Q159.61,6491.252,153.217,6499.385Z"/><path class="f" d="M177.815,6487.548v19.927q-5.881-2.427-12.047-4.45,6.157-7.83,12.047-15.478Z"/><path class="f" d="M165.767,6463.616v19.7q-6.157-1.922-12.55-3.458Q159.6,6471.638,165.767,6463.616Z"/><path class="h" d="M127.01,6590.93v-19.28q6.687.97,13.254,2.427Q133.7,6582.311,127.01,6590.93Z"/><path class="f" d="M113.556,6531.755v19.22q-6.762-.467-13.556-.466Q106.786,6540.909,113.556,6531.755Z"/><path class="g" d="M140.265,6535.315V6554.7q-6.561-1.4-13.254-2.326Q133.7,6543.661,140.265,6535.315Z"/><path class="g" d="M153.217,6577.475v-19.522q6.384,1.86,12.55,4.186Q159.61,6569.666,153.217,6577.475Z"/><path class="f" d="M165.767,6542.435v19.7q-6.157-2.327-12.55-4.186Q159.6,6550.053,165.767,6542.435Z"/><path class="g" d="M34.233,6601.548v19.7q-6.157,2.63-12.048,5.785Q28.067,6613.919,34.233,6601.548Z"/><path class="g" d="M72.99,6668.05v-19.28q6.686-1.132,13.455-1.7-6.762,10.176-13.455,20.979Z"/><path class="g" d="M86.445,6589.413v19.219q-6.762.527-13.455,1.578Q79.676,6599.518,86.445,6589.413Z"/><path class="h" d="M127.01,6648.77v-19.28q6.687,1.094,13.254,2.73Q133.7,6640.272,127.01,6648.77Z"/><path class="f" d="M113.556,6589.413v19.219q-6.762-.525-13.556-.526Q106.786,6598.508,113.556,6589.413Z"/><path class="f" d="M177.815,6627.038v19.927q-5.881-3.276-12.047-6.007,6.157-7.123,12.047-13.92Z"/><path class="h" d="M127.01,6725.889v-19.28q6.687,1.254,13.254,3.135Q133.7,6717.555,127.01,6725.889Z"/><path class="f" d="M113.556,6666.29v19.219q-6.762-.606-13.556-.607Q106.786,6675.3,113.556,6666.29Z"/><path class="h" d="M46.783,5640.394V5562.3A159.483,159.483,0,0,0,100,5571.365c-18.1,25.6-36.193,48.177-53.217,69.029Z"/><path class="f" d="M153.218,5640.394V5562.3A143.968,143.968,0,0,0,200,5535.122,705.67,705.67,0,0,1,153.218,5640.394Z"/><path class="f" d="M100,5724.956v-76.8a183.645,183.645,0,0,0,53.216-7.766A854.307,854.307,0,0,1,100,5724.956Z"/></svg>