<svg viewBox="0 0 200 100" xmlns="http://www.w3.org/2000/svg" xmlns:xlink="http://www.w3.org/1999/xlink"><linearGradient id="a" gradientTransform="matrix(1 0 0 -1 0 102)" gradientUnits="userSpaceOnUse" x1="2.55637" x2="196.91476" y1="44.71609" y2="44.71609"><stop offset="0" stop-color="#00f"/><stop offset=".25" stop-color="#0ff"/><stop offset=".5" stop-color="#0f0"/><stop offset=".75" stop-color="#ff0"/><stop offset="1" stop-color="#f0f"/></linearGradient><linearGradient id="b" x1="2.55758" x2="196.91598" xlink:href="#a" y1="46.68604" y2="46.68604"/><linearGradient id="c" x1="2.55758" x2="196.91598" xlink:href="#a" y1="44.71759" y2="44.71759"/><linearGradient id="d" x1="2.55758" x2="196.91598" xlink:href="#a" y1="46.40548" y2="46.40548"/><linearGradient id="e" x1="2.55758" x2="196.91598" xlink:href="#a" y1="44.71609" y2="44.71609"/><linearGradient id="f" x1="2.55758" x2="196.91598" xlink:href="#a" y1="44.82798" y2="44.82798"/><linearGradient id="g" x1="2.55758" x2="196.91598" xlink:href="#a" y1="47.3755" y2="47.3755"/><linearGradient id="h" x1="2.55758" x2="196.91598" xlink:href="#a" y1="44.82768" y2="44.82768"/><linearGradient id="i" x1="2.55758" x2="196.91598" xlink:href="#a" y1="46.57489" y2="46.57489"/><linearGradient id="j" x1="2.55758" x2="196.91598" xlink:href="#a" y1="44.60232" y2="44.60232"/><linearGradient id="k" x1="2.55758" x2="196.91598" xlink:href="#a" y1="42.85406" y2="42.85406"/><linearGradient id="l" x1="2.55758" x2="196.91598" xlink:href="#a" y1="40.68797" y2="40.68797"/><linearGradient id="m" x1="2.55758" x2="196.91598" xlink:href="#a" y1="44.71525" y2="44.71525"/><path d="m0 0h200v100h-200z"/><g fill="#fff"><path d="m8.99605 39.88672v-.80567h-2.1416v-4.20214h.86328v3.4248h.78907v-3.4248h.86328v3.4248h.43164v1.583z"/><path d="m12.57711 39.08105v-4.20214h.75976v1.84179c0 .13086-.00488.28223-.01464.45508s-.02051.34375-.03125.51172c-.01172.169-.02344.31738-.03516.44336l1.07715-3.252h1.00683v4.20214h-.7598v-1.72748q0-.20069.01465-.47754c.00976-.1836.02148-.37012.03711-.5586.01562-.1875.02929-.35058.04-.48926l-1.08789 3.25293z"/><path d="m19.37008 39.22461v-.40234a1.23768 1.23768 0 0 1 -.63086-.15821 1.10816 1.10816 0 0 1 -.42578-.44336 1.37953 1.37953 0 0 1 -.15235-.65918v-1.249a1.36973 1.36973 0 0 1 .15235-.66211 1.10669 1.10669 0 0 1 .42578-.44043 1.23814 1.23814 0 0 1 .63086-.15918v-.40234h.69043v.40234a1.234 1.234 0 0 1 .63379.15918 1.11288 1.11288 0 0 1 .42285.44043 1.36983 1.36983 0 0 1 .15234.66211v1.249a1.37953 1.37953 0 0 1 -.15234.65918 1.11426 1.11426 0 0 1 -.42285.44336 1.23355 1.23355 0 0 1 -.63379.15821v.40234zm.03418-1.07031v-2.44141a.48279.48279 0 0 0 -.44922.28516.74075.74075 0 0 0 -.0625.31445v1.249a.71365.71365 0 0 0 .0625.31055.4865.4865 0 0 0 .44922.28223zm.62207 0a.48708.48708 0 0 0 .2705-.0752.50128.50128 0 0 0 .17872-.207.71351.71351 0 0 0 .0625-.31055v-1.249a.74075.74075 0 0 0 -.0625-.31445.50381.50381 0 0 0 -.17872-.21.48716.48716 0 0 0 -.2705-.0752z"/><path d="m24.125 39.08105v-4.20214h1.43359a1.69764 1.69764 0 0 1 .77442.167 1.22739 1.22739 0 0 1 .51172.46582 1.43737 1.43737 0 0 1 -.002 1.40234 1.25332 1.25332 0 0 1 -.51269.46875 1.67938 1.67938 0 0 1 -.77149.167h-.57031v1.53125zm.86328-2.27929h.57031a.58886.58886 0 0 0 .44043-.167.62066.62066 0 0 0 0-.84082.58884.58884 0 0 0 -.44043-.167h-.57031z"/><path d="m31.22945 39.13867a1.59289 1.59289 0 0 1 -.73144-.1582 1.15441 1.15441 0 0 1 -.48047-.44336 1.276 1.276 0 0 1 -.16992-.665v-1.78422a1.2712 1.2712 0 0 1 .16992-.665 1.14823 1.14823 0 0 1 .48047-.44336 1.77457 1.77457 0 0 1 1.46484 0 1.158 1.158 0 0 1 .47754.44336 1.2711 1.2711 0 0 1 .16992.665v1.78418a1.276 1.276 0 0 1 -.16992.665 1.1645 1.1645 0 0 1 -.47754.44336 1.58722 1.58722 0 0 1 -.7334.15824zm0-.748a.51405.51405 0 0 0 .3877-.13574.52854.52854 0 0 0 .12988-.38281v-1.78423a.53413.53413 0 0 0 -.12695-.38574.64231.64231 0 0 0 -.78223 0 .53411.53411 0 0 0 -.127.38574v1.78418a.52854.52854 0 0 0 .12988.38281.515.515 0 0 0 .38872.13574z"/><path d="m35.63863 39.08105v-4.20214h1.35254a1.84952 1.84952 0 0 1 .73438.13476 1.1576 1.1576 0 0 1 .48925.377.93483.93483 0 0 1 .17578.56446.89534.89534 0 0 1 -.25878.668.93842.93842 0 0 1 -.68555.25293v-.04a.99986.99986 0 0 1 .751.27636 1.01237 1.01237 0 0 1 .28515.75391 1.1317 1.1317 0 0 1 -.18067.63672 1.2145 1.2145 0 0 1 -.50391.42578 1.75046 1.75046 0 0 1 -.75487.15234zm.835-2.50976h.50684a.55356.55356 0 0 0 .39648-.13574.47452.47452 0 0 0 .14453-.36524.46328.46328 0 0 0 -.14453-.36523.56889.56889 0 0 0 -.39648-.12988h-.50684zm0 1.81348h.53516a.62231.62231 0 0 0 .44336-.15039.53636.53636 0 0 0 .16113-.41407.54581.54581 0 0 0 -.16113-.417.61926.61926 0 0 0 -.44336-.15332h-.53516z"/><path d="m41.15914 39.08105 1.03125-4.20214h1.09375l1.042 4.20214h-.88086l-.20215-.95019h-1.001l-.20214.95019zm1.22656-1.64062h.708l-.20117-1.01367c-.02735-.14551-.05469-.29-.084-.43457-.02832-.14356-.05078-.25586-.06543-.33692-.01562.081-.03613.19239-.06054.334-.02539.14257-.05274.28612-.084.43262z"/><path d="m46.98531 39.08105.77735-1.72753a1.10611 1.10611 0 0 1 -.53223-.4629 1.37827 1.37827 0 0 1 -.19922-.73437 1.24346 1.24346 0 0 1 .18164-.67871 1.18126 1.18126 0 0 1 .5127-.44336 1.80562 1.80562 0 0 1 .77445-.15527h1.34668v4.20214h-.85742v-1.58886h-.40336l-.67383 1.58886zm1.51469-2.33691h.48926v-1.11714h-.48926a.62622.62622 0 0 0 -.44336.14942.54748.54748 0 0 0 -.16113.4209.51178.51178 0 0 0 .16113.40234.638.638 0 0 0 .44336.14448z"/><path d="m58.26363 39.13867a1.6296 1.6296 0 0 1 -.7373-.1582 1.19191 1.19191 0 0 1 -.49219-.44336 1.24251 1.24251 0 0 1 -.17481-.665h.86329a.50577.50577 0 0 0 .14062.38281.65837.65837 0 0 0 .80078 0 .50573.50573 0 0 0 .14063-.38281v-.51855h-1.17965v-.77637h1.17969v-.48926a.5039.5039 0 0 0 -.14063-.38574.66994.66994 0 0 0 -.80078 0 .50393.50393 0 0 0 -.14062.38574h-.86329a1.234 1.234 0 0 1 .17481-.668 1.1922 1.1922 0 0 1 .49219-.44043 1.80181 1.80181 0 0 1 1.47656 0 1.19284 1.19284 0 0 1 .49023.44043 1.24267 1.24267 0 0 1 .17481.668v1.78418a1.25137 1.25137 0 0 1 -.17481.665 1.19267 1.19267 0 0 1 -.49023.44336 1.62091 1.62091 0 0 1 -.7393.1582z"/><path d="m62.69039 39.08105v-4.20214h.86328v1.65234h.40333l.70215-1.65234h.93262l-.875 1.99121.91014 2.21093h-.94432l-.71973-1.80175h-.40918v1.80175z"/><path d="m69.80074 39.13867a1.59288 1.59288 0 0 1 -.73143-.1582 1.15435 1.15435 0 0 1 -.48047-.44336 1.27613 1.27613 0 0 1 -.16993-.665v-1.78422a1.27121 1.27121 0 0 1 .16993-.665 1.14811 1.14811 0 0 1 .48047-.44336 1.77457 1.77457 0 0 1 1.46484 0 1.15809 1.15809 0 0 1 .47754.44336 1.2712 1.2712 0 0 1 .16992.665v1.78418a1.276 1.276 0 0 1 -.16992.665 1.1645 1.1645 0 0 1 -.47754.44336 1.58726 1.58726 0 0 1 -.73341.15824zm0-.748a.51407.51407 0 0 0 .38771-.13574.52858.52858 0 0 0 .12988-.38281v-1.78423a.53413.53413 0 0 0 -.127-.38574.64231.64231 0 0 0 -.78223 0 .53413.53413 0 0 0 -.12695.38574v1.78418a.52854.52854 0 0 0 .12988.38281.515.515 0 0 0 .38866.13574z"/><path d="m75.58 39.13867a1.6255 1.6255 0 0 1 -.73633-.1582 1.18862 1.18862 0 0 1 -.49315-.44336 1.25127 1.25127 0 0 1 -.17482-.665v-1.78422a1.24259 1.24259 0 0 1 .17482-.668 1.18889 1.18889 0 0 1 .49315-.44043 1.80176 1.80176 0 0 1 1.47657 0 1.19624 1.19624 0 0 1 .48925.44043 1.24257 1.24257 0 0 1 .1748.668h-.86329a.50389.50389 0 0 0 -.14062-.38574.66994.66994 0 0 0 -.80078 0 .50393.50393 0 0 0 -.14063.38574v1.78418a.50577.50577 0 0 0 .14063.38281.65837.65837 0 0 0 .80078 0 .50577.50577 0 0 0 .14062-.38281h.86328a1.25128 1.25128 0 0 1 -.1748.665 1.19611 1.19611 0 0 1 -.48925.44336 1.62789 1.62789 0 0 1 -.74023.15824z"/><path d="m79.93258 39.08105v-4.20214h.75976v1.84179c0 .13086-.00489.28223-.01465.45508s-.0205.34375-.03125.51172c-.01171.169-.02343.31738-.03515.44336l1.07715-3.252h1.00683v4.20214h-.75976v-1.72748q0-.20069.01465-.47754c.00976-.1836.02147-.37012.0371-.5586.01563-.1875.0293-.35058.04-.48926l-1.08789 3.25293z"/><path d="m87.09371 39.13867a1.6255 1.6255 0 0 1 -.73633-.1582 1.18869 1.18869 0 0 1 -.49315-.44336 1.25136 1.25136 0 0 1 -.17482-.665v-1.78422a1.24267 1.24267 0 0 1 .17482-.668 1.189 1.189 0 0 1 .49315-.44043 1.80176 1.80176 0 0 1 1.47657 0 1.19624 1.19624 0 0 1 .48925.44043 1.24267 1.24267 0 0 1 .17482.668h-.86328a.50394.50394 0 0 0 -.14064-.38574.66994.66994 0 0 0 -.80078 0 .50393.50393 0 0 0 -.14063.38574v1.78418a.50577.50577 0 0 0 .14063.38281.65837.65837 0 0 0 .80078 0 .50578.50578 0 0 0 .14064-.38281h.86326a1.25137 1.25137 0 0 1 -.17481.665 1.19613 1.19613 0 0 1 -.48926.44336 1.62807 1.62807 0 0 1 -.74022.15824z"/><path d="m92.39547 39.08105v-3.42578h-1.06447v-.77636h2.99317v.77636h-1.06444v3.42578z"/><path d="m97.31832 39.08105v-4.20214h2.58984v.748h-1.74416v.94434h1.543v.71387h-1.543v1.04788h1.74414v.748z"/><path d="m102.85641 39.08105v-4.20214h.97265l.374 1.32324c.042.13867.07422.25976.09472.36328.02149.10352.03418.17676.0381.21875a1.95071 1.95071 0 0 1 .03711-.21875c.0205-.10352.05078-.22461.08886-.36328l.38575-1.32324h.9785v4.20214h-.7881v-1.6123c0-.2793.00782-.54.02247-.7793q.02343-.36036.05761-.67968c.02343-.21289.04395-.417.06347-.61329l-.48926 1.9004h-.71971l-.48926-1.83106c.02343.165.04686.34668.07226.544q.03663.29589.06347.65625.0249.36035.02539.80273v1.6123z"/><path d="m108.51461 39.08105 1.03125-4.20214h1.09375l1.042 4.20214h-.88086l-.20215-.95019h-1.001l-.20215.95019zm1.22656-1.64062h.708l-.20117-1.01367c-.02735-.14551-.05469-.29-.084-.43457-.02832-.14356-.05078-.25586-.06543-.33692-.01562.081-.03613.19239-.06054.334-.02539.14257-.05274.28612-.084.43262z"/><path d="m118.61812 39.08105v-4.20214h2.58988v.748h-1.74414v.94434h1.543v.71387h-1.543v1.04788h1.74414v.748z"/><path d="m124.28805 39.08105v-4.20214h.86328v1.65234h.40332l.70215-1.65234h.93261l-.875 1.99121.91015 2.21093h-.94434l-.71972-1.80175h-.40918v1.80175z"/><path d="m129.81441 39.08105 1.03125-4.20214h1.09375l1.042 4.20214h-.88085l-.20215-.95019h-1.001l-.20215.95019zm1.22656-1.64062h.708l-.20117-1.01367c-.02734-.14551-.05469-.29-.084-.43457-.02832-.14356-.05078-.25586-.06543-.33692-.01562.081-.03613.19239-.06055.334-.02539.14257-.05273.28612-.084.43262z"/><path d="m136.72263 39.08105v-3.42578h-1.06446v-.77636h2.99317v.77636h-1.06446v3.42578z"/><path d="m141.64548 39.08105v-4.20214h2.58984v.748h-1.74414v.94434h1.543v.71387h-1.543v1.04788h1.74414v.748z"/><path d="m147.32124 39.08105v-4.20214h1.4336a1.6977 1.6977 0 0 1 .77441.167 1.22733 1.22733 0 0 1 .51172.46582 1.4374 1.4374 0 0 1 -.002 1.40234 1.25332 1.25332 0 0 1 -.51269.46875 1.67936 1.67936 0 0 1 -.77149.167h-.57031v1.53125zm.86328-2.27929h.57032a.58886.58886 0 0 0 .44043-.167.62068.62068 0 0 0 0-.84082.58886.58886 0 0 0 -.44043-.167h-.57032z"/><path d="m153.04391 39.08105v-4.20214h.75977v1.84179c0 .13086-.00488.28223-.01465.45508s-.02051.34375-.03125.51172c-.01172.169-.02344.31738-.03515.44336l1.07713-3.252h1.00683v4.20214h-.75976v-1.72748q0-.20069.01465-.47754c.00976-.1836.02148-.37012.03711-.5586.01562-.1875.02929-.35058.04-.48926l-1.08789 3.25293z"/><path d="m158.83492 39.08105v-4.20214h.86328v1.61132h.96777v-1.61132h.86328v4.20214h-.86325v-1.81347h-.96777v1.81347z"/><path d="m164.59177 39.08105v-4.20214h2.66015v.77636h-1.82519v.87012h.56445a1.70812 1.70812 0 0 1 .75977.1582 1.182 1.182 0 0 1 .68457 1.11329 1.19867 1.19867 0 0 1 -.68457 1.123 1.66933 1.66933 0 0 1 -.75489.16113zm.835-.71972h.56934a.582.582 0 0 0 .4209-.14942.534.534 0 0 0 .15527-.40332.54921.54921 0 0 0 -.15527-.41113.576.576 0 0 0 -.4209-.15332h-.56934z"/><path d="m170.89548 39.08105.43164-1.06543-1.21485-3.13671h.93262l.55274 1.709a2.88915 2.88915 0 0 1 .084.31738c.02441.11914.043.2168.05468.293.00782-.07617.02149-.1748.043-.2959a2.6722 2.6722 0 0 1 .07227-.31445l.52344-1.709h.90429l-1.47951 4.20214z"/><path d="m176.10542 39.08105v-4.20214h1.43358a1.69774 1.69774 0 0 1 .77442.167 1.22736 1.22736 0 0 1 .51171.46582 1.43737 1.43737 0 0 1 -.002 1.40234 1.2534 1.2534 0 0 1 -.5127.46875 1.67932 1.67932 0 0 1 -.77148.167h-.57032v1.53125zm.86328-2.27929h.57032a.58886.58886 0 0 0 .44043-.167.62068.62068 0 0 0 0-.84082.58886.58886 0 0 0 -.44043-.167h-.57032z"/><path d="m182.14449 39.08105v-4.20214h2.5615v.77636h-1.69824v3.42578z"/><path d="m187.38277 39.08105 1.03125-4.20214h1.09375l1.042 4.20214h-.88084l-.20215-.95019h-1.001l-.20214.95019zm1.22656-1.64062h.708l-.20117-1.01367c-.02734-.14551-.05469-.29-.084-.43457-.02832-.14356-.05078-.25586-.06543-.33692-.01562.081-.03613.19239-.06055.334-.02539.14257-.05273.28612-.084.43262z"/></g><path d="m7.832 63.52148a6.11385 6.11385 0 0 1 -2.79-.60156 4.37267 4.37267 0 0 1 -1.83887-1.68554 4.84213 4.84213 0 0 1 -.6455-2.52833v-2.84472a4.84451 4.84451 0 0 1 .6455-2.52832 4.37257 4.37257 0 0 1 1.83887-1.68555 6.12656 6.12656 0 0 1 2.79-.60156 5.99161 5.99161 0 0 1 2.76856.60156 4.41524 4.41524 0 0 1 1.81737 1.68554 4.85383 4.85383 0 0 1 .64551 2.52832v2.18848h-7.376v.65625a2.417 2.417 0 0 0 .54687 1.71875 2.15256 2.15256 0 0 0 1.64161.58008 2.53075 2.53075 0 0 0 1.23632-.26269 1.28435 1.28435 0 0 0 .624-.72266h3.21776a4.2684 4.2684 0 0 1 -1.78418 2.53906 5.71036 5.71036 0 0 1 -3.33782.96289zm2.10156-7.15722v-.54688a2.52538 2.52538 0 0 0 -.51464-1.707 1.99184 1.99184 0 0 0 -1.58692-.59085 2.02441 2.02441 0 0 0 -1.6084.61231 2.54492 2.54492 0 0 0 -.53613 1.72949v.32812l4.46484-.04394z" fill="url(#a)"/><path d="m15.88668 63.30273v-15.97753h3.2832v8.49218h1.66406l2.51661-4.55273h3.61132l-3.34863 5.88769 3.41406 6.15039h-3.67675l-2.53907-4.72753h-1.6416v4.72753z" fill="url(#b)"/><path d="m32.52047 63.52148a4.06654 4.06654 0 0 1 -2.87793-.98437 3.46568 3.46568 0 0 1 -1.06153-2.6709 3.28663 3.28663 0 0 1 1.31348-2.8125 6.24328 6.24328 0 0 1 3.76465-.97363h2.29786v-.876a1.33656 1.33656 0 0 0 -.50293-1.11621 2.22289 2.22289 0 0 0 -1.40137-.39355 2.43566 2.43566 0 0 0 -1.38964.35058 1.08514 1.08514 0 0 0 -.51465.94043h-3.06349a3.779 3.779 0 0 1 .667-2.08984 3.99433 3.99433 0 0 1 1.76172-1.36817 6.83257 6.83257 0 0 1 2.6709-.48144 5.69089 5.69089 0 0 1 3.69922 1.10546 3.72209 3.72209 0 0 1 1.35644 3.05273v8.09863h-3.17383v-1.86032h-.52537l.56933-.876a2.65589 2.65589 0 0 1 -.96289 2.15625 3.98842 3.98842 0 0 1 -2.62697.79885zm1.22653-2.38574a2.44075 2.44075 0 0 0 1.58594-.50293 1.60812 1.60812 0 0 0 .624-1.31347v-1.291h-2.23237a2.09836 2.09836 0 0 0 -1.36816.4043 1.37939 1.37939 0 0 0 -.49219 1.127 1.41882 1.41882 0 0 0 .5039 1.16016 2.09941 2.09941 0 0 0 1.37888.41594z" fill="url(#c)"/><path d="m48.52144 63.30273a3.63535 3.63535 0 0 1 -3.94044-3.93945v-5.14355h-3.17381v-2.95508h3.17381v-3.39258h3.28321v3.39258h4.4873v2.95508h-4.4873v5.03418a1.2013 1.2013 0 0 0 .252.78807.89307.89307 0 0 0 .7334.30568h3.2832v2.95507z" fill="url(#d)"/><path d="m60.36129 63.52148a6.11382 6.11382 0 0 1 -2.79-.60156 4.37255 4.37255 0 0 1 -1.83887-1.68554 4.84214 4.84214 0 0 1 -.64551-2.52833v-2.84472a4.84443 4.84443 0 0 1 .64551-2.52832 4.37257 4.37257 0 0 1 1.83887-1.68555 6.12656 6.12656 0 0 1 2.79-.60156 5.99145 5.99145 0 0 1 2.76855.60156 4.4151 4.4151 0 0 1 1.81739 1.68554 4.85394 4.85394 0 0 1 .6455 2.52832v2.18848h-7.376v.65625a2.417 2.417 0 0 0 .54687 1.71875 2.15259 2.15259 0 0 0 1.6416.58008 2.53077 2.53077 0 0 0 1.23633-.26269 1.28431 1.28431 0 0 0 .624-.72266h3.21778a4.2684 4.2684 0 0 1 -1.78418 2.53906 5.71037 5.71037 0 0 1 -3.33784.96289zm2.10156-7.15722v-.54688a2.52537 2.52537 0 0 0 -.51465-1.707 1.99179 1.99179 0 0 0 -1.58691-.59082 2.02441 2.02441 0 0 0 -1.6084.61231 2.54492 2.54492 0 0 0 -.53613 1.72949v.32812l4.46484-.04394z" fill="url(#e)"/><path d="m68.70113 63.30273v-12.03808h3.17387v2.29785h.96289l-.96289.7666a3.15322 3.15322 0 0 1 .92969-2.39648 3.48366 3.48366 0 0 1 2.50586-.88672 3.788 3.788 0 0 1 2.95507 1.23633 4.83118 4.83118 0 0 1 1.11622 3.36036v1.09375h-3.502v-.875a2.02335 2.02335 0 0 0 -.49218-1.45606 1.89369 1.89369 0 0 0 -1.4336-.51367 1.85613 1.85613 0 0 0 -1.4668.56835 2.439 2.439 0 0 0 -.50293 1.66406v7.17871z" fill="url(#f)"/><path d="m81.57027 63.30273v-2.95507h3.9834v-6.12793h-3.5459v-2.95508h6.8291v9.083h3.458v2.95507zm5.47173-13.94238a2.13058 2.13058 0 0 1 -1.43359-.459 1.71957 1.71957 0 0 1 -.06411-2.431q.03118-.03289.06411-.06411a2.46407 2.46407 0 0 1 2.86718 0 1.71957 1.71957 0 0 1 .06411 2.431q-.03118.03289-.06411.06411a2.13236 2.13236 0 0 1 -1.43359.459z" fill="url(#g)"/><path d="m94.61519 63.30273v-12.03808h3.17381v2.29785h.96289l-.96289.7666a3.26947 3.26947 0 0 1 .876-2.38574 3.1471 3.1471 0 0 1 2.36328-.89746 3.53713 3.53713 0 0 1 2.8125 1.22558 4.80631 4.80631 0 0 1 1.06153 3.26172v7.76953h-3.28321v-7.4414a2.02327 2.02327 0 0 0 -.49219-1.45606 2.07889 2.07889 0 0 0 -2.73632 0 2.02332 2.02332 0 0 0 -.49218 1.45606v7.4414z" fill="url(#h)"/><path d="m114.11617 63.52148a3.33247 3.33247 0 0 1 -2.39647-.86425 3.18012 3.18012 0 0 1 -.90821-2.41895l.875.7666h-.76562v2.29785h-3.17387v-15.97753h3.2832v3.2832l-.10936 2.9541h.76561l-.875.7666a3.18163 3.18163 0 0 1 .90822-2.41894 3.33244 3.33244 0 0 1 2.39647-.86426 3.63852 3.63852 0 0 1 2.91114 1.28027 5.09586 5.09586 0 0 1 1.09472 3.42583v3.06348a5.08365 5.08365 0 0 1 -1.0947 3.43652 3.65109 3.65109 0 0 1 -2.91113 1.26948zm-1.18164-2.8457a1.86453 1.86453 0 0 0 1.41211-.51367 2.02174 2.02174 0 0 0 .49219-1.45606v-2.84472a2.02331 2.02331 0 0 0 -.49219-1.45606 2.18171 2.18171 0 0 0 -2.8125 0 1.9945 1.9945 0 0 0 -.5039 1.45606v2.84472a1.993 1.993 0 0 0 .5039 1.45606 1.8679 1.8679 0 0 0 1.40039.51367z" fill="url(#i)"/><path d="m126.00191 63.52148a5.25639 5.25639 0 0 1 -3.79785-1.31347 4.73878 4.73878 0 0 1 -1.36816-3.58887v-7.35449h3.2832v7.332a2.23666 2.23666 0 0 0 .48146 1.543 2.08425 2.08425 0 0 0 2.791 0 2.20155 2.20155 0 0 0 .49218-1.543v-7.332h3.28326v7.35449a4.71479 4.71479 0 0 1 -1.37891 3.60059 5.2919 5.2919 0 0 1 -3.78618 1.30175z" fill="url(#j)"/><path d="m134.36226 63.30273v-12.03808h3.17383v2.29785h.96289l-.96289.7666a3.15318 3.15318 0 0 1 .92968-2.39648 3.48371 3.48371 0 0 1 2.50586-.88672 3.7881 3.7881 0 0 1 2.95508 1.23633 4.83113 4.83113 0 0 1 1.11621 3.36036v1.09375h-3.502v-.875a2.02335 2.02335 0 0 0 -.49218-1.45606 1.89369 1.89369 0 0 0 -1.4336-.51367 1.85611 1.85611 0 0 0 -1.46679.56835 2.43887 2.43887 0 0 0 -.50293 1.66406v7.17871z" fill="url(#f)"/><path d="m148.874 67.24219v-2.626h3.39258a1.99139 1.99139 0 0 0 1.41113-.46 1.6493 1.6493 0 0 0 .49317-1.26953v-.46l.043-2.29785h-.76563l.76563-.76563a3.29092 3.29092 0 0 1 -.85352 2.418 3.13785 3.13785 0 0 1 -2.3418.86523 3.65415 3.65415 0 0 1 -2.91113-1.26953 5.08686 5.08686 0 0 1 -1.09375-3.43652v-2.18836a5.09558 5.09558 0 0 1 1.09375-3.42578 3.63852 3.63852 0 0 1 2.91113-1.28027 3.141 3.141 0 0 1 2.3418.86426 3.29487 3.29487 0 0 1 .85352 2.41894l-.76563-.7666h.76563l-.10938-2.29785h3.28321v11.73139a3.8553 3.8553 0 0 1 -1.34571 3.1084 5.49867 5.49867 0 0 1 -3.666 1.13771zm3.32715-7.44141a1.86762 1.86762 0 0 0 1.40039-.51465 1.99576 1.99576 0 0 0 .50293-1.45508v-1.96972a1.9983 1.9983 0 0 0 -.50293-1.45606 2.18171 2.18171 0 0 0 -2.8125 0 2.02335 2.02335 0 0 0 -.49219 1.45606v1.96972a2.02084 2.02084 0 0 0 .49219 1.45508 1.85988 1.85988 0 0 0 1.4121.51465z" fill="url(#k)"/><path d="m165.39841 63.52148a2.14027 2.14027 0 1 1 1.61914-.60156 2.164 2.164 0 0 1 -1.61914.60156z" fill="url(#l)"/><path d="m173.497 63.30273v-2.95507h3.9834v-6.12793h-3.5459v-2.95508h6.82911v9.083h3.458v2.95507zm5.47168-13.94238a2.1306 2.1306 0 0 1 -1.43359-.459 1.71956 1.71956 0 0 1 -.06415-2.431q.03121-.03291.06415-.06414a2.46408 2.46408 0 0 1 2.86719 0 1.71956 1.71956 0 0 1 .06415 2.431q-.03123.03291-.06415.06414a2.13237 2.13237 0 0 1 -1.43357.459z" fill="url(#g)"/><path d="m191.66306 63.52148a6.052 6.052 0 0 1 -2.78028-.60156 4.39377 4.39377 0 0 1 -1.82715-1.68554 4.84222 4.84222 0 0 1 -.64549-2.52833v-2.84472a4.8446 4.8446 0 0 1 .64549-2.52832 4.39379 4.39379 0 0 1 1.82715-1.68555 6.74826 6.74826 0 0 1 5.57031 0 4.41512 4.41512 0 0 1 1.81739 1.68555 4.85381 4.85381 0 0 1 .64551 2.52832v2.84472a4.85144 4.85144 0 0 1 -.64551 2.52833 4.41523 4.41523 0 0 1 -1.81739 1.68554 6.03157 6.03157 0 0 1 -2.79003.60156zm0-2.8457a1.95973 1.95973 0 0 0 1.46582-.51367 1.993 1.993 0 0 0 .5039-1.45606v-2.84472a2.07212 2.07212 0 0 0 -3.42578-1.4668 1.9621 1.9621 0 0 0 -.51367 1.4668v2.84472a1.78877 1.78877 0 0 0 1.96973 1.96973z" fill="url(#m)"/></svg>