<svg xmlns="http://www.w3.org/2000/svg" viewBox="0 0 200 3400"><defs><linearGradient id="linear-gradient" x1="99.5" x2="162" y1="1540.056" y2="1540.056" gradientUnits="userSpaceOnUse"><stop offset="0" stop-color="#fff"/><stop offset="1" stop-color="#0f0"/></linearGradient><linearGradient id="linear-gradient-2" x1="54.368" x2="54.368" y1="2287.495" y2="1654.925" gradientUnits="userSpaceOnUse"><stop offset="0" stop-color="#fff"/><stop offset="1" stop-color="#ff0"/></linearGradient><clipPath id="clip-path"><path d="M0 0h200v3400H0z" class="cls-1"/></clipPath><clipPath id="clip-path-2"><path d="M0 3400h200v6800H0z" class="cls-1"/></clipPath><style>.cls-1,.cls-3,.cls-4,.cls-5,.cls-6,.cls-7{fill:none}.cls-3{stroke:#0f0}.cls-3,.cls-4,.cls-5,.cls-6,.cls-7{stroke-miterlimit:10}.cls-4{stroke:#ff0}.cls-5{stroke:#000;stroke-width:4px}.cls-6{stroke:#fff}.cls-7{stroke:url(#linear-gradient)}.cls-8{fill:url(#linear-gradient-2)}.cls-9{fill:#ffd400}.cls-10{fill:#00b4ff}.cls-11{fill:#00b400}</style></defs><path id="back" d="M0 0h200v10200H0z"/><g id="Layer_2" data-name="Layer 2"><g clip-path="url(#clip-path)"><ellipse cx="159.628" cy="1684.372" class="cls-3" rx="37.199" ry="5.838" transform="rotate(-41.116 159.63 1684.374)"/><ellipse cx="41.624" cy="1684.372" class="cls-4" rx="37.199" ry="5.838" transform="rotate(-41.116 41.625 1684.374)"/><path d="M100 0v71.52c0 144.676-45.936 169.911-45.936 241.714 0 110.175 131.83 149.774 131.83 252.3 0 77.951-80.04 170.688-203.272 232.305-116.446 58.223-200.984 12.952-96.888 25.89s254.904 53.603 344.885 109.474 116.882 125.113 18.674 161.351c-50.403 18.599-180.677 56.541-293.594 51.836s-121.78-49.356-2.546-39.025c166.397 14.417 280.72 65.033 324.383 150.969 57.013 112.208-267.418 285.23-340.77 118.528-34.21-77.75 163.234-128.458 163.234 15.662" class="cls-5"/><path d="M100 0v71.52c0 144.676-45.936 169.911-45.936 241.714 0 110.175 131.83 149.774 131.83 252.3 0 77.951-80.04 170.688-203.272 232.305-116.446 58.223-200.984 12.952-96.888 25.89s254.904 53.603 344.885 109.474 116.882 125.113 18.674 161.351c-50.403 18.599-180.677 56.541-293.594 51.836s-121.78-49.356-2.546-39.025c166.397 14.417 280.72 65.033 324.383 150.969 57.013 112.208-267.418 285.23-340.77 118.528-34.21-77.75 163.234-128.458 163.234 15.662" class="cls-6"/><path d="M100 1392.524c0 144.12 34.53 262.792 61.618 294.741" class="cls-5"/><path d="M100 1392.524c0 144.12 34.53 262.792 61.618 294.741" class="cls-7"/><path d="M39.712 1682.223c9.574 10.104 18.914 20.42 27.894 31.053 2.218 2.679 4.482 5.323 6.664 8.033 2.16 2.728 4.382 5.408 6.49 8.178 4.295 5.478 8.498 11.033 12.534 16.712 16.146 22.695 30.461 46.848 41.612 72.585a325.475 325.475 0 0 1 23.776 80.886 309.029 309.029 0 0 1 3.628 42.47 323.834 323.834 0 0 1-2.224 42.831 369.144 369.144 0 0 1-20.466 83.82 497.69 497.69 0 0 1-37.383 78.426 713.914 713.914 0 0 1-48.588 72.46l-6.628 8.696c-2.225 2.889-4.51 5.716-6.769 8.582l-3.386 4.304-3.438 4.251c-2.305 2.822-4.57 5.706-6.922 8.486-2.35 2.782-4.655 5.623-6.992 8.436-2.328 2.825-4.737 5.552-7.09 8.357-2.351 2.807-4.715 5.608-7.128 8.346-2.381 2.78-4.78 5.547-7.147 8.36l-51.766-59.774a550.777 550.777 0 0 0 64.904-47.61c2.589-2.142 5.051-4.393 7.57-6.607l3.76-3.342 3.688-3.403q7.437-6.776 14.54-13.876c9.433-9.498 18.59-19.29 27.191-29.55a382.527 382.527 0 0 0 45.283-66.237 302.686 302.686 0 0 0 28.446-75.268 277.852 277.852 0 0 0 6.164-40.11 270.443 270.443 0 0 0 .018-40.813 274.001 274.001 0 0 0-6.04-40.614 310.975 310.975 0 0 0-11.805-39.562 357.736 357.736 0 0 0-38.174-73.586c-3.847-5.777-7.869-11.44-11.987-17.032-2.058-2.798-4.232-5.508-6.342-8.267-2.135-2.74-4.351-5.415-6.523-8.127a411.528 411.528 0 0 0-28.079-30.795Z" class="cls-8"/><path d="M-213.48 3386.975c.962-5.84 2.189-11.63 3.503-17.4 1.413-5.746 2.91-11.474 4.698-17.116a231.69 231.69 0 0 1 13.009-32.996 216.736 216.736 0 0 1 18.05-30.526 216.578 216.578 0 0 1 22.87-27.103 227.248 227.248 0 0 1 27.029-22.963c4.802-3.458 9.739-6.724 14.647-10.028l14.737-9.898c19.513-13.396 38.9-26.982 57.894-41.108 18.98-14.142 37.672-28.673 55.907-43.766 18.204-15.127 35.917-30.854 52.921-47.32a635.725 635.725 0 0 0 48.31-51.987 400.626 400.626 0 0 0 40.39-58.286c1.518-2.542 2.852-5.184 4.215-7.81l2.046-3.939c.676-1.315 1.388-2.613 1.986-3.967l3.74-8.05.931-2.014.842-2.054 1.683-4.106 1.683-4.107c.578-1.362 1.012-2.78 1.525-4.167.977-2.792 2.006-5.568 2.94-8.374l2.546-8.503.629-2.128.526-2.156 1.052-4.311 1.052-4.312.824-4.361.823-4.361.408-2.181.294-2.2 1.158-8.8.695-8.849a202.005 202.005 0 0 0-1.165-35.432 202.4 202.4 0 0 0-7.38-34.68l-1.26-4.256-1.45-4.194-1.455-4.193-.736-2.094-.819-2.062-3.288-8.244-3.618-8.106a333.79 333.79 0 0 0-16.725-31.296c-6.2-10.08-12.756-19.943-19.755-29.488-7.04-9.51-14.278-18.883-21.935-27.91l-2.84-3.41-2.903-3.356-5.82-6.701-5.94-6.596c-1.979-2.2-3.958-4.4-5.993-6.546-16.12-17.333-32.905-34.042-50.164-50.239-34.51-32.413-70.511-63.188-106.825-93.551l30.382-36.369 12.925 12.48 13.138 12.277q13.13 12.324 26.186 24.822c17.693 16.351 35.379 32.888 52.708 50.045 8.665 8.582 17.21 17.34 25.983 25.956 4.335 4.368 8.682 8.714 12.953 13.199 2.14 2.234 4.3 4.431 6.421 6.698l6.356 6.811c2.128 2.253 4.216 4.575 6.303 6.898l6.26 6.967 6.17 7.115 3.076 3.567 3.03 3.64c8.136 9.62 15.945 19.727 23.569 30.056 1.877 2.622 3.734 5.256 5.694 7.82 1.943 2.571 3.778 5.282 5.67 7.92l2.814 3.988c.93 1.34 1.822 2.725 2.734 4.087 1.804 2.745 3.645 5.451 5.414 8.237a373.379 373.379 0 0 1 19.695 35.056l4.372 9.28c1.373 3.16 2.7 6.355 4.042 9.54l1.001 2.392.922 2.446 1.821 4.91 1.805 4.92 1.614 5.033a245.304 245.304 0 0 1 9.73 41.703 278.774 278.774 0 0 1 2.504 43.52l-.48 10.932c-.302 3.623-.677 7.24-1.036 10.866l-.277 2.719-.395 2.686-.814 5.375-.837 5.378-1.079 5.292-1.1 5.295-.558 2.649-.66 2.6-2.717 10.39c-.998 3.415-2.094 6.778-3.155 10.171-.553 1.681-1.037 3.414-1.654 5.053l-1.811 4.95c-2.35 6.671-5.082 13.046-7.713 19.512-.641 1.635-1.382 3.178-2.095 4.75l-2.158 4.704c-1.443 3.138-2.872 6.3-4.458 9.305a458.81 458.81 0 0 1-42.325 68.158 727.423 727.423 0 0 1-49.087 59.988c-8.56 9.484-17.325 18.645-26.184 27.676-2.22 2.24-4.466 4.453-6.67 6.716-2.212 2.248-4.395 4.565-6.635 6.76l-13.426 13.261c-18.03 17.462-36.472 34.268-55.175 50.637l-28.163 24.294-7.051 6.06-7.099 5.951-14.227 11.889-14.333 11.679-3.587 2.922-1.794 1.46c-.56.463-1.319 1.052-1.576 1.325l-2.185 2.023c-.733.667-1.466 1.328-2.142 2.032a137.626 137.626 0 0 0-14.872 17.06 124.617 124.617 0 0 0-17.93 38.501 148.462 148.462 0 0 0-4.22 21.32 157.975 157.975 0 0 0-1.342 22.858Z" class="cls-9"/><path d="M-311.245 3370.365c7.972-30.884 19.897-61.967 36.858-90.847a307.496 307.496 0 0 1 28.861-41.176 305.703 305.703 0 0 1 35.05-35.58 305.426 305.426 0 0 1 39.185-28.866c1.684-1.082 3.395-2.089 5.107-3.09l5.132-3c.959-.57 1.433-.797 2.1-1.162l1.89-1.014 3.782-2.027 15.14-8.119 14.99-8.281 7.497-4.154 7.414-4.232c4.928-2.837 9.934-5.613 14.814-8.508l14.533-8.847c38.431-23.89 76.086-48.786 109.568-77.12 4.29-3.468 8.339-7.07 12.467-10.638 4.182-3.544 8.108-7.219 12.115-10.866 4.07-3.618 7.828-7.384 11.72-11.1l2.905-2.796 2.787-2.847q2.802-2.837 5.54-5.74a357.038 357.038 0 0 0 38.455-48.414c1.449-2.079 2.688-4.2 3.971-6.315l1.933-3.173c.64-1.059 1.323-2.111 1.877-3.185l3.518-6.424.86-1.618.763-1.63 1.538-3.263 1.555-3.263c.54-1.085.923-2.188 1.397-3.28.893-2.193 1.854-4.38 2.725-6.578l2.374-6.617c.198-.552.412-1.103.597-1.656l.495-1.663 1.004-3.328 1.026-3.33.81-3.344.832-3.348.421-1.676.31-1.68 1.282-6.733.909-6.766a132.24 132.24 0 0 0 .173-27.344 157.667 157.667 0 0 0-5.03-27.66l-.906-3.477-1.097-3.468-1.089-3.477c-.184-.58-.352-1.161-.548-1.74l-.637-1.733-2.536-6.949-2.862-6.93a288.923 288.923 0 0 0-13.756-27.538c-1.293-2.276-2.682-4.53-4.015-6.802-.68-1.132-1.33-2.274-2.034-3.4l-2.15-3.37c-1.453-2.243-2.814-4.517-4.339-6.74-1.486-2.247-3.076-4.423-4.644-6.612-6.458-8.691-13.125-17.328-20.301-25.762l-2.651-3.18-2.73-3.146-5.472-6.288-5.62-6.224c-1.87-2.076-3.74-4.153-5.683-6.195l-5.767-6.157c-1.925-2.052-3.92-4.068-5.877-6.104-3.897-4.081-7.931-8.092-11.94-12.117-1.989-2.02-4.041-4.007-6.081-6l-3.06-2.99-3.13-2.919c-4.256-3.842-8.464-7.708-12.76-11.525q-25.746-22.901-52.767-45.042-13.728-10.792-27.668-21.459l-13.975-10.646-14.28-10.334 30.38-36.369c36.314 30.363 72.316 61.139 106.826 93.552 17.258 16.197 34.043 32.906 50.163 50.238 2.036 2.148 4.015 4.347 5.994 6.547l5.94 6.595 5.82 6.702 2.903 3.356 2.84 3.41c7.656 9.027 14.895 18.399 21.935 27.91 6.998 9.545 13.555 19.407 19.755 29.487a333.79 333.79 0 0 1 16.725 31.297l3.617 8.105 3.289 8.245.819 2.062.735 2.093 1.455 4.193 1.45 4.194 1.26 4.256a202.4 202.4 0 0 1 7.38 34.681 202.005 202.005 0 0 1 1.165 35.432l-.694 8.85-1.158 8.8-.294 2.199-.408 2.18-.824 4.362-.823 4.36-1.052 4.312-1.052 4.312-.527 2.155-.628 2.128-2.546 8.503c-.935 2.807-1.963 5.583-2.94 8.375-.513 1.387-.947 2.804-1.525 4.167l-1.684 4.106-1.683 4.107-.841 2.053-.93 2.014-3.742 8.05c-.597 1.355-1.31 2.652-1.986 3.968l-2.046 3.939c-1.362 2.626-2.696 5.268-4.214 7.81a400.626 400.626 0 0 1-40.39 58.286 635.725 635.725 0 0 1-48.31 51.988c-17.004 16.465-34.717 32.191-52.921 47.318-18.235 15.094-36.928 29.624-55.908 43.766-18.993 14.127-38.38 27.713-57.894 41.108l-14.736 9.9c-4.909 3.303-9.846 6.57-14.647 10.026a227.248 227.248 0 0 0-27.03 22.964 216.578 216.578 0 0 0-22.87 27.103 216.736 216.736 0 0 0-18.05 30.525 231.69 231.69 0 0 0-13.008 32.997c-1.788 5.642-3.285 11.37-4.698 17.116-1.314 5.769-2.54 11.56-3.503 17.4Z" class="cls-10"/><path d="M-262.362 3378.67a300.28 300.28 0 0 1 29.033-79.18 261.883 261.883 0 0 1 23.456-35.85 261.44 261.44 0 0 1 28.96-31.341 267.07 267.07 0 0 1 33.107-25.915c2.871-1.96 5.843-3.726 8.76-5.581l7.568-4.58 14.938-9.008 14.8-9.184 7.397-4.604 7.323-4.688c4.87-3.141 9.801-6.22 14.629-9.415l14.423-9.675c19.117-13.028 37.936-26.42 56.272-40.33l13.626-10.557c4.515-3.547 8.933-7.181 13.374-10.813 8.794-7.326 17.493-14.753 25.926-22.402a600.084 600.084 0 0 0 47.922-47.987 376.646 376.646 0 0 0 39.423-53.35c1.483-2.31 2.77-4.692 4.092-7.062l1.99-3.556c.657-1.187 1.355-2.363 1.93-3.577l3.63-7.236.896-1.816.803-1.842 1.61-3.685 1.618-3.684c.56-1.224.968-2.484 1.462-3.724.935-2.493 1.93-4.974 2.832-7.476l2.46-7.56c.203-.631.422-1.26.612-1.892l.51-1.91 1.03-3.82 1.038-3.82.817-3.853.827-3.854.415-1.928.302-1.94 1.22-7.767.801-7.807a166.082 166.082 0 0 0-.496-31.389 180.285 180.285 0 0 0-6.204-31.17l-1.083-3.867-1.274-3.83-1.272-3.835-.642-1.917-.728-1.898-2.912-7.596-3.24-7.519a312.08 312.08 0 0 0-15.239-29.417c-1.412-2.404-2.914-4.77-4.366-7.16-.738-1.19-1.447-2.393-2.208-3.573l-2.316-3.525c-1.563-2.34-3.042-4.724-4.671-7.035-1.605-2.326-3.261-4.616-4.907-6.913-6.75-9.101-13.702-18.106-21.118-26.836l-2.746-3.294-2.816-3.252-5.646-6.495-5.78-6.41c-1.925-2.138-3.85-4.276-5.839-6.37l-5.914-6.321c-1.974-2.106-4.01-4.167-6.013-6.253-3.99-4.182-8.103-8.276-12.192-12.387-2.032-2.065-4.12-4.089-6.197-6.121q-3.107-3.057-6.266-6.06c-4.27-3.961-8.5-7.953-12.807-11.884q-25.808-23.61-52.752-46.292-13.557-11.227-27.298-22.3l-13.766-11.054-13.942-10.869 30.38-36.369 13.265 11.943 13.348 11.87q13.325 11.913 26.556 23.98c17.773 15.947 35.435 32.11 52.723 48.795 17.212 16.754 34.456 33.636 50.938 51.451 2.082 2.2 4.116 4.46 6.149 6.722l6.1 6.782 5.994 6.908 2.99 3.461 2.935 3.526c7.897 9.323 15.42 19.063 22.752 28.982 7.302 9.955 14.396 20.172 21.04 30.77a354.017 354.017 0 0 1 18.21 33.176l3.995 8.693 3.665 8.892.91 2.227.83 2.27 1.637 4.551 1.628 4.557 1.437 4.645a224.037 224.037 0 0 1 8.555 38.192 239.665 239.665 0 0 1 1.834 39.476l-.587 9.89c-.33 3.28-.725 6.553-1.097 9.833l-.286 2.459-.4 2.433-.82 4.868-.83 4.87-1.065 4.802-1.077 4.804-.542 2.402-.644 2.364-2.632 9.446c-.965 3.11-2.028 6.18-3.047 9.273-.533 1.534-.992 3.11-1.59 4.61l-1.747 4.528-1.756 4.529-.88 2.264-.966 2.213-3.852 8.862c-.62 1.494-1.346 2.915-2.041 4.359l-2.102 4.321c-1.403 2.882-2.784 5.784-4.336 8.558a428.193 428.193 0 0 1-41.357 63.222 678.307 678.307 0 0 1-48.699 55.988c-8.518 8.872-17.26 17.455-26.098 25.917l-13.328 12.588-13.491 12.36c-18.132 16.278-36.7 31.946-55.541 47.202q-28.348 22.761-57.217 44.65l-14.535 10.79-7.16 5.33c-1.93 1.538-3.937 2.98-5.805 4.565a184.725 184.725 0 0 0-20.951 20.011 170.573 170.573 0 0 0-16.78 22.865 172.608 172.608 0 0 0-12.646 25.2 186.902 186.902 0 0 0-8.613 27.159 203.733 203.733 0 0 0-4.772 28.686Z" class="cls-11"/><path d="M435.91 4240.564c-87.49-36.275-169.725-84.74-245.125-141.953a1238.907 1238.907 0 0 1-204.59-196.126 1139.659 1139.659 0 0 1-83.631-114.667 940.337 940.337 0 0 1-67.248-124.934c-19.027-43.32-34.494-88.353-43.911-134.773a457.488 457.488 0 0 1-8.895-70.376 333.745 333.745 0 0 1 4.01-70.76l97.764 16.61a255.944 255.944 0 0 0 6.006 49.416q2.75 12.782 6.634 25.821c2.583 8.675 5.461 17.42 8.935 26.118a516.075 516.075 0 0 0 23.964 52.08q6.817 12.928 14.371 25.7c2.473 4.265 5.105 8.478 7.819 12.664 2.673 4.193 5.447 8.362 8.22 12.517 11.183 16.609 23.154 32.895 35.757 48.799 3.173 3.97 6.33 7.932 9.586 11.852 3.225 3.925 6.637 7.756 9.974 11.607 6.741 7.675 13.655 15.235 20.663 22.696 7 7.466 14.178 14.802 21.442 22.037 7.271 7.227 14.588 14.4 22.27 21.266q11.415 10.37 23.16 20.36 11.72 9.999 23.733 19.61c3.976 3.22 8.039 6.365 12.052 9.525q6.13 4.658 12.35 9.182 12.397 9.085 25.047 17.735 12.605 8.682 25.446 16.907c2.153 1.357 4.244 2.77 6.436 4.076l6.561 3.918q6.571 3.89 13.17 7.677c8.788 5.062 17.67 9.919 26.537 14.683q13.337 7.105 26.769 13.76c8.976 4.402 17.936 8.71 26.955 12.807q6.756 3.082 13.527 6.045l6.771 2.935c2.294.922 4.617 1.792 6.916 2.689 4.59 1.805 9.235 3.48 13.825 5.206 4.632 1.652 9.214 3.35 13.842 4.922 9.21 3.227 18.446 6.22 27.645 9.086 9.195 2.874 18.41 5.494 27.563 8.022 9.114 2.572 18.481 4.527 27.717 6.419 9.26 1.842 18.45 3.58 27.614 5.036 9.166 1.469 18.216 2.867 27.317 3.824 9.148.884 18.24 1.49 27.227 1.967 4.501.21 8.96.436 13.428.51 2.248.016 4.49.024 6.73-.017l3.35-.039 1.67-.019.834-.01.417-.004.208-.003c-44.942 108.748 100.894-243.427-100.708 243.81Z" class="cls-9"/><path d="M417.786 4284.35c-201.773 487.165-56.106 134.92-101.22 243.595l-.302-.218-.606-.436-1.21-.87-2.42-1.743-4.83-3.486a667.622 667.622 0 0 1-9.58-7.026l-9.558-6.926-9.455-6.99q-18.8-14.064-36.872-28.58-36.42-28.464-70.06-58.513c-11.23-10.001-22.1-20.324-33.092-30.242-10.878-10.082-21.602-20.22-32.058-30.543q-15.691-15.472-30.777-31.269c-5.048-5.244-9.98-10.586-14.93-15.88-4.892-5.358-9.805-10.663-14.6-16.068l-7.2-8.077-7.246-7.958q-7.21-7.978-14.279-16.03c-9.435-10.728-18.633-21.607-27.694-32.53q-13.536-16.443-26.542-33.144c-8.637-11.168-17.142-22.375-25.408-33.728q-6.216-8.499-12.286-17.073c-4.04-5.723-8.038-11.463-12.096-17.123q-12.1-17.051-23.66-34.38c-15.48-23.05-29.95-46.704-44.232-70.268q-10.652-17.723-20.717-35.763-10.096-18.008-19.596-36.331c-6.292-12.239-12.65-24.389-18.701-36.727q-9.114-18.476-17.644-37.243-8.504-18.789-16.414-37.86-3.931-9.561-7.738-19.163c-2.603-6.362-5.106-12.796-7.594-19.218-9.884-25.752-18.866-51.958-26.77-78.671-1.958-6.693-3.887-13.385-5.707-20.141a568.393 568.393 0 0 1-2.696-10.142c-.89-3.382-1.824-6.745-2.682-10.153q-5.28-20.348-9.63-41.123a745.424 745.424 0 0 1-12.734-85.027c-1.223-14.5-2.263-29.113-2.692-43.916-.432-14.799-.314-29.772.471-44.897a449.74 449.74 0 0 1 14.026-92.104l97.764 16.61a333.745 333.745 0 0 0-4.009 70.76 457.488 457.488 0 0 0 8.895 70.376c9.417 46.42 24.884 91.454 43.911 134.773a940.337 940.337 0 0 0 67.248 124.933 1139.659 1139.659 0 0 0 83.63 114.668 1238.907 1238.907 0 0 0 204.59 196.125c75.4 57.213 157.637 105.679 245.125 141.953Z" class="cls-10"/><path d="M426.848 4262.457c-100.93 243.564-28.139 67.423-50.738 121.743l-.28-.163-.558-.325-1.117-.651-2.232-1.302-4.46-2.605a560.785 560.785 0 0 1-8.867-5.265l-8.843-5.244-8.773-5.321c-11.647-7.151-23.16-14.421-34.46-21.927q-34.117-22.114-66.278-46.1c-10.73-7.973-21.226-16.204-31.748-24.286-10.447-8.193-20.794-16.452-30.934-24.913q-15.219-12.678-29.995-25.723c-4.943-4.326-9.788-8.757-14.658-13.141-4.816-4.449-9.663-8.847-14.406-13.352l-14.256-13.432q-7.1-6.724-14.092-13.534c-9.33-9.07-18.469-18.306-27.51-27.599q-13.505-14-26.598-28.298c-8.694-9.567-17.293-19.186-25.69-28.967-8.42-9.756-16.645-19.662-24.827-29.564q-12.279-14.85-24.108-30.013c-15.805-20.184-30.854-40.908-45.536-61.811q-10.994-15.692-21.471-31.724-10.509-16-20.487-32.338c-13.34-21.745-26.181-43.782-38.187-66.303q-9.006-16.89-17.475-34.069-4.2-8.615-8.298-17.274c-2.766-5.752-5.432-11.568-8.092-17.377-10.563-23.29-20.293-47.016-29.016-71.203-4.371-12.092-8.406-24.33-12.323-36.622q-5.844-18.452-10.816-37.267a667.418 667.418 0 0 1-15.541-76.79c-1.786-13.05-3.286-26.196-4.253-39.467-.969-13.268-1.436-26.654-1.305-40.128a388.96 388.96 0 0 1 9.018-81.432l97.764 16.61a287.08 287.08 0 0 0 .998 60.088q1.768 15.258 4.858 30.59c2.044 10.207 4.463 20.42 7.374 30.567a547.702 547.702 0 0 0 21.156 60.317q6.194 14.892 13.187 29.555c4.625 9.782 9.652 19.416 14.8 28.995 10.362 19.136 21.586 37.901 33.51 56.267 11.878 18.398 24.76 36.218 38.103 53.677 6.665 8.733 13.526 17.333 20.492 25.839s14.044 16.922 21.379 25.13q10.936 12.358 22.269 24.353 11.307 12.007 22.978 23.648c3.864 3.899 7.817 7.72 11.73 11.564 3.975 3.793 7.95 7.575 11.987 11.298q12.047 11.22 24.427 22.037 12.339 10.849 25 21.275c2.118 1.73 4.2 3.493 6.341 5.192l6.431 5.085q6.447 5.059 12.95 10.026c8.656 6.634 17.445 13.078 26.254 19.444q13.252 9.507 26.711 18.606c8.998 6.032 18.018 11.983 27.14 17.737q6.835 4.325 13.716 8.542l6.89 4.19 6.986 4.036c4.642 2.705 9.354 5.288 14.02 7.922 4.71 2.562 9.38 5.171 14.113 7.661 9.415 5.06 18.914 9.905 28.428 14.632 9.51 4.736 19.103 9.236 28.687 13.653 9.584 4.408 19.327 8.455 29.061 12.374 9.752 3.883 19.495 7.673 29.294 11.194 9.79 3.547 19.567 6.973 29.42 10.08 9.865 3.09 19.764 5.918 29.638 8.62 4.944 1.327 9.872 2.654 14.824 3.86 2.478.604 4.955 1.198 7.442 1.745l3.72.842 1.857.422.928.21.464.106.232.052c-22.429 54.392 50.532-121.677-50.226 121.96Z" class="cls-11"/></g><g clip-path="url(#clip-path-2)"><ellipse cx="159.628" cy="1684.372" class="cls-3" rx="37.199" ry="5.838" transform="rotate(-41.116 159.63 1684.374)"/><ellipse cx="41.624" cy="1684.372" class="cls-4" rx="37.199" ry="5.838" transform="rotate(-41.116 41.625 1684.374)"/><path d="M100 0v71.52c0 144.676-45.936 169.911-45.936 241.714 0 110.175 131.83 149.774 131.83 252.3 0 77.951-80.04 170.688-203.272 232.305-116.446 58.223-200.984 12.952-96.888 25.89s254.904 53.603 344.885 109.474 116.882 125.113 18.674 161.351c-50.403 18.599-180.677 56.541-293.594 51.836s-121.78-49.356-2.546-39.025c166.397 14.417 280.72 65.033 324.383 150.969 57.013 112.208-267.418 285.23-340.77 118.528-34.21-77.75 163.234-128.458 163.234 15.662" class="cls-5"/><path d="M100 0v71.52c0 144.676-45.936 169.911-45.936 241.714 0 110.175 131.83 149.774 131.83 252.3 0 77.951-80.04 170.688-203.272 232.305-116.446 58.223-200.984 12.952-96.888 25.89s254.904 53.603 344.885 109.474 116.882 125.113 18.674 161.351c-50.403 18.599-180.677 56.541-293.594 51.836s-121.78-49.356-2.546-39.025c166.397 14.417 280.72 65.033 324.383 150.969 57.013 112.208-267.418 285.23-340.77 118.528-34.21-77.75 163.234-128.458 163.234 15.662" class="cls-6"/><path d="M100 1392.524c0 144.12 34.53 262.792 61.618 294.741" class="cls-5"/><path d="M100 1392.524c0 144.12 34.53 262.792 61.618 294.741" class="cls-7"/><path d="M39.712 1682.223c9.574 10.104 18.914 20.42 27.894 31.053 2.218 2.679 4.482 5.323 6.664 8.033 2.16 2.728 4.382 5.408 6.49 8.178 4.295 5.478 8.498 11.033 12.534 16.712 16.146 22.695 30.461 46.848 41.612 72.585a325.475 325.475 0 0 1 23.776 80.886 309.029 309.029 0 0 1 3.628 42.47 323.834 323.834 0 0 1-2.224 42.831 369.144 369.144 0 0 1-20.466 83.82 497.69 497.69 0 0 1-37.383 78.426 713.914 713.914 0 0 1-48.588 72.46l-6.628 8.696c-2.225 2.889-4.51 5.716-6.769 8.582l-3.386 4.304-3.438 4.251c-2.305 2.822-4.57 5.706-6.922 8.486-2.35 2.782-4.655 5.623-6.992 8.436-2.328 2.825-4.737 5.552-7.09 8.357-2.351 2.807-4.715 5.608-7.128 8.346-2.381 2.78-4.78 5.547-7.147 8.36l-51.766-59.774a550.777 550.777 0 0 0 64.904-47.61c2.589-2.142 5.051-4.393 7.57-6.607l3.76-3.342 3.688-3.403q7.437-6.776 14.54-13.876c9.433-9.498 18.59-19.29 27.191-29.55a382.527 382.527 0 0 0 45.283-66.237 302.686 302.686 0 0 0 28.446-75.268 277.852 277.852 0 0 0 6.164-40.11 270.443 270.443 0 0 0 .018-40.813 274.001 274.001 0 0 0-6.04-40.614 310.975 310.975 0 0 0-11.805-39.562 357.736 357.736 0 0 0-38.174-73.586c-3.847-5.777-7.869-11.44-11.987-17.032-2.058-2.798-4.232-5.508-6.342-8.267-2.135-2.74-4.351-5.415-6.523-8.127a411.528 411.528 0 0 0-28.079-30.795Z" class="cls-8"/><path d="M-209.832 3327.722a121.114 121.114 0 0 1 16.91-29.22 195.407 195.407 0 0 1 23.112-24.69l3.141-2.84 1.571-1.417 1.622-1.36 6.489-5.44c4.445-3.478 8.822-7.046 13.399-10.353 9.018-6.794 18.38-13.111 27.745-19.415l14.056-9.442 7.03-4.721 6.967-4.81 13.933-9.625 13.8-9.813 6.896-4.914 6.827-5.009c4.542-3.35 9.121-6.652 13.633-10.043l13.495-10.23q3.39-2.537 6.703-5.173l6.661-5.226c35.492-27.89 69.619-57.666 100.609-90.53a524.902 524.902 0 0 0 43.31-52.013 334.115 334.115 0 0 0 34.208-58.324 240.691 240.691 0 0 0 11.74-31.735 201.871 201.871 0 0 0 6.887-33.116c.167-1.401.419-2.793.516-4.201l.33-4.22c.205-2.815.512-5.624.51-8.45.05-2.82.17-5.643.163-8.464l-.261-8.463a213.397 213.397 0 0 0-4.58-33.515 236.167 236.167 0 0 0-9.866-32.365l-3.131-7.867-3.45-7.732c-1.103-2.6-2.436-5.091-3.663-7.632-1.251-2.53-2.475-5.074-3.857-7.536l-4.035-7.444-4.286-7.301c-1.395-2.455-2.93-4.824-4.436-7.211-1.529-2.372-2.965-4.805-4.57-7.127l-4.735-7.019c-1.565-2.35-3.266-4.604-4.892-6.91-3.235-4.627-6.707-9.08-10.1-13.59-13.822-17.858-28.766-34.82-44.275-51.225-15.562-16.36-31.734-32.131-48.24-47.535-33.04-30.79-67.4-60.12-102.043-89.081l30.382-36.37 12.293 11.946 12.508 11.736 12.488 11.806 12.45 11.9c16.868 15.593 33.743 31.335 50.297 47.637l6.209 6.114 6.166 6.195 3.086 3.095c1.05 1.01 2.108 2.005 3.148 3.037l6.26 6.142c4.191 4.062 8.296 8.288 12.439 12.44 4.126 4.184 8.197 8.467 12.287 12.713 16.233 17.205 32.048 35.168 46.933 54.437 7.42 9.667 15.04 19.316 22.092 29.594a104.47 104.47 0 0 1 2.644 3.862l2.601 3.915c1.731 2.614 3.486 5.202 5.124 7.922l4.987 8.08 4.76 8.323c1.616 2.748 3.092 5.63 4.588 8.494 1.477 2.88 3.04 5.686 4.398 8.671l4.183 8.862 3.865 9.112a278.69 278.69 0 0 1 12.55 38.304 297.244 297.244 0 0 1 6.66 40.823l.702 10.435c.14 3.484.137 6.976.19 10.471.105 3.502-.113 6.98-.243 10.472l-.232 5.238c-.067 1.75-.292 3.47-.436 5.208a250.494 250.494 0 0 1-6.937 40.92c-.877 3.304-1.676 6.666-2.65 9.926l-2.945 9.765-.744 2.445-.828 2.386-1.677 4.767c-1.144 3.162-2.2 6.408-3.495 9.46a391.375 391.375 0 0 1-36.045 69.45 609.508 609.508 0 0 1-44.269 60.798l-5.895 7.157-6.016 6.96-6.034 6.959c-2.022 2.305-4.087 4.525-6.132 6.793-8.193 9.075-16.363 18.046-24.73 26.821-16.683 17.591-33.921 34.27-51.413 50.558l-6.574 6.086a358.638 358.638 0 0 1-6.607 6.026l-13.159 12.096c-4.4 4.015-8.844 7.923-13.272 11.893l-6.655 5.936-6.703 5.824-13.437 11.64-13.543 11.427-6.783 5.715-6.825 5.61-13.669 11.231c-.61.494-1.049.879-1.532 1.291l-1.417 1.252-2.832 2.5c-1.875 1.663-3.816 3.325-5.555 4.98l-5.342 4.953c-.916.823-1.714 1.642-2.548 2.46l-2.484 2.446-2.481 2.436c-.84.81-1.533 1.61-2.307 2.41l-4.503 4.77-4.018 4.643-1.004 1.147-.863 1.12-1.723 2.218c-4.501 5.85-7.703 11.202-9.162 15.223-.23.967-.594 1.91-.811 2.757-.035.796-.187 1.547-.26 2.218.13.627.126 1.195.191 1.695.233.477.378.91.581 1.291Z" class="cls-9"/><path d="M-301.945 3290.996c2.342-4.838 4.93-9.501 7.44-14.188 2.629-4.524 5.4-8.877 8.19-13.228 2.854-4.153 5.8-8.123 8.77-12.105 2.993-3.793 6.045-7.348 9.118-10.958a266.125 266.125 0 0 1 37.064-34.158l4.558-3.46 2.28-1.716 2.24-1.572 8.959-6.237 8.804-5.704c1.46-.924 2.945-1.922 4.381-2.78l4.322-2.605c2.871-1.707 5.78-3.515 8.614-5.12l8.498-4.806c2.847-1.637 5.62-3.084 8.414-4.59l8.254-4.433 14.445-7.654 7.232-3.832 7.153-3.905 14.322-7.823 14.166-7.986 7.087-4.003 6.998-4.082c4.657-2.731 9.37-5.427 13.995-8.194l13.832-8.362c2.3-1.415 4.559-2.86 6.797-4.322l6.75-4.365c17.954-11.68 35.64-23.668 52.565-36.243 2.162-1.545 4.248-3.135 6.332-4.729l6.278-4.773c2.086-1.597 4.223-3.168 6.236-4.809 2.04-1.626 4.037-3.301 6.06-4.95 2.007-1.662 4.064-3.3 6.037-4.983l5.884-5.07 5.895-5.078 5.708-5.177a465.608 465.608 0 0 0 42.352-43.23 289.653 289.653 0 0 0 32.372-47.197c1.194-2.018 2.1-4.073 3.142-6.114l1.533-3.068.767-1.535.67-1.546 2.717-6.194c.851-2.08 1.522-4.174 2.31-6.263a156.087 156.087 0 0 0 6.838-25.311c.19-1.064.468-2.128.594-3.194l.432-3.203c.276-2.137.672-4.278.773-6.426.154-2.148.391-4.3.517-6.458l.178-6.491a137.96 137.96 0 0 0-2.499-26.207 190.792 190.792 0 0 0-7.18-26.427l-2.398-6.62-2.718-6.603c-.846-2.214-1.949-4.392-2.93-6.592-1.006-2.196-1.974-4.404-3.124-6.58a336.79 336.79 0 0 0-31.901-51.51c-12.758-16.445-26.831-32.409-41.616-48.012-3.753-3.873-7.466-7.769-11.275-11.614-3.842-3.83-7.607-7.7-11.533-11.484-7.674-7.708-15.832-14.992-24.079-22.235q-24.705-21.748-50.544-42.816l-13.195-10.221-13.28-10.171-13.365-10.12-13.662-9.811 30.38-36.369c34.643 28.96 69.004 58.291 102.043 89.081 16.506 15.404 32.678 31.175 48.24 47.535 15.51 16.404 30.454 33.367 44.275 51.225 3.393 4.511 6.866 8.963 10.1 13.59 1.626 2.307 3.328 4.561 4.892 6.91l4.736 7.019c1.605 2.322 3.041 4.755 4.57 7.127 1.504 2.387 3.04 4.756 4.435 7.21l4.287 7.302 4.034 7.444c1.383 2.462 2.606 5.007 3.857 7.537 1.228 2.54 2.56 5.032 3.663 7.631l3.45 7.732 3.132 7.867a236.167 236.167 0 0 1 9.865 32.365 213.397 213.397 0 0 1 4.58 33.515l.261 8.463c.007 2.821-.113 5.643-.163 8.465.002 2.825-.305 5.634-.509 8.449l-.33 4.22c-.098 1.408-.35 2.8-.516 4.201a201.871 201.871 0 0 1-6.888 33.116 240.691 240.691 0 0 1-11.74 31.735 334.115 334.115 0 0 1-34.208 58.324 524.902 524.902 0 0 1-43.31 52.013c-30.99 32.864-65.116 62.64-100.608 90.53l-6.662 5.226q-3.32 2.627-6.702 5.173l-13.494 10.231c-4.512 3.391-9.091 6.693-13.633 10.043l-6.827 5.01-6.895 4.913-13.801 9.813-13.933 9.625-6.968 4.81-7.029 4.721-14.056 9.442c-9.364 6.304-18.727 12.621-27.745 19.416-4.577 3.306-8.954 6.875-13.4 10.352l-6.488 5.44-1.622 1.36-1.571 1.418-3.14 2.839a195.407 195.407 0 0 0-23.113 24.69 121.114 121.114 0 0 0-16.91 29.22Z" class="cls-10"/><path d="M-255.888 3309.359c1.705-3.724 3.61-7.33 5.435-10.963 1.955-3.519 4.035-6.926 6.095-10.346 2.158-3.282 4.406-6.447 6.642-9.633 2.299-3.056 4.68-5.958 7.042-8.907a234.609 234.609 0 0 1 30.087-29.425l3.85-3.15 1.926-1.566 1.93-1.467 7.724-5.838 7.729-5.47c2.575-1.853 5.15-3.55 7.724-5.25 10.274-6.93 20.624-13.105 30.762-19.182l14.251-8.549 7.13-4.276 7.06-4.358 14.129-8.724 13.983-8.9c18.572-11.96 37.062-24.044 54.836-36.96 17.84-12.832 35.413-25.993 52.278-39.822 2.148-1.696 4.23-3.447 6.31-5.2l6.255-5.251c4.222-3.464 8.246-7.084 12.297-10.7 2.017-1.813 4.075-3.597 6.06-5.435l5.922-5.543 5.926-5.548 5.754-5.672a491.707 491.707 0 0 0 42.831-47.621 309.846 309.846 0 0 0 33.29-52.761 203.557 203.557 0 0 0 11.44-28.227 178.48 178.48 0 0 0 6.863-29.214c.178-1.232.443-2.46.555-3.698l.38-3.711c.242-2.476.593-4.951.642-7.438.102-2.484.281-4.971.34-7.46l-.041-7.478a174.493 174.493 0 0 0-3.54-29.86 213.957 213.957 0 0 0-8.523-29.397l-2.764-7.243-3.085-7.168c-.974-2.407-2.192-4.741-3.296-7.111-1.129-2.364-2.224-4.74-3.49-7.059a370.099 370.099 0 0 0-34.478-54.056c-13.29-17.151-27.798-33.615-42.945-49.618-3.837-3.967-7.64-7.96-11.529-11.89-3.916-3.91-7.767-7.868-11.759-11.722-3.971-3.866-7.884-7.794-11.994-11.54l-6.108-5.668-6.174-5.614q-24.736-22.424-50.483-44.021l-13.008-10.641-13.083-10.58-13.15-10.524-13.32-10.345 30.382-36.369 12.635 11.412 12.722 11.332 12.686 11.397 12.636 11.481c16.959 15.197 33.827 30.58 50.36 46.431 16.442 15.943 33.035 31.844 48.917 48.636 15.872 16.804 31.251 34.267 45.604 52.83 7.143 9.314 14.275 18.706 20.91 28.557 1.71 2.416 3.268 4.97 4.908 7.452 1.618 2.5 3.263 4.98 4.78 7.567l4.636 7.69 4.398 7.884c1.499 2.605 2.849 5.318 4.222 8.015 1.352 2.71 2.8 5.36 4.03 8.151l3.817 8.297 3.499 8.49a257.683 257.683 0 0 1 11.208 35.335 254.542 254.542 0 0 1 5.62 37.169l.481 9.449c.073 3.152.012 6.309.013 9.467.054 3.164-.21 6.307-.376 9.46l-.28 4.73c-.083 1.58-.322 3.135-.477 4.705a225.858 225.858 0 0 1-6.912 37.018 281.06 281.06 0 0 1-12.04 35.242 361.459 361.459 0 0 1-35.127 63.887 564.247 564.247 0 0 1-43.79 56.406c-31.312 35.379-65.122 67.74-100.414 97.888-35.179 30.33-71.534 58.86-108.614 86.246-2.23 1.661-4.26 3.26-6.399 4.89-2.105 1.624-4.254 3.232-6.27 4.883l-6.131 4.916c-2.044 1.635-3.948 3.311-5.928 4.96-1.967 1.652-3.94 3.3-5.766 4.981l-5.579 5.003-5.252 5.041-1.314 1.254-1.217 1.27-2.431 2.528a138.707 138.707 0 0 0-16.138 19.956 65.659 65.659 0 0 0-8.604 18.59Z" class="cls-11"/><path d="M435.91 4127.18c-83.365-34.777-162.174-80.243-234.617-134.155l-6.8-5.043c-2.264-1.685-4.55-3.34-6.76-5.098l-13.363-10.402-6.68-5.203-6.559-5.354-13.118-10.708c-4.369-3.575-8.602-7.31-12.91-10.958l-6.435-5.502c-2.145-1.835-4.303-3.654-6.389-5.557l-12.619-11.292-6.3-5.657-6.181-5.786-12.363-11.573c-4.088-3.892-8.083-7.88-12.13-11.816l-6.05-5.922-3.022-2.965-2.96-3.028-11.836-12.109c-3.984-4-7.805-8.156-11.664-12.275l-11.56-12.375-11.291-12.62-5.646-6.31c-1.877-2.108-3.68-4.279-5.525-6.415a1156 1156 0 0 1-82.546-107.317c-3.145-4.687-6.36-9.328-9.448-14.053l-9.152-14.248c-1.508-2.385-3.09-4.724-4.536-7.149l-4.404-7.231c-2.913-4.835-5.92-9.614-8.755-14.494-5.61-9.797-11.366-19.512-16.64-29.496l-4.037-7.443-2.018-3.721-1.92-3.773-7.685-15.09q-14.933-30.396-27.803-61.75c-8.628-20.862-16.887-41.892-24.095-63.29-7.19-21.38-13.392-43.213-16.376-65.613-.305-2.806-.723-5.6-.936-8.414l-.551-8.45-.064-8.466c.079-2.82.294-5.636.433-8.455a113.537 113.537 0 0 1 7.569-32.88l92.114 36.726c.165.198.31.38.434.545l.169.24a.966.966 0 0 0 .195.242c.18.18.337.345.472.497l.185.219.08.102.138.151c.181.2.342.387.48.563l.192.257.226.32c.183.254.347.5.49.735l.202.348.088.17.143.249q.288.506.525.989l.46 1.005c.423.871.79 1.717 1.102 2.549a60.044 60.044 0 0 1 1.32 3.183l1.525 3.717c.423 1.161 1.163 2.766 1.744 4.183l.892 2.17 1.065 2.409 1.062 2.426c.365.824.653 1.566 1.098 2.487l2.431 5.282c3.462 7.303 7.17 15.06 11.788 23.319 8.913 16.392 19.258 34.046 30.227 52.112l8.348 13.649c.708 1.195 1.36 2.124 2.032 3.146l2 3.015 3.982 6.017c1.342 1.998 2.604 4.013 4 5.99l4.287 5.899 4.264 5.881c1.428 1.956 2.794 3.919 4.317 5.85l8.88 11.591 2.207 2.888 2.312 2.858 4.608 5.704c6.006 7.63 12.504 15.067 18.782 22.513 3.173 3.713 6.529 7.353 9.763 11.019 3.273 3.649 6.591 7.245 10.062 10.782l10.245 10.62c3.444 3.514 7.016 6.959 10.497 10.427 6.887 6.974 14.239 13.67 21.33 20.431 3.575 3.366 7.32 6.629 10.95 9.937 3.65 3.302 7.295 6.573 11.143 9.714l11.36 9.48 2.826 2.363 2.9 2.312 5.788 4.609 5.769 4.597c1.925 1.527 3.81 3.077 5.797 4.552l11.744 8.925c7.724 5.996 15.872 11.602 23.857 17.233l12.24 8.188c4.07 2.717 8.087 5.462 12.258 8.05l12.347 7.85 3.072 1.957 3.132 1.892 6.252 3.771q6.211 3.795 12.6 7.34l12.828 6.96 6.377 3.465 6.467 3.324 12.876 6.597c2.121 1.117 4.307 2.148 6.476 3.192l6.494 3.126c4.337 2.06 8.588 4.207 12.947 6.18l13.035 5.886 6.478 2.931 6.56 2.763c8.773 3.623 17.239 7.542 26.272 10.523l6.657 2.38c2.22.782 4.406 1.614 6.658 2.317l13.357 4.37 6.632 2.175 6.689 1.992 13.289 3.952c2.192.683 4.425 1.265 6.648 1.853l6.65 1.77c4.432 1.16 8.804 2.405 13.22 3.483 4.44 1.026 8.807 2.136 13.3 2.994l6.669 1.366c2.223.439 4.472.785 6.696 1.182l13.298 2.3 3.3.573 3.325.465 6.619.928c4.402.605 8.764 1.264 13.126 1.824l6.56.702c2.182.228 4.34.493 6.55.637l6.568.513c2.174.208 4.385.22 6.563.34l13.017.565c4.298.255 8.617.199 12.903.225l12.88-.24Z" class="cls-9"/><path d="m316.87 4414.779-18.227-13.637c-6.06-4.488-12.2-8.808-18.083-13.439l-17.703-13.694c-2.919-2.303-5.9-4.52-8.746-6.894l-8.592-7.033c-2.842-2.372-5.737-4.623-8.609-6.91l-8.6-6.845c-5.659-4.637-11.227-9.352-16.804-14.023l-8.333-7.021-4.152-3.51-4.07-3.595-16.181-14.375c-2.676-2.404-5.38-4.768-8.015-7.204l-7.851-7.345c-5.189-4.95-10.503-9.649-15.743-14.43-5.223-4.798-10.305-9.726-15.43-14.579l-7.648-7.302c-2.547-2.43-5.092-4.855-7.56-7.36l-14.85-14.893-7.372-7.444-7.206-7.586-14.32-15.15c-2.397-2.5-4.69-5.106-7.018-7.668l-6.946-7.707-6.918-7.694c-2.34-2.51-4.702-4.992-6.972-7.566l-13.684-15.303-6.8-7.642-6.64-7.777-13.202-15.532C.217 4118.444-4 4113.12-8.278 4107.885l-6.376-7.878c-2.12-2.624-4.25-5.234-6.301-7.92l-12.361-15.989-6.133-7.99-5.986-8.107-11.898-16.185c-1.986-2.683-3.874-5.46-5.81-8.184-1.912-2.746-3.905-5.404-5.848-8.108l-5.85-8.074-2.913-4.037-2.846-4.098-11.327-16.37c-3.798-5.41-7.423-10.978-11.07-16.5l-10.88-16.561-10.556-16.761-5.322-8.297c-1.765-2.769-3.46-5.604-5.188-8.4l-10.275-16.808c-1.726-2.778-3.357-5.645-5.017-8.478l-4.952-8.51-4.932-8.5-2.455-4.248-2.386-4.31-9.49-17.208c-3.195-5.684-6.145-11.582-9.282-17.3-3.073-5.775-6.213-11.463-9.194-17.287-5.915-11.695-11.94-23.198-17.501-35.065-2.81-5.905-5.668-11.743-8.401-17.678l-8.06-17.875c-1.32-2.99-2.703-5.914-3.963-8.95-1.29-3.01-2.53-6.047-3.852-9.03-2.592-6.003-5.252-11.92-7.75-17.969-4.941-12.147-9.955-24.14-14.495-36.479l-3.466-9.18-1.725-4.586-1.635-4.657-6.487-18.59c-1.1-3.07-2.076-6.244-3.092-9.377l-3.012-9.41-2.989-9.391-2.893-9.478-2.865-9.47-1.424-4.729c-.465-1.561-.982-3.201-1.346-4.617l-4.755-17.582c-6.289-23.658-12.461-48.063-17.964-74.47-2.703-13.1-5.426-27.002-7.742-41.522l-1.628-11.158c-.28-1.809-.489-3.847-.722-5.781l-.669-5.862c-.213-1.968-.444-3.868-.63-5.886l-.495-6.182c-.301-4.158-.664-8.096-.786-12.557l-.223-6.512-.094-3.25-.038-1.63.009-1.72c.029-4.586.095-9.149.217-13.714q.403-7.22.974-14.384c.073-1.165.254-2.465.394-3.703l.46-3.748.997-7.465.27-1.864.351-1.93.725-3.852q.74-3.847 1.539-7.666l.403-1.908.493-1.95 1.017-3.896q1.033-3.888 2.132-7.741l.556-1.924.647-1.937 1.32-3.86q1.337-3.851 2.74-7.66c.446-1.275.978-2.527 1.513-3.777l1.61-3.742q1.626-3.732 3.315-7.416l92.114 36.726a113.537 113.537 0 0 0-7.569 32.882c-.14 2.818-.354 5.635-.433 8.454l.064 8.467.551 8.449c.213 2.814.63 5.609.937 8.414 2.983 22.4 9.185 44.233 16.376 65.612 7.208 21.4 15.466 42.429 24.095 63.291q12.83 31.346 27.803 61.75l7.684 15.09 1.92 3.773 2.019 3.721 4.037 7.443c5.273 9.984 11.029 19.7 16.639 29.496 2.835 4.88 5.843 9.659 8.756 14.494l4.403 7.231c1.445 2.425 3.028 4.764 4.536 7.15l9.152 14.247c3.088 4.725 6.303 9.366 9.449 14.053a1156 1156 0 0 0 82.545 107.316c1.845 2.137 3.649 4.308 5.526 6.416l5.645 6.31 11.291 12.62 11.56 12.374c3.86 4.12 7.68 8.276 11.664 12.276l11.837 12.109 2.96 3.028 3.022 2.964 6.05 5.922c4.047 3.936 8.042 7.925 12.13 11.817l12.363 11.573 6.181 5.786 6.3 5.657 12.619 11.292c2.086 1.902 4.243 3.722 6.388 5.556l6.435 5.503c4.308 3.647 8.542 7.383 12.91 10.958l13.119 10.708 6.559 5.354 6.68 5.203 13.362 10.402c2.21 1.757 4.496 3.412 6.76 5.098l6.801 5.043c72.443 53.912 151.252 99.378 234.616 134.154Z" class="cls-10"/><path d="m376.39 4270.98-16.89-10.168c-5.617-3.373-11.302-6.599-16.788-10.136-11.023-6.985-22.128-13.745-32.817-21.07-5.382-3.605-10.806-7.098-16.185-10.651-5.334-3.618-10.601-7.319-15.885-10.974l-7.905-5.497-3.944-2.749-3.877-2.84-15.46-11.355c-2.563-1.903-5.154-3.762-7.686-5.699l-7.556-5.85c-5.014-3.928-10.091-7.729-15.132-11.572-5.02-3.867-9.925-7.875-14.877-11.804l-7.398-5.92c-2.466-1.97-4.933-3.933-7.331-5.982l-14.461-12.159-7.202-6.08-7.063-6.234-14.078-12.455c-2.361-2.05-4.628-4.213-6.928-6.33l-6.873-6.375q-27.656-25.246-53.75-51.66c-4.372-4.377-8.598-8.907-12.89-13.348l-6.406-6.69c-2.133-2.23-4.277-4.444-6.345-6.738l-12.49-13.64-6.216-6.824-6.084-6.947-12.13-13.878L1.848 3955.3l-5.95-6.998-2.968-3.501-2.903-3.563L-21.555 3927c-3.89-4.706-7.614-9.567-11.367-14.387l-11.22-14.469-10.923-14.69-5.484-7.304c-1.821-2.438-3.57-4.941-5.357-7.407l-10.642-14.838c-1.79-2.452-3.485-4.99-5.212-7.496l-5.156-7.533-5.146-7.526-2.567-3.764-2.495-3.823-9.958-15.277c-3.359-5.048-6.482-10.29-9.747-15.403-3.213-5.158-6.504-10.24-9.634-15.45-6.208-10.461-12.564-20.762-18.458-31.406-12.158-20.993-23.2-42.697-34.16-64.338-5.276-10.972-10.661-21.826-15.568-32.988l-3.751-8.312-1.872-4.153-1.778-4.215-7.085-16.84c-1.206-2.785-2.28-5.657-3.398-8.495l-3.325-8.528-3.314-8.518-3.17-8.606-3.144-8.607-1.568-4.3c-.516-1.427-1.067-2.889-1.517-4.25l-5.654-16.598c-7.458-22.26-14.674-44.978-21.03-68.88-3.18-11.89-6.15-24.256-8.753-36.972l-1.829-9.69c-.32-1.586-.55-3.3-.815-4.957l-.768-5.003c-.246-1.675-.519-3.313-.738-5.016l-.595-5.18c-.37-3.472-.828-6.827-1.025-10.463l-.36-5.358c-.097-1.804-.275-3.521-.281-5.404-.077-3.702-.14-7.391-.167-11.082q.185-5.727.455-11.426c.28-3.863.732-7.807 1.142-11.685l.167-1.46.241-1.49.494-2.976 1.031-5.934.267-1.479.349-1.494.715-2.986 1.479-5.947.382-1.48.466-1.479.943-2.95 1.937-5.87c.308-.98.697-1.937 1.086-2.893l1.165-2.866 2.379-5.699 92.114 36.727a65.557 65.557 0 0 0-2.038 18.76l.276 5.224q.333 2.77.583 5.508c.327 1.942.645 3.885.935 5.817.107.939.403 2.012.596 3.014l.635 3.05c3.665 16.479 10.124 35.076 18.228 53.945 8.06 18.896 17.362 38.237 27.161 57.701l7.45 14.632c.622 1.25 1.24 2.357 1.86 3.514l1.856 3.444 3.703 6.88c1.247 2.288 2.432 4.593 3.723 6.862l3.963 6.772 3.95 6.764c1.326 2.25 2.595 4.516 4.01 6.731l8.284 13.34 2.063 3.33 2.165 3.29 4.323 6.574c5.64 8.807 11.766 17.383 17.71 26.005 3.004 4.296 6.185 8.505 9.26 12.756 3.102 4.236 6.216 8.453 9.5 12.581l9.699 12.435c3.266 4.118 6.66 8.161 9.972 12.24 6.557 8.195 13.577 16.093 20.373 24.088 3.427 3.98 7.02 7.85 10.512 11.774 3.522 3.906 6.992 7.833 10.678 11.61l10.892 11.413 2.716 2.85 2.788 2.795 5.575 5.582 5.564 5.576c1.86 1.852 3.681 3.732 5.603 5.533l11.376 10.896a1030.088 1030.088 0 0 0 200.365 147.599l6.729 3.71c2.246 1.228 4.46 2.503 6.748 3.656l13.597 7.065 6.776 3.527 6.86 3.355 13.68 6.687c2.26 1.139 4.571 2.182 6.876 3.23l6.9 3.154c4.604 2.082 9.153 4.248 13.771 6.256 4.64 1.965 9.244 3.972 13.91 5.853l6.965 2.861c2.326.938 4.689 1.789 7.026 2.688l14.019 5.318 3.492 1.328 3.532 1.227 7.047 2.451c4.696 1.622 9.36 3.295 14.046 4.874 4.727 1.477 9.41 3.016 14.135 4.443l7.073 2.143c2.343.75 4.746 1.313 7.11 1.978l14.188 3.848c9.418 2.585 18.976 4.57 28.414 6.757Z" class="cls-11"/></g></g></svg>