<svg version="1.1" id="Layer_1" xmlns="http://www.w3.org/2000/svg" x="0" y="0" viewBox="0 0 200 3400" style="enable-background:new 0 0 200 3400" xml:space="preserve"><style>.st4{fill:url(#SVGID_00000016790016114314080920000016400288713729489052_)}</style><ellipse transform="rotate(-41.114 159.69 1684.368)" cx="159.6" cy="1684.4" rx="37.2" ry="5.8" style="fill:none;stroke:#0f0;stroke-miterlimit:10"/><ellipse transform="rotate(-41.114 41.686 1684.372)" cx="41.6" cy="1684.4" rx="37.2" ry="5.8" style="fill:none;stroke:#ff0;stroke-miterlimit:10"/><path d="M123.2 442.9C90.2 406.4 56 368.6 56 313.3c0-29.3 7.8-51.1 16.9-76.2 12.9-35.8 29-80.3 29-165.5V0h-4v71.5c0 84.5-16 128.7-28.8 164.1-9.2 25.5-17.2 47.5-17.2 77.6 0 56.9 34.7 95.2 68.2 132.3 32.7 36.2 63.6 70.4 63.6 120 0 37.9-19 79.7-54.9 121-32.6 37.4-76.9 71.7-129 100v4.6c53.3-28.8 98.7-63.8 132-101.9 36.6-42 55.9-84.7 55.9-123.6.2-51.2-32.7-87.5-64.5-122.7zm-71.4 862.7c-15.4-6.3-33.6-8.1-51.8-5.5v4.1c17.2-2.6 35.1-1.1 50.2 5.1 14.4 5.8 25.8 15.3 33.9 28.1 9.2 14.5 13.9 33.1 13.9 55.1h4c0-42.9-17.8-73.7-50.2-86.9zm114.1 109.8c-21.6 10.4-43.5 18.1-64.8 22.9-22.7 5.1-44.6 6.8-64.7 5-13.2-1.2-25.4-3.9-36.5-8.1v4.3c11 4 23.1 6.7 36.1 7.8 5.3.5 10.7.7 16.2.7 15.7 0 32.2-1.9 49-5.6 21.8-4.8 44.2-12.7 66.3-23.3 11.3-5.4 22.1-11.5 32.3-18v-4.7c-10.5 6.8-21.9 13.3-33.9 19zm-63.7-283.5c-30.8-9.1-64.9-16.3-102.2-21.4v4c33.8 4.7 64.9 11 93.2 19-30.3 5.3-62 9.2-93.2 10.7v4c34.2-1.5 68.9-6.1 101.8-12.1 38.1 11.4 70.9 25.9 98.2 43.3v-4.8c-11.6-7.3-24.2-14.1-37.8-20.3-16-7.3-33.3-13.9-51.8-19.8 32.8-6.3 63.5-14.1 89.6-21.7v-4.2c-28.2 8.2-61.9 16.7-97.8 23.3zM0 843v4.1c69 16.7 142.1 40.9 200 71v-4.5c-58.2-29.9-131.2-54-200-70.6z"/><path d="M122.1 443.9c-33.2-36.8-67.6-74.8-67.6-130.6 0-29.6 7.9-51.4 17-76.7 12.9-35.7 28.9-80 28.9-165V0h-1v71.5c0 84.8-16 129.1-28.8 164.7-9.2 25.4-17.1 47.3-17.1 77.1 0 56.3 34.5 94.4 67.8 131.3 32.9 36.4 64 70.8 64 121 0 38.3-19.1 80.4-55.3 121.9-32.7 37.7-77.5 72.2-130 100.7v1.2c52.9-28.6 97.8-63.4 130.8-101.2 36.3-41.7 55.5-84.1 55.5-122.6.1-50.6-31.1-85.1-64.2-121.7zM51.2 1307c-15.2-6.2-33.2-8-51.2-5.4v1c17.9-2.7 35.7-.9 50.8 5.3 31.4 12.7 48.7 42.8 48.7 84.6h1c0-42.2-17.5-72.6-49.3-85.5zm115.4 109.8c-21.8 10.5-43.9 18.2-65.4 23-22.7 5-44.8 6.8-64.9 5-13.1-1.2-25.3-3.9-36.3-8v1.1c11 4.1 23.1 6.8 36.2 7.9 5.2.5 10.6.7 16.1.7 15.6 0 32.1-1.9 49-5.7 21.6-4.8 43.9-12.6 65.7-23.1 11.5-5.6 22.6-11.8 33-18.4v-1.2c-10.5 6.8-21.7 13-33.4 18.7zm33.4-306.7c-28.3 8.3-62 16.7-98 23.4-30.7-9.1-64.7-16.3-102-21.4v1c36.4 5 69.7 12 99.8 20.8-32.3 5.9-66.4 10.3-99.8 11.8v1c34.2-1.6 69-6.1 101.9-12.2 38 11.4 70.8 25.7 98.1 43v-1.2c-26.8-16.9-58.8-31.1-95.9-42.3 35.2-6.6 68.2-14.8 95.9-23v-.9zM0 844.5v1c68.9 16.6 142 40.8 200 70.9v-1.1c-58.1-30-131.2-54.1-200-70.8z" style="fill:#fff"/><path d="M160.1 1688.6c-14.4-17-29.9-56.7-41.4-106.1-9.4-40.6-20.7-106.5-20.7-189.9h4c0 83 11.2 148.6 20.6 189 11.4 48.9 26.5 87.9 40.5 104.5l-3 2.5z"/><linearGradient id="SVGID_1_" gradientUnits="userSpaceOnUse" x1="99.5" y1="1861.944" x2="162" y2="1861.944" gradientTransform="matrix(1 0 0 -1 0 3402)"><stop offset="0" style="stop-color:#fff"/><stop offset="1" style="stop-color:#0f0"/></linearGradient><path d="M161.2 1687.6c-24.9-29.4-61.7-143.5-61.7-295.1h1c0 151.4 36.7 265.2 61.5 294.4l-.8.7z" style="fill:url(#SVGID_1_)"/><linearGradient id="SVGID_00000183943292395952532400000002153380904108765587_" gradientUnits="userSpaceOnUse" x1="81.172" y1="1682.22" x2="81.172" y2="2312.52"><stop offset="0" style="stop-color:#fff"/><stop offset="1" style="stop-color:#ff0"/></linearGradient><path style="fill:url(#SVGID_00000183943292395952532400000002153380904108765587_)" d="M160.1 1985c-3.5 28.7-10.4 56.8-20.5 83.8a503.08 503.08 0 0 1-37.4 78.4c-14.7 25.1-30.9 49.3-48.6 72.5l-6.6 8.7c-2.2 2.9-4.5 5.7-6.8 8.6l-3.4 4.3-3.4 4.2c-2.3 2.8-4.6 5.7-6.9 8.5-2.4 2.8-4.7 5.6-7 8.4-2.3 2.8-4.7 5.6-7.1 8.4-2.3 2.8-4.7 5.6-7.1 8.4-1.8 2-3.5 4.1-5.3 6.2v-95.9c3.8-3.1 7.6-6.2 11.3-9.4 2.6-2.1 5.1-4.4 7.6-6.6l3.8-3.3 3.7-3.4c5-4.5 9.8-9.1 14.5-13.9 9.4-9.5 18.6-19.3 27.2-29.5 17.4-20.4 32.6-42.6 45.3-66.2 12.8-23.7 22.4-49 28.5-75.3 3-13.2 5.1-26.6 6.2-40.1 1-13.6 1-27.2 0-40.8a278 278 0 0 0-6-40.6c-3.1-13.4-7-26.7-11.8-39.6-9.8-25.9-22.6-50.6-38.2-73.6-3.8-5.8-7.9-11.4-12-17-2.1-2.8-4.2-5.5-6.3-8.3-2.1-2.7-4.3-5.4-6.5-8.1-7-8.5-14.3-16.7-22-24.6-2-2.1-4-4.1-6.1-6.2l.7-.7c2 2.1 4 4.2 6 6.4 7.5 8.1 14.8 16.3 21.9 24.7 2.2 2.7 4.5 5.3 6.7 8s4.4 5.4 6.5 8.2c4.3 5.5 8.5 11 12.5 16.7 16.2 22.7 30.5 46.9 41.6 72.6 11.4 25.8 19.4 53 23.8 80.9 2.2 14.1 3.4 28.2 3.6 42.5 0 14.1-.7 28.5-2.4 42.7z"/><path d="M200 2735.9v276.9c-5.5 10.4-11.5 20.5-17.9 30.3-13.5 21.2-28.3 41.5-44.3 60.8l-5.9 7.2-6 7-6 7c-2 2.3-4.1 4.5-6.1 6.8-8.2 9.1-16.4 18.1-24.7 26.8-16.7 17.6-33.9 34.3-51.4 50.5l-6.6 6.1c-2.2 2-4.4 4.1-6.6 6l-13.2 12.1c-3.7 3.4-7.5 6.7-11.2 10.1v-94.1c26.8-21.3 52.7-43.7 77-67.7l4.5-4.5c4.5-4.5 8.9-9.1 13.3-13.7 3.9-4.1 7.7-8.2 11.4-12.5 9.4-10.6 18.3-21.5 26.8-32.7 1.7-2.2 3.4-4.5 5-6.8 1.7-2.3 3.3-4.6 4.9-6.9.8-1.2 1.6-2.3 2.4-3.5 1.6-2.3 3.1-4.7 4.7-7.1l4.5-7.2c.7-1.2 1.5-2.4 2.2-3.6 2.1-3.7 4.2-7.3 6.2-11.1l3.9-7.5c.6-1.3 1.3-2.5 1.9-3.8 1.2-2.5 2.5-5.1 3.6-7.7 1.2-2.6 2.3-5.2 3.4-7.8.5-1.3 1.1-2.6 1.6-3.9 1-2.6 2-5.3 2.9-7.9.5-1.3.9-2.7 1.4-4 .9-2.7 1.7-5.4 2.5-8.1 1.4-4.7 2.6-9.5 3.7-14.3 1.4-6.2 2.4-12.5 3.2-18.8.2-1.4.4-2.8.5-4.2l.3-4.2c.2-2.8.5-5.6.5-8.4 0-2.8.2-5.6.2-8.5l-.3-8.5c-.6-11.3-2.2-22.5-4.6-33.5-2.5-11-5.8-21.8-9.9-32.4l-3.1-7.9-3.5-7.7c-1.1-2.6-2.4-5.1-3.7-7.6-1.2-2.5-2.5-5.1-3.9-7.5l-4-7.4-4.3-7.3c-.3-.6-.7-1.2-1.1-1.8-.7-1.2-1.5-2.4-2.2-3.6-.4-.6-.8-1.2-1.1-1.8l-.6-.9-.6-.9c-.4-.6-.8-1.2-1.1-1.8-.4-.6-.8-1.2-1.1-1.8l-1.2-1.8-2.8-4.2-1.9-2.8c-.2-.2-.3-.5-.5-.7-1-1.5-2.1-3-3.2-4.5-.4-.6-.8-1.2-1.2-1.7-3.2-4.6-6.7-9.1-10.1-13.6-13.8-17.9-28.8-34.8-44.3-51.2-13.6-14.3-27.7-28.2-42.1-41.7-1.3-1.3-2.7-2.6-4.1-3.8-.4-.3-.7-.7-1.1-1l-1-1c-3.1-2.9-6.2-5.8-9.3-8.6-3.1-2.9-6.2-5.7-9.4-8.6-4.2-3.8-8.4-7.6-12.6-11.3l-2.7-2.4v-58.8l12.1 11.6c16.9 15.6 33.8 31.3 50.3 47.6l6.2 6.1 6.2 6.2 3.1 3.1c1 1 2.1 2 3.1 3l6.3 6.1c4.2 4.1 8.3 8.3 12.4 12.4 4.1 4.2 8.2 8.5 12.3 12.7 16.2 17.2 32 35.2 46.9 54.4 7.4 9.7 15 19.3 22.1 29.6.9 1.2 1.8 2.6 2.6 3.9l2.6 3.9c1.7 2.6 3.5 5.2 5.1 7.9l5 8.1 3.7 6.4z" style="fill:#ffd400"/><path d="M192.4 2862.9c0 2.8-.1 5.6-.2 8.5 0 2.8-.3 5.6-.5 8.4l-.3 4.2c-.1 1.4-.3 2.8-.5 4.2-.8 6.3-1.8 12.6-3.2 18.8-1.1 4.8-2.3 9.6-3.7 14.3-.8 2.7-1.6 5.4-2.5 8.1-.4 1.3-.9 2.7-1.4 4-.9 2.7-1.9 5.3-2.9 7.9-.5 1.3-1 2.6-1.6 3.9-1.1 2.6-2.2 5.2-3.4 7.8-1.2 2.6-2.4 5.1-3.6 7.7-.6 1.3-1.2 2.5-1.9 3.8l-3.9 7.5c-2 3.7-4.1 7.4-6.2 11.1-.7 1.2-1.4 2.4-2.2 3.6l-4.5 7.2c-1.5 2.4-3.1 4.7-4.7 7.1-.8 1.2-1.6 2.3-2.4 3.5-1.6 2.3-3.2 4.6-4.9 6.9-1.7 2.3-3.3 4.6-5 6.8-8.5 11.3-17.4 22.2-26.8 32.7-3.8 4.2-7.6 8.4-11.5 12.5-4.4 4.6-8.8 9.2-13.2 13.7l-4.5 4.5c-24.3 24-50.2 46.5-77 67.7V3065l3.3-2.4c2.2-1.5 4.2-3.1 6.3-4.7l6.3-4.8c2.1-1.6 4.2-3.2 6.2-4.8 2-1.6 4-3.3 6.1-4.9 2-1.7 4.1-3.3 6-5l5.9-5.1 5.9-5.1 5.7-5.2c15-13.5 29.2-27.9 42.4-43.2 12.3-14.6 23.2-30.4 32.4-47.2 1.2-2 2.1-4.1 3.1-6.1l1.5-3.1.8-1.5.7-1.5 2.7-6.2c.9-2.1 1.5-4.2 2.3-6.3 3-8.2 5.3-16.7 6.8-25.3.2-1.1.5-2.1.6-3.2l.4-3.2c.3-2.1.7-4.3.8-6.4.2-2.1.4-4.3.5-6.4l.2-6.5c0-8.8-.8-17.6-2.5-26.2-1.8-9-4.2-17.8-7.2-26.4l-2.4-6.6-2.7-6.6c-.8-2.2-2-4.4-2.9-6.6-1-2.2-2-4.4-3.1-6.6-9.1-18.1-19.7-35.3-31.9-51.5-12.8-16.4-26.8-32.4-41.6-48-3.8-3.9-7.5-7.8-11.3-11.6-3.8-3.8-7.6-7.7-11.5-11.5-7.7-7.7-15.8-15-24.1-22.2-1.9-1.7-3.8-3.3-5.7-5v-56.3l2.7 2.4c4.2 3.8 8.4 7.5 12.6 11.3 3.1 2.8 6.3 5.7 9.4 8.6 3.1 2.9 6.2 5.7 9.3 8.6.7.7 1.4 1.3 2.1 2 1.4 1.3 2.7 2.5 4.1 3.8 14.4 13.6 28.5 27.4 42.1 41.7 15.5 16.4 30.5 33.4 44.3 51.2 3.4 4.5 6.9 9 10.1 13.6.4.6.8 1.1 1.2 1.7 1.1 1.5 2.1 3 3.2 4.5.2.2.3.5.5.7l1.9 2.8 2.8 4.2 1.2 1.8c.4.6.8 1.2 1.1 1.8.4.6.8 1.2 1.1 1.8.4.6.8 1.2 1.1 1.8.4.6.8 1.2 1.1 1.8.8 1.2 1.5 2.4 2.2 3.6.4.6.7 1.2 1.1 1.8l4.3 7.3 4 7.4c1.4 2.5 2.6 5 3.9 7.5 1.2 2.5 2.6 5 3.7 7.6l3.5 7.7 3.1 7.9c4.1 10.5 7.4 21.4 9.9 32.4 2.4 11 3.9 22.2 4.6 33.5l.3 8.3z" style="fill:#00b4ff"/><path d="M200 2786.1V2951c-1.5 4.1-3.1 8.2-4.8 12.3-9.5 22.4-21.3 43.8-35.1 63.9-13.4 19.7-28 38.6-43.8 56.4-31.3 35.4-65.1 67.7-100.4 97.9-5.3 4.5-10.5 9-15.9 13.5v-89c8.4-6.4 16.6-12.9 24.7-19.5 2.1-1.7 4.2-3.4 6.3-5.2l6.3-5.2c4.2-3.5 8.2-7.1 12.3-10.7 2-1.8 4.1-3.6 6.1-5.4l5.9-5.6 5.9-5.5 5.8-5.7c15.3-14.9 29.6-30.8 42.8-47.6 12.8-16.4 24-34.1 33.3-52.8 4.5-9.1 8.3-18.5 11.4-28.2 3.1-9.5 5.4-19.3 6.9-29.2.2-1.2.5-2.5.6-3.7l.4-3.7c.2-2.5.6-4.9.6-7.4.1-2.5.3-5 .3-7.5v-7.5c-.3-10-1.5-20-3.5-29.9-2.1-10-5-19.8-8.5-29.4l-2.8-7.2-3.1-7.2c-1-2.4-2.2-4.7-3.3-7.1-1.1-2.4-2.2-4.7-3.5-7.1-9.9-19-21.4-37.1-34.5-54.1-13.3-17.1-27.8-33.6-42.9-49.6-3.8-4-7.6-8-11.5-11.9-3.9-3.9-7.8-7.9-11.8-11.7-4-3.9-7.9-7.8-12-11.5l-6.1-5.7-6.2-5.6c-6.6-5.9-13.2-11.9-19.9-17.7v-57.2c16.2 14.6 32.4 29.3 48.2 44.5 16.4 15.9 33 31.9 48.9 48.6 15.9 16.8 31.2 34.3 45.6 52.8 7.1 9.3 14.3 18.7 20.9 28.6 1.7 2.4 3.3 5 4.9 7.4 1.6 2.5 3.3 5 4.8 7.6l4.6 7.7 4.4 7.9c1.5 2.6 2.8 5.3 4.2 8 1.3 2.7 2.8 5.4 4 8.2l3.8 8.3 3.5 8.5c.9 1.8 1.5 3.5 2.2 5.3z" style="fill:#00b400"/></svg>