<svg xmlns="http://www.w3.org/2000/svg" xmlns:xlink="http://www.w3.org/1999/xlink" viewBox="0 0 200 100"><defs><style>.a{opacity:0.6;}.b{fill:#94d5ff;}.c{fill:url(#a);}.d{fill:url(#b);}.e{fill:url(#c);}.f{fill:url(#d);}.g{fill:url(#e);}.h{fill:url(#f);}.i{fill:url(#g);}.j{fill:url(#h);}.k{fill:url(#i);}.l{fill:url(#j);}.m{fill:url(#l);}.n{fill:url(#m);}.o{fill:url(#o);}</style><linearGradient id="a" x1="0.5797" y1="42.3749" x2="199.2038" y2="42.3749" gradientTransform="matrix(1, 0, 0, -1, 0, 100)" gradientUnits="userSpaceOnUse"><stop offset="0" stop-color="blue"/><stop offset="0.25" stop-color="aqua"/><stop offset="0.5" stop-color="lime"/><stop offset="0.75" stop-color="#ff0"/><stop offset="1" stop-color="#f0f"/></linearGradient><linearGradient id="b" x1="0.58" y1="44.537" x2="199.2041" y2="44.537" xlink:href="#a"/><linearGradient id="c" x1="0.58" y1="42.3866" x2="199.2041" y2="42.3866" xlink:href="#a"/><linearGradient id="d" x1="0.58" y1="44.0498" x2="199.2041" y2="44.0498" xlink:href="#a"/><linearGradient id="e" x1="0.58" y1="42.3749" x2="199.2041" y2="42.3749" xlink:href="#a"/><linearGradient id="f" x1="0.58" y1="42.482" x2="199.2041" y2="42.482" xlink:href="#a"/><linearGradient id="g" x1="0.58" y1="45.514" x2="199.2041" y2="45.514" xlink:href="#a"/><linearGradient id="h" x1="0.58" y1="42.4832" x2="199.2041" y2="42.4832" xlink:href="#a"/><linearGradient id="i" x1="0.58" y1="44.4198" x2="199.2041" y2="44.4198" xlink:href="#a"/><linearGradient id="j" x1="0.58" y1="42.2476" x2="199.2041" y2="42.2476" xlink:href="#a"/><linearGradient id="l" x1="0.58" y1="40.0455" x2="199.2041" y2="40.0455" xlink:href="#a"/><linearGradient id="m" x1="0.58" y1="38.5831" x2="199.2041" y2="38.5831" xlink:href="#a"/><linearGradient id="o" x1="0.58" y1="42.376" x2="199.2041" y2="42.376" xlink:href="#a"/></defs><rect width="200" height="100"/><g class="a"><path class="b" d="M16.7871,39.0811V36.2822h.5117v2.335h1.0478v-2.335h.5118v2.335h.3789l-.0791,1.0517h-.4327v-.5878Z"/><path class="b" d="M24.1464,37.2256h-.0127l-1.247,1.8555h-.4278V36.2822h.5118v1.8594h.0117L24.23,36.2822h.4287v2.7989h-.5118Z"/><path class="b" d="M29.71,38.7891v.372h-.504v-.3759a1.3037,1.3037,0,0,1-.2959.0322c-.6631,0-.9717-.5-.9717-1.1514,0-.66.3086-1.1592.9717-1.1592a1.3383,1.3383,0,0,1,.2959.0313v-.375h.504v.375a1.3142,1.3142,0,0,1,.2959-.0313c.6631,0,.9717.4991.9717,1.1592,0,.6514-.3086,1.1514-.9717,1.1514A1.5309,1.5309,0,0,1,29.71,38.7891Zm-.5039-.4473V36.9824a1.0023,1.0023,0,0,0-.2363-.02c-.3438,0-.5068.3086-.5068.7s.163.6992.5068.6992a1.064,1.064,0,0,0,.2362-.02Zm.5039-1.3594v1.3594a1.0162,1.0162,0,0,0,.2354.02c.3437,0,.5078-.3076.5078-.6992s-.1641-.7-.5078-.7A.9588.9588,0,0,0,29.71,36.9824Z"/><path class="b" d="M34.7705,38.0977v.9834h-.5118V36.2822h.9151a.9081.9081,0,0,1,.05,1.8155c-.0168,0-.0337,0-.05,0Zm0-1.3516v.8877h.3955a.4454.4454,0,0,0,0-.8877Z"/><path class="b" d="M40.4062,39.1211c-.832,0-1.18-.6318-1.18-1.4395s.3477-1.4394,1.18-1.4394,1.1787.6318,1.1787,1.4394S41.2373,39.1211,40.4062,39.1211Zm0-2.415c-.456,0-.6514.4277-.6514.9755s.1954.9756.6514.9756.6514-.4277.6514-.9756S40.8623,36.7061,40.4062,36.7061Z"/><path class="b" d="M44.9472,39.0811V36.2822h.876c.499,0,.875.1846.875.6719a.62.62,0,0,1-.4756.64V37.61a.6708.6708,0,0,1,.5752.6953c0,.5713-.4277.7754-.9746.7754Zm.8477-2.335h-.336v.6758h.336a.33.33,0,0,0,.376-.34C46.1709,36.8779,46.039,36.7461,45.7949,36.7461Zm.0039,1.1152h-.34v.7559h.34c.2959,0,.4717-.1475.4717-.3682C46.2705,37.9932,46.0947,37.8613,45.7988,37.8613Z"/><path class="b" d="M51.43,38.47h-.888l-.1836.6114h-.54l.9356-2.7989h.4677l.9356,2.7989h-.5391Zm-.7509-.4521h.6152l-.3-1.0156h-.0156Z"/><path class="b" d="M56.291,38.0254l-.6074,1.0557H55.1l.6513-1.1114a.8181.8181,0,0,1-.539-.8154.8338.8338,0,0,1,.7937-.8722q.0406-.002.0813,0h.8916v2.7989h-.5117V38.0254Zm-.1846-.4639h.36v-.8154h-.36a.41.41,0,0,0,0,.8154Z"/><path class="b" d="M63.8271,38.4971a1.0969,1.0969,0,0,0,.56.16c.4082,0,.6318-.3242.6836-.7676h-.9756V37.458h.9717c-.0557-.4355-.2793-.7519-.68-.7519a1.1614,1.1614,0,0,0-.5274.1279l-.2041-.4111a1.5667,1.5667,0,0,1,.7676-.1807c.792,0,1.1992.624,1.1992,1.4394s-.416,1.4395-1.207,1.4395a1.52,1.52,0,0,1-.7959-.2158Z"/><path class="b" d="M69.6953,37.8662h-.2v1.2149h-.5117V36.2822h.5117v1.12h.208l.7236-1.12h.5713l-.875,1.3233.959,1.4756-.5752.04Z"/><path class="b" d="M75.1425,39.1211c-.832,0-1.18-.6318-1.18-1.4395s.3476-1.4394,1.18-1.4394,1.1787.6318,1.1787,1.4394S75.9736,39.1211,75.1425,39.1211Zm0-2.415c-.456,0-.6513.4277-.6513.9755s.1953.9756.6513.9756.6514-.4277.6514-.9756S75.5986,36.7061,75.1425,36.7061Z"/><path class="b" d="M81.542,38.9053a1.4339,1.4339,0,0,1-.78.2158c-.8311,0-1.1992-.6318-1.1992-1.4395s.3681-1.4394,1.1992-1.4394a1.437,1.437,0,0,1,.7314.1807l-.2031.4111a1.1787,1.1787,0,0,0-.5283-.1279c-.4551,0-.6709.4277-.6709.9755s.2158.9756.6709.9756a1.1309,1.1309,0,0,0,.5722-.16Z"/><path class="b" d="M86.53,37.2256h-.0127L85.27,39.0811h-.4278V36.2822h.5118v1.8594h.0117l1.248-1.8594h.4278v2.7989H86.53Z"/><path class="b" d="M92.3828,38.9053a1.4339,1.4339,0,0,1-.78.2158c-.8311,0-1.1992-.6318-1.1992-1.4395s.3681-1.4394,1.1992-1.4394a1.437,1.437,0,0,1,.7314.1807l-.2031.4111a1.1787,1.1787,0,0,0-.5283-.1279c-.4551,0-.6709.4277-.6709.9755s.2158.9756.6709.9756a1.1313,1.1313,0,0,0,.5723-.16Z"/><path class="b" d="M96.73,36.7461v2.335h-.5166v-2.335h-.8115v-.4639h2.14l-.08.4639Z"/><path class="b" d="M100.7431,39.0811V36.2822h1.6231l-.08.4639h-1.0313v.6562h.9112v.4639h-.9112v.751h1.1114v.4639Z"/><path class="b" d="M107.8379,37.2539h-.0127l-.48,1.459h-.5235l-.4843-1.459h-.0118l-.1679,1.8272h-.5118l.26-2.7989h.5723l.6,1.8h.0117l.6-1.8h.5713l.2607,2.7989H108.01Z"/><path class="b" d="M113.2138,38.47h-.8877l-.1836.6114h-.54l.9355-2.7989h.4678l.9356,2.7989h-.5391Zm-.7509-.4521h.6152l-.3-1.0156h-.0156Z"/><path class="b" d="M120.4629,39.0811V36.2822h1.623l-.08.4639h-1.0312v.6562h.9111v.4639h-.9111v.751h1.1113v.4639Z"/><path class="b" d="M126.1992,37.8662h-.2v1.2149h-.5117V36.2822h.5117v1.12h.208l.7236-1.12h.5713l-.875,1.3233.959,1.4756-.5752.04Z"/><path class="b" d="M132.0781,38.47H131.19l-.1836.6114h-.54l.9355-2.7989h.4678l.9355,2.7989h-.539Zm-.751-.4521h.6152l-.3-1.0156h-.0156Z"/><path class="b" d="M136.8545,36.7461v2.335h-.5166v-2.335h-.8116v-.4639h2.14l-.08.4639Z"/><path class="b" d="M140.8671,39.0811V36.2822H142.49l-.08.4639h-1.0312v.6562h.9111v.4639h-.9111v.751H142.49v.4639Z"/><path class="b" d="M146.4023,38.0977v.9834h-.5117V36.2822h.915a.9081.9081,0,0,1,.05,1.8155c-.0169,0-.0337,0-.05,0Zm0-1.3516v.8877h.3955a.4454.4454,0,0,0,0-.8877Z"/><path class="b" d="M152.7265,37.2256h-.0127l-1.247,1.8555h-.4278V36.2822h.5117v1.8594h.0118l1.247-1.8594h.4287v2.7989h-.5117Z"/><path class="b" d="M157.23,37.4023h1.0479v-1.12h.5117v2.7989h-.5117v-1.215H157.23v1.2149h-.5117V36.2822h.5117Z"/><path class="b" d="M162.7832,36.7461v.64h.3476c.58,0,.9678.2764.9678.8477s-.3838.8477-.9678.8477h-.8594V36.2822H163.91l-.0791.4639Zm0,1.1035v.7676h.3242c.3232,0,.4629-.1641.4629-.3838,0-.2354-.1358-.3838-.4678-.3838Z"/><path class="b" d="M168.7587,36.2822h.544l-.8281,2.1992c-.1319.3477-.336.64-.72.64a.7163.7163,0,0,1-.4472-.14l.2431-.3964a.28.28,0,0,0,.1846.0722c.08,0,.1719-.0761.252-.2715l.0556-.1406h-.16l-.8633-1.9629h.584l.6152,1.4434h.0117Z"/><path class="b" d="M172.9345,38.0977v.9834h-.5117V36.2822h.9151a.9081.9081,0,1,1,.05,1.8155c-.0168,0-.0337,0-.05,0Zm0-1.3516v.8877h.3955a.4454.4454,0,0,0,0-.8877Z"/><path class="b" d="M178.083,36.7461v2.335h-.5118V36.2822H179.17l-.0791.4639Z"/><path class="b" d="M183.2617,38.47h-.8877l-.1836.6114h-.54l.9355-2.7989h.4678l.9355,2.7989h-.539Zm-.751-.4521h.6152l-.3-1.0156H182.81Z"/></g><path class="c" d="M8.2714,63.5146a10.1066,10.1066,0,0,1-4.09-.7626,6.2014,6.2014,0,0,1-2.67-2.0977,5.448,5.448,0,0,1-.37-5.4561A5.6247,5.6247,0,0,1,2.6875,53.333,7.25,7.25,0,0,1,4.955,52.1465a8.82,8.82,0,0,1,2.7227-.4131,8.6456,8.6456,0,0,1,2.7656.4238,6.817,6.817,0,0,1,2.2031,1.208A5.3956,5.3956,0,0,1,14.0986,55.23a5.1543,5.1543,0,0,1,.4658,2.3945l-.0215.9326H3.292l-.4874-2.3095h8.3272l-.4023.6777v-.3809a1.1579,1.1579,0,0,0-.4454-.7841,3.0052,3.0052,0,0,0-1.0595-.541,4.9865,4.9865,0,0,0-1.4619-.2012,5.24,5.24,0,0,0-1.6211.2441,2.624,2.624,0,0,0-1.1973.752A1.8592,1.8592,0,0,0,4.5,57.2852a2.0788,2.0788,0,0,0,.5185,1.3769,3.6213,3.6213,0,0,0,1.5156.9961,6.7058,6.7058,0,0,0,2.3936.3818,7.6772,7.6772,0,0,0,2.1611-.2441,7.0843,7.0843,0,0,0,1.166-.4346l1.8438,2.6065a10.49,10.49,0,0,1-1.8125.88,10.1656,10.1656,0,0,1-1.9385.5078A13.1216,13.1216,0,0,1,8.2714,63.5146Z"/><path class="d" d="M16.3017,63.3027V47.623h4.1319v15.68Zm3.9414-2.67-1.8437-2.67,7.247-5.9961h5.6788Zm5.8057,2.67-5.043-6.3359L23.93,54.8057l7.0352,8.497Z"/><path class="e" d="M36.4736,63.4932a6.9,6.9,0,0,1-3.2949-.7412,5.1972,5.1972,0,0,1-2.13-2.0557,6.6512,6.6512,0,0,1,.0107-6.1231A5.2924,5.2924,0,0,1,33.2,52.4854a6.7714,6.7714,0,0,1,3.2734-.752,7.6489,7.6489,0,0,1,1.96.2334,6.5506,6.5506,0,0,1,1.5683.625,5.1121,5.1121,0,0,1,1.1328.8477,2.7834,2.7834,0,0,1,.6153.8789l-.9961.1484v-2.5H44.949V63.3027H40.6474V60.1875l.8906.34a2.4366,2.4366,0,0,1-.541,1.08,4.668,4.668,0,0,1-1.0908.9541,5.8121,5.8121,0,0,1-1.5361.6778A6.8292,6.8292,0,0,1,36.4736,63.4932Zm1.165-3.4961a4.4621,4.4621,0,0,0,1.6953-.2862,2.279,2.279,0,0,0,1.06-.8154,2.1665,2.1665,0,0,0,.36-1.25,2.2081,2.2081,0,0,0-.36-1.2715,2.3475,2.3475,0,0,0-1.06-.8261,4.324,4.324,0,0,0-1.6953-.2969,4.2675,4.2675,0,0,0-1.6738.2969,2.4188,2.4188,0,0,0-1.07.8261,2.1634,2.1634,0,0,0-.37,1.2715,2.1227,2.1227,0,0,0,.37,1.25,2.3461,2.3461,0,0,0,1.07.8154A4.4034,4.4034,0,0,0,37.6386,59.9971Z"/><path class="f" d="M46.3476,55.5684V51.9668H56.6455v3.6016Zm2.7754,7.7343V48.5977h4.3018v14.705Z"/><path class="g" d="M64.57,63.5146a10.1066,10.1066,0,0,1-4.09-.7626,6.2014,6.2014,0,0,1-2.67-2.0977,5.4485,5.4485,0,0,1-.37-5.4561,5.624,5.624,0,0,1,1.5459-1.8652,7.2509,7.2509,0,0,1,2.2676-1.1865,8.82,8.82,0,0,1,2.7226-.4131,8.6456,8.6456,0,0,1,2.7656.4238,6.8175,6.8175,0,0,1,2.2032,1.208A5.3953,5.3953,0,0,1,70.3974,55.23a5.153,5.153,0,0,1,.4658,2.3945l-.0214.9326H59.5908l-.4873-2.3095h8.3271l-.4023.6777v-.3809a1.158,1.158,0,0,0-.4453-.7841,3.0049,3.0049,0,0,0-1.06-.541,4.9865,4.9865,0,0,0-1.4619-.2012,5.24,5.24,0,0,0-1.6211.2441,2.624,2.624,0,0,0-1.1973.752,1.8588,1.8588,0,0,0-.4443,1.2715,2.0788,2.0788,0,0,0,.5185,1.3769,3.6223,3.6223,0,0,0,1.5157.9961,6.705,6.705,0,0,0,2.3935.3818,7.6783,7.6783,0,0,0,2.1612-.2441,7.0843,7.0843,0,0,0,1.166-.4346l1.8437,2.6065a10.49,10.49,0,0,1-1.8125.88,10.1656,10.1656,0,0,1-1.9385.5078A13.1068,13.1068,0,0,1,64.57,63.5146Z"/><path class="h" d="M72.6005,63.3027V51.9668h3.9834l.2549,4.2168-1.2929-.0215a6.24,6.24,0,0,1,1.123-2.2461,6.0749,6.0749,0,0,1,1.8652-1.5889,4.6812,4.6812,0,0,1,2.2881-.5937,7.0092,7.0092,0,0,1,1.3985.1377,4.4054,4.4054,0,0,1,1.165.3926l-1.1865,4.6611a3.54,3.54,0,0,0-1.1338-.4766,5.9361,5.9361,0,0,0-1.5361-.2011,3.1372,3.1372,0,0,0-1.1758.2011,2.4568,2.4568,0,0,0-.8262.5293,2.02,2.02,0,0,0-.4766.7315,2.4171,2.4171,0,0,0-.1484.8476v4.7461Z"/><path class="i" d="M87.3056,49.7422a2.7434,2.7434,0,0,1-1.79-.53,2.0123,2.0123,0,0,1-.1124-2.8436q.0589-.0638.1231-.1222a2.6116,2.6116,0,0,1,1.7793-.5723,2.7534,2.7534,0,0,1,1.791.5293,2.0156,2.0156,0,0,1,.1085,2.8484q-.057.0617-.1192.1184A2.6208,2.6208,0,0,1,87.3056,49.7422ZM85.1445,63.3027V51.9668h4.3017V63.3027Z"/><path class="j" d="M92.8359,63.3027V51.9668h3.9834l.2119,2.9668-1.08.2959a4.25,4.25,0,0,1,.9639-1.7266,5.2106,5.2106,0,0,1,1.8223-1.2822,6.1509,6.1509,0,0,1,2.49-.4873,5.4458,5.4458,0,0,1,2.7012.625,4.2245,4.2245,0,0,1,1.6953,1.7168,5.1647,5.1647,0,0,1,.582,2.4687v6.7588h-4.3008V57.4971A2.4453,2.4453,0,0,0,101.619,56.3a2.0116,2.0116,0,0,0-.8057-.8057,2.3391,2.3391,0,0,0-1.2177-.2646,2.6955,2.6955,0,0,0-1.0918.2012,2.2307,2.2307,0,0,0-.7627.541,2.2841,2.2841,0,0,0-.4551.73,2.1134,2.1134,0,0,0-.1484.753v5.8476H92.8359Z"/><path class="k" d="M117.415,63.5361a8.1536,8.1536,0,0,1-2.002-.2334,5.992,5.992,0,0,1-1.6-.6357,5.0368,5.0368,0,0,1-1.1221-.8789,2.0945,2.0945,0,0,1-.5518-.9649l1.208-.02-.3388,2.5H109.13V47.623h4.3233v7.1192l-1.293-.127a2.6367,2.6367,0,0,1,.6035-1.0381,5.1634,5.1634,0,0,1,1.1446-.9326,5.9838,5.9838,0,0,1,1.6-.667,7.6252,7.6252,0,0,1,1.9707-.2441,6.3921,6.3921,0,0,1,3.126.7627,5.7064,5.7064,0,0,1,2.998,5.1494,5.8948,5.8948,0,0,1-.7949,3.0723,5.492,5.492,0,0,1-2.1934,2.0761A6.7148,6.7148,0,0,1,117.415,63.5361Zm-1.123-3.539a4.3167,4.3167,0,0,0,1.663-.2862,2.35,2.35,0,0,0,1.06-.8154,2.1225,2.1225,0,0,0,.3711-1.25,2.1519,2.1519,0,0,0-.3818-1.293,2.3565,2.3565,0,0,0-1.0694-.8046,4.4212,4.4212,0,0,0-1.6425-.2754,4.5644,4.5644,0,0,0-1.6739.2754,2.2893,2.2893,0,0,0-1.07.8046,2.1994,2.1994,0,0,0-.37,1.293,2.1227,2.1227,0,0,0,.37,1.25,2.3461,2.3461,0,0,0,1.07.8154A4.4019,4.4019,0,0,0,116.292,59.9971Z"/><path class="l" d="M130.0224,63.5361a5.01,5.01,0,0,1-2.5849-.6357,4.1979,4.1979,0,0,1-1.6739-1.8965,7.1535,7.1535,0,0,1-.5937-3.0615V51.9668h4.3017v5.4453a3.7484,3.7484,0,0,0,.212,1.377,1.46,1.46,0,0,0,.6992.7841,2.6882,2.6882,0,0,0,1.25.2549,3.2394,3.2394,0,0,0,1.0273-.1592,2.7137,2.7137,0,0,0,.8477-.456,1.9962,1.9962,0,0,0,.5722-.73,2.269,2.269,0,0,0,.2012-.9638V51.9668h4.3018V63.3027h-3.9414l-.2539-2.2881.8046-.2548a3.2814,3.2814,0,0,1-.9423,1.3242,5.43,5.43,0,0,1-1.7911,1.0488A6.9315,6.9315,0,0,1,130.0224,63.5361Z"/><path class="h" d="M141.74,63.3027V51.9668h3.9834l.2549,4.2168-1.293-.0215a6.2445,6.2445,0,0,1,1.1231-2.2461,6.0724,6.0724,0,0,1,1.8652-1.5889,4.6812,4.6812,0,0,1,2.2881-.5937,7.0074,7.0074,0,0,1,1.3984.1377,4.4061,4.4061,0,0,1,1.1651.3926l-1.1866,4.6611a3.54,3.54,0,0,0-1.1338-.4766,5.9318,5.9318,0,0,0-1.5361-.2011,3.1372,3.1372,0,0,0-1.1758.2011,2.4573,2.4573,0,0,0-.8261.5293,2.0183,2.0183,0,0,0-.4766.7315,2.4171,2.4171,0,0,0-.1484.8476v4.7461Z"/><path class="m" d="M160.2373,68.1758a14.5381,14.5381,0,0,1-3.7715-.4444,10.3234,10.3234,0,0,1-2.69-1.081l1.44-2.9873q.4878.2109,1.0918.4551a8.5834,8.5834,0,0,0,1.3769.413,8.406,8.406,0,0,0,1.79.17,4.112,4.112,0,0,0,1.791-.36,2.5066,2.5066,0,0,0,1.1435-1.07,3.7117,3.7117,0,0,0,.3926-1.8115V60.4424l.9531.0849a2.4345,2.4345,0,0,1-.9853,1.25,6.2368,6.2368,0,0,1-1.9385.8789,9.4032,9.4032,0,0,1-2.5635.3292,6.825,6.825,0,0,1-3.0937-.668,4.8847,4.8847,0,0,1-2.0664-1.8965,5.529,5.529,0,0,1-.7305-2.8818,5.8307,5.8307,0,0,1,.7735-3.04,5.3771,5.3771,0,0,1,2.15-2.0342,6.7242,6.7242,0,0,1,3.1993-.7314,8.5526,8.5526,0,0,1,1.1972.0957,11.2937,11.2937,0,0,1,1.3672.2861,6.7927,6.7927,0,0,1,1.3028.4981,3.6275,3.6275,0,0,1,.996.72,1.4235,1.4235,0,0,1,.4131.9434l-.869.19.2334-2.5h3.9834v9.5557a7.2071,7.2071,0,0,1-.5508,2.9248,5.7907,5.7907,0,0,1-1.5049,2.0761,6.3924,6.3924,0,0,1-2.1924,1.2393A8.2939,8.2939,0,0,1,160.2373,68.1758Zm-.3809-8.2637a4.3144,4.3144,0,0,0,1.6318-.2754,2.2939,2.2939,0,0,0,1.0489-.8047,2.1252,2.1252,0,0,0,.37-1.25,2.1557,2.1557,0,0,0-.36-1.2607,2.3156,2.3156,0,0,0-1.0381-.8057,4.2549,4.2549,0,0,0-1.6523-.2861,4.8037,4.8037,0,0,0-1.748.2861,2.5022,2.5022,0,0,0-1.1231.8057,2.2081,2.2081,0,0,0,0,2.5107,2.3954,2.3954,0,0,0,1.1231.8047A4.9412,4.9412,0,0,0,159.8564,59.9121Z"/><path class="n" d="M172.1035,63.5361a3.0577,3.0577,0,0,1-2.0127-.5722,1.92,1.92,0,0,1-.6778-1.5469,1.9624,1.9624,0,0,1,.6885-1.4834,2.85,2.85,0,0,1,2.002-.6357,3.051,3.051,0,0,1,2.0127.5722,1.92,1.92,0,0,1,.6787,1.5469,1.9608,1.9608,0,0,1-.6885,1.4834A2.8538,2.8538,0,0,1,172.1035,63.5361Z"/><path class="i" d="M179.6045,49.7422a2.7434,2.7434,0,0,1-1.79-.53,2.0122,2.0122,0,0,1-.1124-2.8435q.059-.0637.1232-.1223a2.6111,2.6111,0,0,1,1.7793-.5723,2.7534,2.7534,0,0,1,1.791.5293,2.0156,2.0156,0,0,1,.1086,2.8483q-.0571.0617-.1194.1185A2.62,2.62,0,0,1,179.6045,49.7422Zm-2.1612,13.5605V51.9668h4.3018V63.3027Z"/><path class="o" d="M191.5127,63.5146a10.1585,10.1585,0,0,1-4.0254-.7519,6.4075,6.4075,0,0,1-2.7334-2.0869,5.28,5.28,0,0,1,0-6.1133,6.4432,6.4432,0,0,1,2.7334-2.0771,10.1586,10.1586,0,0,1,4.0254-.752,9.9944,9.9944,0,0,1,4.0156.752,6.4736,6.4736,0,0,1,2.7012,2.0771,5.28,5.28,0,0,1,0,6.1133,6.4376,6.4376,0,0,1-2.7012,2.0869A9.9926,9.9926,0,0,1,191.5127,63.5146Zm0-3.6025a4.69,4.69,0,0,0,1.6845-.2861,3.0622,3.0622,0,0,0,1.2188-.8047,1.6538,1.6538,0,0,0,.4443-1.1973,1.6847,1.6847,0,0,0-.4443-1.2187,3.0721,3.0721,0,0,0-1.2188-.8047,4.7124,4.7124,0,0,0-1.6845-.2861,4.9786,4.9786,0,0,0-1.7159.2861,2.9134,2.9134,0,0,0-1.23.7949,1.8775,1.8775,0,0,0,0,2.4258,2.8655,2.8655,0,0,0,1.23.8047A4.9542,4.9542,0,0,0,191.5127,59.9121Z"/></svg>