<svg enable-background="new 0 0 200 100" viewBox="0 0 200 100" xmlns="http://www.w3.org/2000/svg" xmlns:xlink="http://www.w3.org/1999/xlink"><linearGradient id="a"><stop offset="0" stop-color="#00f"/><stop offset=".25" stop-color="#0ff"/><stop offset=".5" stop-color="#0f0"/><stop offset=".75" stop-color="#ff0"/><stop offset="1" stop-color="#f0f"/></linearGradient><linearGradient id="b" gradientTransform="matrix(1 0 0 -1 0 102)" gradientUnits="userSpaceOnUse" x1="2.5563" x2="196.9147" xlink:href="#a" y1="44.7161" y2="44.7161"/><linearGradient id="c" gradientTransform="matrix(1 0 0 -1 0 102)" gradientUnits="userSpaceOnUse" x1="2.5576" x2="196.916" xlink:href="#a" y1="46.6861" y2="46.6861"/><linearGradient id="d" gradientTransform="matrix(1 0 0 -1 0 102)" gradientUnits="userSpaceOnUse" x1="2.5576" x2="196.916" xlink:href="#a" y1="44.7176" y2="44.7176"/><linearGradient id="e" gradientTransform="matrix(1 0 0 -1 0 102)" gradientUnits="userSpaceOnUse" x1="2.5576" x2="196.916" xlink:href="#a" y1="46.4055" y2="46.4055"/><linearGradient id="f" gradientTransform="matrix(1 0 0 -1 0 102)" gradientUnits="userSpaceOnUse" x1="2.5576" x2="196.916" xlink:href="#a" y1="44.7161" y2="44.7161"/><linearGradient id="g" gradientTransform="matrix(1 0 0 -1 0 102)" gradientUnits="userSpaceOnUse" x1="2.5576" x2="196.916" xlink:href="#a" y1="44.828" y2="44.828"/><linearGradient id="h" gradientTransform="matrix(1 0 0 -1 0 102)" gradientUnits="userSpaceOnUse" x1="2.5576" x2="196.916" xlink:href="#a" y1="47.3757" y2="47.3757"/><linearGradient id="i" gradientTransform="matrix(1 0 0 -1 0 102)" gradientUnits="userSpaceOnUse" x1="2.5576" x2="196.916" xlink:href="#a" y1="44.8274" y2="44.8274"/><linearGradient id="j" gradientTransform="matrix(1 0 0 -1 0 102)" gradientUnits="userSpaceOnUse" x1="2.5576" x2="196.916" xlink:href="#a" y1="46.5749" y2="46.5749"/><linearGradient id="k" gradientTransform="matrix(1 0 0 -1 0 102)" gradientUnits="userSpaceOnUse" x1="2.5576" x2="196.916" xlink:href="#a" y1="44.6023" y2="44.6023"/><linearGradient id="l" gradientTransform="matrix(1 0 0 -1 0 102)" gradientUnits="userSpaceOnUse" x1="2.5576" x2="196.916" xlink:href="#a" y1="42.8539" y2="42.8539"/><linearGradient id="m" gradientTransform="matrix(1 0 0 -1 0 102)" gradientUnits="userSpaceOnUse" x1="2.5576" x2="196.916" xlink:href="#a" y1="40.6883" y2="40.6883"/><linearGradient id="n" gradientTransform="matrix(1 0 0 -1 0 102)" gradientUnits="userSpaceOnUse" x1="2.5576" x2="196.916" xlink:href="#a" y1="44.7152" y2="44.7152"/><path d="m0 0h200v100h-200z"/><g fill="#fff"><path d="m9 39.9v-.8h-2.1v-4.2h.9v3.4h.8v-3.4h.9v3.4h.4v1.6z"/><path d="m12.6 39.1v-4.2h.8v1.8.5s0 .3 0 .5 0 .3 0 .4l1.1-3.3h1v4.2h-.8v-1.7c0-.1 0-.3 0-.5s0-.4 0-.6 0-.4 0-.5l-1.1 3.3z"/><path d="m19.4 39.2v-.4c-.2 0-.4-.1-.6-.2s-.3-.3-.4-.4c-.1-.2-.2-.4-.2-.7v-1.2c0-.2 0-.5.2-.7.1-.2.2-.3.4-.4s.4-.2.6-.2v-.4h.7v.4c.2 0 .4.1.6.2s.3.3.4.4c.1.2.2.4.2.7v1.2c0 .2 0 .5-.2.7-.1.2-.2.3-.4.4s-.4.2-.6.2v.4zm0-1v-2.4c-.2 0-.4.1-.4.3 0 .1-.1.2-.1.3v1.2c0 .1 0 .2.1.3 0 .1.2.3.4.3zm.6 0c.1 0 .2 0 .3-.1l.2-.2c0-.1.1-.2.1-.3v-1.2c0-.1 0-.2-.1-.3 0-.1-.1-.2-.2-.2-.1-.1-.2-.1-.3-.1z"/><path d="m24.1 39.1v-4.2h1.4c.3 0 .5.1.8.2.2.1.4.3.5.5.2.4.2 1 0 1.4-.1.2-.3.4-.5.5s-.5.2-.8.2h-.5v1.5h-.9zm.9-2.3h.6c.2 0 .3-.1.4-.2.2-.2.2-.6 0-.8-.1-.1-.3-.2-.4-.2h-.6z"/><path d="m31.2 39.1c-.3 0-.5 0-.7-.2-.2-.1-.4-.3-.5-.4-.1-.2-.2-.4-.2-.7v-1.8c0-.2.1-.5.2-.7s.3-.3.5-.4c.5-.2 1-.2 1.5 0 .2.1.4.3.5.4.1.2.2.4.2.7v1.8c0 .2-.1.5-.2.7s-.3.3-.5.4c-.3.2-.5.2-.8.2zm0-.7c.1 0 .3 0 .4-.1s.1-.2.1-.4v-1.8c0-.1 0-.3-.1-.4-.2-.2-.6-.2-.8 0-.1.1-.1.2-.1.4v1.8c0 .1 0 .3.1.4s.3.1.4.1z"/><path d="m35.6 39.1v-4.2h1.4c.3 0 .5 0 .7.1s.4.2.5.4.2.4.2.6-.1.5-.3.7-.4.3-.7.3c.3 0 .6.1.8.3s.3.5.3.8c0 .2-.1.4-.2.6s-.3.3-.5.4-.5.2-.8.2zm.9-2.5h.5c.1 0 .3 0 .4-.1s.2-.2.1-.4c0-.1 0-.3-.1-.4s-.3-.1-.4-.1h-.5zm0 1.8h.5c.2 0 .3 0 .4-.2.1-.1.2-.3.2-.4 0-.2-.1-.3-.2-.4s-.3-.2-.4-.2h-.5z"/><path d="m41.2 39.1 1-4.2h1.1l1 4.2h-.9l-.2-1h-1l-.2 1zm1.2-1.7h.7l-.2-1c0-.1-.1-.3-.1-.4s-.1-.3-.1-.3c0 .1 0 .2-.1.3s-.1.3-.1.4z"/><path d="m47 39.1.8-1.7c-.2-.1-.4-.3-.5-.5s-.2-.5-.2-.7.1-.5.2-.7.3-.3.5-.4.5-.2.8-.2h1.3v4.2h-.9v-1.6h-.4l-.7 1.6zm1.5-2.4h.5v-1.1h-.5c-.2 0-.3 0-.4.1s-.2.3-.2.4c0 .2.1.3.2.4.1.2.2.3.4.2z"/><path d="m58.3 39.1c-.3 0-.5 0-.7-.2-.2-.1-.4-.3-.5-.4-.1-.2-.2-.4-.2-.7h.9c0 .1 0 .3.1.4.2.2.6.2.8 0 .1-.1.1-.2.1-.4v-.5h-1.2v-.8h1.2v-.5c0-.1 0-.3-.1-.4-.2-.2-.6-.2-.8 0-.1.1-.2.2-.1.4h-.9c0-.2.1-.5.2-.7s.3-.3.5-.4c.5-.2 1-.2 1.5 0 .2.1.4.3.5.4.1.2.2.4.2.7v1.8c0 .2-.1.5-.2.7s-.3.3-.5.4c-.3.2-.6.2-.8.2z"/><path d="m62.7 39.1v-4.2h.9v1.7h.4l.7-1.7h.9l-.9 2 .9 2.2h-.9l-.7-1.8h-.4v1.8z"/><path d="m69.8 39.1c-.3 0-.5 0-.7-.2-.2-.1-.4-.3-.5-.4-.1-.2-.2-.4-.2-.7v-1.8c0-.2.1-.5.2-.7s.3-.3.5-.4c.5-.2 1-.2 1.5 0 .2.1.4.3.5.4.1.2.2.4.2.7v1.8c0 .2-.1.5-.2.7s-.3.3-.5.4c-.3.2-.5.2-.8.2zm0-.7c.1 0 .3 0 .4-.1s.1-.2.1-.4v-1.8c0-.1 0-.3-.1-.4-.2-.2-.6-.2-.8 0-.1.1-.1.2-.1.4v1.8c0 .1 0 .3.1.4s.3.1.4.1z"/><path d="m75.6 39.1c-.3 0-.5 0-.7-.2-.2-.1-.4-.3-.5-.4-.1-.2-.2-.4-.2-.7v-1.8c0-.2.1-.5.2-.7s.3-.3.5-.4c.5-.2 1-.2 1.5 0 .2.1.4.3.5.4.1.2.2.4.2.7h-.9c0-.1 0-.3-.1-.4-.2-.2-.6-.2-.8 0-.1.1-.2.2-.1.4v1.8c0 .1 0 .3.1.4.2.2.6.2.8 0 .1-.1.1-.2.1-.4h.8c0 .2-.1.5-.2.7s-.3.3-.5.4c-.2.2-.5.2-.7.2z"/><path d="m79.9 39.1v-4.2h.8v1.8.5s0 .3 0 .5 0 .3 0 .4l1.1-3.3h1v4.2h-.8v-1.7c0-.1 0-.3 0-.5s0-.4 0-.6 0-.4 0-.5l-1.1 3.3z"/><path d="m87.1 39.1c-.3 0-.5 0-.7-.2-.2-.1-.4-.3-.5-.4-.1-.2-.2-.4-.2-.7v-1.8c0-.2.1-.5.2-.7s.3-.3.5-.4c.5-.2 1-.2 1.5 0 .2.1.4.3.5.4.1.2.2.4.2.7h-.9c0-.1 0-.3-.1-.4-.2-.2-.6-.2-.8 0-.1.1-.2.2-.1.4v1.8c0 .1 0 .3.1.4.2.2.6.2.8 0 .1-.1.1-.2.1-.4h.9c0 .2-.1.5-.2.7s-.3.3-.5.4c-.3.2-.6.2-.8.2z"/><path d="m92.4 39.1v-3.4h-1.1v-.8h3v.8h-1.1v3.4z"/><path d="m97.3 39.1v-4.2h2.6v.7h-1.7v.9h1.5v.7h-1.5v1h1.7v.7h-2.6z"/><path d="m102.9 39.1v-4.2h1l.4 1.3c0 .1.1.3.1.4s0 .2 0 .2c0-.1 0-.1 0-.2s.1-.2.1-.4l.4-1.3h1v4.2h-.9v-1.6c0-.3 0-.5 0-.8s0-.5.1-.7 0-.4.1-.6l-.5 1.9h-.7l-.5-1.8c0 .2 0 .3.1.5s0 .4.1.7 0 .5 0 .8v1.6z"/><path d="m108.5 39.1 1-4.2h1.1l1 4.2h-.9l-.2-1h-1l-.2 1zm1.2-1.7h.7l-.2-1c0-.1-.1-.3-.1-.4s-.1-.3-.1-.3c0 .1 0 .2-.1.3s-.1.3-.1.4z"/><path d="m118.6 39.1v-4.2h2.6v.7h-1.7v.9h1.5v.7h-1.5v1h1.7v.7h-2.6z"/><path d="m124.3 39.1v-4.2h.9v1.7h.4l.7-1.7h.9l-.9 2 .9 2.2h-.9l-.7-1.8h-.4v1.8z"/><path d="m129.8 39.1 1-4.2h1.1l1 4.2h-.9l-.2-1h-1l-.2 1zm1.2-1.7h.7l-.2-1c0-.1-.1-.3-.1-.4s-.1-.3-.1-.3c0 .1 0 .2-.1.3s-.1.3-.1.4z"/><path d="m136.7 39.1v-3.4h-1.1v-.8h3v.8h-1.1v3.4z"/><path d="m141.6 39.1v-4.2h2.6v.7h-1.7v.9h1.5v.7h-1.5v1h1.7v.7h-2.6z"/><path d="m147.3 39.1v-4.2h1.4c.3 0 .5.1.8.2.2.1.4.3.5.5.2.4.2 1 0 1.4-.1.2-.3.4-.5.5s-.5.2-.8.2h-.6v1.5h-.8zm.9-2.3h.6c.2 0 .3-.1.4-.2.2-.2.2-.6 0-.8-.1-.1-.3-.2-.4-.2h-.6z"/><path d="m153 39.1v-4.2h.8v1.8.5s0 .3 0 .5 0 .3 0 .4l1.1-3.3h1v4.2h-.9v-1.7c0-.1 0-.3 0-.5s0-.4 0-.6 0-.4 0-.5l-1.1 3.3z"/><path d="m158.8 39.1v-4.2h.9v1.6h1v-1.6h.9v4.2h-.9v-1.8h-1v1.8z"/><path d="m164.6 39.1v-4.2h2.7v.8h-1.8v.9h.6c.3 0 .5 0 .8.2.4.2.7.6.7 1.1s-.3.9-.7 1.1c-.2.1-.5.2-.8.2zm.8-.7h.6c.2 0 .3 0 .4-.1s.2-.3.2-.4c0-.2 0-.3-.2-.4-.1-.1-.3-.2-.4-.2h-.6z"/><path d="m170.9 39.1.4-1.1-1.2-3.1h.9l.6 1.7c0 .1.1.2.1.3s0 .2.1.3c0-.1 0-.2 0-.3s0-.2.1-.3l.5-1.7h.9l-1.5 4.2z"/><path d="m176.1 39.1v-4.2h1.4c.3 0 .5.1.8.2.2.1.4.3.5.5.2.4.2 1 0 1.4-.1.2-.3.4-.5.5s-.5.2-.8.2h-.5v1.5h-.9zm.9-2.3h.6c.2 0 .3-.1.4-.2.2-.2.2-.6 0-.8-.1-.1-.3-.2-.4-.2h-.6z"/><path d="m182.1 39.1v-4.2h2.6v.8h-1.7v3.4z"/><path d="m187.4 39.1 1-4.2h1.1l1 4.2h-.9l-.2-1h-1l-.2 1zm1.2-1.7h.7l-.2-1c0-.1-.1-.3-.1-.4s-.1-.3-.1-.3c0 .1 0 .2-.1.3s-.1.3-.1.4z"/></g><path d="m7.8 63.5c-1 0-1.9-.2-2.8-.6-.8-.4-1.4-1-1.8-1.7-.4-.8-.7-1.6-.6-2.5v-2.8c0-.9.2-1.8.6-2.5.4-.8 1.1-1.4 1.8-1.8.9-.4 1.9-.6 2.8-.6 1 0 1.9.2 2.8.6.8.4 1.4 1 1.8 1.7.4.8.7 1.6.6 2.5v2.2h-7.3v.7c0 .6.1 1.2.5 1.7.4.4 1 .6 1.6.6.4 0 .9-.1 1.2-.3s.5-.4.6-.7h3.4c-.3 1-.9 1.9-1.8 2.5-1 .7-2.2 1.1-3.4 1zm2.1-7.1v-.5c0-.6-.1-1.2-.5-1.7-.4-.4-1-.6-1.6-.6s-1.2.2-1.6.6c-.4.5-.6 1.1-.5 1.7v.3h4.5z" fill="url(#b)"/><path d="m15.9 63.3v-16h3.3v8.5h1.7l2.5-4.6h3.6l-3.3 5.9 3.4 6.2h-3.7l-2.5-4.7h-1.6v4.7z" fill="url(#c)"/><path d="m32.5 63.5c-1.1.1-2.1-.3-2.9-1-.7-.7-1.1-1.7-1.1-2.7-.1-1.1.4-2.2 1.3-2.8 1.1-.7 2.4-1.1 3.8-1h2.4v-.9c0-.4-.2-.8-.5-1.1-.4-.3-.9-.4-1.4-.4s-1 .1-1.4.4c-.3.2-.5.6-.5.9h-3.1c0-.7.2-1.5.7-2.1.4-.6 1.1-1.1 1.8-1.4.8-.3 1.8-.5 2.7-.5 1.3-.1 2.6.3 3.7 1.1.9.7 1.4 1.9 1.4 3.1v8.1h-3.2v-1.9h-.5l.6-.9c0 .8-.3 1.6-1 2.2-.9.7-1.8 1-2.8.9zm1.2-2.4c.6 0 1.1-.2 1.6-.5.4-.3.6-.8.6-1.3v-1.3h-2.2c-.5 0-1 .1-1.4.4-.3.3-.5.7-.5 1.1s.2.9.5 1.2c.5.3 1 .5 1.4.4z" fill="url(#d)"/><path d="m48.5 63.3c-2 .2-3.8-1.3-3.9-3.3 0-.2 0-.4 0-.6v-5.1h-3.2v-3h3.2v-3.4h3.3v3.4h4.5v3h-4.5v5c0 .3.1.6.3.8s.5.3.7.3h3.3v3z" fill="url(#e)"/><path d="m60.4 63.5c-1 0-1.9-.2-2.8-.6-.8-.4-1.4-1-1.8-1.7-.4-.8-.7-1.6-.6-2.5v-2.8c0-.9.2-1.8.6-2.5s1.1-1.3 1.8-1.7c.9-.4 1.8-.6 2.8-.6s1.9.2 2.8.6c.8.4 1.4 1 1.8 1.7.4.8.7 1.6.6 2.5v2.1h-7.4v.7c0 .6.1 1.2.5 1.7.4.4 1 .6 1.6.6.4 0 .9-.1 1.2-.3s.5-.4.6-.7h3.2c-.3 1-.9 1.9-1.8 2.5-.8.7-2 1.1-3.1 1zm2.1-7.1v-.5c0-.6-.1-1.2-.5-1.7-.4-.4-1-.6-1.6-.6s-1.2.2-1.6.6c-.4.5-.6 1.1-.5 1.7v.3h4.5z" fill="url(#f)"/><path d="m68.7 63.3v-12h3.2v2.3h1l-1 .8c0-.9.3-1.8.9-2.4.7-.6 1.6-.9 2.5-.9 1.1 0 2.2.4 3 1.2.8.9 1.2 2.1 1.1 3.4v1.1h-3.5v-.9c0-.5-.1-1.1-.5-1.5s-.9-.5-1.4-.5-1.1.2-1.5.6c-.4.5-.5 1.1-.5 1.7v7.2z" fill="url(#g)"/><path d="m81.6 63.3v-3h4v-6.1h-3.6v-3h6.8v9.1h3.5v3zm5.4-13.9c-.5 0-1-.1-1.4-.5-.7-.7-.7-1.7-.1-2.4 0 0 0 0 .1-.1.9-.6 2-.6 2.9 0 .7.7.7 1.7.1 2.4 0 0 0 0-.1.1-.4.3-.9.5-1.5.5z" fill="url(#h)"/><path d="m94.6 63.3v-12h3.2v2.3h1l-1 .8c0-.9.3-1.7.9-2.4.6-.6 1.5-.9 2.4-.9 1.1 0 2.1.4 2.8 1.2.7.9 1.1 2.1 1.1 3.3v7.8h-3.3v-7.4c0-.5-.1-1.1-.5-1.5-.8-.7-2-.7-2.7 0-.3.4-.5.9-.5 1.5v7.4h-3.4z" fill="url(#i)"/><path d="m114.1 63.5c-.9 0-1.7-.3-2.4-.9-.6-.6-1-1.5-.9-2.4l.9.8h-.8v2.3h-3.2v-16h3.3v3.3l-.1 3h.8l-.9.8c-.1-.9.3-1.8.9-2.4.7-.6 1.5-.9 2.4-.9 1.1 0 2.2.4 2.9 1.3.8 1 1.2 2.2 1.1 3.4v3.1c.1 1.2-.3 2.5-1.1 3.4-.7.8-1.8 1.3-2.9 1.2zm-1.2-2.8c.5 0 1-.2 1.4-.5.3-.4.5-.9.5-1.5v-2.8c0-.5-.1-1.1-.5-1.5-.8-.7-2-.7-2.8 0-.4.4-.5.9-.5 1.5v2.8c0 .5.1 1.1.5 1.5.4.3.9.5 1.4.5z" fill="url(#j)"/><path d="m126 63.5c-1.4.1-2.8-.4-3.8-1.3-.9-.9-1.4-2.3-1.4-3.6v-7.4h3.3v7.3c0 .6.1 1.1.5 1.5.8.7 2 .7 2.8 0 .4-.4.5-1 .5-1.5v-7.3h3.3v7.4c.1 1.3-.4 2.7-1.4 3.6-1.1.9-2.4 1.4-3.8 1.3z" fill="url(#k)"/><path d="m134.4 63.3v-12h3.2v2.3h1l-1 .8c0-.9.3-1.8.9-2.4.7-.6 1.6-.9 2.5-.9 1.1 0 2.2.4 3 1.2.8.9 1.2 2.1 1.1 3.4v1.1h-3.5v-.9c0-.5-.1-1.1-.5-1.5s-.9-.6-1.4-.5c-.5 0-1.1.2-1.5.6-.4.5-.5 1.1-.5 1.7v7.2z" fill="url(#g)"/><path d="m148.9 67.2v-2.6h3.4c.5 0 1-.1 1.4-.5.3-.3.5-.8.5-1.3v-.5-2.3h-.8l.8-.8c.1.9-.3 1.8-.9 2.4s-1.5.9-2.3.9c-1.1 0-2.2-.4-2.9-1.3-.8-1-1.2-2.2-1.1-3.4v-2.2c-.1-1.2.3-2.5 1.1-3.4.7-.9 1.8-1.3 2.9-1.3.9 0 1.7.3 2.3.9.6.7.9 1.5.9 2.4l-.8-.8h.8l-.1-2.3h3.3v11.9c.1 1.2-.4 2.3-1.3 3.1-1 .8-2.3 1.2-3.7 1.1zm3.3-7.4c.5 0 1-.2 1.4-.5.4-.4.5-.9.5-1.5v-2c0-.5-.1-1.1-.5-1.5-.8-.7-2-.7-2.8 0-.3.4-.5.9-.5 1.5v2c0 .5.1 1.1.5 1.5.4.3.9.5 1.4.5z" fill="url(#l)"/><path d="m165.4 63.5c-1.3 0-2.3-1.1-2.2-2.4 0-.5.2-1.1.6-1.5.9-.8 2.4-.8 3.2.2.8.9.8 2.2 0 3.1-.4.4-1 .7-1.6.6z" fill="url(#m)"/><path d="m173.5 63.3v-3h4v-6.1h-3.5v-3h6.8v9.1h3.5v3zm5.5-13.9c-.5 0-1-.1-1.4-.5-.7-.7-.7-1.7-.1-2.4 0 0 0 0 .1-.1.9-.6 2-.6 2.9 0 .7.7.7 1.7.1 2.4 0 0 0 0-.1.1-.5.3-1 .5-1.5.5z" fill="url(#h)"/><path d="m191.7 63.5c-1 0-1.9-.2-2.8-.6-.8-.4-1.4-1-1.8-1.7-.4-.8-.7-1.6-.6-2.5v-2.8c0-.9.2-1.8.6-2.5s1.1-1.3 1.8-1.7c1.8-.8 3.8-.8 5.6 0 .8.4 1.4 1 1.8 1.7.4.8.7 1.6.6 2.5v2.8c0 .9-.2 1.8-.6 2.5s-1.1 1.3-1.8 1.7c-.9.4-1.9.6-2.8.6zm0-2.8c.5 0 1.1-.1 1.5-.5s.5-.9.5-1.5v-2.8c-.1-1.1-1-2-2.2-2-.5 0-.9.2-1.3.5-.4.4-.6.9-.5 1.5v2.8c-.1 1 .6 1.9 1.6 2z" fill="url(#n)"/></svg>