<svg xmlns="http://www.w3.org/2000/svg" xmlns:xlink="http://www.w3.org/1999/xlink" viewBox="0 0 200 6175"><defs><style>.cls-1{fill:none;}.cls-2{clip-path:url(#clip-path);}.cls-3{fill:#ffd400;}.cls-4{fill:#00b4ff;}.cls-5{fill:#00b400;}.cls-6{opacity:0.5;}.cls-7{clip-path:url(#clip-path-2);}.cls-8{fill:#fff;}</style><clipPath id="clip-path"><rect class="cls-1" y="-3400" width="200" height="3400"/></clipPath><clipPath id="clip-path-2"><rect class="cls-1" width="200" height="6800"/></clipPath></defs><g id="back"><rect y="-3400" width="200" height="10200"/></g><g id="Layer_2" data-name="Layer 2"><g class="cls-2"><path class="cls-3" d="M-213.48-13.0251c.9624-5.8394,2.189-11.6307,3.5029-17.4,1.4131-5.7457,2.91-11.4737,4.6978-17.1155A231.69,231.69,0,0,1-192.271-80.5374,216.7357,216.7357,0,0,1-174.22-111.0627a216.5776,216.5776,0,0,1,22.87-27.1031,227.2483,227.2483,0,0,1,27.0288-22.9634c4.8017-3.4577,9.7388-6.7238,14.6474-10.0273l14.7364-9.8987c19.5132-13.3957,38.9-26.9817,57.894-41.1081,18.9795-14.1421,37.6724-28.6726,55.9072-43.7659C37.0673-281.0564,54.78-296.783,71.7846-313.248a635.7248,635.7248,0,0,0,48.31-51.9877,400.6263,400.6263,0,0,0,40.39-58.2863c1.5176-2.5417,2.8516-5.1837,4.2144-7.81l2.0459-3.9386c.6763-1.3155,1.3882-2.6134,1.9858-3.9676l3.7412-8.05.9307-2.0141.8413-2.0534,1.6831-4.1065,1.6831-4.1066c.5781-1.3623,1.0122-2.78,1.5254-4.1668.9771-2.7924,2.0054-5.5681,2.94-8.3745l2.5459-8.503.6284-2.1281.5263-2.1557,1.0523-4.3114,1.0522-4.3116.8233-4.361.8232-4.361.4082-2.1812.294-2.1994,1.1582-8.8.6943-8.849a202.0051,202.0051,0,0,0-1.165-35.432,202.4,202.4,0,0,0-7.3794-34.6813l-1.26-4.2555-1.4507-4.1941-1.455-4.1927-.7354-2.0936-.8188-2.0623-3.2886-8.2442-3.6172-8.1057a333.7905,333.7905,0,0,0-16.7256-31.2964c-6.1992-10.08-12.7563-19.9422-19.7544-29.488-7.04-9.51-14.2788-18.8827-21.935-27.9089l-2.84-3.41-2.9033-3.3567-5.82-6.7014-5.94-6.5957c-1.979-2.2-3.958-4.399-5.9936-6.5464-16.12-17.332-32.9048-34.0413-50.1636-50.2383-34.51-32.4133-70.5112-63.1885-106.8247-93.5514l30.3813-36.3688,12.9258,12.4794,13.1372,12.2777q13.13,12.3234,26.1866,24.8216C32.3344-857.064,50.02-840.5269,67.35-823.3708c8.6645,8.5825,17.209,17.3406,25.9824,25.9562,4.3354,4.3683,8.6826,8.7139,12.9536,13.1988,2.14,2.2346,4.3,4.4315,6.4209,6.6985l6.356,6.8112c2.1284,2.2525,4.2163,4.5746,6.3032,6.8978l6.26,6.9674,6.169,7.1142,3.0771,3.5669,3.0288,3.6411c8.1372,9.6186,15.9463,19.7265,23.5694,30.0556,1.8779,2.6214,3.7348,5.2562,5.6948,7.82,1.9429,2.5712,3.7773,5.2819,5.6689,7.9207l2.815,3.9869c.93,1.34,1.8213,2.7252,2.7334,4.0869,1.8047,2.7449,3.645,5.4514,5.4145,8.2374a373.3788,373.3788,0,0,1,19.6953,35.0555l4.3716,9.28c1.3726,3.16,2.7,6.3551,4.042,9.5395l1.001,2.3921.9219,2.4465,1.8213,4.9093,1.8046,4.92,1.6138,5.0338a245.3037,245.3037,0,0,1,9.73,41.7023,278.7739,278.7739,0,0,1,2.5044,43.52l-.4805,10.9322c-.3017,3.6232-.6762,7.24-1.0351,10.866l-.2774,2.7189-.395,2.6864-.8144,5.3744-.8369,5.3782-1.0787,5.2922-1.1,5.2955-.5582,2.6486-.6591,2.6-2.7178,10.39c-.9976,3.4151-2.0942,6.7783-3.1548,10.1713-.5527,1.681-1.0371,3.4136-1.6538,5.0522l-1.8115,4.95c-2.3491,6.6715-5.0816,13.0468-7.7124,19.5125-.6416,1.6346-1.3824,3.1776-2.0952,4.75l-2.1587,4.7041c-1.4429,3.1374-2.8711,6.3006-4.4576,9.3051A458.8107,458.8107,0,0,1,161.98-330.8269a727.4232,727.4232,0,0,1-49.0865,59.9878c-8.561,9.4839-17.3257,18.645-26.1841,27.6755-2.22,2.24-4.4663,4.4529-6.6709,6.7163-2.2109,2.2483-4.3945,4.5645-6.6342,6.7591L59.98-216.426c-18.0307,17.4616-36.4721,34.268-55.1753,50.6374l-28.1626,24.294-7.0512,6.0588-7.0987,5.9519-14.2275,11.8887L-66.0679-105.916l-3.5874,2.9216-1.794,1.4612c-.559.4624-1.3188,1.0508-1.5756,1.3237l-2.1856,2.024c-.7324.6665-1.4653,1.3278-2.1421,2.0317a137.6261,137.6261,0,0,0-14.872,17.06,124.617,124.617,0,0,0-17.93,38.5013,148.4623,148.4623,0,0,0-4.2188,21.32A157.9751,157.9751,0,0,0-115.7163,3.585Z"/><path class="cls-3" d="M435.9091,840.5635c-87.4882-36.2747-169.7241-84.74-245.1245-141.9529A1228.6485,1228.6485,0,0,1,82.8632,606.4175,1235.4915,1235.4915,0,0,1-13.8052,502.4851,1139.659,1139.659,0,0,1-97.4361,387.8176,940.3367,940.3367,0,0,1-164.6836,262.884c-19.0274-43.3191-34.4942-88.3525-43.9117-134.7729a457.488,457.488,0,0,1-8.8945-70.376,333.7449,333.7449,0,0,1,4.0093-70.76l97.7642,16.61a255.9438,255.9438,0,0,0,6.0068,49.4162q2.75,12.782,6.6338,25.8211c2.5825,8.675,5.4609,17.42,8.9345,26.1179a516.0752,516.0752,0,0,0,23.9639,52.08q6.8173,12.9273,14.3716,25.699c2.4731,4.2656,5.105,8.479,7.8188,12.6645,2.6734,4.1927,5.4468,8.3626,8.22,12.5169C-28.584,224.51-16.6133,240.7957-4.01,256.7c3.1733,3.97,6.33,7.9316,9.5855,11.8523,3.2251,3.9246,6.6372,7.7561,9.9746,11.6064,6.7412,7.6758,13.6552,15.2349,20.6631,22.6966,6.999,7.4658,14.1782,14.8017,21.4414,22.0368,7.2714,7.2266,14.5883,14.4,22.271,21.2654q11.414,10.37,23.16,20.36,11.7188,9.9992,23.732,19.61c3.9765,3.2207,8.039,6.3652,12.0522,9.5256q6.1311,4.6578,12.35,9.1814,12.3976,9.0854,25.0469,17.7356,12.605,8.6817,25.4463,16.9065c2.1533,1.3569,4.2436,2.77,6.4365,4.0764l6.561,3.9182q6.5706,3.89,13.17,7.677c8.7871,5.0618,17.67,9.9185,26.5366,14.6826q13.3374,7.1049,26.7685,13.76c8.9766,4.4024,17.9366,8.71,26.9551,12.8069q6.7566,3.0821,13.5274,6.0452l6.7709,2.9353c2.2945.9216,4.6167,1.7922,6.9156,2.6887,4.5908,1.8047,9.2353,3.48,13.8252,5.2058,4.6318,1.6521,9.2143,3.35,13.8418,4.9221,9.21,3.2268,18.4467,6.221,27.645,9.0857,9.1953,2.8741,18.4106,5.4942,27.563,8.0225,9.1142,2.5723,18.4814,4.5271,27.7173,6.4189,9.26,1.8416,18.45,3.58,27.6142,5.0357,9.1655,1.4692,18.2163,2.8669,27.3169,3.824,9.1485.8842,18.24,1.49,27.2271,1.967,4.5009.21,8.96.4363,13.4282.51,2.248.0166,4.4892.0244,6.73-.0162l3.35-.039,1.67-.0191.834-.01.4165-.0046.2085-.0025c-44.9424,108.7474,100.894-243.427-100.708,243.81Z"/><path class="cls-4" d="M417.7856,884.35c-201.7725,487.1652-56.106,134.9191-101.2187,243.5947l-.3028-.2178-.6059-.4355-1.211-.8711-2.42-1.7425-4.83-3.4856c-3.2241-2.3125-6.4092-4.665-9.58-7.0258l-9.5571-6.9261-9.4551-6.9909q-18.8005-14.0632-36.8716-28.58-36.42-28.4637-70.06-58.5127c-11.23-10.0009-22.1011-20.3232-33.0928-30.2421-10.8774-10.0813-21.6016-20.22-32.0571-30.5428Q90.8315,936.9,75.7456,921.103c-5.0479-5.2444-9.98-10.5864-14.9292-15.8808-4.8921-5.357-9.8057-10.6619-14.6-16.0674l-7.2-8.0772-7.2461-7.958q-7.2108-7.9771-14.2793-16.03C8.0561,846.3618-1.1421,835.4829-10.2032,824.56q-13.5358-16.4441-26.5415-33.1446c-8.6367-11.1684-17.1416-22.375-25.4082-33.7282q-6.216-8.4987-12.2856-17.0733c-4.04-5.7226-8.0386-11.4621-12.0962-17.1225q-12.1-17.0512-23.6607-34.3807c-15.479-23.0493-29.95-46.7036-44.2314-70.2675q-10.6516-17.7225-20.7173-35.7625Q-185.24,565.0735-194.74,546.75c-6.2915-12.239-12.65-24.3889-18.7012-36.7266q-9.1134-18.4759-17.644-37.2431-8.5041-18.7891-16.4136-37.86-3.9316-9.5618-7.7383-19.1634c-2.603-6.362-5.1054-12.7961-7.5937-19.218-9.8838-25.7522-18.8662-51.9582-26.7695-78.6711-1.959-6.6931-3.8872-13.3848-5.7076-20.1409-.9326-3.3589-1.8212-6.748-2.6962-10.1416-.8907-3.3826-1.8243-6.7454-2.6817-10.1536q-5.28-20.3481-9.6294-41.1225a745.4241,745.4241,0,0,1-12.7344-85.0274c-1.2231-14.5-2.2631-29.1132-2.6921-43.9155-.4326-14.7993-.3144-29.772.471-44.8974a449.7409,449.7409,0,0,1,14.0258-92.1041l97.7642,16.61a333.7449,333.7449,0,0,0-4.0093,70.76,457.488,457.488,0,0,0,8.8945,70.376c9.4175,46.42,24.8843,91.4538,43.9117,134.7729A940.3367,940.3367,0,0,0-97.4361,387.8176,1139.659,1139.659,0,0,0-13.8052,502.4851,1235.4915,1235.4915,0,0,0,82.8632,606.4175a1228.6485,1228.6485,0,0,0,107.9214,92.1931c75.4,57.2126,157.6363,105.6782,245.1245,141.9529Z"/><path class="cls-5" d="M426.8476,862.4568C325.9189,1106.0215,398.7094,929.88,376.11,984.2l-.2793-.1628-.5586-.3255-1.1167-.6509-2.2324-1.302-4.4595-2.6045c-2.978-1.7241-5.9272-3.49-8.8676-5.2653l-8.8433-5.2444-8.773-5.3208c-11.6469-7.1509-23.16-14.4209-34.46-21.9265q-34.1169-22.1141-66.2774-46.1c-10.7309-7.9737-21.2265-16.2041-31.7485-24.2862-10.4468-8.1933-20.7934-16.4526-30.9341-24.9128q-15.2183-12.6786-29.9951-25.7232c-4.9429-4.3264-9.7876-8.757-14.6577-13.1411-4.8159-4.449-9.6626-8.8467-14.4063-13.352L104.2446,780.45q-7.1-6.7236-14.0913-13.5339c-9.3311-9.07-18.4693-18.3059-27.51-27.5987q-13.5051-14-26.5981-28.2983c-8.6944-9.5674-17.2935-19.1865-25.69-28.9671C1.934,672.2961-6.29,662.39-14.4727,652.4878Q-26.751,637.638-38.58,622.4756c-15.8052-20.1848-30.8545-40.9082-45.5362-61.8115Q-95.11,544.9723-105.587,528.94q-10.5087-16.0008-20.4868-32.3379c-13.3393-21.7456-26.1816-43.782-38.187-66.3027q-9.0059-16.89-17.4756-34.0694-4.2-8.6151-8.2973-17.2739c-2.7666-5.7519-5.4322-11.5679-8.0918-17.3767-10.5635-23.29-20.293-47.0161-29.0166-71.2031-4.3711-12.0923-8.4058-24.3308-12.3233-36.6226q-5.8433-18.452-10.8154-37.2666a667.4179,667.4179,0,0,1-15.5415-76.79c-1.7857-13.05-3.2852-26.1956-4.2529-39.4661-.9688-13.2685-1.4361-26.654-1.3052-40.1284A388.96,388.96,0,0,1-262.3623-21.33l97.7641,16.61A287.08,287.08,0,0,0-163.6,55.3682q1.7673,15.2582,4.8574,30.59c2.0444,10.2067,4.4629,20.4189,7.374,30.5673a547.7022,547.7022,0,0,0,21.1562,60.3167q6.1941,14.892,13.1866,29.5549c4.6259,9.782,9.6523,19.4163,14.8,28.9951,10.3628,19.1355,21.5864,37.9012,33.51,56.2671,11.878,18.3972,24.76,36.218,38.1035,53.677,6.6651,8.7324,13.5259,17.3328,20.4922,25.8384s14.0435,16.9221,21.3784,25.1306q10.9367,12.3574,22.2691,24.3523,11.3072,12.0074,22.978,23.6482c3.8638,3.8989,7.8169,7.7207,11.73,11.5637,3.9756,3.7935,7.9507,7.5757,11.9873,11.2989q12.0469,11.22,24.4273,22.0366,12.3383,10.8489,25,21.2749c2.1176,1.7292,4.1987,3.4927,6.3408,5.1916l6.4311,5.085q6.4468,5.0592,12.9488,10.0261c8.6572,6.6345,17.4458,13.0786,26.2548,19.4439q13.2517,9.5072,26.7115,18.6062c8.998,6.0324,18.0175,11.9834,27.14,17.7375q6.8343,4.325,13.7153,8.5413l6.89,4.1911,6.9863,4.0357c4.6421,2.7051,9.354,5.2878,14.0191,7.9214,4.7114,2.5627,9.3813,5.1714,14.1137,7.6616,9.4155,5.06,18.9146,9.9043,28.4287,14.6316,9.51,4.7361,19.1026,9.2361,28.6866,13.6526,9.5835,4.4089,19.3266,8.4555,29.061,12.3747,9.7524,3.8831,19.4951,7.6724,29.2939,11.1936,9.7891,3.5474,19.5669,6.9734,29.4195,10.0794,9.8657,3.0913,19.7646,5.9184,29.6382,8.62,4.9448,1.3276,9.8725,2.6545,14.8242,3.8616,2.4785.6027,4.9555,1.1967,7.4419,1.7443l3.72.8421,1.8574.4214.9282.2107.4639.1052.2319.0527C472.7685,751.103,545.73,575.0339,444.9712,818.67Z"/><g class="cls-6"><path class="cls-3" d="M319.5538,1247.21c-35.099,10.9951-70.157,22.67-105.041,35.9356-34.84,13.4284-69.5363,28.51-103.4953,46.5261l-6.3823,3.3305-6.2964,3.5813-12.5976,7.1827c-4.233,2.3247-8.326,4.9711-12.4551,7.5441l-12.3778,7.76c-2.0849,1.257-4.0686,2.6982-6.0929,4.0678l-6.0495,4.1568c-4.0179,2.7959-8.1009,5.5044-12.0657,8.3891l-11.7649,8.86-5.8821,4.4441c-1.9715,1.47-3.8143,3.09-5.7277,4.6294L1.946,1402.9905l-2.8443,2.3489c-.9312.7985-1.8316,1.6252-2.7489,2.437l-5.4794,4.8962c-3.64,3.2761-7.3337,6.52-10.9279,9.8386l-10.52,10.1543-5.2587,5.0884c-1.7672,1.69-3.3857,3.46-5.0858,5.1875l-10.0842,10.44-2.5207,2.614c-.8343.8738-1.62,1.7671-2.4327,2.65l-4.8372,5.3147-9.674,10.644-38.4644-31.945,10.5435-10.9749,5.2721-5.4726c.8865-.91,1.74-1.8238,2.6536-2.7307l2.7629-2.7178,11.0545-10.8391c1.8659-1.7964,3.6336-3.6165,5.58-5.387l5.7888-5.3179,11.5822-10.59c3.9623-3.4722,8.04-6.8794,12.0565-10.3047l6.0473-5.1186c1.0123-.8484,2.0062-1.71,3.0338-2.5454l3.1388-2.4637,12.5591-9.8088c2.1107-1.61,4.149-3.2959,6.3192-4.8345l6.4777-4.643,12.9567-9.23c4.3591-2.999,8.8284-5.81,13.2368-8.706l6.6334-4.3011c2.2174-1.4152,4.4014-2.9057,6.6682-4.1977l13.491-7.9707c4.4983-2.6372,8.9709-5.3491,13.5382-7.7066l13.6286-7.2873,6.81-3.6233,6.8524-3.3423c36.5162-18.0891,73.1777-32.7307,109.5568-45.5071,36.3952-12.5947,72.5844-23.3974,108.6482-33.4548Z"/><path class="cls-4" d="M354.34,1348.09c-32.2049,13.8081-63.8693,28.1016-94.22,43.3777-30.2217,15.3852-59.0233,31.7885-85.3107,49.584l-4.9719,3.2951-4.757,3.4551-9.5043,6.8689c-3.23,2.2266-6.1848,4.6763-9.2061,7.0564l-9.0381,7.1279c-1.5391,1.1519-2.922,2.4458-4.367,3.6787l-4.2979,3.7237c-2.8464,2.4961-5.77,4.8969-8.5524,7.438l-8.1893,7.7519-4.0954,3.8479c-1.3755,1.2664-2.6316,2.6846-3.9535,4.0147-21.0927,21.301-40.182,44.85-58.951,71.1294L6.4614,1538.4944c20.9472-27.0325,42.96-51.9863,67.2317-74.4151,24.1641-22.5293,51.0011-42.2673,79.8526-60.1543,28.8446-17.8686,59.6112-33.8315,91.3722-48.5646,31.8616-14.6058,64.6572-28.0264,97.8268-40.897Z"/><path class="cls-5" d="M342.7447,1314.4634c-33.17,12.8706-65.9652,26.2912-97.8268,40.897-31.761,14.7331-62.5276,30.696-91.3722,48.5646-28.8515,17.887-55.6885,37.625-79.8526,60.1543-24.2719,22.4288-46.2845,47.3826-67.2317,74.4151l-76.9289-63.89,9.674-10.644,4.8372-5.3147c.8125-.8828,1.5984-1.7761,2.4327-2.65l2.5207-2.614,10.0842-10.44c1.7-1.7275,3.3186-3.4976,5.0858-5.1875l5.2587-5.0884,10.52-10.1543c3.5942-3.3186,7.2879-6.5625,10.9279-9.8386l5.4794-4.8962c.9173-.8118,1.8177-1.6385,2.7489-2.437l2.8443-2.3489,11.38-9.3723c1.9134-1.54,3.7562-3.159,5.7277-4.6294l5.8821-4.4441,11.7649-8.86c3.9648-2.8847,8.0478-5.5932,12.0657-8.3891l6.0495-4.1568c2.0243-1.37,4.008-2.8108,6.0929-4.0678l12.3778-7.76c4.1291-2.573,8.2221-5.2194,12.4551-7.5441l12.5976-7.1827,6.2964-3.5813,6.3823-3.3305c33.959-18.0157,68.6555-33.0977,103.4953-46.5261,34.884-13.2652,69.942-24.94,105.041-35.9356Z"/></g><g class="cls-6"><path class="cls-3" d="M221.6466,2216.8a967.3149,967.3149,0,0,0-134.61,47.3306,1050.4581,1050.4581,0,0,0-126.9056,66.2807,1117.5984,1117.5984,0,0,0-117.4441,82.7359,1103.5665,1103.5665,0,0,0-107.0816,98.22l-85.4691-70.9829q29.946-28.1522,60.8112-53.3413,30.954-25.262,63.054-48.167a1213.08,1213.08,0,0,1,133.2461-82.7964,1139.7065,1139.7065,0,0,1,142.1733-64.0078A1044.4683,1044.4683,0,0,1,198.3878,2149.35Z"/><path class="cls-4" d="M291.4228,2419.1509a739.513,739.513,0,0,0-91.539,61.1567,796.7072,796.7072,0,0,0-81.1027,73.1,828.55,828.55,0,0,0-70.0378,82.5542c-10.67,14.3848-20.8133,29.0357-30.3406,43.82-9.5269,14.7784-18.3515,29.7495-26.39,44.5332l-85.4692-70.9829c11.02-15.78,22.6905-31.44,34.9954-46.7353q18.4567-22.9476,38.5189-44.9063a925.3482,925.3482,0,0,1,85.84-82.6147,878.21,878.21,0,0,1,96.37-70.8272,814.7134,814.7134,0,0,1,105.896-56.5478Z"/><path class="cls-5" d="M268.164,2351.7007a814.7134,814.7134,0,0,0-105.896,56.5478,878.21,878.21,0,0,0-96.37,70.8272,925.3482,925.3482,0,0,0-85.84,82.6147q-20.033,21.9177-38.5189,44.9063c-12.3049,15.2954-23.9754,30.9555-34.9954,46.7353L-264.395,2511.3667a1103.5665,1103.5665,0,0,1,107.0816-98.22,1117.5984,1117.5984,0,0,1,117.4441-82.7359A1050.4581,1050.4581,0,0,1,87.0363,2264.13a967.3149,967.3149,0,0,1,134.61-47.3306Z"/></g><g class="cls-6"><path class="cls-3" d="M292.7061,3321.6445q-7.2942,2.3394-14.5678,4.7925l-3.5888,1.2266-3.2779,1.19-6.5506,2.4077-6.5425,2.4439-6.0193,2.3926-5.9948,2.4135-2.9954,1.2159c-1.0027.4067-2.01.8159-2.9116,1.2084-7.3673,3.1661-15.0685,6.4351-21.8553,9.5992-3.4687,1.5927-7.0343,3.2075-10.42,4.8051l-9.9477,4.78c-26.335,12.7735-49.8977,25.5176-72.6108,38.3574-22.6695,12.8365-44.32,25.7549-65.4595,38.7715C38.8235,3450.2632,18.2812,3463.38-1.973,3476.59c-40.49,26.4165-79.7029,53.21-118.2789,80.34q-28.9537,20.3364-57.3888,40.9385-28.4854,20.5882-56.5935,41.42c-75.0038,55.5727-148.359,112.26-221.1163,170.8086-36.3986,29.332-72.58,59.059-109.0861,90.14-18.284,15.5835-36.5946,31.4356-55.5672,48.5176-4.7057,4.2075-9.5823,8.6958-14.4073,13.1079l-7.4214,6.9048-3.7858,3.5659-3.8409,3.6519-1.92,1.8276-1.9717,1.9-4.0345,3.9341-4.0753,4-4.3309,4.3584-2.1626,2.1841-1.0805,1.0928c-.37.3906-.7664.853-1.148,1.2764l-4.61,5.2011-2.2957,2.6021-2.1862,2.2744-4.3722,4.5488-208.8339-177.4155,6.0216-5.8989,3.0108-2.95,3.1993-3.6319,6.4351-7.2573c.53-.5854,1.0931-1.2466,1.5984-1.7685l1.4528-1.4107,2.9085-2.8164,5.8286-5.6157,1.3914-1.3184,1.2975-1.2046,2.5963-2.4067,5.1981-4.8022,1.3006-1.1983,1.2-1.0762,2.3886-2.1362,4.78-4.2661,2.3912-2.13,2.2673-1.9761,8.9873-7.7851,8.5952-7.2735c2.9022-2.4677,5.6337-4.7158,8.3972-7.0029,22.1174-18.3081,42.6537-34.4155,63.0172-50.1128,20.3216-15.6465,40.2971-30.6689,60.19-45.4126q29.8292-22.103,59.4537-43.4341c39.5467-28.5229,79.0952-56.3129,118.9056-83.7983q59.75-41.173,120.5191-81.3706,30.4341-20.1283,61.3459-40.0664,30.9138-19.95,62.4072-39.7529,31.5507-19.812,63.8561-39.5215c21.6166-13.1494,43.5558-26.2788,65.9974-39.4219,22.46-13.1475,45.3591-26.293,69.2314-39.5532,23.8728-13.2617,48.5708-26.6079,75.0152-40.2427,26.53-13.6484,54.4777-27.5273,87.4563-42.3862l12.5014-5.5718,13.3712-5.7632,6.739-2.8613,3.5056-1.4639,3.6749-1.5078,14.7153-5.9482,3.9168-1.5362,4.0748-1.5713,8.1574-3.1069,8.2045-3.0688,9.2-3.29,9.2162-3.2178,4.6133-1.581,5.21-1.7178q10.6019-3.4533,21.2525-6.6811Z"/><path class="cls-4" d="M497.2848,3914.9224q2.7637-.3216,5.486-.8726l.6788-.1406.3386-.0733.1674-.0361.0912.0034.7283.0161q.7267.0073,1.4463-.0224t1.43-.0948a3.24,3.24,0,0,1,.5363.3628q.249.18.4931.3345l.2427.1489.12.07c.0521.0146-.0146.1069-.0162.1562q-.2032.71-.4178,1.353l-.1085.3174a.7346.7346,0,0,1-.0688.166l-.1839.2461-.7377.97-.7413.9463-.3721.4644a6.21,6.21,0,0,1-.4522.52l-2.2866,2.4063c-6.4043,6.5175-16.8122,15.8574-28.0744,26.2714-11.3446,10.4419-23.8533,22.0772-36.7922,34.3594-12.9466,12.2744-26.4177,25.3062-40.055,38.7027q-20.4742,20.1152-41.4539,41.3388-20.9385,21.1941-42.1013,43.1914-21.1254,21.9171-42.3338,44.4951-21.1817,22.5089-42.3363,45.482-42.2841,45.88-84.0516,93.0517c-27.7588,31.378-55.29,63.0162-82.1392,94.6778q-20.1348,23.7341-39.66,47.3681c-12.966,15.7178-25.6631,31.3589-37.754,46.649-12.0451,15.2426-23.6788,30.3286-33.2171,43.7314-1.1951,1.6758-2.43,3.3814-3.4506,4.9116l-3.2013,4.6919-2.7237,4.2637c-.216.3442-.48.731-.6567,1.04l-.5106.9078-1.024,1.8081-.5133.9008-.25.4434-.1348.3345-.544,1.3305-.2747.66-.138.3286c-.0165.0479-.0609.1236-.0545.1494l.0214.0752.1622.5869.0754.2847.0361.14c.0488.0088.1967-.0849.29-.123q.6343-.3084,1.248-.6353l.5995-.3261.0061.0053-.0062-.0053-208.7294-177.3267,1.3645-1.5967.6777-.8022.3964-.6236.7688-1.2543c.07-.1119.1111-.1968.204-.3311l.3361-.4575.6706-.9175,1.3355-1.8442c.1918-.2823.53-.6934.8006-1.0459l.8551-1.0967,1.7074-2.1983.4263-.5507.4877-.6016.9821-1.2095,1.9629-2.4228.9808-1.2129,1.0593-1.2739,4.29-5.1441c3.0436-3.56,6.003-7.0771,9.237-10.7715,12.6831-14.6294,26.5425-29.9707,40.6672-45.3271,28.33-30.7822,57.9715-61.876,87.9712-92.7246,60.1072-61.7383,121.937-122.78,184.4994-182.0894q23.4629-22.2582,47.0887-44.1279,23.6142-21.873,47.3521-43.31c31.6354-28.5537,63.43-56.4521,95.13-83.1333,15.8429-13.334,31.6711-26.3945,47.3492-38.9155,15.6723-12.5269,31.2284-24.59,46.3479-35.83,15.0792-11.2226,29.872-21.6973,42.92-30.3l4.84-3.1972,4.517-2.8892c3.1277-2.0542,5.5926-3.4976,8.2962-5.2349l3.4073-2.0854,1.6489-1.04,1.2275-.7509,1.2193-.7876.6071-.4078.3456-.2441a12.2143,12.2143,0,0,0,1.1986-1.0161Z"/><path class="cls-5" d="M429.0919,3717.1631a12.2143,12.2143,0,0,1-1.1986,1.0161l-.3456.2441-.6071.4078-1.2193.7876-1.2275.7509-1.6489,1.04-3.4073,2.0854c-2.7036,1.7373-5.1685,3.1807-8.2962,5.2349l-4.517,2.8892-4.84,3.1972c-13.0479,8.603-27.8407,19.0777-42.92,30.3-15.1195,11.24-30.6756,23.3032-46.3479,35.83-15.6781,12.521-31.5063,25.5815-47.3492,38.9155-31.7,26.6812-63.4943,54.58-95.13,83.1333q-23.7349,21.39-47.3521,43.31-23.6163,21.8686-47.0887,44.1279c-62.5624,59.3091-124.3922,120.3511-184.4994,182.0894-30,30.8486-59.641,61.9424-87.9712,92.7246-14.1247,15.3564-27.9841,30.6977-40.6672,45.3271-3.234,3.6944-6.1934,7.211-9.237,10.7715l-4.29,5.1441-1.0593,1.2739-.9808,1.2129-1.9629,2.4228-.9821,1.2095-.4877.6016-.4263.5507-1.7074,2.1983-.8551,1.0967c-.2709.3525-.6088.7636-.8006,1.0459l-1.3355,1.8442-.6706.9175-.3361.4575c-.0929.1343-.1341.2192-.204.3311l-.7688,1.2543-.3964.6236-.6777.8022-1.3645,1.5967L-683.6469,4011.186l4.3722-4.5488,2.1862-2.2744,2.2957-2.6021,4.61-5.2011c.3816-.4234.778-.8858,1.148-1.2764l1.0805-1.0928,2.1626-2.1841,4.3309-4.3584,4.0753-4,4.0345-3.9341,1.9717-1.9,1.92-1.8276,3.8409-3.6519,3.7858-3.5659,7.4214-6.9048c4.825-4.4121,9.7016-8.9,14.4073-13.1079,18.9726-17.082,37.2832-32.9341,55.5672-48.5176,36.5057-31.0806,72.6875-60.8076,109.0861-90.14,72.7573-58.5484,146.1125-115.2359,221.1163-170.8086q28.11-20.8389,56.5935-41.42,28.4807-20.5914,57.3888-40.9385c38.576-27.13,77.7891-53.9234,118.2789-80.34,20.2542-13.21,40.7965-26.3271,61.9373-39.3413,21.1393-13.0166,42.79-25.935,65.4595-38.7715,22.7131-12.84,46.2758-25.5839,72.6108-38.3574l9.9477-4.78c3.3855-1.5976,6.9511-3.2124,10.42-4.8051,6.7868-3.1641,14.488-6.4331,21.8553-9.5992.9012-.3925,1.9089-.8017,2.9116-1.2084l2.9954-1.2159,5.9948-2.4135,6.0193-2.3926,6.5425-2.4439,6.5506-2.4077,3.2779-1.19,3.5888-1.2266q7.2717-2.4528,14.5678-4.7925Z"/></g><path class="cls-3" d="M809.218,5333.9814a118.0359,118.0359,0,0,1-37.405,9.03,157.3742,157.3742,0,0,1-25.0281-.1469,223.692,223.692,0,0,1-30.2063-4.6778c-21.7873-4.8056-46.7745-13.3027-73.5533-25.53-26.7871-12.2016-55.3131-28.0668-84.4655-46.9482a1032.009,1032.009,0,0,1-88.7987-64.9346c-29.8188-24.2558-59.6637-50.7861-89.2208-79.0815-59.1056-56.7354-116.9794-120.3481-172.6691-188.228C152.1179,4865.5947,98.484,4793.4087,47.058,4718.59Q8.5218,4662.4285-28.33,4604.354q-36.8-58.0364-71.8188-117.6084-34.992-59.5137-67.9477-120.2261-32.9084-60.6261-63.3874-121.9233c-20.22-40.7378-39.5186-81.6284-57.0947-121.563q-6.5973-14.9707-12.7808-29.6265c-4.1136-9.7509-8.0656-19.351-11.83-28.706-3.7686-9.3565-7.2959-18.4214-10.4927-26.87-3.192-8.4141-6.0566-16.31-8.3012-22.4058l267.8682-58.9732.753.3013.364.15.1789.0747.2251.2149.8848.8579.4331.4282c.14.1328.3322.4111.4944.6089l1.0058,1.3.4958.6494.5587.8174,1.1154,1.6548.5521.8266.6039.9551c3.1564,4.9712,6.7693,11.2319,10.7028,18.125l26.1719,46.2041c18.9216,33.1816,39.9082,68.7637,61.8442,104.4092,21.9461,35.71,44.9471,71.7285,68.6134,107.4585q35.5133,53.6125,72.9451,106.2051,37.3615,52.4545,76.2047,103.1655,38.8226,50.5846,78.8161,98.8306c53.29,64.1132,107.9577,124.687,162.9959,179.2807,27.4876,27.3452,55.0733,53.0879,82.4237,77.0259,27.35,23.9219,54.5074,45.8325,80.9755,65.4385a822.2865,822.2865,0,0,0,76.5281,50.5058c24.2513,13.9058,46.9914,24.5977,66.75,31.4712,19.7244,6.8789,36.4692,9.8257,47.8148,8.5308,5.6648-.6353,9.9589-2.3159,12.5266-4.937,2.57-2.6158,3.4045-6.1763,2.2039-10.4141-1.1931-4.2319-4.4343-9.14-9.8236-14.2764a102.1182,102.1182,0,0,0-22.3358-15.4995,192.2476,192.2476,0,0,0-33.1759-13.5561,279.6922,279.6922,0,0,0-39.82-9.0728Z"/><path class="cls-4" d="M939.1373,6653.3672A1443.6984,1443.6984,0,0,1,403.41,6574.5127a1497.27,1497.27,0,0,1-150.2955-61.541c-47.1851-22.3633-91.4421-46.294-133.0063-71.16C78.54,6416.9375,39.653,6391.124,3.0932,6364.7988a1822.4071,1822.4071,0,0,1-194.4181-162.2021,2124.1807,2124.1807,0,0,1-154.9442-165.3233c-46.43-55.1142-88.4515-110.0908-127.2987-164.8086-77.4379-109.4414-142.55-217.8413-200.4788-325.521q-21.6975-40.385-42.0894-80.6538-20.3643-40.2737-39.5616-80.4575c-25.6373-53.5825-49.6909-107.0762-72.614-160.5429q-34.2959-80.21-65.104-160.4493-30.8448-80.2983-58.6612-160.9384-27.87-80.7108-52.9551-162.2881c-16.7567-54.48-32.6483-109.3623-47.7094-165.3179-15.0739-56.0151-29.3068-112.8325-42.8461-173.0254q-5.08-22.5762-10.0487-46.1006c-3.3154-15.7251-6.6046-31.8672-9.88-48.6172-3.2737-16.7456-6.5444-34.2236-9.8621-53.103l-2.4993-14.4731-2.5278-15.1914-2.5666-16.1148-2.6162-17.3271,267.8682-58.9727c3.0989,18.0332,6.2975,34.103,9.5737,49.54,3.2773,15.4023,6.6336,30.0756,10.0722,44.3584,6.8711,28.5839,14.05,55.8212,21.4894,82.5893,14.8849,53.44,30.8062,104.9487,47.5957,155.8716,16.7824,50.894,34.4513,101.06,52.9354,150.853q27.7322,74.6748,57.9526,148.2671,30.24,73.6451,63.047,146.4956,32.8764,72.8584,68.5321,145.0444c47.6973,96.231,99.2641,191.6416,156.4477,286.0606,57.1824,94.4131,119.8818,187.8843,191.2089,279.7573,35.7505,45.91,73.7131,91.4048,114.606,136.2324A1856.2706,1856.2706,0,0,0,58.6366,5890.3008,1512.7035,1512.7035,0,0,0,216.4039,6014.085c57.655,39.1425,121,75.8359,191.1987,107.292a1114.8972,1114.8972,0,0,0,110.2657,42.5859,1055.3847,1055.3847,0,0,0,119.7564,31.4394,1013.4772,1013.4772,0,0,0,258.2062,18.169Z"/><path class="cls-5" d="M895.8309,6213.5713a1013.4772,1013.4772,0,0,1-258.2062-18.169,1055.3847,1055.3847,0,0,1-119.7564-31.4394,1114.8972,1114.8972,0,0,1-110.2657-42.5859c-70.1991-31.4561-133.5437-68.15-191.1987-107.292A1512.7035,1512.7035,0,0,1,58.6366,5890.3008,1856.2706,1856.2706,0,0,1-74.2591,5758.44c-40.8929-44.8276-78.8555-90.3227-114.606-136.2324-71.3271-91.873-134.0265-185.3442-191.2089-279.7573-57.1836-94.419-108.75-189.83-156.4477-286.0606q-35.7093-72.1934-68.5321-145.0444-32.83-72.8781-63.047-146.4956-30.2443-73.645-57.9526-148.2671c-18.4841-49.7929-36.153-99.959-52.9354-150.853-16.7895-50.9229-32.7108-102.4312-47.5957-155.8716-7.4394-26.7681-14.6183-54.0054-21.4894-82.5893-3.4386-14.2828-6.7949-28.9561-10.0722-44.3584-3.2762-15.4366-6.4748-31.5064-9.5737-49.54l535.7363-117.9453c2.2446,6.0962,5.1092,13.9917,8.3012,22.4058,3.1968,8.4482,6.7241,17.5131,10.4927,26.87,3.7646,9.355,7.7166,18.9551,11.83,28.706q6.2163,14.6654,12.7808,29.6265c17.5761,39.9346,36.8742,80.8252,57.0947,121.563q30.3374,61.1573,63.3874,121.9233,32.92,60.6336,67.9477,120.2261,34.9875,59.518,71.8188,117.6084,36.84,58.01,75.388,114.2358c51.426,74.8189,105.06,147.0049,160.8132,214.8741,55.69,67.88,113.5635,131.4926,172.6691,188.228,29.5571,28.2954,59.402,54.8257,89.2208,79.0815A1032.009,1032.009,0,0,0,558.56,5265.708c29.1524,18.8814,57.6784,34.7466,84.4655,46.9482,26.7788,12.2276,51.766,20.7247,73.5533,25.53a223.692,223.692,0,0,0,30.2063,4.6778,157.3742,157.3742,0,0,0,25.0281.1469,118.0359,118.0359,0,0,0,37.405-9.03Z"/><path class="cls-3" d="M325.7305,1840.0225c-17.6435-.4063-36.7546-3.8023-56.4288-10.0757a317.7357,317.7357,0,0,1-59.744-26.584,471.0274,471.0274,0,0,1-58.5918-39.6157A605.2375,605.2375,0,0,1,95.8728,1714.58,718.1537,718.1537,0,0,1,.9517,1596.4773,591.97,591.97,0,0,1-35.9738,1530.35c-5.32-11.303-10.1667-22.7217-14.387-34.1631a287.16,287.16,0,0,1-10.349-34.1172l39.8871-4.83c3.5732,8.8846,7.8114,18.316,12.8487,27.97,4.9946,9.6394,10.5757,19.4114,16.607,29.1338a574.5255,574.5255,0,0,0,40.8642,57.1338,649.4,649.4,0,0,0,99.7266,99.2971q13.419,10.6662,27.1065,20.24,13.68,9.5182,27.4671,17.7615a344.0694,344.0694,0,0,0,54.2259,26.6455c17.5217,6.6411,34.24,10.6929,48.65,11.9165,14.428,1.2685,26.37-.4,34.6218-3.9522Z"/><path class="cls-4" d="M279.0353,2129.9321a461.2182,461.2182,0,0,1-64.8339-22.7046,491.7492,491.7492,0,0,1-57.0155-29.4541,558.4112,558.4112,0,0,1-93.025-70.5869,684.5481,684.5481,0,0,1-71.6893-78.5249A799.592,799.592,0,0,1-64.18,1845.9937a897.611,897.611,0,0,1-80.5046-174.5179,764.5538,764.5538,0,0,1-25.1095-93.1091c-3.1875-16.0444-5.8294-32.4036-7.727-49.2507a436.77,436.77,0,0,1-2.85-52.5572l39.8871-4.83a366.6746,366.6746,0,0,0,5.35,46.41c2.6718,15.0454,6.0486,29.7576,9.947,44.2217a691.72,691.72,0,0,0,29.0482,84.1152,841.4068,841.4068,0,0,0,85.31,155.7127A752.4235,752.4235,0,0,0,45.303,1873.69a634.0277,634.0277,0,0,0,67.3235,65.5547,496.3929,496.3929,0,0,0,81.9313,55.9195A396.8355,396.8355,0,0,0,294.6,2033.2959Z"/><path class="cls-5" d="M294.6,2033.2959a396.8355,396.8355,0,0,1-100.0425-38.1313,496.3929,496.3929,0,0,1-81.9313-55.9195A634.0277,634.0277,0,0,1,45.303,1873.69a752.4235,752.4235,0,0,1-56.1321-71.5014,841.4068,841.4068,0,0,1-85.31-155.7127,691.72,691.72,0,0,1-29.0482-84.1152c-3.8984-14.4641-7.2752-29.1763-9.947-44.2217a366.6746,366.6746,0,0,1-5.35-46.41l79.7743-9.66a287.16,287.16,0,0,0,10.349,34.1172c4.22,11.4414,9.0667,22.86,14.387,34.1631A591.97,591.97,0,0,0,.9517,1596.4773,718.1537,718.1537,0,0,0,95.8728,1714.58a605.2375,605.2375,0,0,0,55.0931,49.1675,471.0274,471.0274,0,0,0,58.5918,39.6157,317.7357,317.7357,0,0,0,59.744,26.584c19.6742,6.2734,38.7853,9.6694,56.4288,10.0757Z"/><path class="cls-3" d="M334.8965,2770.1157a111.6854,111.6854,0,0,1-22.7755-.7495,203.9042,203.9042,0,0,1-27.91-5.6665c-19.7892-5.3608-41.2473-13.7436-62.8867-24.1929a600.9806,600.9806,0,0,1-65.206-37.0317q-16.2112-10.5059-32.1813-22.0513-15.9283-11.5532-31.4942-23.9995c-20.739-16.563-40.897-34.2348-60.1494-52.7876-19.2569-18.5425-37.6705-37.9575-54.7159-58.0093a568.6384,568.6384,0,0,1-45.8969-61.4209,335.6748,335.6748,0,0,1-17.4113-30.36l-1.8288-3.6587-1.6629-3.563-.84-1.7822-.7455-1.7207-1.5088-3.4395c-1.86-4.4687-3.4221-8.6611-4.7312-12.43l79.0839-9.5761c1.6609.1172,3.4018,1.1435,5.4,2.8012.5166.4375,1.0961.9737,1.6158,1.4473l.7828.7271.89.873,1.7362,1.7451,1.9132,1.9854c5.0464,5.3271,11.2343,12.0884,18.0294,19.1289,6.8074,7.0757,14.2929,14.5591,22.2591,22.1123,7.9683,7.56,16.4174,15.2021,25.206,22.7671,17.5872,15.143,36.5047,29.956,56.073,43.8842,19.5619,13.9444,39.8476,27.0181,60.3384,38.8184q15.3619,8.8565,30.804,16.7241c10.2792,5.2119,20.5456,10.0327,30.6994,14.4248,20.2872,8.7593,40.2429,15.855,58.59,20.3057a200.0321,200.0321,0,0,0,25.9285,4.6968,96.842,96.842,0,0,0,21.4237.2182c6.0927-.7343,10.987-2.3266,13.9316-4.7114,2.9386-2.3682,3.9078-5.5581,1.97-9.0532Z"/><path class="cls-4" d="M260.7032,3230.749A557.5853,557.5853,0,0,1,175.51,3200.59a620.35,620.35,0,0,1-69.8441-36.8,703.1943,703.1943,0,0,1-58.739-40.0976c-18.1047-13.7236-34.9082-27.732-50.7513-41.9273a941.4285,941.4285,0,0,1-85.0525-87.2109,1111.3428,1111.3428,0,0,1-70.192-90.7563c-21.4836-30.8506-41.2586-62.3169-59.5824-94.6958-18.3227-32.3838-35.2244-65.605-50.6446-100.3824-7.7057-17.3984-15.0358-35.1968-21.9334-53.604-6.8941-18.415-13.3624-37.4272-19.2588-57.4428a646.8983,646.8983,0,0,1-15.5569-64.0542l-1.5758-8.6788-1.4432-9.0156-.6889-4.51-.6338-4.7017c-.4115-3.1484-.8191-6.2212-1.1878-9.417-1.446-12.9019-2.4716-26.5918-2.7251-41.3154l79.0839-9.5762a314.1738,314.1738,0,0,0,3.3938,31.687c.4056,2.5064.8562,4.9448,1.2948,7.4248l.671,3.7075.7393,3.6011,1.5164,7.1978,1.66,7.0053a488.6615,488.6615,0,0,0,16.175,52.8228,742.8369,742.8369,0,0,0,42.76,94.5054,1003.474,1003.474,0,0,0,52.0017,86.2578q27.95,41.655,59.7714,80.726c21.2269,26.0977,43.775,51.4141,68.02,75.8545a873.6492,873.6492,0,0,0,78.437,70.4849c28.3659,22.39,59.0969,43.6865,93.9557,62.7476a521.2288,521.2288,0,0,0,55.866,26.4223,441.4386,441.4386,0,0,0,64.3871,20.3555Z"/><path class="cls-5" d="M285.4343,3077.2046a441.4386,441.4386,0,0,1-64.3871-20.3555,521.2288,521.2288,0,0,1-55.866-26.4223c-34.8588-19.0611-65.59-40.3575-93.9557-62.7476a873.6492,873.6492,0,0,1-78.437-70.4849c-24.2449-24.44-46.793-49.7568-68.02-75.8545q-31.8531-39.1317-59.7714-80.726a1003.474,1003.474,0,0,1-52.0017-86.2578,742.8369,742.8369,0,0,1-42.76-94.5054,488.6615,488.6615,0,0,1-16.175-52.8228l-1.66-7.0053-1.5164-7.1978-.7393-3.6011-.671-3.7075c-.4386-2.48-.8892-4.9184-1.2948-7.4248a314.1738,314.1738,0,0,1-3.3938-31.687l158.1677-19.1519c1.3091,3.7686,2.8711,7.961,4.7312,12.43l1.5088,3.4395.7455,1.7207.84,1.7822,1.6629,3.563,1.8288,3.6587a335.6748,335.6748,0,0,0,17.4113,30.36,568.6384,568.6384,0,0,0,45.8969,61.4209c17.0454,20.0518,35.459,39.4668,54.7159,58.0093,19.2524,18.5528,39.41,36.2246,60.1494,52.7876q15.5492,12.4278,31.4942,23.9995,15.9412,11.5343,32.1813,22.0513a600.9806,600.9806,0,0,0,65.206,37.0317c21.6394,10.4493,43.0975,18.8321,62.8867,24.1929a203.9042,203.9042,0,0,0,27.91,5.6665,111.6854,111.6854,0,0,0,22.7755.7495Z"/></g><g class="cls-7"><g class="cls-6"><path class="cls-3" d="M281.5761,932.9548c-34.1342,11.9327-68.061,24.4807-101.4341,38.4163-33.3,14.0808-66.0317,29.6033-97.4335,47.5454-31.378,17.9387-61.4253,38.3672-88.7725,62.05-27.4507,23.5561-52.3867,49.9148-75.5122,77.7l-76.9287-63.89,10.5434-10.9749,5.272-5.4726c.8867-.91,1.74-1.8237,2.6538-2.7307l2.7627-2.7178,11.0547-10.8391c1.8657-1.7964,3.6333-3.6162,5.58-5.387l5.789-5.3178,11.5821-10.59c3.9624-3.4724,8.04-6.88,12.0566-10.305l6.0474-5.1184c1.0122-.8484,2.0063-1.71,3.0337-2.5456l3.1386-2.4636,12.5591-9.8089c2.1109-1.61,4.1489-3.2959,6.3194-4.8345l6.4775-4.6428,12.957-9.23c4.3589-2.999,8.8282-5.81,13.2368-8.706l6.6333-4.3008c2.2173-1.4155,4.4014-2.9058,6.668-4.1977l13.4912-7.971c4.4981-2.6372,8.9707-5.3491,13.5381-7.7065l13.6289-7.2874,6.8091-3.6233,6.8525-3.3423c36.5166-18.0891,73.1778-32.7307,109.5572-45.5071,36.395-12.5947,72.5839-23.3974,108.6479-33.4548Z"/><path class="cls-4" d="M304.767,1000.208c-32.205,13.8084-63.8691,28.1016-94.22,43.3777-30.2217,15.3852-59.0234,31.7886-85.31,49.584l-4.9722,3.2954-4.7568,3.4548-9.5044,6.8689c-3.23,2.2266-6.1846,4.6763-9.2061,7.0564l-9.0381,7.1279c-1.539,1.1519-2.9218,2.4458-4.3672,3.6788l-4.2978,3.7236c-2.8462,2.4961-5.77,4.897-8.5522,7.438l-8.19,7.7519-4.0952,3.8479c-1.3755,1.2666-2.6319,2.6846-3.9536,4.0147-21.0928,21.301-40.1817,44.85-58.9507,71.1294l-76.9292-63.89c23.1255-27.7856,48.0615-54.1443,75.5122-77.7,27.3472-23.6831,57.3945-44.1116,88.7725-62.05,31.4018-17.9421,64.1333-33.4646,97.4335-47.5454,33.3731-13.9356,67.3-26.4836,101.4341-38.4163Z"/><path class="cls-5" d="M293.1713,966.5813c-33.1694,12.8706-65.9648,26.2913-97.8266,40.8972-31.7608,14.7329-62.5274,30.6958-91.3721,48.5645-28.8515,17.8869-55.6885,37.625-79.8525,60.1543-24.272,22.4287-46.2847,47.3825-67.232,74.415l-76.9287-63.89,9.6739-10.6441,4.8374-5.3147c.8125-.8828,1.5981-1.7759,2.4326-2.65l2.52-2.614,10.0845-10.44c1.7-1.7278,3.3183-3.4978,5.0859-5.1875l5.2583-5.0887,10.52-10.1542c3.5943-3.3187,7.2876-6.5625,10.9278-9.8387l5.4794-4.8962c.917-.8118,1.8179-1.6384,2.7491-2.437l2.8442-2.3487,11.3794-9.3725c1.9136-1.54,3.7563-3.159,5.7275-4.6294l5.8824-4.4441,11.7646-8.86c3.9649-2.8847,8.0479-5.5932,12.0659-8.3891l6.0493-4.1565c2.0245-1.37,4.0083-2.811,6.0928-4.0681l12.378-7.76c4.1293-2.573,8.2221-5.22,12.455-7.5442l12.5977-7.1826L55.062,985.12l6.3823-3.3306c33.959-18.0156,68.6558-33.0974,103.4951-46.5261,34.8843-13.2652,69.9424-24.94,105.0415-35.9356Z"/></g><path class="cls-3" d="M435.9091,727.1794c-83.3642-34.7761-162.1733-80.2426-234.6157-134.154l-6.8008-5.0435c-2.2641-1.6853-4.55-3.3408-6.76-5.0976l-13.3623-10.4021-6.68-5.2029-6.5591-5.354L148.0127,551.217c-4.3682-3.5752-8.6021-7.31-12.91-10.9582l-6.4351-5.5022c-2.145-1.8342-4.3027-3.6541-6.3882-5.5564l-12.6191-11.2925-6.3-5.657L97.18,506.4646,84.8169,494.8921c-4.0884-3.8919-8.0835-7.8806-12.1294-11.8162l-6.0513-5.9223-3.022-2.9646-2.9595-3.0276L48.8178,459.052c-3.9843-4-7.8051-8.1558-11.664-12.2751l-11.56-12.3748-11.291-12.62-5.6455-6.31c-1.877-2.1079-3.6812-4.2788-5.5254-6.4153A1156,1156,0,0,1-79.4131,301.7393c-3.1455-4.6871-6.36-9.3282-9.4488-14.0523l-9.1518-14.248c-1.5078-2.3858-3.0908-4.7244-4.5361-7.149l-4.4034-7.2319c-2.9131-4.8347-5.9209-9.613-8.7558-14.4939-5.61-9.7964-11.3657-19.5112-16.6392-29.4958l-4.0371-7.4429-2.0181-3.7212-1.9209-3.7727-7.684-15.09q-14.9334-30.396-27.8028-61.75C-184.44,102.4287-192.6983,81.3992-199.9063,60c-7.19-21.3794-13.3926-43.2119-16.376-65.6125-.3056-2.8052-.7231-5.6-.9365-8.4139l-.5508-8.4489-.0639-8.4666c.0786-2.82.2934-5.6365.4331-8.4548a113.5365,113.5365,0,0,1,7.5688-32.8811l92.1138,36.7263c.1655.1985.31.3794.4341.5456l.1689.2388a.9656.9656,0,0,0,.1953.2434c.1792.18.3365.345.4717.4966l.1851.2185.08.1025.1377.1509c.1817.2.3423.387.4805.5633l.1914.2568.2266.3191c.1831.2551.3467.4995.4907.7358l.2007.3484.0888.17.1426.2486q.2878.5056.5249.9887l.4605,1.0052c.4228.8711.79,1.7175,1.102,2.549.4761,1.0684.9234,2.1375,1.3189,3.1836l1.5259,3.7163c.4228,1.1617,1.1626,2.7666,1.7436,4.1829l.8921,2.17,1.0654,2.4092,1.062,2.4263c.3648.8237.6529,1.5659,1.0977,2.4868L-101-.5125C-97.5376,6.79-93.83,14.5469-89.212,22.8057c8.9136,16.3925,19.2579,34.0464,30.2271,52.1128l8.3481,13.6482c.708,1.1953,1.3609,2.124,2.0318,3.1464l2,3.0149,3.9824,6.0171c1.3418,1.9981,2.6035,4.013,4,5.99l4.2866,5.8994,4.2642,5.8814c1.4282,1.9555,2.7944,3.9187,4.3169,5.85l8.8808,11.5911,2.2061,2.8875,2.312,2.8581,4.6084,5.7043c6.0059,7.6294,12.5039,15.0669,18.7817,22.5127,3.1729,3.7127,6.5288,7.3526,9.7632,11.0186,3.273,3.6492,6.5913,7.2454,10.0625,10.7822l10.2447,10.6209c3.4438,3.5132,7.0156,6.958,10.4965,10.4265,6.8877,6.9734,14.2393,13.6694,21.33,20.4309,3.5752,3.366,7.32,6.6289,10.9507,9.9365,3.65,3.3023,7.2944,6.573,11.1431,9.7141l11.3593,9.4812,2.8267,2.3626,2.8989,2.3113,5.7886,4.6091,5.7686,4.5976c1.9257,1.5262,3.8105,3.0762,5.7978,4.5516l11.7432,8.9253c7.7246,5.996,15.872,11.6013,23.8579,17.2331l12.2388,8.188c4.0712,2.7168,8.0874,5.4619,12.2583,8.05l12.3471,7.85,3.0728,1.9566,3.1313,1.8923,6.252,3.7708q6.2116,3.795,12.6011,7.34l12.8276,6.96,6.3765,3.4651,6.4668,3.3234,12.8764,6.5972c2.1211,1.1172,4.3067,2.1477,6.4756,3.1917l6.4941,3.1269c4.337,2.06,8.5884,4.207,12.9468,6.18l13.0357,5.8853,6.478,2.9312,6.56,2.7629c8.7724,3.6233,17.2382,7.5422,26.2719,10.5234l6.6568,2.38c2.22.782,4.4057,1.6138,6.6577,2.3171l13.3574,4.37,6.6314,2.1751,6.6894,1.9917,13.2891,3.9519c2.1924.6826,4.4248,1.2651,6.6484,1.8525l6.65,1.7713c4.4312,1.1582,8.8032,2.4038,13.22,3.4824,4.44,1.0261,8.8067,2.136,13.2989,2.9934l6.6694,1.3664c2.2231.4388,4.4722.7854,6.6968,1.1817l13.2973,2.3,3.3008.5728,3.3242.4651,6.6192.9282c4.4023.6055,8.7641,1.2646,13.1265,1.824l6.559.7019c2.1822.2287,4.34.4931,6.55.6372l6.5684.5134c2.1738.2078,4.3848.22,6.5635.3389l13.0166.5654c4.2983.2549,8.6167.1992,12.9028.2253l12.8794-.2407Z"/><path class="cls-4" d="M316.87,1014.7788l-18.2266-13.6365c-6.061-4.488-12.2007-8.8083-18.083-13.4389l-17.7031-13.6946c-2.919-2.303-5.8994-4.52-8.7466-6.8938l-8.5913-7.0335c-2.8428-2.3718-5.7378-4.6228-8.6089-6.91l-8.6-6.8449c-5.6592-4.6365-11.227-9.3521-16.8042-14.023l-8.3335-7.021-4.1518-3.51-4.0694-3.5949L178.77,903.803c-2.6758-2.4041-5.38-4.7676-8.0147-7.2036l-7.8515-7.3455c-5.1885-4.95-10.5025-9.6489-15.7432-14.43-5.2222-4.7974-10.3047-9.7261-15.43-14.5784l-7.6479-7.3022c-2.5469-2.43-5.0918-4.8548-7.5591-7.36L101.6728,830.69l-7.3716-7.4444L87.0947,815.66,72.7754,800.5093c-2.397-2.5-4.691-5.106-7.0186-7.6677l-6.9453-7.7066-6.918-7.6946c-2.3408-2.51-4.7021-4.9914-6.9722-7.5654L31.2368,754.572l-6.8-7.6423-6.6406-7.7771L4.5947,723.6213C.2172,718.4441-4,713.12-8.2779,707.885l-6.3759-7.8779c-2.1211-2.6245-4.251-5.2337-6.3013-7.9207l-12.3613-15.9883-6.1324-7.99-5.9863-8.1072-11.8984-16.1845c-1.9854-2.6831-3.8731-5.4612-5.8086-8.1844-1.9131-2.7461-3.9058-5.4043-5.8487-8.1081l-5.8505-8.074-2.9131-4.0369L-80.6,611.3145l-11.3267-16.3689c-3.7978-5.4117-7.4228-10.9783-11.07-16.5l-10.88-16.5618-10.5561-16.761-5.3218-8.2969c-1.7656-2.7688-3.46-5.6042-5.1885-8.4l-10.2749-16.8086c-1.7256-2.7775-3.3569-5.6447-5.0166-8.478l-4.9526-8.51-4.9317-8.4992-2.4551-4.2481-2.3857-4.31-9.49-17.2085c-3.1953-5.6836-6.1451-11.5815-9.2818-17.3-3.0732-5.7746-6.2138-11.4624-9.1948-17.2866-5.9141-11.6953-11.939-23.198-17.501-35.0654-2.81-5.905-5.6675-11.7427-8.4009-17.678l-8.059-17.875c-1.3208-2.9893-2.7036-5.9133-3.9639-8.9492-1.29-3.011-2.53-6.0479-3.8521-9.03-2.5913-6.0034-5.2519-11.92-7.749-17.9692-4.9419-12.147-9.9555-24.1394-14.4961-36.4793l-3.4658-9.1809-1.7246-4.5847-1.6353-4.6577-6.4868-18.59c-1.1006-3.0689-2.0761-6.2437-3.0918-9.3762l-3.0122-9.41-2.9887-9.3918-2.8931-9.4776-2.8652-9.47-1.4244-4.7288c-.4643-1.5615-.9814-3.2014-1.3457-4.6177l-4.7553-17.5818c-6.2886-23.6577-12.461-48.0632-17.9634-74.469-2.7031-13.1008-5.4263-27.0026-7.7427-41.5232l-1.6279-11.1577c-.2788-1.8086-.4883-3.8471-.7217-5.7812l-.6689-5.8621c-.2134-1.9678-.4439-3.8677-.63-5.8855l-.4956-6.1821c-.3008-4.1585-.6636-8.0964-.7852-12.5574l-.2236-6.5119-.0933-3.2493-.0381-1.63.0083-1.72c.0293-4.5864.0957-9.1494.2173-13.7143q.4029-7.2195.9736-14.3843c.0733-1.1653.2544-2.4651.3941-3.7029l.46-3.7475.9971-7.4651.27-1.864.3516-1.93.7246-3.8525q.7405-3.8468,1.5391-7.6663l.4033-1.9072.4927-1.9509,1.0171-3.8953q1.0333-3.8877,2.1323-7.7412l.5556-1.9241.647-1.9367,1.3193-3.86q1.3374-3.8511,2.74-7.6606c.4468-1.274.979-2.5264,1.5137-3.7766l1.61-3.742q1.626-3.7317,3.3154-7.416l92.1138,36.7266A113.5365,113.5365,0,0,0-217.4-39.3967c-.14,2.8183-.3545,5.635-.4331,8.4548l.0639,8.4666.5508,8.4489c.2134,2.8138.6309,5.6087.9365,8.4139,2.9834,22.4006,9.1856,44.2331,16.376,65.6125,7.208,21.3992,15.4663,42.4287,24.0952,63.2908q12.83,31.3461,27.8028,61.7505l7.684,15.09,1.9209,3.7727,2.0181,3.7212,4.0371,7.4429c5.2735,9.9846,11.0293,19.6994,16.6392,29.4958,2.8349,4.8809,5.8427,9.6592,8.7558,14.4939l4.4034,7.2319c1.4453,2.4246,3.0283,4.7632,4.5361,7.149l9.1518,14.248c3.0884,4.7241,6.3033,9.3652,9.4488,14.0523A1156,1156,0,0,0,3.1323,409.0564c1.8442,2.1365,3.6484,4.3074,5.5254,6.4153l5.6455,6.31,11.291,12.62,11.56,12.3748c3.8589,4.1193,7.68,8.2753,11.664,12.2751l11.8369,12.1094,2.9595,3.0276,3.022,2.9646,6.0513,5.9223c4.0459,3.9356,8.041,7.9243,12.1294,11.8162L97.18,506.4646l6.1812,5.7861,6.3,5.657L122.28,529.2c2.0855,1.9023,4.2432,3.7222,6.3882,5.5564l6.4351,5.5022c4.3076,3.6477,8.5415,7.383,12.91,10.9582l13.1186,10.7083,6.5591,5.354,6.68,5.2029,13.3623,10.4021c2.2094,1.7568,4.4956,3.4123,6.76,5.0976l6.8008,5.0435c72.4424,53.9114,151.2515,99.3779,234.6157,134.154Z"/><path class="cls-5" d="M376.39,870.9792,359.5,860.812c-5.6172-3.3725-11.3018-6.5989-16.7881-10.1355-11.023-6.9853-22.1279-13.7458-32.8174-21.0708-5.3818-3.6042-10.8052-7.0972-16.1841-10.6511-5.3349-3.6172-10.6015-7.3186-15.8852-10.9732l-7.9048-5.4978-3.9448-2.7485-3.877-2.8393-15.46-11.3562c-2.563-1.9024-5.1534-3.7615-7.6851-5.6983l-7.5562-5.8506c-5.0146-3.9275-10.0913-7.7285-15.1318-11.5713-5.021-3.8676-9.9258-7.8755-14.8774-11.8044l-7.3985-5.9194c-2.4658-1.97-4.9326-3.9336-7.331-5.983l-14.461-12.1582-7.2011-6.0813-7.063-6.2326L143.854,701.7852c-2.3609-2.0511-4.6275-4.2134-6.9283-6.33l-6.873-6.375q-27.6555-25.2462-53.749-51.6609c-4.3726-4.3762-8.5982-8.906-12.8911-13.3472l-6.4058-6.69c-2.1328-2.23-4.2769-4.4438-6.3447-6.7385l-12.49-13.64-6.2163-6.8235-6.084-6.9467-12.13-13.8787L1.8481,555.3l-5.9507-6.998-2.9673-3.501-2.9028-3.5628-11.582-14.2392c-3.8911-4.7056-7.6138-9.5672-11.3672-14.3875l-11.22-14.4685-10.9234-14.69-5.4834-7.3037c-1.8213-2.4383-3.5708-4.9414-5.3569-7.4077l-10.6421-14.8377c-1.791-2.4521-3.4858-4.99-5.2124-7.4963l-5.1563-7.5325-5.146-7.5266-2.5664-3.7639-2.4956-3.823-9.9575-15.2766c-3.3589-5.0479-6.4819-10.2891-9.7471-15.4033-3.2128-5.158-6.5043-10.2395-9.6337-15.449-6.2081-10.4619-12.5645-20.763-18.4581-31.407-12.1582-20.9924-23.2-42.6965-34.1606-64.3381-5.2759-10.972-10.6606-21.8255-15.5674-32.9878l-3.7514-8.3118-1.8716-4.1531-1.7779-4.2151-7.0854-16.84c-1.2061-2.7844-2.2793-5.6565-3.398-8.4946l-3.3252-8.5279-3.3134-8.5185-3.1695-8.6055-3.145-8.6072-1.5679-4.3c-.5156-1.4267-1.0673-2.8889-1.517-4.25l-5.6538-16.5983c-7.4585-22.26-14.6739-44.9773-21.0293-68.88-3.1817-11.89-6.1509-24.2559-8.7535-36.972l-1.8291-9.6889c-.32-1.5867-.5493-3.301-.8154-4.9575l-.7676-5.0032c-.2466-1.6753-.519-3.3135-.7387-5.0164l-.5948-5.1792c-.3706-3.4729-.8276-6.8276-1.0249-10.4638l-.36-5.3579c-.0967-1.8042-.2744-3.521-.2808-5.4043-.0771-3.7015-.1391-7.3909-.167-11.0818q.1854-5.7266.4546-11.4256c.28-3.8633.7324-7.8069,1.1426-11.685l.167-1.46.2412-1.49.4936-2.9765,1.0313-5.9336.2671-1.4788.3481-1.4946.7154-2.9859,1.479-5.9465.3823-1.4807.4653-1.4783.9434-2.95,1.937-5.87c.3076-.98.6973-1.9371,1.0864-2.8934l1.1651-2.8662,2.3784-5.6982,92.1137,36.7265a65.5567,65.5567,0,0,0-2.0376,18.76l.2764,5.2243q.3325,2.77.5825,5.5078c.3272,1.9424.6455,3.8851.9351,5.8165.1069.9394.4028,2.0122.5962,3.0148l.6352,3.05c3.6651,16.4785,10.1241,35.0759,18.2276,53.9443,8.061,18.896,17.3618,38.2376,27.1611,57.7017l7.45,14.6318c.6216,1.2505,1.2407,2.357,1.86,3.5142l1.8559,3.4436,3.7032,6.88c1.2465,2.2876,2.4321,4.593,3.7231,6.8616l3.9624,6.7727,3.9512,6.7634c1.3247,2.25,2.5937,4.5159,4.01,6.7315l8.2827,13.3405,2.0635,3.33,2.1651,3.29,4.3227,6.5735c5.64,8.8069,11.7666,17.3831,17.71,26.0044,3.0039,4.2966,6.1855,8.5059,9.26,12.7561,3.1026,4.2361,6.2163,8.4534,9.5005,12.5815l9.6983,12.4344c3.2661,4.1189,6.66,8.1618,9.9726,12.2395C-7.35,265.45-.33,273.3477,6.4663,281.3425c3.4267,3.9807,7.02,7.85,10.5117,11.7742,3.522,3.9062,6.9922,7.8337,10.6777,11.61L38.5478,316.14l2.7163,2.85,2.7881,2.7952,5.5747,5.5818,5.564,5.5759c1.8594,1.8528,3.6811,3.7322,5.603,5.533L72.17,349.3718A1030.088,1030.088,0,0,0,272.5346,496.9705l6.729,3.7114c2.2466,1.227,4.4595,2.5022,6.7481,3.6548l13.5976,7.0652,6.7754,3.5273,6.86,3.355,13.68,6.6872c2.2612,1.1385,4.5713,2.1814,6.876,3.23L340.7,531.355c4.6045,2.0815,9.1543,4.248,13.7719,6.2563,4.6407,1.9651,9.2442,3.972,13.91,5.8526l6.9648,2.8613c2.3262.938,4.689,1.7888,7.0264,2.6873l14.0186,5.3186,3.4926,1.3283,3.5313,1.2263,7.0474,2.4515c4.6962,1.6218,9.36,3.2949,14.0463,4.8735,4.7266,1.4775,9.41,3.0159,14.1343,4.4431l7.0737,2.1436c2.3423.7492,4.7457,1.3122,7.1094,1.9775l14.1885,3.8477c9.4175,2.5857,18.9761,4.571,28.4141,6.7573Z"/><g class="cls-6"><path class="cls-3" d="M244.9052,1726.6987a890.7366,890.7366,0,0,0-120.2529,51.939,963.1478,963.1478,0,0,0-111.6382,68.5542A1021.7734,1021.7734,0,0,0-88.628,1929.8672q-24.06,22.259-46.6972,45.9932-22.6239,23.718-43.6006,48.9375L-349.8641,1882.832q29.9459-28.152,60.8113-53.3413,30.9537-25.262,63.0537-48.1665A1213.1242,1213.1242,0,0,1-92.753,1698.5273,1139.7853,1139.7853,0,0,1,49.42,1634.52a1044.4758,1044.4758,0,0,1,148.9673-42.7217Z"/><path class="cls-4" d="M291.4228,1861.6a739.5524,739.5524,0,0,0-91.5391,61.1563,796.6923,796.6923,0,0,0-81.1025,73.1,828.5082,828.5082,0,0,0-70.0381,82.5542c-10.67,14.3843-20.813,29.0352-30.34,43.8194-9.5269,14.7788-18.3516,29.7495-26.39,44.5337l-170.9385-141.9658q21.0021-25.1639,43.6006-48.9375,22.6222-23.7187,46.6972-45.9932a1021.7734,1021.7734,0,0,1,101.6421-82.6753,963.1478,963.1478,0,0,1,111.6382-68.5542,890.7366,890.7366,0,0,1,120.2529-51.939Z"/><path class="cls-5" d="M268.164,1794.1489a814.7561,814.7561,0,0,0-105.896,56.5479,878.2821,878.2821,0,0,0-96.3706,70.8271,925.3476,925.3476,0,0,0-85.84,82.6148q-20.0333,21.9185-38.5186,44.9067c-12.3052,15.2954-23.9756,30.9551-34.9956,46.7354l-170.9385-141.9659a1103.5736,1103.5736,0,0,1,107.0816-98.2192A1117.5748,1117.5748,0,0,1-39.8692,1772.86a1050.4367,1050.4367,0,0,1,126.9053-66.2813,967.4124,967.4124,0,0,1,134.61-47.33Z"/></g><g class="cls-6"><path class="cls-3" d="M292.706,2843.7627q-7.2942,2.3394-14.5679,4.793l-3.5888,1.226-3.2779,1.1905-6.55,2.4072-6.5425,2.4438-6.02,2.3926-5.9946,2.4136-2.9956,1.2158c-1.0024.4072-2.01.8159-2.9116,1.2085-7.3672,3.1665-15.0684,6.4356-21.855,9.5991-3.4687,1.5933-7.0347,3.208-10.42,4.8052l-9.9478,4.78c-26.3349,12.7734-49.8979,25.5176-72.6108,38.3574-22.6694,12.8369-44.32,25.7554-65.4595,38.772-21.1406,13.0141-41.6831,26.1313-61.9375,39.3408-40.49,26.417-79.7026,53.21-118.2788,80.34q-28.9533,20.3366-57.3887,40.9385-28.4853,20.5884-56.5937,41.42c-75.0034,55.5733-148.3589,112.2608-221.116,170.8091-36.3987,29.3316-72.58,59.0591-109.0862,90.1392-18.2839,15.5835-36.5947,31.4355-55.5673,48.5175-4.7056,4.2081-9.5821,8.6963-14.4073,13.108l-7.4214,6.9047-3.7856,3.5664-3.8408,3.6514-1.92,1.8277-1.9717,1.9-4.0344,3.9346-4.0755,4.0005-4.3308,4.3584-2.1626,2.1836-1.0806,1.0928c-.37.3911-.7663.8535-1.1479,1.2768l-4.61,5.2007-2.2956,2.6025-2.1863,2.2745-4.3723,4.5488-208.8338-177.4155,6.0215-5.8995,3.011-2.95,3.1992-3.6318,6.4351-7.2573c.53-.5855,1.093-1.2466,1.5984-1.7681l1.4529-1.4106,2.9084-2.8169,5.8286-5.6153,1.3914-1.3188,1.2976-1.2046,2.5962-2.4062,5.198-4.8028,1.3008-1.1982,1.2-1.0762,2.3884-2.1362,4.78-4.2661,2.3911-2.1294,2.2673-1.9766,8.9873-7.7852,8.5952-7.2729c2.9021-2.4683,5.6338-4.7163,8.3973-7.0029,22.1174-18.3086,42.6535-34.416,63.017-50.1128,20.3218-15.6465,40.2972-30.669,60.19-45.4131q29.8293-22.1024,59.4538-43.4341c39.5467-28.5229,79.0953-56.3125,118.9056-83.7978q59.75-41.1739,120.5192-81.3707,30.4341-20.1283,61.3457-40.0668,30.9141-19.95,62.4073-39.753,31.5506-19.8113,63.8559-39.521c21.6167-13.1494,43.5562-26.2788,65.9976-39.4218,22.46-13.1475,45.3589-26.293,69.2314-39.5538s48.5708-26.6074,75.0152-40.2426c26.53-13.6485,54.4775-27.5274,87.4565-42.3863l12.501-5.5713,13.3716-5.7636,6.7387-2.8614,3.5059-1.4633,3.6748-1.5078,14.7153-5.9483,3.9165-1.5361,4.0752-1.5718,8.1573-3.1064,8.2046-3.0689,9.2-3.2905,9.2163-3.2173,4.6133-1.5815,5.21-1.7173q10.6018-3.4542,21.2524-6.6812Z"/><path class="cls-4" d="M497.2846,3437.041q2.7642-.3222,5.4864-.8725l.6787-.1412.3383-.0727.1675-.0366.0913.0034.7286.0166q.7264.0066,1.4458-.0225t1.43-.0952a3.2323,3.2323,0,0,1,.5366.3628q.2491.1794.4932.3345l.2427.1489.12.07c.0523.0147-.0146.1065-.0161.1558q-.2037.71-.418,1.3535l-.1084.3174a.7264.7264,0,0,1-.0688.1655l-.1841.2461-.7373.97-.7417.9463-.3721.4644a6.2546,6.2546,0,0,1-.4521.52l-2.2866,2.4057c-6.4043,6.5181-16.8121,15.8574-28.0743,26.2715-11.3447,10.4419-23.8535,22.0772-36.792,34.3594-12.9467,12.2749-26.4179,25.3066-40.0551,38.7026q-20.4741,20.1161-41.4541,41.3394-20.9385,21.1933-42.1011,43.1909-21.1253,21.917-42.334,44.4956-21.1817,22.5081-42.3359,45.4814-42.2843,45.8811-84.0518,93.0523c-27.7588,31.3779-55.29,63.0156-82.1392,94.6772q-20.135,23.7342-39.66,47.3682C11.6953,3968.939-1.002,3984.58-13.0928,3999.87c-12.0449,15.2427-23.6787,30.3291-33.2168,43.732-1.1953,1.6753-2.4307,3.3813-3.4507,4.9111l-3.2017,4.6924-2.7236,4.2637c-.2158.3442-.48.73-.6562,1.0395l-.5108.9072-1.0239,1.8086-.5137.9-.25.4434-.1347.3349-.544,1.3306-.2749.66-.1377.3286c-.0166.0483-.061.124-.0547.1494l.0215.0752.1621.5874.0752.2847.0361.14c.0489.0083.1968-.0855.29-.1235q.6344-.3084,1.248-.6353l.6-.3257.0058.0049-.0058-.0054-208.73-177.3266,1.3642-1.5967.6778-.8023.3964-.623.7691-1.2549c.07-.1113.1108-.1963.2036-.3305l.3364-.4581.67-.9174,1.3355-1.8443c.1919-.2817.53-.6933.8008-1.0459l.8549-1.0962,1.7076-2.1987.4262-.5508.4878-.601.982-1.21,1.9628-2.4224.981-1.2134,1.0591-1.2734,4.29-5.1445c3.044-3.5606,6.003-7.0772,9.2373-10.7715,12.6831-14.6289,26.5425-29.9707,40.667-45.3267,28.33-30.7822,57.9717-61.8764,87.9712-92.7246,60.1074-61.7387,121.937-122.78,184.5-182.0893q23.4632-22.2591,47.0884-44.128,23.6148-21.8738,47.3526-43.3095c31.6352-28.5542,63.43-56.4527,95.1294-83.1338,15.8432-13.334,31.6713-26.3941,47.3491-38.9155,15.6723-12.5269,31.2285-24.59,46.3481-35.83,15.0791-11.2227,29.8721-21.6968,42.92-30.3l4.84-3.1978,4.5171-2.8891c3.1274-2.0542,5.5922-3.4971,8.2959-5.2344l3.4077-2.086,1.6484-1.039,1.2276-.7515,1.2192-.7876.6074-.4077.3457-.2441a12.1885,12.1885,0,0,0,1.1983-1.0162Z"/><path class="cls-5" d="M429.0918,3239.2812a12.1885,12.1885,0,0,1-1.1983,1.0162l-.3457.2441-.6074.4077-1.2192.7876-1.2276.7515-1.6484,1.039-3.4077,2.086c-2.7037,1.7373-5.1685,3.18-8.2959,5.2344l-4.5171,2.8891-4.84,3.1978c-13.0478,8.603-27.8408,19.0771-42.92,30.3-15.12,11.24-30.6758,23.3032-46.3481,35.83-15.6778,12.5214-31.5059,25.5815-47.3491,38.9155-31.7,26.6811-63.4942,54.58-95.1294,83.1338q-23.7349,21.39-47.3526,43.3095-23.6162,21.8681-47.0884,44.128C13.0341,3591.86-48.7955,3652.9019-108.9029,3714.6406c-29.9995,30.8482-59.6411,61.9424-87.9712,92.7246-14.1245,15.356-27.9839,30.6978-40.667,45.3267-3.2343,3.6943-6.1933,7.2109-9.2373,10.7715l-4.29,5.1445-1.0591,1.2734-.981,1.2134-1.9628,2.4224-.982,1.21-.4878.601-.4262.5508-1.7076,2.1987-.8549,1.0962c-.271.3526-.6089.7642-.8008,1.0459l-1.3355,1.8443-.67.9174-.3364.4581c-.0928.1342-.1338.2192-.2036.3305l-.7691,1.2549-.3964.623-.6778.8023-1.3642,1.5967L-683.647,3533.3047l4.3723-4.5488,2.1863-2.2745,2.2956-2.6025,4.61-5.2007c.3816-.4233.7781-.8857,1.1479-1.2768l1.0806-1.0928,2.1626-2.1836,4.3308-4.3584,4.0755-4.0005,4.0344-3.9346,1.9717-1.9,1.92-1.8277,3.8408-3.6514,3.7856-3.5664,7.4214-6.9047c4.8252-4.4117,9.7017-8.9,14.4073-13.108,18.9726-17.082,37.2834-32.934,55.5673-48.5175,36.5057-31.08,72.6875-60.8076,109.0862-90.1392,72.7571-58.5483,146.1126-115.2358,221.116-170.8091q28.11-20.8382,56.5937-41.42,28.481-20.5912,57.3887-40.9385c38.5762-27.13,77.7891-53.9228,118.2788-80.34,20.2544-13.21,40.7969-26.3267,61.9375-39.3408,21.1392-13.0166,42.79-25.9351,65.4595-38.772,22.7129-12.84,46.2759-25.584,72.6108-38.3574l9.9478-4.78c3.3852-1.5972,6.9512-3.2119,10.42-4.8052,6.7866-3.1635,14.4878-6.4326,21.855-9.5991.9014-.3926,1.9092-.8013,2.9116-1.2085l2.9956-1.2158,5.9946-2.4136,6.02-2.3926,6.5425-2.4438,6.55-2.4072,3.2779-1.1905,3.5888-1.226q7.2723-2.4537,14.5679-4.793Z"/></g><path class="cls-3" d="M854.146,5568.2559a1146.5772,1146.5772,0,0,1-140.1075-70.67A1451.1267,1451.1267,0,0,1,583.5673,5410.32c-41.9472-31.3169-82.4067-64.6011-121.5644-99.3335q-58.7358-52.1075-113.7422-108.228l-27.313-28.2022-26.8535-28.6386c-2.2256-2.398-4.4951-4.7554-6.6841-7.1866l-6.5908-7.2729-13.1821-14.5454c-8.8521-9.64-17.4307-19.5235-26.0733-29.35q-51.7551-59.0457-100.666-120.5093-48.8254-61.4942-95.12-124.9385l-11.5449-15.8764c-3.85-5.2906-7.711-10.5738-11.4746-15.9263L.03,4778.3008l-22.3813-32.2549c-3.7544-5.3594-7.4063-10.7891-11.082-16.2026l-11.02-16.2442q-43.93-65.0793-85.7232-131.5683-41.8044-66.4667-81.42-134.2759-79.3491-135.5135-150.6648-275.5278c-47.4265-93.3282-92.2571-188.0054-133.2471-284.3443l-7.6692-18.07-7.5092-18.1367c-5.0567-12.0708-9.8714-24.24-14.7818-36.3706-9.6272-24.3369-19.1316-48.7271-28.0427-73.3374-8.9346-24.5987-17.6121-49.2994-25.4634-74.2691-7.8569-24.9614-15.1462-50.125-20.8762-75.668l420.0581-92.478,2.4043,2.2837,1.1548,1.13.2837.2817.1411.1406.18.2359.7212.9521,2.8374,3.7925,1.39,1.8872,1.6069,2.3692,3.2159,4.8037,1.5893,2.394,1.7627,2.7241,7.1358,11.1421,15.6357,24.6631,8.3394,13.0791,4.2011,6.5884,4.378,6.7808,8.7793,13.5888,9.0522,13.8433c2.9624,4.57,6.1348,9.3071,9.2231,13.9751l9.34,14.0552c6.3979,9.48,12.6279,18.8545,19.2055,28.4174l9.7373,14.2632,9.9429,14.3418c26.5435,38.2339,54.1426,76.6778,82.5488,114.8565q42.5874,57.279,87.1836,113.6176c59.33,75.0118,121.0078,148.1763,184.126,218.5518q47.3716,52.7614,95.8086,103.3311,48.4753,50.419,97.812,98.184l12.3374,11.8731c4.1094,3.9521,8.1978,7.9282,12.353,11.7856l24.7706,23.272,24.8823,22.79c4.1216,3.8218,8.2993,7.522,12.4648,11.232l12.4761,11.1284q49.9321,44.2764,100.1172,84.7344c33.43,26.8178,66.8784,52.0527,100.0488,75.5615l12.4175,8.7837,3.0957,2.1938,3.1064,2.1074,6.2051,4.19,12.3662,8.3711,6.1617,4.1811c2.05,1.4068,4.1137,2.67,6.166,4.0117l24.53,15.8135,24.3311,14.9282c32.28,19.2915,63.91,36.3355,94.2319,50.5967,30.3057,14.2593,59.3184,25.7266,85.938,33.8145,26.5913,8.0815,50.8247,12.811,70.9024,13.64,20.0669.874,35.9936-2.0561,45.6489-8.2671Z"/><path class="cls-4" d="M513.7978,6383.9414A1859.0707,1859.0707,0,0,1,279.2309,6234.335a2082.3814,2082.3814,0,0,1-190.04-160.8907C31.917,6018.8975-19.99,5963.7969-68,5908.5918c-47.9926-55.2158-92.0776-110.5566-133.2529-165.86l-30.2939-41.4756c-9.8379-13.8261-19.4888-27.65-29.1773-41.4648-2.3989-3.4541-4.8735-6.9053-7.2026-10.3613l-7.02-10.3643-13.9971-20.72L-295.92,5607.99l-3.4716-5.1767-3.3814-5.18-13.4927-20.7119q-53.7546-82.829-101.2829-165.4575-47.5393-82.65-90.1238-165.1431l-10.6128-20.624c-3.5352-6.8711-7.0789-13.7368-10.4853-20.62l-20.5743-41.2329-19.9919-41.2388c-3.3538-6.8609-6.5691-13.7446-9.811-20.6187l-9.7034-20.6157q-38.5645-82.467-73.6345-164.9531-35.1359-82.5058-67.0313-165.22c-42.6814-110.3086-81.65-220.8609-117.2038-332.5039q-26.6808-83.735-50.8838-168.4707c-16.1494-56.56-31.4248-113.6465-45.878-171.7442-14.4533-58.167-28.0561-117.0766-40.7251-179.3437l-2.373-11.6514-2.342-11.9194-2.3265-11.9068-1.1572-5.9482-1.15-6.12-4.5493-24.4976-4.4751-25.3838-1.1086-6.4639-1.1089-6.644-2.1919-13.273-1.0855-6.6679-1.1015-7.0449-2.1658-14.0743-1.0679-7.0742-1.0991-7.6069-2.1406-15.1958-1.0718-7.9063-1.094-8.4233-2.0938-16.8237,420.0584-92.4786c5.73,25.543,13.0193,50.7066,20.8762,75.668,7.8513,24.97,16.5288,49.67,25.4634,74.2691,8.9111,24.61,18.4155,49.0005,28.0427,73.3374,4.91,12.13,9.7251,24.3,14.7818,36.3706l7.5092,18.1367,7.6692,18.07c40.99,96.3389,85.8206,191.0161,133.2471,284.3443q71.1631,139.9914,150.6648,275.5278,39.7126,67.7351,81.42,134.2759,41.81,66.4621,85.7232,131.5683l11.02,16.2442c3.6757,5.4135,7.3276,10.8432,11.082,16.2026L.03,4778.3008l22.7286,32.0117c3.7636,5.3525,7.6245,10.6357,11.4746,15.9263l11.5449,15.8764q46.3344,63.3889,95.12,124.9385,48.9024,61.4326,100.666,120.5093c8.6426,9.8266,17.2212,19.71,26.0733,29.35l13.1821,14.5454,6.5908,7.2729c2.189,2.4312,4.4585,4.7886,6.6841,7.1866l26.8535,28.6386,27.313,28.2022q55.0913,55.9461,113.7422,108.228c39.1577,34.7324,79.6172,68.0166,121.5644,99.3335a1451.1267,1451.1267,0,0,0,130.4712,87.2656,1146.5772,1146.5772,0,0,0,140.1075,70.67Z"/><path class="cls-5" d="M683.9721,5976.0986a1527.79,1527.79,0,0,1-187.3374-110.1377,1802.6135,1802.6135,0,0,1-160.2558-124.0786c-49.61-42.9316-95.7935-87.124-139.377-132.0927-43.5752-44.9776-84.5464-90.7437-123.498-137.0445l-28.8033-34.8384c-9.413-11.6684-18.6943-23.373-28.0151-35.0517-2.3125-2.9263-4.6846-5.8306-6.9434-8.7739l-6.8056-8.8189-13.5894-17.6328c-9.1377-11.7222-17.8833-23.5723-26.6982-35.3872q-52.7548-70.9372-100.9741-142.9834-48.1824-72.0726-92.6221-145.04l-11.0786-18.2505c-3.6929-6.0806-7.395-12.1553-10.9805-18.2735l-21.6514-36.622-21.1865-36.7471c-3.5537-6.11-6.9873-12.2666-10.4463-18.4106l-10.3618-18.43q-41.2477-73.7733-79.6789-148.2608-38.47-74.4866-74.2256-149.748-71.6859-150.4885-133.9346-304.0157-31.1382-76.8611-59.9587-154.7578-28.82-77.9457-55.0457-157.5219c-17.469-53.1685-34.0591-106.9068-49.364-162.6294l-2.8743-10.4336-2.8066-10.5865-2.7991-10.58-1.3965-5.2876-1.3645-5.3828-5.424-21.545-5.2532-22.0322c-.8806-3.6167-1.7132-7.4863-2.563-11.2407l-2.5281-11.3306-1.2546-5.6821-1.2237-5.8818-2.4282-11.7569-1.2026-5.8974-1.1719-6.1773-2.3147-12.3447c-.7712-3.9795-1.5088-8.5835-2.2446-12.9326l-2.1714-13.189,420.0584-92.4785,4.7287,12.0571,2.6631,6.6436,1.3171,3.3169,1.4722,3.5454,2.9534,7.1211,1.4673,3.5566,1.5932,3.71,3.2,7.4448c1.0813,2.4975,2.0771,4.9116,3.2541,7.5068l6.8093,15.3286,7.1734,15.6392,1.7937,3.91,1.875,3.9658,3.7441,7.9272,3.7363,7.92,3.8768,7.9986c10.2058,21.269,21.1623,42.8618,32.2189,64.4,5.6543,10.8051,11.1768,21.5766,16.9937,32.3935l8.6235,16.2,8.8057,16.2056q35.2815,64.8,73.3809,129.0786,37.9929,64.17,78.1088,127.331,80.0794,126.2542,167.3956,247.04,43.5417,60.2483,88.6142,118.8032,45.1428,58.4407,91.7676,114.8765l11.6792,14.0586c3.8926,4.6826,7.7622,9.3857,11.7173,13.9941l23.5761,27.7637,23.8052,27.4009c3.9429,4.5874,7.9619,9.0791,11.97,13.5791l12.0108,13.5024q48.1333,53.8323,97.6182,104.8364,49.5242,50.8295,100.3574,98.0352c8.47,7.8389,16.8823,15.7554,25.4492,23.3125l12.7739,11.4585,6.3765,5.727c2.12,1.919,4.2861,3.7295,6.4253,5.5992l25.6919,22.226,25.8217,21.565c34.504,28.2949,69.2476,54.9131,103.9874,79.4126,34.7314,24.4961,69.4677,46.8716,103.7509,66.5742,34.27,19.6909,68.0992,36.7422,100.6866,50.4526,32.5761,13.7315,63.8969,24.2134,92.8784,31.2012Z"/><path class="cls-3" d="M310.1655,1555.1943c-27.0352-4.364-53.3154-12.8252-78.2359-24.1032a420.8005,420.8005,0,0,1-70.8374-41.252,566.9557,566.9557,0,0,1-62.958-52.5852A690.2244,690.2244,0,0,1,42.5219,1376.92a782.0283,782.0283,0,0,1-90.1157-136.9075,633.0315,633.0315,0,0,1-32.9868-75.1216c-9.168-25.7593-16.6143-52.2732-20.0161-79.456l79.7739-9.66c3.5732,8.8848,7.8115,18.3159,12.8486,27.9705,4.9947,9.64,10.5757,19.4113,16.6075,29.134a574.5687,574.5687,0,0,0,40.8637,57.1338,649.4308,649.4308,0,0,0,99.7266,99.2971q13.4195,10.6662,27.1069,20.2395,13.68,9.5178,27.4668,17.7612a344.08,344.08,0,0,0,54.2261,26.6455c17.5215,6.6412,34.24,10.6932,48.65,11.9168,14.4277,1.2685,26.37-.4,34.6216-3.9522Z"/><path class="cls-4" d="M279.0351,1748.4678a461.2307,461.2307,0,0,1-64.8335-22.7051,491.8587,491.8587,0,0,1-57.0156-29.4536,558.3987,558.3987,0,0,1-93.0249-70.5872,684.5753,684.5753,0,0,1-71.69-78.5249A799.64,799.64,0,0,1-64.18,1464.5291a897.6264,897.6264,0,0,1-80.5044-174.5179,764.4841,764.4841,0,0,1-25.1094-93.1093c-3.1875-16.0445-5.83-32.4034-7.727-49.2508a436.72,436.72,0,0,1-2.85-52.5569l79.7744-9.66c3.4018,27.1828,10.8481,53.6967,20.0161,79.456a633.0315,633.0315,0,0,0,32.9868,75.1216A782.0283,782.0283,0,0,0,42.5219,1376.92a690.2244,690.2244,0,0,0,55.6123,60.3342,566.9557,566.9557,0,0,0,62.958,52.5852,420.8005,420.8005,0,0,0,70.8374,41.252c24.9205,11.278,51.2007,19.7392,78.2359,24.1032Z"/><path class="cls-5" d="M294.6005,1651.8311A396.8181,396.8181,0,0,1,194.5581,1613.7a496.4108,496.4108,0,0,1-81.9317-55.9195,634.027,634.027,0,0,1-67.3232-65.5549,752.4143,752.4143,0,0,1-56.1323-71.5012,841.4126,841.4126,0,0,1-85.31-155.7127,691.7531,691.7531,0,0,1-29.0483-84.1155c-3.8985-14.4638-7.2749-29.1762-9.9468-44.2214a366.6381,366.6381,0,0,1-5.35-46.41l79.7739-9.66a287.2149,287.2149,0,0,0,10.3491,34.1172c4.22,11.4414,9.0669,22.86,14.3872,34.1631A592.0016,592.0016,0,0,0,.9516,1215.0127,718.1669,718.1669,0,0,0,95.873,1333.115a605.2659,605.2659,0,0,0,55.0928,49.1675,471.0687,471.0687,0,0,0,58.5918,39.6154,317.7476,317.7476,0,0,0,59.7441,26.5843c19.6743,6.2732,38.7852,9.6694,56.4287,10.0757Z"/><path class="cls-3" d="M310.1655,2496.5244c-29.5557-4.8428-58.1655-14.4258-85.4693-26.5972a558.42,558.42,0,0,1-78.4213-43.47,771.2207,771.2207,0,0,1-71.8213-53.7583c-22.9375-19.2143-44.8731-39.6157-65.8477-60.9526q-31.4809-31.9878-59.96-66.7568a884.6365,884.6365,0,0,1-53.3589-72.1333,622.5524,622.5524,0,0,1-44.3286-77.9634,376.03,376.03,0,0,1-16.793-41.5913l-1.7446-5.3321-1.59-5.38-.79-2.6919-.708-2.7139c-.4659-1.811-.9595-3.6157-1.4019-5.4321a215.7148,215.7148,0,0,1-4.0625-22.0586L-17.9639,1990.54c1.6611.1172,3.4018,1.1436,5.4,2.8018.5166.4375,1.0962.9731,1.6157,1.4468l.7827.7275.8907.8726,1.7363,1.7451,1.9131,1.9858c5.0464,5.3272,11.2343,12.0884,18.0293,19.1289,6.8076,7.0752,14.2929,14.5591,22.2592,22.1123,7.9683,7.56,16.4175,15.2022,25.2061,22.7666,17.5869,15.1436,36.5044,29.9566,56.0728,43.8848,19.562,13.9439,39.8476,27.0181,60.3383,38.8184q15.3618,8.8565,30.8042,16.7236c10.2788,5.2119,20.5454,10.0327,30.6993,14.4253,20.2871,8.7593,40.2431,15.855,58.59,20.3057a199.9958,199.9958,0,0,0,25.9287,4.6962,96.8766,96.8766,0,0,0,21.4238.2188c6.0923-.7344,10.9868-2.3267,13.9312-4.7114,2.9389-2.3682,3.9082-5.5581,1.97-9.0533Z"/><path class="cls-4" d="M260.7031,2803.6133a557.6037,557.6037,0,0,1-85.1929-30.1587,620.36,620.36,0,0,1-69.8442-36.8,703.3533,703.3533,0,0,1-58.7388-40.0977c-18.1045-13.7236-34.9082-27.7319-50.7515-41.9272a941.4111,941.4111,0,0,1-85.0522-87.2109,1111.2981,1111.2981,0,0,1-70.1919-90.7564c-21.4839-30.8506-41.2588-62.3169-59.5825-94.6958-18.3228-32.3838-35.2246-65.605-50.6446-100.3823-7.7055-17.3985-15.0361-35.1968-21.9335-53.6045-6.8941-18.4146-13.3623-37.4268-19.2588-57.4424a646.8908,646.8908,0,0,1-15.5569-64.0542l-1.5757-8.6787-1.4434-9.0156-.6889-4.51-.6338-4.7012c-.4114-3.1484-.8191-6.2211-1.1878-9.4169-1.446-12.9024-2.4714-26.5918-2.7251-41.3155l158.168-19.1523a215.7148,215.7148,0,0,0,4.0625,22.0586c.4424,1.8164.936,3.6211,1.4019,5.4321l.708,2.7139.79,2.6919,1.59,5.38,1.7446,5.3321a376.03,376.03,0,0,0,16.793,41.5913,622.5524,622.5524,0,0,0,44.3286,77.9634,884.6365,884.6365,0,0,0,53.3589,72.1333q28.4142,34.7424,59.96,66.7568c20.9746,21.3369,42.91,41.7383,65.8477,60.9526a771.2207,771.2207,0,0,0,71.8213,53.7583,558.42,558.42,0,0,0,78.4213,43.47c27.3038,12.1714,55.9136,21.7544,85.4693,26.5972Z"/><path class="cls-5" d="M285.4345,2650.0688a441.4283,441.4283,0,0,1-64.3872-20.3559,521.1626,521.1626,0,0,1-55.8662-26.4219c-34.8589-19.061-65.59-40.3574-93.9556-62.7475a873.7256,873.7256,0,0,1-78.437-70.4849c-24.2451-24.4409-46.7929-49.7573-68.02-75.8545q-31.853-39.1318-59.7715-80.7266a1003.43,1003.43,0,0,1-52.0014-86.2578,742.7812,742.7812,0,0,1-42.76-94.5049,488.6871,488.6871,0,0,1-16.1753-52.8227l-1.66-7.0054-1.5166-7.1982-.7393-3.6006-.6709-3.708c-.4385-2.4795-.8892-4.918-1.2949-7.4243a314.2963,314.2963,0,0,1-3.3936-31.687l158.1675-19.1524c1.3091,3.7691,2.8711,7.9609,4.7315,12.43l1.5087,3.4394.7456,1.7207.84,1.7823,1.6631,3.5625,1.8286,3.6591a335.62,335.62,0,0,0,17.4116,30.36,568.7025,568.7025,0,0,0,45.8965,61.4209c17.0454,20.0518,35.459,39.4668,54.7163,58.0088,19.252,18.5532,39.41,36.2251,60.1494,52.7881q15.5486,12.4269,31.4942,24,15.9411,11.5335,32.1811,22.0513a600.9607,600.9607,0,0,0,65.2061,37.0317c21.6391,10.4492,43.0971,18.832,62.8867,24.1929a203.8565,203.8565,0,0,0,27.91,5.666,111.6586,111.6586,0,0,0,22.7753.75Z"/></g><circle class="cls-3" cx="100" cy="6286.5026" r="100"/><path class="cls-8" d="M21.6025,6271.7627v-1.0244H18.88v-5.3428h1.0977v4.3545H20.98v-4.3545h1.0977v4.3545h.5488v2.0127Z"/><path class="cls-8" d="M23.9589,6270.7383v-5.3428h.9659v2.3418c0,.166-.0059.3594-.0186.5781s-.0254.4375-.04.6514-.0293.4033-.044.5635l1.3682-4.1348h1.2812v5.3428h-.9658v-2.1953c0-.1709.0059-.3741.0176-.6075s.0283-.4707.0478-.71.0372-.4463.0518-.6221l-1.3838,4.1348Z"/><path class="cls-8" d="M30.3994,6270.9209v-.5117a1.5741,1.5741,0,0,1-.8018-.2012,1.4145,1.4145,0,0,1-.542-.5635,1.7578,1.7578,0,0,1-.1933-.8388v-1.5879a1.7477,1.7477,0,0,1,.1933-.8418,1.4166,1.4166,0,0,1,.542-.56,1.5741,1.5741,0,0,1,.8018-.2012v-.5127h.8779v.5127a1.5674,1.5674,0,0,1,.8047.2012,1.4132,1.4132,0,0,1,.5381.56,1.7366,1.7366,0,0,1,.1943.8418v1.5879a1.7465,1.7465,0,0,1-.1943.8388,1.4111,1.4111,0,0,1-.5381.5635,1.5674,1.5674,0,0,1-.8047.2012v.5117Zm.0439-1.3613v-3.1026a.61.61,0,0,0-.5713.3623.9277.9277,0,0,0-.08.3985v1.5879a.9081.9081,0,0,0,.08.3955.6144.6144,0,0,0,.5713.3584Zm.79,0a.6152.6152,0,0,0,.3437-.0948.6313.6313,0,0,0,.2275-.2636.9066.9066,0,0,0,.08-.3955v-1.5879a.9263.9263,0,0,0-.08-.3985.6251.6251,0,0,0-.2275-.2675.6152.6152,0,0,0-.3437-.0948Z"/><path class="cls-8" d="M34.249,6270.7383v-5.3428h1.8222a2.1751,2.1751,0,0,1,.9844.2119,1.5782,1.5782,0,0,1,.6514.5928,1.6957,1.6957,0,0,1,.23.8936,1.67,1.67,0,0,1-.2344.8886,1.5849,1.5849,0,0,1-.6514.5967,2.1368,2.1368,0,0,1-.98.2119h-.7246v1.9473Zm1.0976-2.8985h.7246a.7472.7472,0,0,0,.56-.2119.7871.7871,0,0,0,0-1.0683.7478.7478,0,0,0-.56-.2129h-.7246Z"/><path class="cls-8" d="M41.0839,6270.8115a2.0261,2.0261,0,0,1-.9287-.2011,1.4736,1.4736,0,0,1-.6113-.5635,1.6171,1.6171,0,0,1-.2158-.8457v-2.2686a1.6171,1.6171,0,0,1,.2158-.8457,1.4736,1.4736,0,0,1,.6113-.5635,2.2563,2.2563,0,0,1,1.8623,0,1.4867,1.4867,0,0,1,.6075.5635,1.6266,1.6266,0,0,1,.2158.8457v2.2686a1.6266,1.6266,0,0,1-.2158.8457,1.4867,1.4867,0,0,1-.6075.5635A2.0239,2.0239,0,0,1,41.0839,6270.8115Zm0-.9511a.6549.6549,0,0,0,.4942-.1719.6759.6759,0,0,0,.165-.4873v-2.2686a.682.682,0,0,0-.1611-.49.8169.8169,0,0,0-.9951,0,.682.682,0,0,0-.1612.49v2.2686a.68.68,0,0,0,.1641.4873A.6563.6563,0,0,0,41.0839,6269.86Z"/><path class="cls-8" d="M44.4951,6270.7383v-5.3428h1.72a2.3467,2.3467,0,0,1,.9326.1719,1.4594,1.4594,0,0,1,.6221.48,1.186,1.186,0,0,1,.2236.7177,1.1339,1.1339,0,0,1-.3291.8487,1.192,1.192,0,0,1-.8711.3222v-.0517a1.2731,1.2731,0,0,1,.9551.3516,1.29,1.29,0,0,1,.3623.9589,1.4319,1.4319,0,0,1-.23.8086,1.5375,1.5375,0,0,1-.6406.541,2.2118,2.2118,0,0,1-.959.1944Zm1.06-3.1914H46.2a.705.705,0,0,0,.5048-.1719.606.606,0,0,0,.1827-.4648.5911.5911,0,0,0-.1827-.4639.7242.7242,0,0,0-.5048-.1651h-.6446Zm0,2.3056h.6807a.7954.7954,0,0,0,.5635-.19.6818.6818,0,0,0,.205-.5264.6973.6973,0,0,0-.205-.5312.7882.7882,0,0,0-.5635-.1934h-.6807Z"/><path class="cls-8" d="M49.3183,6270.7383l1.3106-5.3428H52.02l1.3242,5.3428H52.2246l-.2569-1.208H50.6943l-.2559,1.208Zm1.56-2.086h.8994l-.2559-1.288c-.0341-.1856-.0693-.3692-.1054-.5528s-.0655-.3252-.085-.4277q-.0293.1537-.0762.4248c-.0322.18-.0673.3633-.1064.5488Z"/><path class="cls-8" d="M54.5293,6270.7383l.9882-2.1953a1.4086,1.4086,0,0,1-.6767-.59,1.7457,1.7457,0,0,1-.2529-.9326,1.586,1.586,0,0,1,.23-.8633,1.51,1.51,0,0,1,.6514-.5644,2.3111,2.3111,0,0,1,.9844-.1973H58.167v5.3428H57.0761v-2.02h-.5117l-.8564,2.02Zm1.9248-2.9717h.622v-1.42h-.622a.7955.7955,0,0,0-.5635.19.6941.6941,0,0,0-.2051.5342.6519.6519,0,0,0,.2051.5127A.8149.8149,0,0,0,56.4541,6267.7666Z"/><path class="cls-8" d="M64.4746,6270.8115a2.0774,2.0774,0,0,1-.9366-.2011,1.5186,1.5186,0,0,1-.6259-.5635,1.5837,1.5837,0,0,1-.2227-.8457h1.0977a.6459.6459,0,0,0,.1787.4873.8389.8389,0,0,0,1.0176,0,.6429.6429,0,0,0,.18-.4873v-.6582H63.6621v-.9883H65.163v-.6221a.638.638,0,0,0-.18-.49.85.85,0,0,0-1.0176,0,.6409.6409,0,0,0-.1787.49H62.6894a1.5726,1.5726,0,0,1,.2227-.8486,1.5252,1.5252,0,0,1,.6259-.5606,2.29,2.29,0,0,1,1.877,0,1.5209,1.5209,0,0,1,.6221.5606,1.5652,1.5652,0,0,1,.2236.8486v2.2686a1.5762,1.5762,0,0,1-.2236.8457,1.5144,1.5144,0,0,1-.6221.5635A2.0678,2.0678,0,0,1,64.4746,6270.8115Z"/><path class="cls-8" d="M67.9072,6270.7383v-5.3428h1.0976v2.1006h.5127l.8926-2.1006h1.1856l-1.1123,2.5322,1.1562,2.8106h-1.2l-.915-2.291h-.52v2.291Z"/><path class="cls-8" d="M74.7509,6270.8115a2.0261,2.0261,0,0,1-.9287-.2011,1.4736,1.4736,0,0,1-.6113-.5635,1.6171,1.6171,0,0,1-.2158-.8457v-2.2686a1.6171,1.6171,0,0,1,.2158-.8457,1.4736,1.4736,0,0,1,.6113-.5635,2.2563,2.2563,0,0,1,1.8623,0,1.4867,1.4867,0,0,1,.6075.5635,1.6266,1.6266,0,0,1,.2158.8457v2.2686a1.6266,1.6266,0,0,1-.2158.8457,1.4867,1.4867,0,0,1-.6075.5635A2.0239,2.0239,0,0,1,74.7509,6270.8115Zm0-.9511a.6549.6549,0,0,0,.4942-.1719.6759.6759,0,0,0,.165-.4873v-2.2686a.682.682,0,0,0-.1611-.49.8169.8169,0,0,0-.9951,0,.6816.6816,0,0,0-.1612.49v2.2686a.68.68,0,0,0,.1641.4873A.6562.6562,0,0,0,74.7509,6269.86Z"/><path class="cls-8" d="M79.9033,6270.8115a2.0767,2.0767,0,0,1-.9365-.2011,1.5183,1.5183,0,0,1-.626-.5635,1.5837,1.5837,0,0,1-.2227-.8457v-2.2686a1.5726,1.5726,0,0,1,.2227-.8486,1.5248,1.5248,0,0,1,.626-.5606,2.29,2.29,0,0,1,1.8769,0,1.5209,1.5209,0,0,1,.6221.5606,1.5652,1.5652,0,0,1,.2236.8486H80.5918a.638.638,0,0,0-.18-.49.85.85,0,0,0-1.0176,0,.6413.6413,0,0,0-.1787.49v2.2686a.6463.6463,0,0,0,.1787.4873.8389.8389,0,0,0,1.0176,0,.643.643,0,0,0,.18-.4873h1.0976a1.5762,1.5762,0,0,1-.2236.8457,1.5144,1.5144,0,0,1-.6221.5635A2.0678,2.0678,0,0,1,79.9033,6270.8115Z"/><path class="cls-8" d="M83.2412,6270.7383v-5.3428h.9658v2.3418c0,.166-.0059.3594-.0186.5781s-.0254.4375-.04.6514-.0293.4033-.0439.5635l1.3681-4.1348h1.2813v5.3428H85.788v-2.1953c0-.1709.0059-.3741.0176-.6075s.0283-.4707.0479-.71.0371-.4463.0517-.6221l-1.3838,4.1348Z"/><path class="cls-8" d="M90.1494,6270.8115a2.0767,2.0767,0,0,1-.9365-.2011,1.5183,1.5183,0,0,1-.626-.5635,1.5837,1.5837,0,0,1-.2227-.8457v-2.2686a1.5726,1.5726,0,0,1,.2227-.8486,1.5248,1.5248,0,0,1,.626-.5606,2.29,2.29,0,0,1,1.8769,0,1.5209,1.5209,0,0,1,.6221.5606,1.5652,1.5652,0,0,1,.2236.8486H90.8379a.638.638,0,0,0-.18-.49.85.85,0,0,0-1.0176,0,.6409.6409,0,0,0-.1787.49v2.2686a.6459.6459,0,0,0,.1787.4873.8389.8389,0,0,0,1.0176,0,.643.643,0,0,0,.18-.4873h1.0976a1.5762,1.5762,0,0,1-.2236.8457,1.5144,1.5144,0,0,1-.6221.5635A2.0678,2.0678,0,0,1,90.1494,6270.8115Z"/><path class="cls-8" d="M94.6943,6270.7383v-4.3545H93.3408v-.9883h3.8056v.9883H95.792v4.3545Z"/><path class="cls-8" d="M98.7568,6270.7383v-5.3428h3.293v.9512H99.832v1.2h1.9619v.9082H99.832v1.332H102.05v.9512Z"/><path class="cls-8" d="M103.6015,6270.7383v-5.3428h1.2364l.4755,1.6836c.0537.1758.0948.3291.1211.4609s.043.2246.0479.2784c.0049-.0538.02-.1465.0478-.2784s.0645-.2851.1133-.4609l.49-1.6836h1.2442v5.3428H106.375V6268.69q0-.5348.0293-.9922t.0732-.8633c.0293-.2715.0557-.5313.0811-.7793l-.6231,2.415h-.9141l-.622-2.3271q.044.3135.0908.6914c.0322.251.0586.5293.081.834s.0323.6455.0323,1.0215v2.0488Z"/><path class="cls-8" d="M108.6,6270.7383l1.3105-5.3428h1.3906l1.3243,5.3428h-1.1192l-.2568-1.208h-1.2735l-.2558,1.208Zm1.56-2.086h.9l-.2559-1.288c-.0342-.1856-.0693-.3692-.1055-.5528s-.0654-.3252-.0849-.4277q-.0294.1537-.0762.4248c-.0322.18-.0674.3633-.1065.5488Z"/><path class="cls-8" d="M117.0537,6270.7383v-5.3428h3.2929v.9512h-2.2177v1.2h1.9619v.9082h-1.9619v1.332h2.2177v.9512Z"/><path class="cls-8" d="M122.0664,6270.7383v-5.3428h1.0976v2.1006h.5127l.8926-2.1006h1.1855l-1.1123,2.5322,1.1563,2.8106h-1.2l-.915-2.291h-.52v2.291Z"/><path class="cls-8" d="M126.8964,6270.7383l1.3106-5.3428h1.3906l1.3242,5.3428h-1.1191l-.2568-1.208h-1.2735l-.2558,1.208Zm1.56-2.086h.8994l-.2558-1.288c-.0342-.1856-.0694-.3692-.1055-.5528s-.0654-.3252-.085-.4277q-.0292.1537-.0761.4248c-.0323.18-.0674.3633-.1065.5488Z"/><path class="cls-8" d="M133.4834,6270.7383v-4.3545H132.13v-.9883h3.8057v.9883H134.581v4.3545Z"/><path class="cls-8" d="M137.5459,6270.7383v-5.3428h3.2929v.9512h-2.2177v1.2h1.9619v.9082h-1.9619v1.332h2.2177v.9512Z"/><path class="cls-8" d="M142.5664,6270.7383v-5.3428h1.8222a2.1751,2.1751,0,0,1,.9844.2119,1.5782,1.5782,0,0,1,.6514.5928,1.6956,1.6956,0,0,1,.23.8936,1.67,1.67,0,0,1-.2343.8886,1.5849,1.5849,0,0,1-.6514.5967,2.1368,2.1368,0,0,1-.9805.2119h-.7246v1.9473Zm1.0976-2.8985h.7246a.7472.7472,0,0,0,.56-.2119.7871.7871,0,0,0,0-1.0683.7478.7478,0,0,0-.56-.2129h-.7246Z"/><path class="cls-8" d="M147.6455,6270.7383v-5.3428h.9658v2.3418c0,.166-.0059.3594-.0186.5781s-.0254.4375-.04.6514-.0293.4033-.044.5635l1.3682-4.1348h1.2813v5.3428h-.9659v-2.1953c0-.1709.0059-.3741.0176-.6075s.0283-.4707.0479-.71.0371-.4463.0517-.6221l-1.3838,4.1348Z"/><path class="cls-8" d="M152.8134,6270.7383v-5.3428h1.0977v2.05h1.23v-2.05h1.0976v5.3428h-1.0976v-2.3057h-1.23v2.3057Z"/><path class="cls-8" d="M157.9365,6270.7383v-5.3428h3.3808v.9883h-2.32v1.1045h.7178a2.1631,2.1631,0,0,1,.9658.2021,1.5047,1.5047,0,0,1,.8711,1.416,1.524,1.524,0,0,1-.8711,1.4268,2.1179,2.1179,0,0,1-.959.2051Zm1.0605-.9151h.7246a.737.737,0,0,0,.5342-.19.6764.6764,0,0,0,.1983-.5117.699.699,0,0,0-.1983-.5234.7312.7312,0,0,0-.5342-.1944h-.7246Z"/><path class="cls-8" d="M163.7548,6270.7383l.5489-1.3535-1.545-3.9893h1.1856l.7031,2.1738a3.76,3.76,0,0,1,.1065.4024c.0312.1513.0547.2754.0693.373.01-.0976.0273-.2226.0547-.3769a3.304,3.304,0,0,1,.0918-.3985l.666-2.1738h1.1484l-1.8808,5.3428Z"/><path class="cls-8" d="M168.1826,6270.7383v-5.3428h1.8222a2.1751,2.1751,0,0,1,.9844.2119,1.5782,1.5782,0,0,1,.6514.5928,1.6957,1.6957,0,0,1,.2305.8936,1.67,1.67,0,0,1-.2344.8886,1.5849,1.5849,0,0,1-.6514.5967,2.1368,2.1368,0,0,1-.9805.2119H169.28v1.9473Zm1.0976-2.8985h.7246a.7472.7472,0,0,0,.56-.2119.7871.7871,0,0,0,0-1.0683.7478.7478,0,0,0-.56-.2129H169.28Z"/><path class="cls-8" d="M173.664,6270.7383v-5.3428h3.2569v.9883h-2.1592v4.3545Z"/><path class="cls-8" d="M178.1279,6270.7383l1.31-5.3428h1.3907l1.3242,5.3428h-1.1192l-.2568-1.208h-1.2734l-.2559,1.208Zm1.56-2.086h.8994l-.2559-1.288c-.0342-.1856-.0693-.3692-.1055-.5528s-.0654-.3252-.0849-.4277q-.0292.1537-.0762.4248c-.0322.18-.0674.3633-.1064.5488Z"/><path class="cls-5" d="M12.1962,6291.8584a5.8408,5.8408,0,0,1-2.666-.5752,4.1845,4.1845,0,0,1-1.7568-1.6094,4.6308,4.6308,0,0,1-.6162-2.416V6284.54a4.6274,4.6274,0,0,1,.6162-2.415,4.1873,4.1873,0,0,1,1.7568-1.61,5.8421,5.8421,0,0,1,2.666-.5751,5.7147,5.7147,0,0,1,2.6456.5751,4.218,4.218,0,0,1,1.7353,1.61,4.6278,4.6278,0,0,1,.6172,2.415v2.0909H10.1474v.6269a2.3073,2.3073,0,0,0,.5225,1.6416,2.0547,2.0547,0,0,0,1.5683.5547,2.42,2.42,0,0,0,1.1817-.251,1.2237,1.2237,0,0,0,.5957-.69H17.09a4.0809,4.0809,0,0,1-1.7041,2.4258A5.4614,5.4614,0,0,1,12.1962,6291.8584Zm2.0079-6.8379v-.5225a2.4145,2.4145,0,0,0-.4912-1.6308,1.9054,1.9054,0,0,0-1.5167-.5645,1.9371,1.9371,0,0,0-1.5371.585,2.429,2.429,0,0,0-.5117,1.6523v.3135l4.2656-.042Z"/><path class="cls-5" d="M19.8916,6291.6494v-15.2646h3.1367v8.1132h1.59l2.4043-4.35h3.45l-3.1992,5.625,3.2617,5.876H27.0224l-2.4258-4.5166H23.0283v4.5166Z"/><path class="cls-5" d="M35.7832,6291.8584a3.8826,3.8826,0,0,1-2.7491-.94,3.31,3.31,0,0,1-1.0146-2.5518,3.1386,3.1386,0,0,1,1.2549-2.6865,5.9609,5.9609,0,0,1,3.5967-.9307h2.1953v-.8369a1.2761,1.2761,0,0,0-.48-1.0664,2.1236,2.1236,0,0,0-1.3389-.376,2.3261,2.3261,0,0,0-1.3271.334,1.0381,1.0381,0,0,0-.4922.8994H32.5009a3.6134,3.6134,0,0,1,.6377-1.997,3.8112,3.8112,0,0,1,1.6836-1.3067,6.5088,6.5088,0,0,1,2.5508-.46,5.4445,5.4445,0,0,1,3.5342,1.0556,3.5567,3.5567,0,0,1,1.2959,2.917v7.7373H39.1709v-1.7773h-.502l.544-.8369a2.5374,2.5374,0,0,1-.92,2.06A3.8131,3.8131,0,0,1,35.7832,6291.8584Zm1.1718-2.2793a2.3382,2.3382,0,0,0,1.5157-.48,1.5369,1.5369,0,0,0,.5957-1.2548V6286.61H36.9336a2.0007,2.0007,0,0,0-1.3067.3867,1.3163,1.3163,0,0,0-.4707,1.0761,1.3555,1.3555,0,0,0,.4815,1.1084A2.0007,2.0007,0,0,0,36.955,6289.5791Z"/><path class="cls-5" d="M51.07,6291.6494a3.4732,3.4732,0,0,1-3.7647-3.7637v-4.914H44.2734v-2.8233h3.0322v-3.2412h3.1367v3.2412H54.73v2.8233H50.4423v4.81a1.1486,1.1486,0,0,0,.24.753.8544.8544,0,0,0,.7011.292h3.1368v2.8232Z"/><path class="cls-5" d="M62.3818,6291.8584a5.84,5.84,0,0,1-2.666-.5752,4.1848,4.1848,0,0,1-1.7569-1.6094,4.6308,4.6308,0,0,1-.6162-2.416V6284.54a4.6274,4.6274,0,0,1,.6162-2.415,4.1876,4.1876,0,0,1,1.7569-1.61,5.8415,5.8415,0,0,1,2.666-.5751,5.7142,5.7142,0,0,1,2.6455.5751,4.2189,4.2189,0,0,1,1.7354,1.61,4.6278,4.6278,0,0,1,.6171,2.415v2.0909H60.333v.6269a2.3077,2.3077,0,0,0,.5224,1.6416,2.0549,2.0549,0,0,0,1.5684.5547,2.42,2.42,0,0,0,1.1816-.251,1.2234,1.2234,0,0,0,.5957-.69h3.0743a4.081,4.081,0,0,1-1.7042,2.4258A5.4613,5.4613,0,0,1,62.3818,6291.8584Zm2.0078-6.8379v-.5225a2.4145,2.4145,0,0,0-.4912-1.6308,1.9052,1.9052,0,0,0-1.5166-.5645,1.9371,1.9371,0,0,0-1.5371.585,2.429,2.429,0,0,0-.5117,1.6523v.3135l4.2656-.042Z"/><path class="cls-5" d="M70.35,6291.6494v-11.501h3.0322v2.1954h.92l-.92.7324a3.0129,3.0129,0,0,1,.8887-2.29,3.3258,3.3258,0,0,1,2.3935-.8466,3.6173,3.6173,0,0,1,2.8233,1.1816,4.6113,4.6113,0,0,1,1.0664,3.21v1.0449H77.208v-.836a1.9265,1.9265,0,0,0-.4707-1.3906,1.81,1.81,0,0,0-1.3692-.4912,1.7722,1.7722,0,0,0-1.4013.543,2.333,2.333,0,0,0-.4805,1.59v6.8584Z"/><path class="cls-5" d="M82.6445,6291.6494v-2.8232H86.45v-5.8545H83.0625v-2.8233h6.5244v8.6778h3.3037v2.8232Zm5.2275-13.32a2.0341,2.0341,0,0,1-1.3691-.4385,1.6428,1.6428,0,0,1,0-2.3847,2.3581,2.3581,0,0,1,2.7392,0,1.6448,1.6448,0,0,1,0,2.3847A2.0385,2.0385,0,0,1,87.872,6278.3291Z"/><path class="cls-5" d="M95.1074,6291.6494v-11.501H98.14v2.1954h.92l-.92.7324a3.1193,3.1193,0,0,1,.8369-2.2793,3.008,3.008,0,0,1,2.2578-.8574,3.3821,3.3821,0,0,1,2.6875,1.1709,4.5952,4.5952,0,0,1,1.0137,3.1162v7.4228h-3.1367V6284.54a1.9265,1.9265,0,0,0-.4707-1.3906,1.9835,1.9835,0,0,0-2.6133,0,1.93,1.93,0,0,0-.4707,1.3906v7.1094Z"/><path class="cls-5" d="M113.7382,6291.8584a3.18,3.18,0,0,1-2.289-.8262,3.0335,3.0335,0,0,1-.8682-2.31l.836.7324h-.7315v2.1953h-3.0322v-15.2646H110.79v3.1367l-.1045,2.8223h.7315l-.836.7324a3.0351,3.0351,0,0,1,.8682-2.3106,3.18,3.18,0,0,1,2.289-.8261,3.4736,3.4736,0,0,1,2.7813,1.2236,4.8646,4.8646,0,0,1,1.0459,3.2724v2.9268a4.8561,4.8561,0,0,1-1.0459,3.2832A3.4892,3.4892,0,0,1,113.7382,6291.8584Zm-1.1289-2.7188a1.7764,1.7764,0,0,0,1.3487-.4912,1.9307,1.9307,0,0,0,.4707-1.3906V6284.54a1.9308,1.9308,0,0,0-.4707-1.3906,2.0824,2.0824,0,0,0-2.6866,0,1.9018,1.9018,0,0,0-.4814,1.3906v2.7178a1.9017,1.9017,0,0,0,.4814,1.3906A1.7835,1.7835,0,0,0,112.6093,6289.14Z"/><path class="cls-5" d="M125.0937,6291.8584a5.02,5.02,0,0,1-3.6279-1.2549,4.5244,4.5244,0,0,1-1.3076-3.4287v-7.0264h3.1367v7.0049a2.1364,2.1364,0,0,0,.46,1.4746,1.9922,1.9922,0,0,0,2.6661,0,2.1015,2.1015,0,0,0,.4707-1.4746v-7.0049h3.1367v7.0264a4.503,4.503,0,0,1-1.3174,3.44A5.0529,5.0529,0,0,1,125.0937,6291.8584Z"/><path class="cls-5" d="M133.082,6291.6494v-11.501h3.0322v2.1954h.92l-.92.7324a3.0129,3.0129,0,0,1,.8887-2.29,3.3258,3.3258,0,0,1,2.3935-.8466,3.6173,3.6173,0,0,1,2.8233,1.1816,4.6113,4.6113,0,0,1,1.0664,3.21v1.0449H139.94v-.836a1.9265,1.9265,0,0,0-.4707-1.3906,1.81,1.81,0,0,0-1.3692-.4912,1.7723,1.7723,0,0,0-1.4013.543,2.3336,2.3336,0,0,0-.48,1.59v6.8584Z"/><path class="cls-5" d="M146.9453,6295.4131v-2.5088h3.2412a1.9037,1.9037,0,0,0,1.3486-.44,1.579,1.579,0,0,0,.4707-1.2128v-.44l.041-2.1953h-.7314l.7314-.7315a3.1465,3.1465,0,0,1-.8154,2.3106,2.9994,2.9994,0,0,1-2.2373.8262,3.489,3.489,0,0,1-2.7812-1.2129,4.8577,4.8577,0,0,1-1.045-3.2832v-2.0909a4.8643,4.8643,0,0,1,1.045-3.2724,3.4734,3.4734,0,0,1,2.7812-1.2236,2.9994,2.9994,0,0,1,2.2373.8261,3.145,3.145,0,0,1,.8154,2.3106l-.7314-.7324h.7314l-.1045-2.1954h3.1368v11.208a3.6845,3.6845,0,0,1-1.2862,2.97,5.2506,5.2506,0,0,1-3.5019,1.0869Zm3.1787-7.1094a1.7891,1.7891,0,0,0,1.3379-.4912,1.905,1.905,0,0,0,.48-1.3906V6284.54a1.9052,1.9052,0,0,0-.48-1.3906,2.0836,2.0836,0,0,0-2.6875,0,1.93,1.93,0,0,0-.47,1.3906v1.8819a1.93,1.93,0,0,0,.47,1.3906A1.784,1.784,0,0,0,150.124,6288.3037Z"/><path class="cls-5" d="M162.7334,6291.8584a2.1827,2.1827,0,0,1-1.5372-3.6592,2.1833,2.1833,0,0,1,3.084,3.084A2.0657,2.0657,0,0,1,162.7334,6291.8584Z"/><path class="cls-5" d="M170.47,6291.6494v-2.8232h3.8057v-5.8545h-3.3877v-2.8233h6.5244v8.6778h3.3037v2.8232Zm5.2275-13.32a2.0341,2.0341,0,0,1-1.3691-.4385,1.6428,1.6428,0,0,1,0-2.3847,2.3581,2.3581,0,0,1,2.7392,0,1.6448,1.6448,0,0,1,0,2.3847A2.0387,2.0387,0,0,1,175.6972,6278.3291Z"/><path class="cls-5" d="M187.8261,6291.8584a5.7786,5.7786,0,0,1-2.6562-.5752,4.2019,4.2019,0,0,1-1.7461-1.6094,4.6308,4.6308,0,0,1-.6162-2.416V6284.54a4.6274,4.6274,0,0,1,.6162-2.415,4.2048,4.2048,0,0,1,1.7461-1.61,6.4442,6.4442,0,0,1,5.3222,0,4.2177,4.2177,0,0,1,1.7354,1.61,4.6278,4.6278,0,0,1,.6172,2.415v2.7178a4.6312,4.6312,0,0,1-.6172,2.416,4.2148,4.2148,0,0,1-1.7354,1.6094A5.7607,5.7607,0,0,1,187.8261,6291.8584Zm0-2.7188a1.87,1.87,0,0,0,1.4-.4912,1.9013,1.9013,0,0,0,.4815-1.3906V6284.54a1.9794,1.9794,0,0,0-3.2725-1.4013,1.8738,1.8738,0,0,0-.4912,1.4013v2.7178a1.71,1.71,0,0,0,1.8818,1.8818Z"/></g></svg>