<svg viewBox="0 0 200 6774.9523" xmlns="http://www.w3.org/2000/svg" xmlns:xlink="http://www.w3.org/1999/xlink"><clipPath id="a"><path d="m0 2225.0535h200v1000.563h-200z"/></clipPath><g opacity=".5"><path d="m200 882.77v80.49q-9.96 3.9756-19.86 8.11-21.855 9.24-43.32 19.39-9.18 4.3806-18.27 8.94-6.045 3.0447-12.05 6.2-6.015 3.15-11.95 6.4-5.955 3.2549-11.84 6.62c-29.08 16.62-57.01 35.38-82.71 56.9v-109.58c4.28-2.51 8.54-5.08 12.89-7.32l13.63-7.29 6.81-3.62 6.85-3.35c36.52-18.09 73.18-32.73 109.56-45.5q8.73-3.03 17.45-5.9 16.44-5.475 32.81-10.49z" fill="#ffd400"/><path d="m200 963.26v85.78a766.7654 766.7654 0 0 0 -74.76 44.13l-4.98 3.3-4.75 3.45-9.51 6.87c-3.23 2.23-6.18 4.68-9.2 7.06l-9.04 7.12c-1.54 1.15-2.92 2.45-4.37 3.68l-4.3 3.73c-2.84 2.49-5.77 4.89-8.55 7.43l-8.19 7.76-4.09 3.84c-1.38 1.27-2.63 2.69-3.96 4.02-19.35 19.54-37.02 40.98-54.3 64.69v-140.3c25.7-21.52 53.63-40.28 82.71-56.9q5.895-3.36 11.84-6.62 5.94-3.2549 11.95-6.4 6-3.15 12.05-6.2 9.09-4.5755 18.27-8.94 21.435-10.1852 43.32-19.39 9.9-4.14 19.86-8.11z" fill="#00b4ff"/><path d="m200 922.46v82.9q-2.34 1.05-4.66 2.12c-31.76 14.73-62.52 30.69-91.37 48.56-28.85 17.89-55.69 37.63-79.85 60.16q-12.435 11.49-24.12 23.85v-121.2l5.24-3.59c2.03-1.37 4.01-2.81 6.1-4.07l12.37-7.76c4.13-2.57 8.23-5.22 12.46-7.55l12.6-7.18 6.29-3.58 6.39-3.33c33.95-18.02 68.65-33.1 103.49-46.53q17.445-6.63 34.94-12.76a.5474.5474 0 0 1 .12-.04z" fill="#00b400"/></g><path d="m200 329.8v262.27l-5.51-4.09c-2.26-1.68-4.55-3.34-6.76-5.1l-13.36-10.4-6.68-5.2-6.56-5.35-13.12-10.71c-4.37-3.58-8.6-7.3095-12.91-10.96l-6.43-5.5c-2.15-1.84-4.3-3.66-6.39-5.56l-12.62-11.29-6.3-5.66-6.18-5.79-12.36-11.57c-4.09-3.89-8.09-7.88-12.13-11.81l-6.05-5.93-3.03-2.96-2.96-3.03-11.83-12.11c-3.99-4-7.81-8.15-11.67-12.2695l-11.56-12.3805-11.29-12.62-5.64-6.31c-1.88-2.11-3.68-4.28-5.53-6.41-1.05-1.21-2.1-2.42-3.13-3.64v-248.52c3.66 4.36 7.38 8.69 11.03 13.02 3.18 3.71 6.53 7.35 9.77 11.02 3.27 3.65 6.59 7.24 10.06 10.78l10.24 10.62c3.45 3.51 7.02 6.96 10.5 10.43 6.89 6.97 14.24 13.67 21.33 20.43 3.58 3.36 7.32 6.63 10.95 9.94 3.65 3.3 7.3 6.57 11.14 9.71l11.36 9.48 2.83 2.36 2.9 2.31 5.79 4.61 5.77 4.6c1.92 1.53 3.81 3.08 5.79 4.55l11.75 8.93c7.72 5.99 15.87 11.6 23.86 17.23l12.23 8.19c4.08 2.72 8.09 5.46 12.26 8.05z" fill="#ffd400"/><path d="m200 592.07v330.53l-.12-.1-.86-.73-4.07-3.59-16.18-14.38c-2.68-2.4-5.38-4.76-8.01-7.2l-3.57-3.34-4.29-4.01c-5.18-4.95-10.5-9.65-15.74-14.43-5.22-4.7895-10.3-9.72-15.43-14.57l-7.65-7.31c-2.54-2.43-5.09-4.85-7.56-7.36l-14.85-14.89-7.37-7.44-7.21-7.59-14.31-15.15c-2.4-2.5-4.7-5.11-7.02-7.67l-6.95-7.71-6.92-7.69c-2.34-2.51-4.7-4.99-6.97-7.57l-13.68-15.3-6.8-7.64-6.64-7.78-13.21-15.53q-2.325-2.76-4.59-5.55v-312.65c1.03 1.22 2.08 2.43 3.13 3.64 1.85 2.13 3.65 4.3 5.53 6.41l5.64 6.31 11.29 12.62 11.56 12.38c3.86 4.12 7.68 8.2695 11.67 12.2695l11.84 12.11 2.95 3.03 3.03 2.96 6.05 5.93c4.04 3.93 8.04 7.92 12.13 11.81l12.36 11.57 6.18 5.79 6.3 5.66 12.62 11.29c2.09 1.9 4.24 3.72 6.39 5.56l6.43 5.5c4.31 3.65 8.54 7.38 12.91 10.96l13.12 10.7105 6.56 5.35 6.68 5.2 13.36 10.4c2.21 1.76 4.5 3.42 6.76 5.1z" fill="#00b4ff"/><path d="m200 451.97v297.54l-6.01-4.81c-2.47-1.97-4.93-3.94-7.33-5.99l-14.46-12.16-7.2-6.08-7.07-6.23-14.08-12.45c-2.36-2.06-4.62-4.22-6.92-6.33l-6.88-6.38q-27.645-25.2452-53.75-51.66c-4.37-4.38-8.59-8.91-12.89-13.35l-6.4-6.69c-2.14-2.23-4.28-4.44-6.35-6.74l-12.49-13.64-6.21-6.82-6.09-6.95-12.13-13.88-11.89-14.05-1.85-2.18v-279.31c2.17 2.51 4.33 5.01 6.47 7.53 3.42 3.98 7.02 7.85 10.51 11.78 3.52 3.9 6.99 7.83 10.68 11.61l10.89 11.41 2.71 2.85 2.79 2.8 5.58 5.58 5.56 5.57c1.86 1.86 3.68 3.74 5.6 5.54l11.38 10.89a1029.8744 1029.8744 0 0 0 127.83 102.6z" fill="#00b400"/><path d="m200 1514.21v940.15h-100c.02-58.06-5.23-115.95-11.49-173.62-3.12-28.85-6.47-57.67-9.4-86.53-2.92-28.87-5.44-57.79-6.72-86.77a738.2255 738.2255 0 0 1 .96-86.99c.4-7.24 1.32-14.44 2.04-21.66.04-.45.09-.9.13-1.35.19-1.81.44-3.6.69-5.4.2-1.35.39-2.69.58-4.04l1.53-10.77c.6-3.57 1.29-7.14 1.93-10.71l.98-5.35.49-2.67.59-2.66 2.4-10.61 1.21-5.3 1.44-5.25a399.7693 399.7693 0 0 1 31.09-81.1l1.2-2.44 1.33-2.38 2.65-4.75 5.31-9.5 5.41-9.43c1.73-3.19 3.53-6.34 5.17-9.58 3.41-6.4 6.49-12.97 9.49-19.58 2.9-6.64 5.66-13.36 8.11-20.18 2.41-6.84 4.65-13.75 6.52-20.76q1.395-5.25 2.57-10.57.6-2.6551 1.12-5.32c.17-.89.35-1.78.51-2.67s.32-1.78.48-2.68c.26-1.48.49-2.95.72-4.43s.43-2.96.62-4.44q.435-3.33.75-6.68c.08-.74.14-1.49.21-2.23q.18-2.2354.33-4.47a208.94 208.94 0 0 0 .29-21.09 203.19 203.19 0 0 0 -6.36-42.97c-.23-.88-.47-1.75-.71-2.63-.27-.98-.55-1.97-.83-2.95-.36-1.22-.72-2.44-1.1-3.66s-.76-2.43-1.16-3.64c-.34-1.04-.68-2.08-1.04-3.11-.47-1.38-.95-2.75-1.45-4.12-.7-1.92-1.42-3.82-2.17-5.72-.99-2.54-2.04-5.05-3.12-7.54-.73-1.66-1.47-3.32-2.24-4.96-.38-.82-.77-1.64-1.16-2.46-12.44-26.25-29.21-50.22-47.65-72.57q-5.205-6.3-10.58-12.43-3.585-4.0948-7.24-8.12-3.645-4.0349-7.36-8.01c-1.58-1.7-3.18-3.39-4.78-5.08-.76-.8-1.52-1.6-2.27-2.39-.9-.95-1.81-1.9-2.73-2.84-.87-.91-1.75-1.82-2.63-2.72q-5.085-5.2654-10.27-10.45-5.76-5.7906-11.57-11.51c-14.18-13.98-28.58-27.73-42.82-41.66v-98.28c.71.82 1.44 1.63 2.17 2.44 4.17 4.7 8.55 9.42 13.09 14.17l3.43 3.57c.57.61 1.17 1.18 1.79 1.74l1.84 1.7 7.51 6.82c10.14 9.11 20.74 18.33 31.61 27.74l4.09 3.54 4.24 3.44 8.55 6.94q8.595 6.9894 17.32 14.22 8.73 7.2152 17.55 14.79 4.41 3.7654 8.83 7.65c2.97 2.56 6.06 5.06 9.09 7.64 12.17 10.3 24.39 21.23 36.5 33.07q9.075 8.8953 18.04 18.56c1.51 1.59 2.94 3.27 4.5 4.87 1.53 1.6 3.06 3.24 4.58 4.9 1.77 1.91 3.53 3.86 5.27 5.83z" fill="#ffd400"/><path d="m170.95 1711.49q-.15 2.2347-.33 4.47c-.07.74-.13 1.49-.21 2.23q-.315 3.345-.75 6.68c-.19 1.48-.39 2.96-.62 4.44-.22 1.48-.46 2.96-.71 4.43-.15.9-.32 1.79-.49 2.68-.16.89-.34 1.78-.51 2.67q-.525 2.67-1.12 5.32-1.17 5.31-2.57 10.57c-1.87 7.01-4.11 13.92-6.52 20.76-2.45 6.82-5.21 13.54-8.11 20.18-3 6.61-6.08 13.18-9.49 19.58-1.64 3.24-3.44 6.39-5.17 9.58l-5.41 9.43-5.31 9.5-2.65 4.75-1.33 2.38-1.2 2.44a399.7693 399.7693 0 0 0 -31.09 81.1l-1.44 5.25-1.21 5.3-2.4 10.61-.59 2.66-.49 2.67-.98 5.35c-.64 3.57-1.33 7.14-1.93 10.71l-1.53 10.77c-.19 1.35-.38 2.69-.58 4.04-.25 1.8-.49 3.59-.69 5.4-.04.45-.09.9-.13 1.35-.72 7.22-1.64 14.42-2.04 21.66a738.2255 738.2255 0 0 0 -.96 86.99c1.28 28.98 3.8 57.9 6.72 86.77 2.93 28.86 6.28 57.68 9.4 86.53 6.26 57.67 11.51 115.56 11.49 173.62h-100v-692.35l1.9-2.26.61-.72a3.5591 3.5591 0 0 1 .53-.57l.73-.57 1.48-1.15 2.96-2.3c1.88-1.52 3.89-3.07 5.7-4.59l2.63-2.38 2.51-2.36 1.27-1.19 1.21-1.17 2.44-2.35c3.12-3.11 6.18-6.21 9.01-9.26 2.79-3.04 5.53-6.08 8-9.07 2.48-2.99 4.81-5.97 7.02-8.94l1.58-2.23c.55-.76 1-1.49 1.53-2.24.24-.38.55-.76.74-1.14l.62-1.13c.43-.76.86-1.53 1.23-2.28a91.7017 91.7017 0 0 0 4.31-9.34 81.8576 81.8576 0 0 0 5.23-20.96l.28-2.94.17-3.01a50.1343 50.1343 0 0 0 -.05-6.25 116.9227 116.9227 0 0 0 -1.87-13.17 165.5878 165.5878 0 0 0 -8.93-29.21c-1.03-2.56-2.1-5.14-3.27-7.75-.56-1.3-1.16-2.61-1.78-3.92-.59-1.34-1.29-2.58-1.98-3.88q-4.14-7.71-8.92-15.6c-6.39-10.51-13.56-21.19-21.31-31.98-1.96-2.69-3.87-5.44-5.95-8.09q-3.135-3.9449-6.37-7.91c-1.08-1.33-2.17-2.65-3.26-3.98v-107.26c14.24 13.93 28.64 27.68 42.82 41.66q5.805 5.7151 11.57 11.51 9.06 9.0892 17.9 18.4c1.6 1.69 3.2 3.38 4.78 5.08q3.705 3.9756 7.36 8.01 3.66 4.035 7.24 8.12 5.37 6.1348 10.58 12.43c18.44 22.35 35.21 46.32 47.65 72.57.39.82.78 1.64 1.16 2.46.77 1.64 1.51 3.3 2.24 4.96 1.08 2.49 2.13 5 3.12 7.54.75 1.9 1.47 3.8 2.17 5.72.28.77.56 1.54.83 2.31.21.6.41 1.2.62 1.81.36 1.03.71 2.07 1.04 3.11.2.61.4 1.21.59 1.82s.38 1.21.57 1.82c.15.49.3.97.45 1.46.51 1.71 1.01 3.43 1.48 5.15.24.88.48 1.75.71 2.63a203.19 203.19 0 0 1 6.36 42.97 208.94 208.94 0 0 1 -.29 21.09z" fill="#00b4ff"/><path d="m171.89 1974.66-.09 2.17.02 2.22.02 4.42c.02 2.95-.01 5.86.03 8.79l.37 8.92c.13 2.96.19 5.87.47 8.9.5 6.03.79 11.9 1.54 18.01l.25 2.27.31 2.27.63 4.53c.48 3.04 1.04 6.13 1.54 9.18l.77 4.57c.26 1.53.5 3.04.82 4.6l1.81 9.2705.9 4.62c.32 1.55.65 3.13 1.03 4.69l2.46 9.35c.78 3.08 1.74 6.29 2.61 9.43l2.67 9.43 2.86 9.56c.91 3.2 1.99 6.31 3.14 9.54l3.46 9.64c.16.46.33.91.49 1.37v1685.9895l-119.23-119.23-80.77-80.77v-1701.38l1.97-4.86 5.03-12.28c.81-2.04 1.75-4.06 2.68-6.08l2.79-6.04c1.89-4.01 3.6-8.07 5.49-12.05l5.97-11.85a467.4754 467.4754 0 0 1 26.53-45.44l1.77-2.74 1.87-2.67 3.77-5.32 7.55-10.56.47-.65c.16-.22.33-.47.43-.58l.71-.88 1.42-1.75c.94-1.17 1.92-2.34 2.83-3.51 1.8-2.35 3.71-4.71 5.43-7.08 3.5-4.8 6.65-9.64 9.78-14.52 3.01-4.87 5.92-9.78 8.56-14.72 2.6-4.94 5.09-9.92 7.26-14.91q3.255-7.5 5.85-15.1l1.21-3.8c.43-1.27.74-2.54 1.12-3.82.41-1.27.68-2.55.98-3.83s.6-2.57.83-3.85a140.87 140.87 0 0 0 2.33-15.55 145.9677 145.9677 0 0 0 -.57-31.96 139.18 139.18 0 0 0 -3.06-16.47q-2.145-8.2647-5.17-16.61a240.3827 240.3827 0 0 0 -15.25-33.48c-1.52-2.79-3.08-5.58-4.72-8.35q-1.2-2.1-2.48-4.17c-.83-1.4-1.71-2.76-2.61-4.13q-5.34-8.2054-11.2-16.34c-7.82-10.84-16.25-21.58-25.1-32.25-2.23-2.66-4.44-5.35-6.74-7.98l-6.99-7.84q-7.05-7.845-14.32-15.67l-14.7-15.7-1.72-1.82v-99.49q2.58 2.535 5.22 5.01c10.17 9.71 20.67 19.38 31.31 29.14l4 3.66 4.07 3.61 8.19 7.26 16.44 14.71q8.25 7.4253 16.48 15.08l16.52 15.47c11.06 10.42 22.02 21.29 32.7 32.8q8.01 8.625 15.76 17.82l3.87 4.62c1.3 1.53 2.6 3.08 3.88 4.65 2.58 3.13 5.11 6.33 7.62 9.57a336.5327 336.5327 0 0 1 27.91 42.02q3.12 5.5943 6.03 11.4v257.02c-.85 2.08-1.72 4.14-2.58 6.23-.83 2.01-1.72 3.95-2.58 5.93l-1.3 2.96-.65 1.48q-.135.3-.24.6l-.19.53-3.07 8.44-1.54 4.18-.77 2.09-.64 2.13a308.1419 308.1419 0 0 0 -8.98 33.97l-1.71 8.51c-.28 1.42-.44 2.89-.67 4.32-.21 1.4394-.43 2.87-.6 4.32l-.56 4.31c-.19 1.43-.39 2.85-.48 4.33l-.7 8.71-.36 4.32-.16 4.4z" fill="#00b400"/><path d="m200 3298.12v309.66l-181.75-181.75 154.83-154.83z" fill="#00b4ff" fill-rule="evenodd"/><path d="m146.11 3633.82-65.34 65.35-38.98 38.97-41.79-41.79v-125.06l41.79-41.79z" fill="#ffd400"/><path d="m159.9445 3814.9619c0-16.4216-13.0425-29.7339-29.1311-29.7339s-29.1314 13.3125-29.1314 29.7339 13.0425 29.7341 29.1314 29.7341 29.1311-13.3125 29.1311-29.7341m40.0555 0c0-39.0012-30.9759-70.6184-69.1866-70.6184s-69.1869 31.6169-69.1869 70.6184 30.9759 70.6184 69.1869 70.6184 69.1866-31.6167 69.1866-70.6184z" fill="#ffd400" fill-rule="evenodd"/><path d="m61.6265 3814.9624c0 39.001 30.9767 70.6184 69.1869 70.6184s69.1866-31.6174 69.1866-70.6184h-40.0553c0 16.4221-13.0427 29.7339-29.1313 29.7339s-29.1317-13.312-29.1317-29.7339z" fill="#00b400" fill-rule="evenodd"/><path d="m5 3913.962 5 8.464h-10z" fill="#00b4ff" fill-rule="evenodd"/><path d="m15 3913.962 5 8.464h-10z" fill="#00b4ff" fill-rule="evenodd"/><path d="m25 3913.962 5 8.464h-10z" fill="#00b4ff" fill-rule="evenodd"/><path d="m35 3913.962 5 8.464h-10z" fill="#00b4ff" fill-rule="evenodd"/><path d="m45 3913.962 5 8.464h-10z" fill="#00b4ff" fill-rule="evenodd"/><path d="m55 3913.962 5 8.464h-10z" fill="#00b4ff" fill-rule="evenodd"/><path d="m65 3913.962 5 8.464h-10z" fill="#00b4ff" fill-rule="evenodd"/><path d="m75 3913.962 5 8.464h-10z" fill="#00b4ff" fill-rule="evenodd"/><path d="m85 3913.962 5 8.464h-10z" fill="#00b4ff" fill-rule="evenodd"/><path d="m95 3913.962 5 8.464h-10z" fill="#00b4ff" fill-rule="evenodd"/><path d="m10 3922.426 10 16.928h-20z" fill="#00b400" fill-rule="evenodd"/><path d="m30 3922.426 10 16.928h-20z" fill="#00b400" fill-rule="evenodd"/><path d="m50 3922.426 10 16.928h-20z" fill="#00b400" fill-rule="evenodd"/><path d="m70 3922.426 10 16.928h-20z" fill="#00b400" fill-rule="evenodd"/><path d="m90 3922.426 10 16.928h-20z" fill="#00b400" fill-rule="evenodd"/><path d="m20 3939.354 20 33.856h-40z" fill="#ffd400" fill-rule="evenodd"/><path d="m60 3939.354 20 33.856h-40z" fill="#ffd400" fill-rule="evenodd"/><path d="m100 3939.354 20 33.856h-40z" fill="#ffd400" fill-rule="evenodd"/><path d="m33.333 3973.21 33.334 56.427h-66.667z" fill="#00b4ff" fill-rule="evenodd"/><path d="m100 3973.21 33.333 56.427h-66.666z" fill="#00b4ff" fill-rule="evenodd"/><path d="m50 4029.637 50 84.641h-100z" fill="#00b400" fill-rule="evenodd"/><path d="m150 4029.637 50 84.641h-100z" fill="#00b400" fill-rule="evenodd"/><path d="m166.666 3973.21 33.334 56.427h-66.667z" fill="#00b4ff" fill-rule="evenodd"/><path d="m140 3939.354 20 33.856h-40z" fill="#ffd400" fill-rule="evenodd"/><path d="m180 3939.354 20 33.856h-40z" fill="#ffd400" fill-rule="evenodd"/><path d="m110 3922.426 10 16.928h-20z" fill="#00b400" fill-rule="evenodd"/><path d="m130 3922.426 10 16.928h-20z" fill="#00b400" fill-rule="evenodd"/><path d="m150 3922.426 10 16.928h-20z" fill="#00b400" fill-rule="evenodd"/><path d="m170 3922.426 10 16.928h-20z" fill="#00b400" fill-rule="evenodd"/><path d="m190 3922.426 10 16.928h-20z" fill="#00b400" fill-rule="evenodd"/><path d="m105 3913.962 5 8.464h-10z" fill="#00b4ff" fill-rule="evenodd"/><path d="m115 3913.962 5 8.464h-10z" fill="#00b4ff" fill-rule="evenodd"/><path d="m125 3913.962 5 8.464h-10z" fill="#00b4ff" fill-rule="evenodd"/><path d="m135 3913.962 5 8.464h-10z" fill="#00b4ff" fill-rule="evenodd"/><path d="m145 3913.962 5 8.464h-10z" fill="#00b4ff" fill-rule="evenodd"/><path d="m155 3913.962 5 8.464h-10z" fill="#00b4ff" fill-rule="evenodd"/><path d="m165 3913.962 5 8.464h-10z" fill="#00b4ff" fill-rule="evenodd"/><path d="m175 3913.962 5 8.464h-10z" fill="#00b4ff" fill-rule="evenodd"/><path d="m185 3913.962 5 8.464h-10z" fill="#00b4ff" fill-rule="evenodd"/><path d="m195 3913.962 5 8.464h-10z" fill="#00b4ff" fill-rule="evenodd"/><path d="m100.001 4114.278-50.002 84.64-49.999 84.641v38.182l100.001 95.151 99.999-95.151v-38.182l-49.998-84.641z" fill="#ffd400" fill-rule="evenodd"/><path d="m0 4439.114h22.222v22.222h22.223v22.222h22.222v22.223h22.222v22.222h22.222v-22.222h22.223v-22.223h22.222v-22.222h22.222v-22.222h22.222v22.222 22.222h-22.222v22.223h-22.222v22.222h-22.222v22.222h-22.223v22.222h-22.222v-22.222h-22.222v-22.222h-22.222v-22.222h-22.223v-22.223h-22.222v-22.222z" fill="#00b4ff" fill-rule="evenodd"/><path d="m0 4483.558h22.222v22.222h22.223v22.223h22.222v22.222h22.222v22.222h22.222v-22.222h22.223v-22.222h22.222v-22.223h22.222v-22.222h22.222v22.222 22.223h-22.222v22.222h-22.222v22.222h-22.222v22.222h-22.223v22.222h-22.222v-22.222h-22.222v-22.222h-22.222v-22.222h-22.223v-22.222h-22.222v-22.223z" fill="#ffd400" fill-rule="evenodd"/><path d="m0 4528.002h22.222v22.223h22.223v22.222h22.222v22.222h22.222v22.222h22.222v-22.222h22.223v-22.222h22.222v-22.222h22.222v-22.223h22.222v22.223 22.222h-22.222v22.222h-22.222v22.222h-22.222v22.223h-22.223v22.222h-22.222v-22.222h-22.222v-22.223h-22.222v-22.222h-22.223v-22.222h-22.222v-22.222z" fill="#00b400" fill-rule="evenodd"/><path d="m0 4572.447h22.222v22.222h22.223v22.222h22.222v22.223h22.222v22.222h22.222v-22.222h22.223v-22.223h22.222v-22.222h22.222v-22.222h22.222v22.222 22.222h-22.222v22.223h-22.222v22.222h-22.222v22.222h-22.223v22.222h-22.222v-22.222h-22.222v-22.222h-22.222v-22.222h-22.223v-22.223h-22.222v-22.222z" fill="#fff" fill-rule="evenodd"/><path d="m0 4305.781h22.222v22.222h22.223v22.223h22.222v22.222h22.222v22.222h22.222v-22.222h22.223v-22.222h22.222v-22.223h22.222v-22.222h22.222v22.222 22.223h-22.222v22.222h-22.222v22.222h-22.222v22.222h-22.223v22.222h-22.222v-22.222h-22.222v-22.222h-22.222v-22.222h-22.223v-22.222h-22.222v-22.223z" fill="#ffd400" fill-rule="evenodd"/><path d="m0 4350.225h22.222v22.222h22.223v22.223h22.222v22.222h22.222v22.222h22.222v-22.222h22.223v-22.222h22.222v-22.223h22.222v-22.222h22.222v22.222 22.223h-22.222v22.222h-22.222v22.222h-22.222v22.222h-22.223v22.223h-22.222v-22.223h-22.222v-22.222h-22.222v-22.222h-22.223v-22.222h-22.222v-22.223z" fill="#00b400" fill-rule="evenodd"/><path d="m0 4394.67h22.222v22.222h22.223v22.222h22.222v22.222h22.222v22.223h22.222v-22.223h22.223v-22.222h22.222v-22.222h22.222v-22.222h22.222v22.222 22.222h-22.222v22.222h-22.222v22.223h-22.222v22.222h-22.223v22.222h-22.222v-22.222h-22.222v-22.222h-22.222v-22.223h-22.223v-22.222h-22.222v-22.222z" fill="#fff" fill-rule="evenodd"/><path d="m0 4616.891h22.222v22.222h22.223v22.222h22.222v22.223h22.222v22.222h22.222v-22.222h22.223v-22.223h22.222v-22.222h22.222v-22.222h22.222v22.222 22.222h-22.222v22.223h-22.222v22.222h-22.222v22.222h-22.223v22.222h-22.222v-22.222h-22.222v-22.222h-22.222v-22.222h-22.223v-22.223h-22.222v-22.222z" fill="#00b4ff" fill-rule="evenodd"/><path d="m0 4661.335h22.222v22.222h22.223v22.223h22.222v22.222h22.222v22.222h22.222v-22.222h22.223v-22.222h22.222v-22.223h22.222v-22.222h22.222v22.222 22.223h-22.222v22.222h-22.222v22.222h-22.222v22.222h-22.223v22.223h-22.222v-22.223h-22.222v-22.222h-22.222v-22.222h-22.223v-22.222h-22.222v-22.223z" fill="#ffd400" fill-rule="evenodd"/><path d="m0 4705.78h22.222v22.222h22.223v22.222h22.222v22.222h22.222v22.223h22.222v-22.223h22.223v-22.222h22.222v-22.222h22.222v-22.222h22.222v22.222 22.222h-22.222v22.222h-22.222v22.223h-22.222v22.222h-22.223v22.222h-22.222v-22.222h-22.222v-22.222h-22.222v-22.223h-22.223v-22.222h-22.222v-22.222z" fill="#00b400" fill-rule="evenodd"/><path d="m0 4750.224h22.222v22.222h22.223v22.222h22.222v22.222h22.222v22.223h22.222v-22.223h22.223v-22.222h22.222v-22.222h22.222v-22.222h22.222v22.222 22.222h-22.222v22.222h-22.222v22.223h-22.222v22.222h-22.223v22.222h-22.222v-22.222h-22.222v-22.222h-22.222v-22.223h-22.223v-22.222h-22.222v-22.222z" fill="#fff" fill-rule="evenodd"/><path d="m0 4794.668h22.222v22.222h22.223v22.223h22.222v22.222h22.222v22.222h22.222v-22.222h22.223v-22.222h22.222v-22.223h22.222v-22.222h22.222v22.222 22.223h-22.222v22.222h-22.222v22.222h-22.222v22.222h-22.223v22.222h-22.222v-22.222h-22.222v-22.222h-22.222v-22.222h-22.223v-22.222h-22.222v-22.223z" fill="#00b4ff" fill-rule="evenodd"/><path d="m51.668 5017.7905a2.6568 2.6568 0 1 1 -2.6573 2.6563 2.6573 2.6573 0 0 1 2.6573-2.6563zm-22.5837-2.6572h23.9123v-10.627h-23.9123zm0-14.3857h23.9123v-4.4376h-23.9123zm1.3287 17.0429a2.6568 2.6568 0 1 1 -2.6573 2.6563 2.6567 2.6567 0 0 1 2.6569-2.6563zm-11.02-3.9858h3.824v-9.2984h-3.824zm39.5908 0h3.8229v-9.2984h-3.823zm-29.8994-21.2539h23.9122a3.9962 3.9962 0 0 1 3.9849 3.9848c0 10.5943.06 21.7915.06 31.8819h-5.4v-2.6563h-21.0831v2.6563h-5.3991c0-10.12-.06-21.2656-.06-31.8819a3.9967 3.9967 0 0 1 3.985-3.9853z" fill="#00b400" fill-rule="evenodd"/><path d="m150.8706 5048a2.5756 2.5756 0 1 1 -.0008 0zm-21.893-2.5762h23.181v-10.3017h-23.181zm0-13.9458h23.181v-4.3017h-23.181zm1.288 16.522a2.5756 2.5756 0 1 1 -.0008 0zm-10.683-3.8638h3.707v-9.0141h-3.707zm38.38 0h3.706v-9.0141h-3.706zm-28.985-20.604h23.181a3.8739 3.8739 0 0 1 3.863 3.8628c0 10.27.058 21.125.058 30.9072h-5.235v-2.5751h-20.438v2.5751h-5.235c0-9.81-.057-20.6152-.057-30.9072a3.874 3.874 0 0 1 3.863-3.8633z" fill="#00b4ff" fill-rule="evenodd"/><path d="m142.5446 5020.0576 5.463-5.4638 2.732 2.7309-5.464 5.4639zm-9.679 0 5.463-5.4638 2.732 2.7309-5.464 5.4639z" fill="#00b4ff" fill-rule="evenodd"/><path d="m96.8972 5094.8008c0-8.3423-2.6583-15.33-10.6914-18.6748a97.6713 97.6713 0 0 0 2.7143 17.8486 4.0043 4.0043 0 0 1 -1.5356 4.2149c-10.7557 8.1513-14.8791 19.0708-16.9792 31.9951l-7.8919-1.2846c2.27-13.9683 6.956-26.187 18.0437-35.5024-1.104-4.98-3.1874-18.5957-2.3989-23.4165a4.0051 4.0051 0 0 1 4.6962-3.1646c14.7857 2.9053 22.0281 13.2354 22.03 27.9839zm-19.9239-6.8252c-3.5673 4.1069-9.32 6.6782-14.6052 7.6015l-1.3779-7.892c3.47-.606 7.5786-2.2247 9.9381-4.939zm3.7229-39.6172a6.4317 6.4317 0 1 1 -.0022-.0005h.0022zm22.2813 81.3306c-9.4193-4.105-15.6739-13.2129-18.7-22.7652l7.6409-2.4111c2.3138 7.3047 6.9954 14.686 14.2524 17.8486z" fill="#00b400"/><path d="m161.4026 4962.8755a2.6929 2.6929 0 1 1 -2.706 2.6929 2.6931 2.6931 0 0 1 2.706-2.6929zm5.3217 20.4678a6.6092 6.6092 0 0 1 1.44-7.8028 8.0815 8.0815 0 0 0 -3.2147-3.5947c-1.9753 3.49-5.4439 4.3706-9.1969 4.4888l-.0883-2.6465c3.5157-.1109 5.9019-.8184 7.3418-4.2617h.0014a1.4044 1.4044 0 0 1 1.82-.7647 10.9784 10.9784 0 0 1 6.1914 6.3042c.5188 1.33.1838 1.6485-.7337 2.3565a3.7869 3.7869 0 0 0 -.6311 5.3183c.0193.0244.0389.0489.0588.0728l.2142.2368a3.7489 3.7489 0 0 0 2.6793 1.123v2.8169a6.5289 6.5289 0 0 1 -3.905-1.2895c-.0065.0942-.01.188-.01.2827a3.8731 3.8731 0 1 0 3.2653-3.8486 3.95 3.95 0 0 0 -.6135.1518l-.8025-2.3955a6.43 6.43 0 1 1 -3.8326 3.49zm-8.2419-.1153a3.8964 3.8964 0 1 0 1.141 2.7554 3.8963 3.8963 0 0 0 -1.141-2.7554zm2.4731-.99a6.4239 6.4239 0 1 1 -2.3117-1.9873 7.9857 7.9857 0 0 1 1.9065-3.1582 4.5405 4.5405 0 0 1 5.0243-.85l-.9573 2.64a1.9431 1.9431 0 0 0 -2.1417.2554 6.6962 6.6962 0 0 0 -1.52 3.1006z" fill="#fff" fill-rule="evenodd"/><path d="m141.2715 5164.42a2.8223 2.8223 0 1 1 -2.8229 2.8213 2.8216 2.8216 0 0 1 2.8223-2.8213zm-23.52 24.5v11.25h-5.6455v-11.249l-5.6444.0015c.0716 3.542-1.5415 9.2592-4.7589 11.5678l-4.0751-3.7465a11.0712 11.0712 0 0 0 3.0961-7.9834v-14.9341a13.21 13.21 0 0 1 13.1707-13.17h.5056a13.5489 13.5489 0 0 0 -.412 3.7636 17.093 17.093 0 0 0 16.9346 16.9346v-3.7645a13.1714 13.1714 0 0 1 0-26.3427h7.5262a13.1717 13.1717 0 0 1 13.172 13.1714v13.1713c0 .564-.39 6.91 6.131 9.1993l-2.1406 4.9941a14.9293 14.9293 0 0 1 -9.6347-14.1934h-3.7638v11.29a10.2161 10.2161 0 0 0 3.5754 7.7046l-3.9611 3.9057a14.9883 14.9883 0 0 1 -5.2645-11.5737q-9.4115.0022-18.8108.0034zm12.9135 3.0947a13.1934 13.1934 0 0 1 -5.0014 8.4761l-3.9612-3.9057c1.8907-1.7813 3-3.0874 3.346-5.7642z" fill="#fff" fill-rule="evenodd"/><path d="m47.3924 5161.2891-9.9154 9.9155v2.2451h9.9154zm-28.6443-15.3819 14.3219 14.3218 14.3221-14.3223v12.1182l-14.3221 14.3223-14.3222-14.3223zm0 15.3824 9.9146 9.9155v2.2451h-9.9146z" fill="#13a438" fill-rule="evenodd"/><path d="m94.5757 5012.79h11.4085v-2.3056h-11.4085zm2.4449-21.8457h2.4444v13.8357h-2.4444zm4.0743 0h2.4444v13.8357h-2.4444zm7.3482.7847a5.308 5.308 0 0 0 -2.7183 2.1851 5.0615 5.0615 0 0 0 -.217 4.0337l.9611 3.8559c1.785 6.2066-14.1711 6.2344-12.3779 0l.9612-3.8559a5.0619 5.0619 0 0 0 -.2171-4.0337 5.308 5.308 0 0 0 -2.7183-2.1851l-.9548 2.2446a3.0749 3.0749 0 0 1 1.5433 1.1338 2.8446 2.8446 0 0 1 -.0019 2.1724l-.9612 3.7866c-2.9821 10.3677 20.0577 10.3677 17.0755 0l-.9612-3.7866a2.8441 2.8441 0 0 1 -.0025-2.1724 3.08 3.08 0 0 1 1.5439-1.1338z" fill="#fff"/><path d="m165.3765 5097.9189a6.1119 6.1119 0 1 1 -6.1118 6.1119 6.1118 6.1118 0 0 1 6.1118-6.1119zm-.0135 3.0489a3.0627 3.0627 0 1 1 -.0006 0zm-12.2149 1.9126a2.1487 2.1487 0 1 1 -2.1443 2.1533v-.0044a2.146 2.146 0 0 1 2.1435-2.1489zm18.6224 9.9487a8.4954 8.4954 0 0 1 0 12.0142l-2.1649-2.1656a5.4342 5.4342 0 0 0 0-7.6836zm-7.415-.6284h-10.2086a3.0722 3.0722 0 0 0 -3.063 3.063v7.1455a3.0723 3.0723 0 0 0 3.063 3.063h10.2086a3.0714 3.0714 0 0 0 3.0622-3.063v-7.1455a3.0716 3.0716 0 0 0 -3.0622-3.063zm-11.2074-12.25a5.0789 5.0789 0 1 1 -5.0694 5.0884v-.01a5.0733 5.0733 0 0 1 5.0689-5.0781z" fill="#fff" fill-rule="evenodd"/><path d="m171.5173 5246.7769a12.7 12.7 0 1 1 -19.5244 12.6469l4.3418-.7466a8.2955 8.2955 0 1 0 12.7133-8.2514zm-20.7225-17.771a4.2235 4.2235 0 1 1 -2.9494 5.2094 4.2234 4.2234 0 0 1 2.9494-5.2094zm12.5259 19.5405c1.006-3.8389-.5945-7.5142-4.9591-6.8237a20.1949 20.1949 0 0 1 2.3721 12.3964 2.2239 2.2239 0 0 1 -2.834 1.8521 8.2782 8.2782 0 0 0 -7.7325 1.2759c-2.611 2.1777-3.3872 5.9135-3.3221 9.167l-4.3989.0859c-.0938-4.6582 1.182-9.54 4.8905-12.6343a12.1013 12.1013 0 0 1 9.1443-2.6225 16.9957 16.9957 0 0 0 -3.178-9.4244 2.206 2.206 0 0 1 .4-3.0361c4.2972-3.0742 11.4318-1.4966 13.6 3.7222a11.0478 11.0478 0 0 1 .279 7.145z" fill="#fff"/><path d="m145.4838 5335.5781a2.5625 2.5625 0 1 1 -2.563-2.563 2.5625 2.5625 0 0 1 2.563 2.563zm11.532 0a2.563 2.563 0 1 1 -2.563-2.563 2.5636 2.5636 0 0 1 2.563 2.563zm-25.069-11.3569a23.79 23.79 0 0 1 5.902 13.92h-3.866a19.795 19.795 0 0 0 -4.979-11.457zm8.319-17.794a3.74 3.74 0 1 1 -3.7578-3.7221h.0178a3.732 3.732 0 0 1 3.74 3.7217zm-8.865 9.8111c-5.004 6.0591-3.358 14.9868-1.329 21.9028h-3.844c-2.73-9.7612-3.717-20.2622 5.243-27.2612a2.02 2.02 0 0 1 3.147 1.7192c.47 5.02 2.041 6.6782 7.096 7.6289a6.8693 6.8693 0 0 0 2.013 5.5381 7.0081 7.0081 0 1 0 1.164-10.86l-2.071-3.228a10.8535 10.8535 0 1 1 -1.811 16.8062 11.9214 11.9214 0 0 1 -3.117-5.4331 9.1115 9.1115 0 0 1 -6.491-6.8135z" fill="#fff"/><path d="m111.7543 5266.2734c-4.3975-1.5742-9.0055-3.9135-11.6335-7.935-2.6279 4.0215-7.2359 6.3608-11.6334 7.935l1.9514 5.1387c3.4232-1.2266 6.7925-2.4927 9.682-4.7251 2.89 2.2324 6.2573 3.4985 9.6821 4.7251zm-1.9695-12.5869c-3.5826-1.2134-7.6253-3.1318-9.664-6.4785-2.0386 3.3467-6.0813 5.2651-9.664 6.4785l1.9229 5.1387a30.9624 30.9624 0 0 0 7.7411-3.7222 30.9647 30.9647 0 0 0 7.7412 3.7222zm-6.6677 26.2842a41.3248 41.3248 0 0 0 8.6117 4.2065l1.974-5.1162c-5.11-1.8628-10.3481-4.57-13.582-9.0971-3.2338 4.5268-8.4718 7.2343-13.5819 9.0971l1.974 5.1162a44.9712 44.9712 0 0 0 8.7965-4.2924v9.2309h5.8077zm-29.0281 9.1455h-5.809v-6.4512c-10.1706-1.5893-13.5518-12.4321-8.4792-20.2661a11.6171 11.6171 0 1 1 22.9992-2.3237 11.7353 11.7353 0 0 1 -.2315 2.3242c5.0725 7.8345 1.6913 18.6768-8.4794 20.2661zm-9.6821 9.3511h42.5952v-5.4773h-42.5952z" fill="#fff" fill-rule="evenodd"/><path d="m68.251 5195.656h-8.314v8.402h-8.313v8.136h8.313v8.402h8.314v-8.402h8.313v-8.136h-8.313z" fill="#fff" fill-rule="evenodd"/><path d="m31.8777 5358.5571h29.0054v-11.1171h-29.0054zm0-15.8388h29.0054v-5.2456h-29.0054zm6.4455 19.0625a3.2229 3.2229 0 1 1 -3.2234 3.2221 3.2221 3.2221 0 0 1 3.2217-3.2226h.0017zm16.1144 0a3.2229 3.2229 0 1 1 -3.2233 3.2221 3.2234 3.2234 0 0 1 3.2233-3.2226zm-20.9482-40.2847h25.7821v4.56h-8.6l-5.79 5.79-3.4174-3.4175 2.3713-2.3725h-10.346zm-.5744 58.0674 6.8372-6.836 3.4173 3.4175-6.8359 6.8374zm12.1115 0 6.8372-6.836 3.4173 3.4175-6.8359 6.8374zm-24.9775-21.0064h4.6374v-11.2793h-4.6374zm48.0255 0h4.6373v-11.2793h-4.6373zm-36.1968-25.7822h29.0054a4.8475 4.8475 0 0 1 4.8339 4.834v20.9482l-1.6117 8.0586c-.5206 2.6065-2.1748 4.834-4.8338 4.834h-25.7834c-2.6578 0-4.312-2.2275-4.8326-4.834l-1.6116-8.0586v-20.9482a4.8478 4.8478 0 0 1 4.8338-4.834z" fill="#ee7d00" fill-rule="evenodd"/><path d="m33.07 5263.4 7.27-7.2739a10.22 10.22 0 1 0 -14.4969.0449zm0 5.4609-9.959-9.9589a14.0837 14.0837 0 1 1 19.978-.06zm1.886-16.6821a3.8455 3.8455 0 1 0 -5.253-1.456 3.8455 3.8455 0 0 0 5.253 1.456z" fill="#fff"/><path d="m167.4515 5379.8276 12.878 11.1392v3.8628l-12.878-5.9819zm-5.141-18.1049a2.5727 2.5727 0 0 1 2.565 2.5639v25.86c0 3.3921-5.13 3.3931-5.13 0v-2.6172l-15.475 7.3v-3.8628l15.475-13.604v-13.0762a2.5719 2.5719 0 0 1 2.565-2.5637zm7.716 39.9419.001 2.5761-7.727-3.539-7.728 3.539.001-2.5761 7.402-6.9639.562.021z" fill="#009ee2" fill-rule="evenodd"/><path d="m95.3107 5392.6934a11.3376 11.3376 0 0 0 -11.3129 1.81l3.43 4.0093a6.0243 6.0243 0 0 1 5.7962-.9639zm-13.5148 38.8134a2.5193 2.5193 0 1 0 .002 0zm12.9384 9.17a2.8 2.8 0 1 0 .0038 0zm1.6966-1.4664a8.8205 8.8205 0 0 0 8.78.8189l-2.2087-4.8062a3.5285 3.5285 0 0 1 -3.5122-.3286l-11.5088-8.1567a3.5264 3.5264 0 0 1 -1.4733-3.2041l-5.2663-.4917a8.8154 8.8154 0 0 0 3.6806 8.0117zm13.66-3.39c3.1179-7.4175.7572-14.6225-4.8993-19.7754 2.7715-4.0053 3.2233-10.7461 2.5852-14.4555a9.908 9.908 0 0 1 10.9735 4.0244l4.4227-2.8931a15.2238 15.2238 0 0 0 -17.1995-6.0986l-.2328.1025a5.12 5.12 0 1 0 -5.4 5.3921c.011.0713.0219.1426.0357.2148.68 3.5889.119 7.5132-1.2612 9.358a8.7325 8.7325 0 0 0 -7.746.0122c-4.5173 2.58-3.7532 7.8676-2.1388 11.9824l4.9171-1.9224c-.4546-1.1611-1.702-4.6-.1739-5.4731 1.6842-.9624 4.9143 1.146 6.148 2.1992 5.8606 4.3682 7.1436 9.5249 4.9062 15.8247z" fill="#fff"/><g clip-path="url(#a)" fill="#ffd400"><g fill-rule="evenodd"><path d="m215.2479 2995.9548h-41.9486c22.6919 14.2366 45.3526 28.4679 67.1219 42.6993q.6-13.2983.5213-26.5861-12.777-8.054-25.6946-16.1132z"/><path d="m133.4515 2995.9548h-40.89c49.2311 31.3194 100.1147 62.6493 142.7254 93.9269q2.0538-12.9959 3.3258-25.9917c-32.9927-22.6294-69.2749-45.28-105.1608-67.9351z"/><path d="m134.3794 3090.2414c-57.9576 37.5019-110.5145 75.0091-135.3542 112.5111q-4.2538-9.128-8.0071-18.2454c25.3141-31.4236 68.2479-62.8264 115.8526-94.2709h-21.54c-39.754 26.586-75.6764 53.1356-99.9375 79.69q-3.3675-9.0912-6.2555-18.1775c21.248-20.4921 48.6629-41 78.7155-61.5128h19.9918c-38.43-24.9231-79.6539-49.8462-118.97-74.7693q0-9.7482.3493-19.5121h10.4257c48.4074 31.4289 100.7976 62.8577 147.8392 94.2814z"/><path d="m232.8259 3103.988c-67.6484 40.5411-131.8876 81.0822-164.7291 121.6286h18.1045c31.6218-34.4837 85.0232-68.9726 142.7149-103.4562q2.1634-9.0861 3.91-18.1723z"/><path d="m39.5454 3090.2571h-2.95c-22.8067 15.92-43.8618 31.8459-61.5806 47.7662q-2.5386-9.1227-4.66-18.2453c11.9115-9.8421 24.9335-19.6789 38.7217-29.5209h-8.2685c-12.9959-7.9707-26.1638-15.9464-39.3369-23.9223q-1.324-12.7821-1.9549-25.5434c26.732 16.4833 53.8759 32.9615 80.0292 49.4657z"/><path d="m219.7467 3154.83q2.9556-9.0863 5.4579-18.1724c-49.523 29.6513-94.8183 59.3078-124.5582 88.959h18.1046c26.2367-23.5939 61.8099-47.1929 100.9957-70.7866z"/><path d="m197.4092 3090.2363h-13.4755c-72.1 45.1284-139.5559 90.2517-163.1966 135.38h-18.4571a48.7411 48.7411 0 0 1 4.0744-7.9654c22.6763-42.4439 83.6678-84.94 150.1955-127.4149h-.6621c-45.6654-31.4237-97.6385-62.8525-146.3639-94.2814h43.1947c49.0642 31.4289 100.5786 62.8577 144.7114 94.2814z"/><path d="m214.7735 3169.2593c-30.9441 18.7666-59.1357 37.57-81.6452 56.3572h18.1723c16.6241-12.73 35.7139-25.4548 56.3311-38.1848q3.8003-9.0862 7.1418-18.1724z"/><path d="m35.031 3225.6165h18.1724c32.5444-45.1285 105.3589-90.2518 180.1751-135.38h-27.3992c-73.4036 45.1285-143.33 90.2518-170.9483 135.38z"/><path d="m201.0582 3202.2729c-12.4224 7.7778-24.1829 15.5607-35.0675 23.3436h18.1724c2.603-1.7376 13.1609-8.6327 15.8369-10.3425z"/><path d="m31.5175 2781.7965c-14.9664 54.2146-31.57 108.3824-44.3883 162.571 5.849 17.2027 12.5632 34.4054 19.9031 51.6082 8.1478-17.2028 16.6814-34.4055 25.21-51.6082a1086.9874 1086.9874 0 0 1 -.7248-162.571z"/><path d="m65.72 2781.7965c-10.306 54.2146-22.7493 108.3824-33.4775 162.571 6.5214 17.2027 13.6944 34.4054 21.2323 51.6082 7.9442-17.2028 16.0352-34.4057 23.8852-51.6082a1610.639 1610.639 0 0 1 -11.64-162.571z"/><path d="m99.927 2781.7965c-5.6456 54.2146-13.9394 108.3824-22.5668 162.571 7.1834 17.2027 14.8152 34.4054 22.5564 51.6082 7.7464-17.2028 15.3782-34.4055 22.5616-51.6082-8.6274-54.2147-16.9108-108.4294-22.5512-162.571z"/><path d="m134.1292 2781.7965a1599.6 1599.6 0 0 1 -11.651 162.571c7.8507 17.2027 15.9412 34.4054 23.8858 51.6082 7.5379-17.2028 14.7109-34.4055 21.2323-51.6082-10.723-54.2147-23.1663-108.4294-33.4671-162.571z"/><path d="m168.3366 2781.7965a1091.8518 1091.8518 0 0 1 -.74 162.571c8.5127 17.2027 17.062 34.4054 25.21 51.6082 7.34-17.2028 14.075-34.4055 19.9031-51.6082-12.8187-54.2147-29.4115-108.4294-44.3727-162.571z"/></g><path d="m53.9957 2676.4011h-37.5332q1.418-4.8949 2.8254-9.8108h4.405q3.3936-12.61 6.6308-25.2307h-4.04q1.3293-4.9 2.6065-9.8h31.9398q-1.0844 7.47-2.2155 14.9455h-8.44q.4692-2.5752.9332-5.1452h-10.2017q-.8081 3.7221-1.6316 7.4493h9.7956q-.9071 4.9-1.83 9.8h-10.16q-.8966 3.988-1.7932 7.9811h11.1762l.9853-5.1348h8.9193q-1.1781 7.4754-2.3667 14.9455zm24.1568 0h-20.7162q.7194-4.8949 1.4283-9.8h4.89q1.6056-12.61 3.1277-25.2307h-4.457q.6724-4.9 1.3345-9.8h18.0314q-.3285 4.8949-.6725 9.8h-3.6074l-.6412 7.7152h3.941c5.0618 0 8.2208-2.8411 8.3929-7.7152h-3.18q.25-4.9.5213-9.8h16.9947q.0626 4.8949.13 9.8h-4.4572a18.1774 18.1774 0 0 1 -8.1113 14.9456c.8758 6.9592 4.4206 10.2851 12.313 9.8q4.2693-12.3807 7.7881-24.7459h-2.7785l-.3023-9.8h20.0646q7.1574 17.5155 15.9151 35.031h4.2069q.8341 4.9 1.6838 9.8h-21.2063q-.4951-4.8949-.97-9.8h3.2425c-.4275-1.1208-.855-2.2467-1.2772-3.3675h-13.3343c-.24 1.1208-.48 2.2467-.7246 3.3675h3.722l.6777 9.8h-8.3407c-14.45 0-16.353 0-21.55-2.3041-4.9523-2.3042-8.3876-7.9811-9.66-15.2114h-4.52q-.3283 3.8523-.662 7.7151h3.4822zm40.63-22.937h6.881q-2.2832-5.4111-4.41-10.8169-1.173 5.4162-2.471 10.8273zm-44.5447 75.6816h-24.647l1.5222-9.9046h5.6717q1.6993-12.6623 3.3779-25.3193h-5.2126q.7089-4.77 1.4179-9.5345h26.315c11.4163 0 17.2027 6.5162 17.2861 14.8517a15.0792 15.0792 0 0 1 -8.544 13.3035c.6881 4.8793 5.2129 6.6986 10.8325 6.6986h9.0125l-.8758-25.3193h-7.0375q-.0573-4.77-.1042-9.5345h25.8666q.4692 4.7647.9488 9.5345h-7.0375q.9488 12.6622 1.9184 25.3193h7.6317l1.0009 9.9359h-31.9289c-14.5024 0-21.1229-5.0566-23.672-14.5963h-6.7247l-.4222 4.6552h4.17l-.7663 9.9046zm-2.0854-24.2557h6.1982c4.17 0 7.6422-1.4179 7.8194-5.4579.1773-4.2538-3.06-5.4528-7.0531-5.4528h-5.9949q-.4848 5.4528-.9748 10.8951zm-24.2767 9.3833h-10.6657q-.5213 2.57-1.0426 5.1452h-13.2826q.9332-3.9879 1.9028-7.9967h12.1461l1.9549-9.8h-11.7813q.8811-3.7272 1.762-7.4493h12.313c-.3336 1.715-.6673 3.4249-1.0061 5.14h10.1338q1.2145-7.465 2.4136-14.94h-38.5757q-1.423 4.8948-2.8671 9.8h4.8429q-3.5136 12.61-7.074 25.2307h-5.2547l-2.914 9.816h44.539q1.23-7.4754 2.45-14.9455zm88.74-82.7034q1.0113 7.3346 2.0486 14.69h8.0019l-.8288-4.8793h4.4626q2.3406 12.6153 4.796 25.2306h-4.2069q.8809 4.9 1.7724 9.8h21.175q-1.2511-4.8951-2.4866-9.8h-4.4049q-2.9766-12.61-5.8229-25.2306h4.4571c.3962 1.6264.7871 3.2528 1.1833 4.8793h8.2313q-2.0123-7.345-3.9514-14.68zm28.6712 62.3521h5.411q1.9132 8.1165 3.8211 16.1862-12.48-12.84-23.3749-25.679h-18.49q.5212 4.77 1.0426 9.5344h5.2129q1.6422 12.6363 3.3 25.2776h-5.63q.563 4.968 1.1312 9.9359h25.8142q-.954-4.9731-1.9184-9.9359h-5.6195q-1.3554-7.7829-2.7-15.5658 11.2391 12.756 23.98 25.5017h15.9256q-4.9419-17.6094-9.8421-35.2135h4.8377q-1.3918-4.77-2.7785-9.5344h-22.1298q1.0425 4.7437 2.0487 9.4928zm-124.8869 74.498c-1.0061 6.6986-8.2782 13.3765-20.5234 13.3765h-34.5566q1.4024-4.8585 2.815-9.7118h5.8229q3.5031-12.7038 7.0844-25.3505h-5.4423q1.4805-4.968 2.9609-9.9046h26.9825c10.353 0 14.4347 5.87 13.3921 12.1513-.49 2.8359-2.1738 5.677-5.5883 8.2886 5.9115 2.4606 7.7517 6.72 7.0584 11.1505zm-25.8041-13.9655h4.1286c3.3884 0 5.4632-1.8193 5.8906-3.8627s-.8392-3.8576-4.17-3.8576h-4.0351q-.9327 3.8628-1.8137 7.7203zm10.1241 13.3455c.4379-2.2155-1.3449-4.4362-4.8063-4.4362h-7.4443q-1.001 4.3529-2.0435 8.6952h7.2981c3.8628 0 6.5736-2.2207 6.975-4.259zm155.5961-12.068h25.851q2.4606 8.3825 4.89 16.7649c-2.0852 5.6769-9.8264 10.0662-23.083 10.0662-7.8194 0-14.346-1.6421-18.0785-3.649-11.3381 5.9427-34.0822 4.6916-42.6262-11.75h-7.1731c.0887 1.6265.1721 3.2529.2607 4.8794h4.994l.6412 9.7117h-28.5465l.0625-9.7117h6.9333q-.146-12.6624-.3024-25.3246h-9.3155q-.1251 8.4086-.245 16.8066c-.0574 12.5528-11.6353 19.4287-26.5861 19.4235-13.1 0-25.5434-6.0731-23.4583-19.4235q1.2617-8.398 2.5231-16.8065h-4.9523l1.6421-9.9046h25.7l-.8914 9.9046h-5.64q-.9227 8.716-1.83 17.432c-.5526 5.0514 3.9879 7.8925 8.5492 7.8925s9.0392-2.6065 9.3207-7.8925q.49-8.7212.9905-17.4321h-6.7771q.3753-4.9678.7611-9.9046h54.1469c13.4911 0 21.2792 6.5162 22.5355 14.8569.6986 4.8741-1.715 10.2852-8.1374 13.3035 3.5709 6.74 12.5737 8.07 16.2644 4.8324a22.3792 22.3792 0 0 1 -4.3163-10.5093c-1.6473-12.0211 5.1348-23.2811 22.4157-23.2811 10.0714 0 16.7909 2.5283 22.7389 6.12q1.517 5.2546 3.0183 10.5093h-13.4961c-.4067-1.5639-.8185-3.1277-1.2251-4.6916a17.9947 17.9947 0 0 0 -7.7934-1.5952c-7.7672 0-11.5414 4.7907-10.0609 12.7248 1.35 7.2981 7.7 12.73 15.8734 12.9073 4.3267 0 7.4337-.7559 10.1079-3.0183-.318-1.2564-.6412-2.5127-.9592-3.769h-12.6364q-1.0425-4.749-2.0852-9.4719zm-45.2327-3.5031c-.4275-4.2537-4.4258-5.4527-9.1279-5.4527h-6.9072l.5943 10.9472h7.1c4.8637-.0313 8.7317-1.47 8.3408-5.4893z"/><path d="m63.3217 2505.9637c2.4814 5.9636 5.0357 11.9272 7.72 17.8908h-19.2875q6.1409-8.961 11.5675-17.8908zm-14.419 35.7869h20.4295c-2.7681-5.9636-5.3745-11.9324-7.908-17.8961q-5.9011 8.9555-12.5215 17.8961zm-3.2894 17.8908h21.7015q-4.3737-8.9452-8.2156-17.8908-6.3285 8.9454-13.4859 17.8908zm25.4288-35.7869h19.2618c-3.0339-5.9636-5.9063-11.9272-8.6691-17.8908-3.3415 5.9636-6.8548 11.9272-10.5927 17.8908zm-1.71 17.8961h20.3984c-3.1955-5.9636-6.193-11.9324-9.0549-17.8961q-5.3381 8.9507-11.3434 17.8961zm-1.9705 17.8908h21.7173c-3.3832-5.9636-6.5423-11.9272-9.5293-17.8908q-5.7342 8.9454-12.1931 17.8908zm22.937-35.7869h19.2879c-3.3832-5.9636-6.5735-11.9272-9.6231-17.8908q-4.5978 8.93-9.66 17.8908zm-.5682 17.8961h20.4036q-5.4059-8.9454-10.207-17.8961-4.8063 8.9507-10.2069 17.8961zm-.6621 17.8908h21.7224q-5.7707-8.9452-10.8638-17.8908-5.0982 8.9454-10.869 17.8908zm20.4974-35.7869h19.2618q-5.583-8.961-10.5666-17.8908-4.17 8.9454-8.69 17.8908zm.5682 17.8961h20.4087q-6.021-8.9454-11.3278-17.8961c-2.8619 5.9689-5.87 11.9325-9.07 17.8961zm.6568 17.8908h21.7224q-6.4746-8.9452-12.1619-17.8908c-2.9922 5.9845-6.1617 11.9272-9.5553 17.8908zm18.0368-35.7869h19.2879q-6.1148-8.961-11.5363-17.8908-3.7063 8.93-7.7255 17.8908zm1.715 17.8961h20.4035q-6.6308-8.9454-12.4746-17.8961-3.7584 8.9507-7.9236 17.8961zm1.9705 17.8908h21.7224q-7.1625-8.9452-13.46-17.8908c-2.5648 5.9845-5.3068 11.9272-8.2365 17.8908z" fill-rule="evenodd"/><path d="m66.4182 2452.3016c2.69 5.9636 5.3172 11.9272 7.95 17.8908h-17.0258q4.7648-8.9454 9.0758-17.8908zm-10.4259 35.7817h17.5777c-2.6064-5.9636-5.1608-11.9272-7.7255-17.8909-3.1278 5.9637-6.3755 11.9273-9.8369 17.8909zm-1.861 17.8908h18.3287q-3.91-8.9454-7.6578-17.8908c-3.3676 5.9584-6.902 11.9272-10.6657 17.8908zm20.2523-35.7817h17.0464c-2.7681-5.9636-5.4944-11.9272-8.2312-17.8908-2.8411 5.9636-5.76 11.9272-8.81 17.8908zm-.7924 17.8909h17.5676c-2.82-5.9636-5.5465-11.9272-8.2521-17.8909q-4.4622 8.9456-9.31 17.8909zm-1.1212 17.8908h18.3239c-2.8984-5.9636-5.6821-11.9324-8.4085-17.8908q-4.6916 8.9454-9.9046 17.8908zm18.9439-35.7817h17.0463q-4.3632-8.9454-8.5336-17.8908c-2.7837 5.9636-5.5831 11.9272-8.5232 17.8908zm-.2607 17.8909h17.5677c-3.06-5.9636-5.9584-11.9272-8.7943-17.8909-2.8358 5.9637-5.7342 11.9273-8.7838 17.8909zm-.36 17.8908h18.3138c-3.2164-5.9636-6.2451-11.9324-9.18-17.8908q-4.3788 8.94-9.1539 17.8908zm17.6771-35.7817h17.0464c-3.0392-5.9636-5.9532-11.9272-8.7943-17.8908-2.7368 5.9636-5.4631 11.9272-8.2416 17.8908zm.2607 17.8909h17.5728c-3.2476-5.9636-6.3285-11.9272-9.3-17.8909-2.7 5.9637-5.4266 11.9273-8.2625 17.8909zm.3753 17.8908h18.2923q-5.2129-8.9454-9.9046-17.8908-4.04 8.94-8.3981 17.8908zm16.4312-35.7817h17.0464c-3.1747-5.9636-6.1826-11.9272-9.081-17.8908-2.6794 5.9636-5.312 11.9272-7.9549 17.8908zm.782 17.8909h17.578c-3.4561-5.9636-6.709-11.9272-9.8368-17.8909-2.5752 5.9637-5.14 11.9273-7.7516 17.8909zm1.1208 17.8908h18.3131q-5.6352-8.9454-10.65-17.8908c-2.5179 5.9584-5.0566 11.9272-7.6839 17.8908zm20.6954 17.88h19.2618q-6.6621-8.961-12.5058-17.8908c-2.2051 5.9636-4.4467 11.9272-6.7769 17.8908zm2.8515 17.8961h20.4087q-7.246-8.9454-13.6163-17.8961c-2.1581 5.9689-4.4 11.9325-6.7768 17.8961zm3.2893 17.8908h21.7235q-7.8663-8.9452-14.7944-17.8908c-2.2051 5.9845-4.457 11.9272-6.9384 17.8908zm-11.6765-89.4485h17.0464q-4.9627-8.9456-9.3833-17.8909-3.91 8.9454-7.6683 17.8909zm1.3033 17.8908h17.5367q-5.51-8.9454-10.3425-17.8908c-2.44 5.9636-4.8272 11.9272-7.23 17.8908zm1.8662 17.8908h18.2766q-6.0679-8.9454-11.3851-17.8908c-2.2989 5.9584-4.5613 11.9272-6.9332 17.8908zm-113.2513 17.88h19.2881c-2.33-5.9636-4.5666-11.9272-6.7768-17.8908q-5.8386 8.9302-12.5111 17.8912zm-4.0082 17.8965h20.4187c-2.3719-5.9636-4.6134-11.9324-6.7768-17.8961q-6.391 8.9555-13.6419 17.8961zm-4.603 17.8908h21.7324c-2.4553-5.9636-4.7386-11.9063-6.9072-17.8908q-6.9384 8.9454-14.82 17.8908zm16.3739-89.4489h17.0668c-2.497-5.9637-5.0305-11.9273-7.6631-17.8909-2.9818 5.9636-6.0887 11.9272-9.4094 17.8909zm-1.8246 17.8908h17.5673c-2.398-5.9636-4.7751-11.9272-7.2095-17.8908q-4.8743 8.9454-10.3634 17.8908zm-2.6063 17.8908h18.313q-3.5239-8.9454-6.9175-17.8908c-3.5709 5.9584-7.3555 11.9272-11.406 17.8908z" fill-rule="evenodd"/><path d="m20.513 2571.0891c6.6725-1.6577 12.85.026 16.8534 5.0461l1.0113 1.272c8.862 11.15 27.9988 11.15 40.3587 0l1.3971-1.272c8.325-7.5483 19.21-7.5483 27.1959 0 .4483.4222.8914.85 1.3449 1.272 11.8282 11.15 30.965 11.15 40.3535 0 .36-.4223.7142-.85 1.0686-1.272 6.36-7.5483 17.2758-7.5483 27.2116 0l1.6734 1.272c.9487.7037 1.9236 1.3866 2.9088 2.0069q-2.1268-6.9592-4.1026-13.9186c-13.293-8.57-26.7737-7.7568-35.448 2.497l-1.0426 1.2772c-6.365 7.5431-18.5477 7.5431-26.5131 0l-1.3345-1.2772c-11.6874-11.15-26.8-11.15-38.972 0l-1.4284 1.2775c-8.2781 7.5431-20.4608 7.5431-26.513 0-.3389-.4274-.6777-.85-1.0113-1.2772-5.458-6.8081-13.293-9.4667-21.8683-7.95l-3.1278 11.0462z" fill-rule="evenodd"/><path d="m146.0929 2590.8931-1.1729 1.2719c-6.902 7.5431-20.195 7.5431-28.88 0l-1.4544-1.2719c-12.7508-11.1506-29.1508-11.1506-42.4438 0l-1.517 1.2719c-9.0392 7.5431-22.327 7.5431-28.88 0l-1.0843-1.2719c-5.8958-6.8082-14.3825-9.472-23.7293-7.95q-1.72 5.5206-3.524 11.041c7.2981-1.6525 13.9916 0 18.3339 5.0462l1.0948 1.2771c9.6231 11.15 30.5061 11.15 43.9868 0l1.5274-1.2771c9.0653-7.5432 20.93-7.5432 29.6356 0l1.4649 1.2771c12.8968 11.15 33.78 11.15 43.9868 0 .3858-.4274.7768-.85 1.1573-1.2771 6.9176-7.5432 18.7666-7.5432 29.6408 0 .6047.4274 1.2146.85 1.83 1.2771 1.0426.7038 2.0852 1.3815 3.18 2.007q-2.3511-6.9593-4.5718-13.9186c-14.56-8.5753-29.1925-7.7568-38.5758 2.497z" fill-rule="evenodd"/><path d="m150.2633 2613.7935-1.2616 1.272c-7.5327 7.5431-22.0195 7.5431-31.4914 0l-1.5639-1.272c-13.9081-11.1557-31.799-11.1505-46.2806 0l-1.6525 1.272c-9.8524 7.5431-24.3392 7.5431-31.4862 0l-1.199-1.272c-6.4327-6.8133-15.6388-9.4719-25.8614-7.95q-1.8819 5.52-3.8472 11.041c7.9342-1.6577 15.2479.0261 19.9917 5.0461l1.199 1.272c10.5249 11.1557 33.269 11.15 47.9591 0l1.6629-1.272c9.9046-7.5431 22.8171-7.5431 32.32 0 .5213.4223 1.0426.85 1.5952 1.272 14.075 11.1557 36.7982 11.15 47.9591 0l1.272-1.272c7.5431-7.5431 20.4817-7.5431 32.32 0l1.9913 1.272c1.1312.709 2.2833 1.3866 3.4614 2.0122q-2.5386-6.9592-4.9679-13.9186c-15.9516-8.5753-31.8824-7.7829-42.1206 2.497z" fill-rule="evenodd"/><path d="m16.65 2297.0339c3.0339-5.6091 12.2608-5.6091 19.9708 0l1.2719.9331c11.2027 8.3408 22.3844 8.3408 29.3281 0l.7819-.9331c4.6917-5.6091 13.8977-5.6091 19.9708 0l1.0113.9331c8.862 8.3408 20.06 8.3408 29.3281 0l1.0426-.9331c6.3129-5.6091 15.54-5.6091 19.9708 0 .25.3128.5213.6256.7454.9331 6.5475 8.3408 17.7241 8.3408 29.3281 0l1.3136-.9331c7.95-5.6091 17.1767-5.6091 19.9761 0l.4691.9331a8.4931 8.4931 0 0 0 1.272 2.007q2.3614-4.6031 4.9158-9.2165l.6725-1.1989c-4.7647-6.9437-18.4278-6.48-29.7138 1.3345l-1.34.9331c-7.9966 5.6091-16.1341 5.6091-20.57 0-.271-.2867-.5213-.5787-.8184-.8654-6.4224-8.3407-21.0759-8.3407-30.5114 0l-1.0426.9331c-6.3337 5.6092-14.4659 5.6092-20.56 0-.3388-.3127-.6776-.6255-1.0425-.9331-9.0028-8.3407-23.6564-8.3407-30.5114 0-.2607.3076-.5213.62-.7768.9331-4.6916 5.6092-12.8082 5.6092-20.56 0-.4327-.3127-.8654-.6255-1.3033-.9331-11.5831-8.3407-26.2367-8.3407-30.5114 0-.1668.3076-.3284.62-.5212.9331a6.8707 6.8707 0 0 1 -3.279 3.206q2.2416 4.2069 4.3424 8.4137a11.26 11.26 0 0 0 6.72-5.6091z" fill-rule="evenodd"/><path d="m24.4122 2314.9925c2.888-5.6039 11.2183-5.6039 18.11 0l1.1417.9384c9.9984 8.3407 20.221 8.3407 26.586 0l.7142-.9384c4.29-5.6039 12.6205-5.6039 18.11 0l.9122.9384c8.0228 8.3407 18.2453 8.3407 26.5861 0l.9435-.9384c5.6925-5.6039 14.0228-5.6039 18.11 0l.6829.9384c6.0418 8.3407 16.2644 8.3407 26.586 0l1.1729-.9384c7.0949-5.6039 15.4252-5.6039 18.11 0l.4535.9384a8.7883 8.7883 0 0 0 1.2095 2.0017q2.2572-5.1764 4.7489-10.3477c-4.4779-6.9436-16.77-6.48-26.8623 1.3345l-1.199.9332c-7.1313 5.6091-14.5232 5.6091-18.61 0l-.6829-.9332c-5.9062-8.3407-19.1054-8.3407-27.6286 0l-.9383.9332c-5.7343 5.6091-13.1054 5.6091-18.61 0l-.907-.9332c-8.1322-8.3407-21.3262-8.3407-27.6287 0-.2345.3128-.4743.62-.7141.9332-4.29 5.6091-11.6875 5.6091-18.61 0l-1.1624-.9332c-10.3582-8.3407-23.5522-8.3407-27.6287 0l-.4744.9332a6.7768 6.7768 0 0 1 -3.0547 3.2059q1.9079 4.2069 3.6855 8.4346a10.791 10.791 0 0 0 6.2555-5.63z" fill-rule="evenodd"/><path d="m31.0014 2333.0241c2.8046-5.6091 10.3686-5.6091 16.53 0 .3388.3076.6829.62 1.0426.9331 8.935 8.3408 18.37 8.3408 24.2975 0l.6621-.9331c3.9827-5.6091 11.5466-5.6091 16.5354 0l.8289.9331c7.2981 8.3408 16.7179 8.3408 24.2923 0 .2867-.3127.5682-.6255.855-.9331 5.1608-5.6091 12.7195-5.6091 16.5354 0 .2138.3076.4223.62.636.9331 5.64 8.3408 15.0759 8.3408 24.2923 0l1.0426-.9331c6.3338-5.6091 13.8978-5.6091 16.53 0 .1512.3076.3023.62.4483.9331a9.506 9.506 0 0 0 1.1729 2.0018q1.8819-5.1765 3.9827-10.3477c-4.2955-6.9436-15.4042-6.4745-24.4122 1.3345l-1.0895.9331c-6.37 5.6039-13.1471 5.6039-16.9682 0l-.6-.9331c-5.51-8.3407-17.4321-8.3407-25.142 0l-.8445.9331c-5.1765 5.6092-11.9533 5.6092-16.9525 0-.2815-.3075-.5578-.62-.8393-.9331-7.3868-8.3407-19.2879-8.3407-25.1421 0l-.662.9331c-3.9827 5.6092-10.7595 5.6092-16.9525 0l-1.0426-.9331c-9.2582-8.3407-21.1854-8.3407-25.1421 0-.1511.3128-.3075.6256-.4587.9331a6.87 6.87 0 0 1 -2.888 3.206q1.6108 4.2069 3.0809 8.4137a10.6349 10.6349 0 0 0 5.9115-5.6091z" fill-rule="evenodd"/><path d="m181.9319 2256.7743c-9.9567 5.6092-19.8978 5.6092-25.2567 0l-.8914-.9331c-7.7673-8.3407-25.8667-8.3407-37.4864 0l-1.3084.9331a21.0485 21.0485 0 0 1 -25.2515 0l-1.2564-.9331c-11.0931-8.3407-29.1925-8.3407-37.4915 0l-.9383.9331c-5.6561 5.6092-15.5972 5.6092-25.262 0l-1.616-.9331c-14.419-8.3407-32.5184-8.3407-37.4915 0-.1929.3128-.3858.62-.5734.9331a7.8508 7.8508 0 0 1 -3.7325 3.1278q2.9088 4.2173 5.6769 8.4189a12.6785 12.6785 0 0 0 7.8194-5.5414c.1929-.3127.391-.6255.5891-.9331 3.5135-5.6091 14.883-5.6091 24.5009 0 .5212.3076 1.0425.62 1.5951.9331 13.9916 8.3408 27.5869 8.3408 35.9694 0 .3127-.3127.6255-.6255.9435-.9331 5.6456-5.6091 17.0151-5.6091 24.5009 0 .417.3076.8288.62 1.2407.9331 10.9471 8.3408 24.5425 8.3408 35.9693 0l1.2928-.9331c7.7725-5.6091 19.142-5.6091 24.5009 0l.8914.9331c7.8924 8.3408 21.4877 8.3408 35.9693 0l1.6265-.9331c9.9046-5.6091 21.2792-5.6091 24.5008 0l.5213.9331a15.6257 15.6257 0 0 0 1.371 1.934q3.4823-5.2546 7.1991-10.4676c-5.7342-6.74-22.546-6.2086-36.4125 1.5639z" fill-rule="evenodd"/><path d="m8.1009 2279.9407c3.2321-5.6092 13.4338-5.6092 22.02 0l1.4232.9383c12.48 8.3407 24.7458 8.3407 32.32 0l.85-.9383c5.1086-5.6092 15.31-5.6092 22.0247 0l1.11.9383c9.8108 8.3407 22.0769 8.3407 32.32 0l1.1573-.9383c6.9853-5.6092 17.2027-5.6092 22.0247 0l.808.9383c7.1365 8.3407 19.4026 8.3407 32.32 0l1.47-.9383c8.862-5.6092 19.0586-5.6092 22.02 0 .172.3127.3441.6255.5213.9383a9.9809 9.9809 0 0 0 1.3189 1.934q3.0287-5.213 6.292-10.4832c-5.2129-6.74-20.2419-6.2556-32.6852 1.5638l-1.4961.9332c-8.9037 5.6091-17.8543 5.6091-22.692 0-.2658-.3128-.5212-.62-.808-.9332-7.0062-8.3407-23.2341-8.3407-33.6808 0-.3962.3128-.7872.62-1.1729.9332-7.0114 5.6091-15.9621 5.6091-22.6972 0-.37-.3128-.7455-.62-1.126-.9332-9.9411-8.3407-26.1742-8.3407-33.6809 0-.2867.3128-.5734.62-.8549.9332-5.1191 5.6091-14.075 5.6091-22.692 0l-1.4492-.9332c-12.8759-8.3407-29.1091-8.3407-33.6808 0-.1825.3128-.36.62-.5213.9332a7.1423 7.1423 0 0 1 -3.5657 3.18q2.5649 4.2068 4.9784 8.4137a11.9377 11.9377 0 0 0 7.2981-5.6092c.1721-.2919.3389-.5786.5213-.87z" fill-rule="evenodd"/><path d="m191.3465 2238.68c-11.13 5.6091-22.2019 5.6091-28.15 0l-1.0061-.9331c-8.6379-8.3408-28.8328-8.3408-41.7974 0l-1.4544.9331a25.6475 25.6475 0 0 1 -28.15 0l-1.4023-.9331c-12.37-8.3408-32.5653-8.3408-41.7974 0l-1.0426.9331c-6.2868 5.6091-17.3591 5.6091-28.15 0l-1.835-.9331c-16.1028-8.3408-36.2977-8.3408-41.8026 0-.2137.3127-.4222.6255-.636.9331a8.46 8.46 0 0 1 -4.1391 3.1277q3.3 4.2069 6.3963 8.4137c3.7586-.9331 6.7769-2.7368 8.664-5.5413.2137-.3128.4326-.6256.6516-.9331 3.8732-5.6092 16.5563-5.6092 27.3054 0 .6.3075 1.1938.62 1.7828.9331 15.6389 8.3407 30.7564 8.3407 40.0876 0l1.0426-.9331c6.2555-5.6092 18.96-5.6092 27.3106 0l1.3867.9331c12.2087 8.3407 27.3315 8.3407 40.0824 0 .48-.3128.9591-.6256 1.4439-.9331 8.6744-5.6092 21.3731-5.6092 27.3055 0l.9956.9331c8.7578 8.3407 23.8858 8.3407 40.0824 0 .61-.3128 1.22-.6256 1.835-.9331 11.0775-5.6092 23.7606-5.6092 27.3106 0 .1981.3075.4014.62.5943.9331a15.49 15.49 0 0 0 1.5169 1.934q3.8889-5.2391 8.0384-10.478c-6.3389-6.7456-25.0951-6.2087-40.5776 1.5326z" fill-rule="evenodd"/><path d="m125.0534 2452.0983c-11.4111-18.6363-21.837-37.2934-33.9311-55.9141h35.2083c-1.1521 18.6207-1.5222 37.2778-1.2772 55.9141zm-57.3163-111.88h-42.9495a308.827 308.827 0 0 1 48.7463 55.9141c-1.1365-18.6418-3.0288-37.2781-5.7968-55.9144zm6.9592 83.9285c-5.3954 9.3207-10.8272 18.6415-16.6084 27.957h16.7336q.1771-13.976-.1252-27.9622zm-1.1572-27.9571c-5.2912 9.3208-10.4 18.6415-15.6389 27.9571h16.8118q-.3285-13.9759-1.1729-27.9623zm17.969 27.9571c-5.5309 9.3207-10.9889 18.6415-16.6814 27.957h16.7283q.0522-13.976-.0469-27.9622zm-.3858-27.9571c-5.6716 9.3208-11.0306 18.6415-16.426 27.9571h16.8118q-.099-13.9759-.3858-27.9623zm-33.2586 27.9519c-5.26 9.3207-10.6657 18.6415-16.525 27.957h16.7283q.2921-13.971-.2033-27.9573zm-1.934-27.9571c-4.9262 9.3208-9.7795 18.6207-14.909 27.9571h16.8326q-.5212-13.9759-1.95-27.9571zm54.736-55.9662h-21.4565a313.562 313.562 0 0 1 20.2784 27.957q.4848-13.9811 1.1729-27.957zm-1.1729 28.0092h-19.0898c6.6882 9.3207 12.6726 18.6415 18.3443 27.957q.2816-13.9707.7611-27.957zm22.619-28.0092h-21.43c6.6882 9.3155 12.5111 18.6363 17.9378 27.957q1.4491-13.9811 3.5083-27.957zm-3.5136 28.0092h-19.09c6.047 9.3207 11.5311 18.6415 16.8222 27.957q.8653-13.9707 2.2833-27.957zm-38.2526 0c-6.047 9.3207-11.531 18.6415-16.8222 27.957h17.5833q-.2816-13.9707-.7611-27.957zm-1.1364-28.0092c-6.683 9.3155-12.5111 18.6363-17.9378 27.957h19.0846q-.4743-13.9811-1.1729-27.957zm85.8938 0h-42.9756c11.5363 18.6363 20.3305 37.2726 29.4219 55.9141a298.7383 298.7383 0 0 1 13.5537-55.9141zm-16.2384 83.9285h-16.8378c5.2547 9.3207 10.6657 18.6415 16.5251 27.957q-.4222-13.976.2867-27.9623zm2.7-27.9571h-17.62c4.9106 9.3208 9.7638 18.6415 14.8829 27.9571q.7246-13.9759 2.7-27.9623zm-19.5485 27.9571h-16.8375c5.3954 9.3207 10.8325 18.6415 16.6084 27.957q-.2972-13.976.2085-27.9623zm1.9236-27.9571h-17.6091c5.2912 9.3208 10.4259 18.6415 15.6389 27.9571q.5212-13.9759 1.9444-27.9623z" fill-rule="evenodd"/></g><g fill-rule="evenodd"><path d="m100 5724.9556v76.795a269.8965 269.8965 0 0 1 -53.2161-5.1775c17.0236-22.5782 35.1198-46.0193 53.2161-71.6175z" fill="#ffd400"/><path d="m153.2165 5718.4836v78.09a269.8792 269.8792 0 0 1 -53.2165 5.177c18.0962-25.5984 36.1925-52.9225 53.2165-83.267z" fill="#ffd400"/><path d="m199.9994 5699.0675v81.9725c-13.8071 6.9035-29.7588 12.0811-46.7829 15.5329a684.4 684.4 0 0 0 46.7829-97.5054z" fill="#ffd400"/><path d="m22.185 5949.5167v39.8543c-7.8417-.971-15.2814-2.1035-22.1849-3.3979 6.9035-12.3679 14.3432-24.4661 22.1849-36.4564z" fill="#2baee5"/><path d="m100 5955.3419v38.3981c-9.0481 0-18.0963-.1618-27.01-.4854 8.9134-12.5298 17.9616-25.1135 27.01-37.9127z" fill="#ffd400"/><path d="m72.9889 5993.2544v-38.56c8.9143.4314 17.9625.6471 27.0108.6473-9.0483 12.7993-18.0965 25.383-27.0108 37.9127z" fill="#2baee5"/><path d="m46.7825 5991.7981v-39.0452c8.5121.8629 17.2922 1.51 26.2064 1.9417-8.9142 12.4218-17.6943 24.7354-26.2064 37.1035z" fill="#00a03a"/><path d="m46.7832 5796.5729v-78.09a217.9175 217.9175 0 0 0 53.2168 6.4727c-18.0965 25.5981-36.1928 49.0393-53.2168 71.6173z" fill="#00a03a"/><path d="m0 5781.04v-81.973c13.8072 8.63 29.7589 15.1016 46.7831 19.4164-17.0241 21.715-32.9758 42.1357-46.7831 62.5566z" fill="#00a03a"/><path d="m153.2165 5718.4836v-78.09a151.158 151.158 0 0 0 46.7829-23.2993 693.6089 693.6089 0 0 1 -46.7829 101.3893z" fill="#ffd400"/><path d="m46.7837 5718.4836v-78.09a183.648 183.648 0 0 0 53.217 7.7663c-18.0964 25.5989-36.1929 48.6084-53.217 70.3237z" fill="#ffd400"/><path d="m.0008 5699.0675v-81.9729a151.1591 151.1591 0 0 0 46.7829 23.2993c-17.0237 20.8523-32.9758 39.9787-46.7829 58.6736z" fill="#ffd400"/><path d="m200 5617.0941v81.9729c-13.8071 8.6294-29.7587 15.1017-46.7827 19.4163a693.6067 693.6067 0 0 0 46.7827-101.3892z" fill="#2baee5"/><path d="m22.1854 5909.6628v39.8541c-7.8418-1.2945-15.2814-2.8046-22.1849-4.53 6.9035-11.9369 14.3432-23.6575 22.1849-35.3241z" fill="#2baee5"/><path d="m46.7834 5913.7078q0 19.5225 0 39.045c-8.5121-.8629-16.7561-1.9415-24.598-3.2359 7.8418-11.9903 16.0859-23.8727 24.598-35.8091z" fill="#2baee5"/><path d="m100 5916.944v38.3979c-9.0481 0-18.0962-.2159-27.01-.6473 8.9139-12.4217 17.962-24.9514 27.01-37.7506z" fill="#00a03a"/><path d="m46.7829 6030.8433v-39.0451c8.5121.6472 17.2922 1.1326 26.2064 1.4562-8.9142 12.5296-17.6943 25.0056-26.2064 37.5889z" fill="#ffd400"/><path d="m22.185 6029.2252v-39.8542c7.8419.9707 16.0858 1.78 24.5979 2.4272-8.512 12.3678-16.756 24.7895-24.5979 37.427z" fill="#ffd400"/><path d="m0 6026.96v-40.9868c6.9035 1.2945 14.3431 2.427 22.1848 3.3979-7.8415 12.3138-15.2811 24.7896-22.1848 37.5889z" fill="#2baee5"/><path d="m100 5878.5461v-76.7955a269.8792 269.8792 0 0 0 53.2167-5.1775c-17.0242 29.4817-35.1205 56.3744-53.2167 81.973z" fill="#ffd400"/><path d="m.0008 5863.0132v-81.9732c13.8072 6.9034 29.759 12.0811 46.7832 15.5328-17.024 22.5785-32.976 44.2936-46.7832 66.4404z" fill="#ffd400"/><path d="m153.2165 5562.3044v-78.09a140.9769 140.9769 0 0 0 46.7829-31.0656 720.1586 720.1586 0 0 1 -46.7829 109.1556z" fill="#ffd400"/><path d="m100.0007 5571.3651v-76.7951a141.6487 141.6487 0 0 0 53.2158-10.3551 733.2353 733.2353 0 0 1 -53.2158 87.1502z" fill="#ffd400"/><path d="m46.7837 5562.3044v-78.09a141.6493 141.6493 0 0 0 53.217 10.3551c-18.0964 25.5986-36.1929 47.7454-53.217 67.7349z" fill="#00a03a"/><path d="m.0008 5535.1219v-81.973a140.9734 140.9734 0 0 0 46.7829 31.0656c-17.0237 19.1265-32.9758 35.6641-46.7829 50.9074z" fill="#ffd400"/><path d="m100.0007 5801.7506v76.7955a357.1867 357.1867 0 0 1 -53.2167-3.8832c17.0241-23.441 35.1204-47.3137 53.2167-72.9123z" fill="#2baee5"/><path d="m200 5781.04v81.9731c-13.807 5.1777-29.7585 9.0609-46.7823 11.65a678.64 678.64 0 0 0 46.7823-93.6231z" fill="#00a03a"/><path d="m100 5993.74v38.398c-9.0482 0-18.0965-.1079-27.0108-.3237 8.9143-12.6376 17.9626-25.2751 27.0108-38.0743z" fill="#00a03a"/><path d="m46.7837 5562.3044v78.09a151.1613 151.1613 0 0 1 -46.7829-23.2998c13.8071-16.9689 29.7592-34.801 46.7829-54.7902z" fill="#ffd400"/><path d="m100 5571.3651v76.7949a183.6487 183.6487 0 0 1 -53.2161-7.7663c17.0236-20.8521 35.1198-43.4302 53.2161-69.0286z" fill="#ffd400"/><path d="m153.2165 5562.3044v78.09a183.6489 183.6489 0 0 1 -53.2165 7.7656 786.8307 786.8307 0 0 0 53.2165-85.8556z" fill="#ffd400"/><path d="m199.9994 5535.1219v81.9727a151.1514 151.1514 0 0 1 -46.7829 23.2993 705.6785 705.6785 0 0 0 46.7829-105.272z" fill="#ffd400"/><path d="m22.185 5869.8086v39.8541c-7.8417-1.6182-15.2814-3.5058-22.185-5.6627 6.9036-11.5052 14.3433-22.8484 22.185-34.1914z" fill="#2baee5"/><path d="m72.9893 5877.5753v38.56c-8.9142-.5394-17.6943-1.3485-26.2064-2.427 8.5121-11.9368 17.2922-23.9271 26.2064-36.133z" fill="#ffd400"/><path d="m72.9889 5916.1349v-38.56c8.9143.6473 17.9625.9708 27.0108.9709-9.0483 12.7995-18.0965 25.2753-27.0108 37.5891z" fill="#2baee5"/><path d="m127.0105 5954.6946v38.56c-8.9141.3236-17.9622.4854-27.01.4854 9.0478-12.7994 18.0959-25.7606 27.01-39.0454z" fill="#2baee5"/><path d="m153.2169 5952.7528v39.0452c-8.5121.6473-17.2923 1.1328-26.2064 1.4564 8.9142-13.1769 17.6943-26.6235 26.2064-40.5016z" fill="#ffd400"/><path d="m200 5944.9865v40.9868c-6.9035 1.2943-14.3432 2.427-22.185 3.3978 7.8416-14.2556 15.2813-28.9966 22.185-44.3846z" fill="#ffd400"/><path d="m177.8144 5989.3711v-39.8542c7.842-1.2944 15.2817-2.8046 22.1854-4.53-6.9037 15.3877-14.3435 30.1286-22.1854 44.3842z" fill="#2baee5"/><path d="m177.8148 5949.5168v-39.854c7.8419-1.6181 15.2817-3.5058 22.1853-5.6632-6.9036 15.8196-14.3434 30.9381-22.1853 45.5172z" fill="#ffd400"/><path d="m100 5955.3419v-38.3979c9.0483 0 18.0966-.27 27.0108-.8091-8.9141 13.3927-17.9624 26.4077-27.0108 39.207z" fill="#ffd400"/><path d="m153.2174 5913.7079v39.045c-8.5122.863-17.2922 1.51-26.2065 1.9417 8.9143-13.2846 17.6943-26.8931 26.2065-40.9867z" fill="#2baee5"/><path d="m177.8152 5909.6627v39.854c-7.8419 1.2945-16.0858 2.3732-24.5978 3.2362 8.512-13.878 16.7559-28.1875 24.5978-43.0902z" fill="#00a03a"/><path d="m177.8148 6029.2253v-39.8542c7.8418-.9709 15.2815-2.1036 22.185-3.3978-6.9035 14.9567-14.3432 29.32-22.185 43.252z" fill="#ffd400"/><path d="m153.2169 6030.8432v-39.0452c8.5121-.6472 16.7561-1.4562 24.5979-2.4269-7.8419 14.2554-16.0859 28.0257-24.5979 41.4721z" fill="#ffd400"/><path d="m200 5985.9731v40.9869c-6.9036.8629-14.3434 1.618-22.1853 2.2653 7.842-13.932 15.2818-28.2953 22.1853-43.2522z" fill="#00a03a"/><path d="m127.0105 5877.5753v38.56c-8.9141.5394-17.9622.809-27.01.809 9.0478-12.7996 18.0959-25.8685 27.01-39.369z" fill="#2baee5"/><path d="m177.8148 5869.8087v39.8541c-7.8419 1.618-16.0859 2.9665-24.5979 4.045 8.5121-14.0938 16.7561-28.6728 24.5979-43.8991z" fill="#ffd400"/><path d="m177.8144 5909.6628v-39.854a200.8172 200.8172 0 0 0 22.1856-6.7957c-6.9039 16.2511-14.3437 31.7469-22.1856 46.6497z" fill="#2baee5"/><path d="m22.185 6108.9334v39.854c-7.8417.3236-15.2814.7012-22.1849 1.1327 6.9035-14.0937 14.3432-27.7021 22.1849-40.9867z" fill="#2baee5"/><path d="m100 6108.9335v38.3979c-9.0481 0-18.0963.0539-27.01.1618 8.9134-12.9611 17.9616-25.7604 27.01-38.5597z" fill="#ffd400"/><path d="m72.9889 6147.4931v-38.56h27.0111c-9.0486 12.7997-18.0968 25.599-27.0111 38.56z" fill="#2baee5"/><path d="m46.7825 6147.9786v-39.0451h26.2064c-8.9142 12.8532-17.6943 25.8143-26.2064 39.0451z" fill="#00a03a"/><path d="m100 6070.5356v38.3979h-27.01c8.9139-12.8535 17.962-25.5985 27.01-38.3979z" fill="#00a03a"/><path d="m22.185 6188.6417v-39.8543c7.8419-.3236 16.0858-.5932 24.5979-.8088-8.512 13.2307-16.756 26.7314-24.5979 40.6631z" fill="#ffd400"/><path d="m22.185 6029.2252v39.8541c-7.8417-.3237-15.2814-.7012-22.1849-1.1327 6.9035-13.2308 14.3432-26.084 22.1849-38.7214z" fill="#2baee5"/><path d="m72.9893 6031.8141v38.56c-8.9142-.108-17.6943-.27-26.2064-.4854 8.5121-12.7996 17.2922-25.4371 26.2064-38.0746z" fill="#ffd400"/><path d="m72.9889 6070.3737v-38.56c8.9143.2157 17.9625.3236 27.0108.3237-9.0483 12.7996-18.0965 25.491-27.0108 38.2363z" fill="#2baee5"/><path d="m153.2169 6108.9334v39.0451c-8.5121-.2157-17.2923-.3775-26.2064-.4854 8.9142-12.7454 17.6943-25.5446 26.2064-38.5597z" fill="#ffd400"/><path d="m200 6108.9334v40.9866c-6.9035-.4315-14.3432-.809-22.185-1.1326 7.8416-12.961 15.2813-26.1917 22.185-39.854z" fill="#ffd400"/><path d="m177.8148 6108.9334v-39.8541c7.8419-.3236 15.2817-.7012 22.1853-1.1327-6.9036 14.0934-14.3434 27.7021-22.1853 40.9868z" fill="#ffd400"/><path d="m100 6108.9335v-38.3979c9.0483 0 18.0966-.0539 27.0108-.1618-8.9141 12.9611-17.9624 25.7604-27.0108 38.5597z" fill="#ffd400"/><path d="m153.2174 6069.8884v39.0451c-8.5122 0-17.2922 0-26.2065 0 8.9143-12.8535 17.6943-25.8143 26.2065-39.0451z" fill="#2baee5"/><path d="m177.8152 6069.0793v39.8541c-7.8419 0-16.0858 0-24.5978 0 8.512-13.015 16.7559-26.2458 24.5978-39.8541z" fill="#00a03a"/><path d="m153.2169 6187.0236v-39.0451c8.5121.2157 16.7561.4853 24.5979.809-7.8419 12.9611-16.0859 25.6525-24.5979 38.2361z" fill="#ffd400"/><path d="m127.0105 6031.8142v38.56c-8.9141.1079-17.9622.1618-27.01.1618 9.0478-12.7996 18.0959-25.6529 27.01-38.7218z" fill="#2baee5"/><path d="m177.8148 6029.2253v39.854c-7.8419.3236-16.0859.5933-24.5979.8089 8.5121-13.2307 16.7561-26.7311 24.5979-40.6629z" fill="#ffd400"/><path d="m100 6262.5251v38.3979c-9.0481 0-18.0963.27-27.01.809 8.9134-13.3926 17.9616-26.4076 27.01-39.2069z" fill="#ffd400"/><path d="m46.7825 6304.1591v-39.0451c8.5121-.863 17.2922-1.51 26.2064-1.9417-8.9142 13.2847-17.6943 26.893-26.2064 40.9868z" fill="#00a03a"/><path d="m46.7834 6226.0688q0 19.5225 0 39.045c-8.5121.8629-16.7561 1.9416-24.598 3.2361 7.8418-14.5791 16.0859-28.6189 24.598-42.2811z" fill="#2baee5"/><path d="m22.185 6188.6417v39.8541c-7.8417.9708-15.2814 2.1035-22.1849 3.3978 6.9035-14.9566 14.3432-29.3201 22.1849-43.2519z" fill="#2baee5"/><path d="m72.9893 6186.053v38.56c-8.9142.3235-17.6943.8089-26.2064 1.4562 8.5121-13.6626 17.2922-26.9474 26.2064-40.0162z" fill="#ffd400"/><path d="m72.9889 6224.6127v-38.56c8.9143-.2157 17.9625-.3236 27.0108-.3235-9.0483 12.7994-18.0965 25.7066-27.0108 38.8835z" fill="#2baee5"/><path d="m127.0105 6263.1723v38.56c-8.9141-.5393-17.9622-.8089-27.01-.8089 9.0478-12.7997 18.0959-25.3294 27.01-37.7511z" fill="#2baee5"/><path d="m100 6300.9043v38.3979c-9.0481 0-18.0962.3236-27.01.9707 8.9139-13.5004 17.962-26.5693 27.01-39.3686z" fill="#00a03a"/><path d="m200 6272.88v40.9867c-6.9035-2.1574-14.3432-4.045-22.185-5.663 7.8416-11.6665 15.2813-23.3871 22.185-35.3237z" fill="#ffd400"/><path d="m100 6262.5251v-38.3978c9.0483 0 18.0966.1617 27.0108.4854-8.9141 12.5295-17.9624 25.1131-27.0108 37.9124z" fill="#ffd400"/><path d="m153.2174 6226.0689v39.045c-8.5122-.8629-17.2922-1.51-26.2065-1.9416 8.9143-12.4218 17.6943-24.7357 26.2065-37.1034z" fill="#2baee5"/><path d="m153.2169 6343.2041v-39.0452c8.5121 1.0787 16.7561 2.427 24.5979 4.045-7.8419 11.6667-16.0859 23.2796-24.5979 35.0002z" fill="#ffd400"/><path d="m127.0105 6186.0529v38.56c-8.9141-.3235-17.9622-.4853-27.01-.4853 9.0478-12.7996 18.0959-25.4371 27.01-38.0747z" fill="#2baee5"/><path d="m177.8148 6188.6417v39.8541c-7.8419-.9708-16.0859-1.78-24.5979-2.427 8.5121-12.3679 16.7561-24.7897 24.5979-37.4271z" fill="#ffd400"/><path d="m46.7825 6460.34v-39.0451a256.5082 256.5082 0 0 1 26.2064-3.8834c-8.9142 13.7158-17.6943 27.9714-26.2064 42.9285z" fill="#00a03a"/><path d="m22.185 6348.0583v39.8541a180.3026 180.3026 0 0 0 -22.185 7.9282c6.9036-16.6825 14.3433-32.5561 22.185-47.7823z" fill="#2baee5"/><path d="m72.9893 6340.2918v38.56c-8.9142.755-17.6943 1.8877-26.2064 3.3978 8.5121-14.5255 17.2922-28.4574 26.2064-41.9578z" fill="#ffd400"/><path d="m153.2169 6421.2942v39.0451a230.0461 230.0461 0 0 0 -26.2064-4.3685c8.9142-11.8825 17.6943-23.3874 26.2064-34.6766z" fill="#ffd400"/><path d="m100 6416.1167v-38.3979c9.0483 0 18.0966.3776 27.0108 1.1327-8.9141 12.0985-17.9624 24.4659-27.0108 37.2652z" fill="#ffd400"/><path d="m177.8152 6387.9124v39.854a214.7055 214.7055 0 0 0 -24.5978-6.472c8.512-11.2892 16.7559-22.3625 24.5978-33.382z" fill="#00a03a"/><path d="m127.0105 6340.2917v38.56c-8.9141-.755-17.9622-1.1326-27.01-1.1326 9.0478-12.7991 18.0959-25.2213 27.01-37.4274z" fill="#2baee5"/><path d="m34.2329 6463.6159v19.7046q-6.1579 1.9215-12.0477 4.2271 5.8814-12.2691 12.0477-23.9317z" fill="#ffd400"/><path d="m46.7832 6518.8977v19.5223q-6.3839 1.78-12.55 4.0045 6.1576-12.0767 12.55-23.5268z" fill="#00a03a"/><path d="m100 6492.9125v19.199q-6.786 0-13.5554.4247 6.761-10.0342 13.5554-19.6237z" fill="#ffd400"/><path d="m46.7832 6499.3846v-19.5226q6.3841-1.5372 12.9526-2.69-6.5601 10.8434-12.9526 22.2126z" fill="#ffd400"/><path d="m72.99 6475.2506v19.28q-6.6856.809-13.254 2.0225 6.5598-10.904 13.254-21.3025z" fill="#2baee5"/><path d="m34.2329 6542.4344v19.7046q-6.1579 2.3259-12.0477 5.117 5.8814-12.7546 12.0477-24.8216z" fill="#ffd400"/><path d="m46.7832 6577.475v-19.5226q6.3841-1.8607 12.9526-3.2563-6.5601 11.0861-12.9526 22.7789z" fill="#ffd400"/><path d="m86.4449 6550.9747v19.2192q-6.7611.4852-13.4551 1.4562 6.6857-10.6108 13.4551-20.6754z" fill="#00a03a"/><path d="m127.0109 6475.2507q0 9.64 0 19.28-6.6857-.8089-13.4551-1.2135 6.7611-9.2052 13.4551-18.0665z" fill="#2baee5"/><path d="m165.7674 6503.0251q0 9.8523 0 19.7046-6.1578-2.1235-12.55-3.8225 6.384-8.0624 12.55-15.8821z" fill="#2baee5"/><path d="m153.2172 6518.8977v19.5223q-6.384-1.78-12.9523-3.1146 6.56-8.3554 12.9523-16.4077z" fill="#00a03a"/><path d="m200 6518.8008v20.4934q-5.1776-3.3978-10.7406-6.3709 5.5548-7.122 10.7406-14.1225z" fill="#ffd400"/><path d="m153.2172 6499.3846v-19.5226q6.3842 1.5372 12.55 3.4586-6.1572 7.9308-12.55 16.064z" fill="#ffd400"/><path d="m177.8152 6487.5477v19.927q-5.8814-2.427-12.0476-4.4495 6.1578-7.8298 12.0476-15.4775z" fill="#2baee5"/><path d="m165.7674 6463.6159q0 9.8523 0 19.7046-6.1578-1.9213-12.55-3.4585 6.384-8.2241 12.55-16.2461z" fill="#2baee5"/><path d="m127.0105 6590.93v-19.28q6.6857.9708 13.254 2.427-6.56 8.2344-13.254 16.853z" fill="#00a03a"/><path d="m113.5556 6531.7555v19.2192q-6.761-.4651-13.5555-.4652 6.7862-9.5995 13.5555-18.754z" fill="#2baee5"/><path d="m140.2647 6535.3151v19.381q-6.56-1.3954-13.254-2.3259 6.6857-8.7096 13.254-17.0551z" fill="#ffd400"/><path d="m153.2172 6577.475v-19.5226q6.3842 1.8607 12.55 4.1867-6.1572 7.5264-12.55 15.3359z" fill="#ffd400"/><path d="m165.7674 6542.4344q0 9.8523 0 19.7046-6.1578-2.3259-12.55-4.1866 6.384-7.9005 12.55-15.518z" fill="#2baee5"/><path d="m34.2329 6601.5482v19.7046q-6.1579 2.6293-12.0477 5.7845 5.8814-13.1187 12.0477-25.4891z" fill="#ffd400"/><path d="m72.99 6668.05q0-9.64 0-19.28 6.6856-1.1325 13.4552-1.6989-6.7616 10.1756-13.4552 20.9789z" fill="#ffd400"/><path d="m86.4447 6589.4131v19.2192q-6.7611.5257-13.4552 1.5775 6.6857-10.6916 13.4552-20.7967z" fill="#ffd400"/><path d="m127.0105 6648.77v-19.28q6.6857 1.0922 13.254 2.73-6.56 8.0524-13.254 16.55z" fill="#00a03a"/><path d="m113.5556 6589.4131v19.2192q-6.761-.5259-13.5555-.5259 6.7862-9.5994 13.5555-18.6933z" fill="#2baee5"/><path d="m177.8152 6627.0374v19.9271q-5.8814-3.2764-12.0476-6.0069 6.1578-7.122 12.0476-13.9202z" fill="#2baee5"/><path d="m127.0105 6725.8891v-19.28q6.6857 1.2539 13.254 3.1349-6.56 7.8097-13.254 16.1451z" fill="#00a03a"/><path d="m113.5556 6666.29v19.2192q-6.761-.6068-13.5555-.6068 6.7862-9.5994 13.5555-18.6124z" fill="#2baee5"/><path d="m46.7832 5640.3937v-78.09a159.4882 159.4882 0 0 0 53.2168 9.0614c-18.0965 25.5982-36.1928 48.1765-53.2168 69.0286z" fill="#00a03a"/><path d="m153.2182 5640.3934v-78.09a143.9621 143.9621 0 0 0 46.7818-27.1821 705.6815 705.6815 0 0 1 -46.7818 105.2721z" fill="#2baee5"/><path d="m100.0007 5724.9556v-76.7956a183.6462 183.6462 0 0 0 53.2158-7.7663 854.19 854.19 0 0 1 -53.2158 84.5619z" fill="#2baee5"/></g></svg>