<svg xmlns="http://www.w3.org/2000/svg" width="470" height="398" fill="none"><path fill="#fff" d="M106.238 117.634H.864v-25.69h12.855V25.75H.864V.06h105.445v39.167H79.965V25.75H47.51v19.584h30.418v25.691H47.51v20.918h32.455V78.466h26.344v39.168h-.071Zm67.862 0h-58.097v-25.69h14.191V25.75h-14.191V.06h59.502v25.69h-11.521v20.286h12.153c15.525 0 25.009-7.44 25.009-20.286H191.03V.06h56.059v25.69h-14.19c0 17.549-12.153 32.43-24.307 39.168 3.372 18.25 13.84 27.025 36.811 25.691l25.712-64.859h-8.782V.06h66.246l35.125 91.813h12.153v25.691h-59.502V91.873h9.484l-2.669-8.774h-39.2l-2.669 8.774h10.818v25.691h-23.393c-40.534 0-45.873 0-60.696-6.107-14.19-6.107-25.009-20.918-30.418-39.87h-13.488v20.286h10.116v25.761h-.14Zm118.581-60.086h20.935L302.797 29.19l-10.116 28.358Zm-118.23 198.439h-58.448v-25.972h13.839v-66.333h-13.839v-24.919h71.866c31.401 0 47.278 17.127 47.278 38.957 0 12.706-6.885 26.885-21.216 34.817 2.108 12.705 13.207 17.548 26.906 17.548h21.918v-66.333h-18.616v-24.919h70.671v24.919h-18.616v66.333h18.616v25.972h-75.519c-34.211 0-50.439-13.267-58.377-38.185h-16.649v12.213h10.116v25.902h.07Zm-10.116-63.736h15.806c10.608 0 19.319-3.721 19.319-14.32 0-11.231-8.711-14.32-19.319-14.32h-15.806v28.64Zm-58.097 24.778H79.895v13.477H47.439v-20.917h30.419v-25.691H47.439v-19.585h32.456v13.478h26.343v-39.169H.864v25.691h12.855v66.193H.864v25.692h105.445v-39.169h-.071ZM356.328.199v38.467h25.008V25.82h14.191v66.193h-12.153v25.691h59.501v-25.69H430.02V25.82h14.19v12.846h25.711V.199H356.328Zm51.844 163.412h14.331v42.398l-47.278-67.316h-50.51v24.918h13.839v66.334h-13.839v25.972h61.047v-25.972h-13.769v-40.783l46.225 66.825h37.724v-92.376h12.785v-24.918h-60.555v24.918ZM109.189 358.892c0 17.478-12.785 35.026-37.654 35.026H.864v-25.48h12.223v-66.334H.864v-25.971h62.382c24.095 0 35.897 15.372 35.897 31.868 0 7.44-2.67 14.881-9.062 21.76 13.769 6.317 19.108 17.478 19.108 29.131Zm-61.61-36.572h9.063c7.446 0 11.17-4.773 11.17-10.108 0-5.334-3.724-10.108-11.17-10.108H47.58v20.216Zm28.171 35.027c0-5.826-4.777-11.652-12.223-11.652H47.58v22.813h15.385c7.938-.07 12.785-5.896 12.785-11.161Zm335.794-31.657h56.691v43.871c-7.938 14.881-25.992 26.463-53.108 26.463-15.947 0-28.662-4.282-35.547-9.546-25.571 15.513-70.25 12.284-86.056-30.815H278.35v12.705h10.397v25.48h-58.448v-25.48h14.542v-66.334h-20.934v44.082c0 32.921-23.393 50.961-53.671 50.961-26.554 0-53.671-15.934-53.671-50.961v-44.082h-11.17v-25.972h59.502v25.972h-12.715v45.627c0 13.266 10.116 20.707 19.67 20.707 9.554 0 18.616-6.879 18.616-20.707v-45.627h-15.385v-25.972h125.326c31.401 0 47.278 17.128 47.278 38.958 0 12.776-6.955 27.025-21.426 34.957 6.041 17.619 24.306 21.128 33.087 12.635-4.215-8.494-5.83-18.04-5.83-27.586 0-31.518 19.599-60.999 59.993-60.999 23.323 0 37.443 6.668 48.683 16.004v27.516h-29.716l-.14-12.284c-4.566-2.807-9.905-4.141-16.649-4.141-17.633 0-28.171 12.494-28.171 33.412 0 19.093 11.17 33.342 28.171 33.834 9.062 0 16.017-1.895 22.831-7.862v-9.827h-26.976V325.69Zm-98.49-9.266c0-11.231-8.711-14.32-19.319-14.32H278.28v28.64h15.455c10.537.07 19.319-3.721 19.319-14.32Z"/></svg>